<svg width="116" height="728" viewBox="0 0 116 728" fill="none" xmlns="http://www.w3.org/2000/svg">
<path d="M97.846 58.7837C103.045 36.7291 89.4021 14.6306 67.373 9.42529C45.3439 4.21995 23.2708 17.8789 18.0715 39.9334C12.8721 61.988 26.5154 84.0865 48.5445 89.2918C70.5736 94.4971 92.6467 80.8382 97.846 58.7837Z" fill="#E9E9E9"/>
<path d="M57.9652 81.1256C75.4832 81.1256 89.6843 66.9081 89.6843 49.37C89.6843 31.8318 75.4832 17.6143 57.9652 17.6143C40.4472 17.6143 26.2461 31.8318 26.2461 49.37C26.2461 66.9081 40.4472 81.1256 57.9652 81.1256Z" fill="#2E5053"/>
<g clip-path="url(#clip0_206_1415)">
<path d="M69.2915 41.5629L56.4321 54.4336L51.6535 49.655L53.2426 48.0659L56.4321 51.2554L67.7024 39.9851L69.2915 41.5629ZM58.0212 58.2655C53.0511 58.2655 49.005 54.2194 49.005 49.2493C49.005 44.2791 53.0511 40.2331 58.0212 40.2331C59.7907 40.2331 61.4474 40.7515 62.8449 41.6418L64.4791 40.0077C62.642 38.7341 60.4218 37.979 58.0212 37.979C51.8001 37.979 46.751 43.0281 46.751 49.2493C46.751 55.4704 51.8001 60.5195 58.0212 60.5195C59.971 60.5195 61.808 60.0236 63.4084 59.1445L61.7179 57.454C60.5909 57.9724 59.3399 58.2655 58.0212 58.2655ZM65.9104 52.6303H62.5293V54.8844H65.9104V58.2655H68.1645V54.8844H71.5455V52.6303H68.1645V49.2493H65.9104V52.6303Z" fill="white"/>
</g>
<path d="M73.6428 210.233C94.5543 201.561 104.485 177.56 95.8228 156.624C87.1609 135.688 63.1871 125.747 42.2756 134.418C21.3642 143.09 11.4339 167.092 20.0957 188.027C28.7575 208.963 52.7314 218.905 73.6428 210.233Z" fill="#E9E9E9"/>
<path d="M57.9584 204.082C75.4764 204.082 89.6775 189.864 89.6775 172.326C89.6775 154.788 75.4764 140.57 57.9584 140.57C40.4404 140.57 26.2393 154.788 26.2393 172.326C26.2393 189.864 40.4404 204.082 57.9584 204.082Z" fill="#2E5053"/>
<path d="M65.0992 164.508H60.2858C59.8022 163.172 58.5355 162.205 57.0385 162.205C55.5416 162.205 54.2749 163.172 53.7912 164.508H48.9779C47.7112 164.508 46.6748 165.544 46.6748 166.811V182.932C46.6748 184.199 47.7112 185.235 48.9779 185.235H65.0992C66.3659 185.235 67.4023 184.199 67.4023 182.932V166.811C67.4023 165.544 66.3659 164.508 65.0992 164.508ZM57.0385 164.508C57.6719 164.508 58.1901 165.026 58.1901 165.659C58.1901 166.293 57.6719 166.811 57.0385 166.811C56.4052 166.811 55.887 166.293 55.887 165.659C55.887 165.026 56.4052 164.508 57.0385 164.508ZM54.7355 180.629L50.1294 176.023L51.753 174.399L54.7355 177.37L62.324 169.782L63.9477 171.417L54.7355 180.629Z" fill="white"/>
<path d="M57.9588 327.995C80.5932 327.995 98.942 309.626 98.942 286.965C98.942 264.305 80.5932 245.935 57.9588 245.935C35.3244 245.935 16.9756 264.305 16.9756 286.965C16.9756 309.626 35.3244 327.995 57.9588 327.995Z" fill="#E9E9E9"/>
<path d="M57.9584 318.72C75.4764 318.72 89.6775 304.503 89.6775 286.965C89.6775 269.426 75.4764 255.209 57.9584 255.209C40.4404 255.209 26.2393 269.426 26.2393 286.965C26.2393 304.503 40.4404 318.72 57.9584 318.72Z" fill="#2E5053"/>
<path d="M65.5953 276.55H60.9526C60.4861 275.254 59.2643 274.315 57.8204 274.315C56.3765 274.315 55.1548 275.254 54.6883 276.55H50.0456C48.8238 276.55 47.8242 277.555 47.8242 278.784V294.425C47.8242 295.654 48.8238 296.66 50.0456 296.66H65.5953C66.8171 296.66 67.8167 295.654 67.8167 294.425V278.784C67.8167 277.555 66.8171 276.55 65.5953 276.55ZM57.8204 276.55C58.4313 276.55 58.9311 277.053 58.9311 277.667C58.9311 278.282 58.4313 278.784 57.8204 278.784C57.2096 278.784 56.7098 278.282 56.7098 277.667C56.7098 277.053 57.2096 276.55 57.8204 276.55ZM57.8204 281.019C59.6642 281.019 61.1525 282.516 61.1525 284.37C61.1525 286.225 59.6642 287.722 57.8204 287.722C55.9767 287.722 54.4884 286.225 54.4884 284.37C54.4884 282.516 55.9767 281.019 57.8204 281.019ZM64.4846 294.425H51.1563V292.861C51.1563 290.627 55.5991 289.398 57.8204 289.398C60.0418 289.398 64.4846 290.627 64.4846 292.861V294.425Z" fill="white"/>
<path d="M86.9385 435.034C102.943 419.01 102.943 393.031 86.9385 377.008C70.9336 360.985 44.9844 360.985 28.9795 377.008C12.9746 393.031 12.9746 419.011 28.9795 435.034C44.9844 451.057 70.9336 451.057 86.9385 435.034Z" fill="#E9E9E9"/>
<path d="M57.9613 437.775C75.4793 437.775 89.6804 423.558 89.6804 406.019C89.6804 388.481 75.4793 374.264 57.9613 374.264C40.4433 374.264 26.2422 388.481 26.2422 406.019C26.2422 423.558 40.4433 437.775 57.9613 437.775Z" fill="#2E5053"/>
<path d="M65.2446 400.524H51.7693C50.287 400.524 49.0742 401.737 49.0742 403.219V416.695C49.0742 418.177 50.287 419.39 51.7693 419.39H65.2446C66.7269 419.39 67.9396 418.177 67.9396 416.695V403.219C67.9396 401.737 66.7269 400.524 65.2446 400.524ZM59.8545 417.368H57.1594V415.347H59.8545V417.368ZM59.8545 413.999H57.1594C57.1594 411.978 53.7906 409.957 53.7906 407.262C53.7906 404.661 55.9062 402.545 58.5069 402.545C61.1077 402.545 63.2233 404.661 63.2233 407.262C63.2233 409.957 59.8545 411.978 59.8545 413.999ZM66.5921 398.503H50.4217C50.4217 397.384 51.3246 396.482 52.443 396.482H64.5708C65.6893 396.482 66.5921 397.384 66.5921 398.503ZM65.2446 394.46H51.7693C51.7693 393.342 52.6721 392.439 53.7906 392.439H63.2233C64.3417 392.439 65.2446 393.342 65.2446 394.46Z" fill="white"/>
<path d="M73.6428 575.563C94.5543 566.891 104.485 542.89 95.8228 521.954C87.1609 501.018 63.1871 491.077 42.2757 499.749C21.3642 508.42 11.4339 532.422 20.0957 553.357C28.7575 574.293 52.7314 584.235 73.6428 575.563Z" fill="#E9E9E9"/>
<path d="M57.9593 569.416C75.4773 569.416 89.6785 555.199 89.6785 537.66C89.6785 520.122 75.4773 505.905 57.9593 505.905C40.4414 505.905 26.2402 520.122 26.2402 537.66C26.2402 555.199 40.4414 569.416 57.9593 569.416Z" fill="#2E5053"/>
<path d="M70.27 528.55V530.778H66.9277V534.121H64.6994V530.778H61.357V528.55H64.6994V525.208H66.9277V528.55H70.27ZM66.9277 544.148H51.3298V528.55H58.0146V526.322H51.3298C50.1043 526.322 49.1016 527.324 49.1016 528.55V544.148C49.1016 545.373 50.1043 546.376 51.3298 546.376H66.9277C68.1532 546.376 69.1559 545.373 69.1559 544.148V537.463H66.9277V544.148ZM62.4711 537.463V541.919H64.6994V537.463H62.4711ZM58.0146 541.919H60.2429V533.006H58.0146V541.919ZM55.7863 541.919V535.235H53.5581V541.919H55.7863Z" fill="white"/>
<path d="M86.9385 698.303C102.943 682.28 102.943 656.301 86.9385 640.278C70.9335 624.254 44.9844 624.254 28.9795 640.278C12.9746 656.301 12.9746 682.28 28.9795 698.303C44.9844 714.327 70.9336 714.327 86.9385 698.303Z" fill="#E9E9E9"/>
<path d="M57.9613 701.045C75.4793 701.045 89.6804 686.827 89.6804 669.289C89.6804 651.751 75.4793 637.533 57.9613 637.533C40.4433 637.533 26.2422 651.751 26.2422 669.289C26.2422 686.827 40.4433 701.045 57.9613 701.045Z" fill="#2E5053"/>
<path d="M67.7806 670.228C67.88 667.634 66.9582 664.984 64.9203 662.946C62.9346 660.96 60.748 660.489 60.6191 660.433L60.6154 660.434C55.5347 659.03 52.028 662.135 51.9617 662.165C47.3167 665.812 46.9576 672.662 51.0811 676.785C51.5087 677.213 51.965 677.592 52.4433 677.923V677.719C52.4433 675.522 53.7239 673.62 55.5774 672.718C54.7695 672.03 54.2555 671.007 54.2555 669.866C54.2555 667.801 55.9356 666.121 58.0007 666.121C60.0658 666.121 61.7459 667.801 61.7459 669.866C61.7459 671.007 61.2319 672.031 60.4239 672.718C60.9975 672.997 61.516 673.372 61.9589 673.822C63.0332 671.694 65.2391 670.231 67.7806 670.228Z" fill="white"/>
<path d="M61.401 675.416C60.6614 674.327 59.4135 673.611 58.0013 673.611C55.7362 673.611 53.8936 675.454 53.8936 677.718V678.751C56.3538 679.888 59.1737 679.937 61.6441 678.949C61.3977 678.262 61.2632 677.522 61.2632 676.752C61.2632 676.294 61.3108 675.847 61.401 675.416Z" fill="white"/>
<path d="M58.0005 672.161C59.2683 672.161 60.296 671.134 60.296 669.866C60.296 668.598 59.2683 667.57 58.0005 667.57C56.7328 667.57 55.7051 668.598 55.7051 669.866C55.7051 671.134 56.7328 672.161 58.0005 672.161Z" fill="white"/>
<path d="M67.787 671.678C64.9847 671.678 62.7129 673.95 62.7129 676.752C62.7129 679.555 64.9847 681.827 67.787 681.827C70.5894 681.827 72.8612 679.555 72.8612 676.752C72.8612 673.95 70.5894 671.678 67.787 671.678Z" fill="white"/>
<path d="M67.9316 674.446L63.6015 681.946L72.2618 681.946L67.9316 674.446Z" fill="#2E5053"/>
<defs>
<clipPath id="clip0_206_1415">
<rect width="27.0486" height="27.0486" fill="white" transform="translate(44.4971 35.7251)"/>
</clipPath>
</defs>
</svg>
