<svg width="390" height="300" viewBox="0 0 390 300" fill="none" xmlns="http://www.w3.org/2000/svg">
<path d="M60.2014 401.004L56.4492 399.387C95.2134 333.071 155.555 272.594 226.358 229.096C259.245 208.891 297.484 194.823 334.464 181.217C348.073 176.211 362.145 171.033 375.676 165.646C425.903 145.647 471.848 118.011 512.232 83.5054C552.684 48.9413 590.865 7.89225 625.715 -38.5014C637.558 -54.2678 646.195 -66.6554 653.724 -78.666L657.421 -76.9582C649.838 -64.8602 641.148 -52.3978 629.243 -36.5483C594.231 10.0623 555.859 51.3125 515.193 86.0587C474.461 120.861 428.115 148.738 377.442 168.914C363.855 174.324 349.754 179.512 336.117 184.529C299.343 198.058 261.317 212.048 228.8 232.025C158.542 275.189 98.6652 335.2 60.2014 401.002V401.004Z" fill="url(#paint0_radial_206_1222)"/>
<path d="M62.6331 405.94L58.8809 404.323C97.645 338.007 157.987 277.531 228.789 234.032C261.676 213.827 299.916 199.759 336.896 186.153C350.504 181.147 364.576 175.969 378.108 170.582C428.334 150.583 474.279 122.947 514.663 88.4415C555.117 53.8763 593.298 12.8283 628.147 -33.5654C639.988 -49.3297 648.627 -61.7172 656.156 -73.73L659.853 -72.0221C652.269 -59.9231 643.578 -47.4597 631.674 -31.6122C596.662 14.9983 558.292 56.2485 517.625 90.9958C476.892 125.798 430.546 153.675 379.873 173.851C366.287 179.261 352.185 184.449 338.549 189.466C301.775 202.995 263.749 216.985 231.232 236.962C160.974 280.126 101.097 340.137 62.6331 405.939V405.94Z" fill="url(#paint1_radial_206_1222)"/>
<path d="M65.0637 410.876L61.3115 409.259C100.076 342.943 160.418 282.466 231.22 238.968C264.107 218.763 302.346 204.695 339.327 191.089C352.935 186.083 367.007 180.906 380.538 175.518C430.765 155.519 476.71 127.883 517.094 93.3775C557.548 58.8123 595.728 17.7643 630.577 -28.6293C642.419 -44.3936 651.057 -56.7812 658.586 -68.7939L662.283 -67.0861C654.699 -54.987 646.009 -42.5236 634.105 -26.6762C599.093 19.9344 560.723 61.1845 520.055 95.9319C479.323 130.734 432.977 158.611 382.304 178.787C368.718 184.197 354.616 189.385 340.979 194.402C304.205 207.931 266.179 221.921 233.663 241.898C163.405 285.062 103.527 345.073 65.0625 410.875L65.0637 410.876Z" fill="url(#paint2_radial_206_1222)"/>
<path d="M67.4934 415.811L63.7412 414.194C102.505 347.878 162.847 287.402 233.65 243.903C266.537 223.698 304.776 209.63 341.756 196.024C355.365 191.018 369.437 185.841 382.968 180.453C433.195 160.454 479.14 132.818 519.524 98.3126C559.978 63.7474 598.158 22.6994 633.007 -23.6943C644.848 -39.4586 653.487 -51.8461 661.016 -63.8589L664.713 -62.1511C657.129 -50.052 648.439 -37.5886 636.535 -21.7411C601.523 24.8694 563.152 66.1196 522.485 100.867C481.753 135.669 435.407 163.546 384.734 183.722C371.147 189.132 357.046 194.32 343.409 199.337C306.635 212.866 268.609 226.856 236.092 246.833C165.834 289.997 105.957 350.008 67.4922 415.81L67.4934 415.811Z" fill="url(#paint3_radial_206_1222)"/>
<path d="M69.9241 420.747L66.1719 419.13C104.936 352.814 165.278 292.337 236.081 248.839C268.967 228.634 307.207 214.566 344.187 200.96C357.795 195.954 371.867 190.777 385.399 185.389C435.625 165.39 481.57 137.754 521.954 103.249C562.408 68.6834 600.589 27.6354 635.438 -18.7583C647.279 -34.5225 655.918 -46.9101 663.447 -58.9229L667.144 -57.215C659.56 -45.1159 650.87 -32.6526 638.965 -16.8051C603.953 29.8055 565.583 71.0556 524.916 105.803C484.183 140.605 437.837 168.482 387.164 188.658C373.578 194.068 359.477 199.256 345.84 204.273C309.066 217.802 271.04 231.792 238.523 251.769C168.265 294.933 108.388 354.944 69.9241 420.746V420.747Z" fill="url(#paint4_radial_206_1222)"/>
<path d="M72.3547 425.684L68.6025 424.066C107.367 357.75 167.709 297.274 238.511 253.775C271.398 233.57 309.637 219.502 346.618 205.897C360.226 200.89 374.298 195.713 387.829 190.325C438.057 170.326 484.001 142.689 524.385 108.184C564.838 73.6195 603.019 32.5705 637.868 -13.8232C649.71 -29.5875 658.349 -41.9751 665.877 -53.9878L669.574 -52.28C661.99 -40.1809 653.3 -27.7175 641.396 -11.87C606.385 34.7405 568.012 75.9917 527.346 110.737C486.614 145.54 440.268 173.416 389.595 193.593C376.009 199.003 361.907 204.191 348.27 209.208C311.496 222.737 273.47 236.727 240.954 256.704C170.696 299.868 110.819 359.879 72.3547 425.682V425.684Z" fill="url(#paint5_radial_206_1222)"/>
<path d="M74.7864 430.62L71.0342 429.002C109.798 362.686 170.14 302.209 240.943 258.711C273.83 238.506 312.069 224.438 349.049 210.833C362.658 205.826 376.73 200.649 390.261 195.261C440.489 175.262 486.433 147.625 526.817 113.12C567.269 78.5556 605.451 37.5065 640.3 -8.88716C652.141 -24.6514 660.78 -37.039 668.309 -49.0518L672.006 -47.3439C664.422 -35.2448 655.732 -22.7815 643.828 -6.93399C608.817 39.6766 570.444 80.9278 529.778 115.673C489.046 150.476 442.7 178.352 392.027 198.529C378.44 203.939 364.339 209.127 350.702 214.144C313.928 227.673 275.902 241.663 243.385 261.64C173.127 304.804 113.25 364.815 74.7864 430.618V430.62Z" fill="url(#paint6_radial_206_1222)"/>
<path d="M77.2161 435.556L73.4639 433.938C112.228 367.623 172.57 307.146 243.372 263.647C276.259 243.442 314.499 229.374 351.479 215.769C365.087 210.762 379.159 205.585 392.691 200.197C442.919 180.198 488.862 152.561 529.246 118.056C569.699 83.4916 607.881 42.4425 642.73 -3.95112C654.571 -19.7154 663.21 -32.103 670.739 -44.1157L674.436 -42.4079C666.852 -30.3088 658.161 -17.8454 646.257 -1.99796C611.247 44.6126 572.874 85.8638 532.208 120.609C491.475 155.412 445.129 183.288 394.456 203.465C380.87 208.875 366.768 214.063 353.132 219.08C316.358 232.609 278.332 246.599 245.815 266.576C175.557 309.74 115.68 369.752 77.2148 435.554L77.2161 435.556Z" fill="url(#paint7_radial_206_1222)"/>
<path d="M79.6467 440.492L75.8945 438.874C114.659 372.559 175.001 312.081 245.803 268.583C278.69 248.378 316.929 234.31 353.91 220.705C367.518 215.698 381.59 210.521 395.121 205.133C445.349 185.134 491.293 157.497 531.677 122.992C572.13 88.4276 610.311 47.3786 645.16 0.984913C657.002 -14.7794 665.64 -27.1669 673.169 -39.1797L676.866 -37.4719C669.282 -25.3728 660.592 -12.9094 648.688 2.93808C613.677 49.5486 575.304 90.7999 534.638 125.545C493.906 160.348 447.56 188.224 396.887 208.401C383.301 213.811 369.199 218.999 355.562 224.016C318.788 237.545 280.762 251.535 248.246 271.512C177.988 314.676 118.111 374.688 79.6467 440.49V440.492Z" fill="url(#paint8_radial_206_1222)"/>
<path d="M82.0774 445.428L78.3252 443.811C117.089 377.496 177.431 317.019 248.234 273.519C281.121 253.315 319.359 239.247 356.339 225.642C369.947 220.636 384.021 215.458 397.551 210.071C447.779 190.071 493.722 162.434 534.106 127.929C574.559 93.3651 612.741 52.3161 647.59 5.92241C659.431 -9.84188 668.07 -22.2294 675.599 -34.2422L679.296 -32.5344C671.712 -20.4353 663.022 -7.97189 651.118 7.87557C616.107 54.4861 577.734 95.7374 537.068 130.483C496.335 165.286 449.99 193.162 399.316 213.339C385.729 218.749 371.629 223.936 357.992 228.954C321.218 242.482 283.192 256.473 250.675 276.449C180.416 319.613 120.54 379.624 82.0762 445.426L82.0774 445.428Z" fill="url(#paint9_radial_206_1222)"/>
<path d="M84.5071 450.364L80.7549 448.747C119.519 382.432 179.861 321.954 250.664 278.455C283.55 258.251 321.789 244.183 358.769 230.578C372.377 225.572 386.45 220.394 399.98 215.007C450.208 195.007 496.152 167.37 536.536 132.865C576.989 98.3012 615.17 57.2521 650.019 10.8585C661.858 -4.90373 670.497 -17.2903 678.028 -29.3062L681.726 -27.5983C674.14 -15.4961 665.449 -3.03375 653.547 12.8116C618.536 59.4222 580.163 100.673 539.497 135.419C498.765 170.222 452.419 198.098 401.746 218.275C388.158 223.685 374.058 228.872 360.422 233.89C323.648 247.419 285.622 261.409 253.105 281.385C182.845 324.549 122.97 384.56 84.5059 450.362L84.5071 450.364Z" fill="url(#paint10_radial_206_1222)"/>
<path d="M86.9387 455.3L83.1865 453.683C121.951 387.368 182.291 326.891 253.095 283.391C285.982 263.187 324.22 249.119 361.2 235.514C374.809 230.508 388.882 225.33 402.412 219.943C452.64 199.943 498.584 172.306 538.968 137.801C579.42 103.237 617.602 62.1881 652.451 15.7945C664.29 0.0323048 672.929 -12.3542 680.46 -24.3701L684.157 -22.6623C676.572 -10.56 667.88 1.90229 655.979 17.7476C620.968 64.3582 582.595 105.609 541.929 140.355C501.197 175.158 454.851 203.034 404.178 223.211C390.59 228.621 376.49 233.808 362.853 238.826C326.079 252.355 288.053 266.345 255.537 286.321C185.277 329.486 125.401 389.496 86.9375 455.298L86.9387 455.3Z" fill="url(#paint11_radial_206_1222)"/>
<path d="M89.3694 460.236L85.6172 458.619C124.381 392.304 184.722 331.827 255.526 288.327C288.412 268.124 326.65 254.056 363.629 240.451C377.238 235.444 391.311 230.266 404.843 224.879C455.071 204.879 501.016 177.242 541.398 142.738C581.851 108.174 620.033 67.1252 654.882 20.7315C666.721 4.96931 675.359 -7.41721 682.891 -19.4331L686.588 -17.7253C679.003 -5.62304 670.311 6.84035 658.409 22.6847C623.399 69.2952 585.026 110.546 544.36 145.292C503.627 180.094 457.282 207.971 406.608 228.147C393.021 233.557 378.919 238.745 365.281 243.763C328.509 257.292 290.483 271.282 257.967 291.258C187.708 334.423 127.832 394.433 89.3682 460.235L89.3694 460.236Z" fill="url(#paint12_radial_206_1222)"/>
<path d="M91.8001 465.172L88.0479 463.555C126.812 397.24 187.153 336.763 257.956 293.263C290.842 273.06 329.08 258.992 366.059 245.387C379.669 240.381 393.742 235.202 407.273 229.815C457.501 209.814 503.446 182.178 543.829 147.674C584.282 113.11 622.464 72.0612 657.312 25.6675C669.151 9.90535 677.79 -2.48117 685.321 -14.4971L689.018 -12.7892C681.433 -0.687001 672.742 11.7753 660.84 27.6207C625.829 74.2312 587.456 115.482 546.79 150.228C506.058 185.03 459.712 212.907 409.039 233.083C395.451 238.493 381.35 243.681 367.712 248.699C330.939 262.228 292.913 276.218 260.398 296.194C190.138 339.359 130.263 399.369 91.7988 465.171L91.8001 465.172Z" fill="url(#paint13_radial_206_1222)"/>
<path d="M94.2297 470.107L90.4775 468.49C129.242 402.175 189.582 341.698 260.386 298.198C293.272 277.995 331.51 263.927 368.489 250.322C382.099 245.315 396.172 240.137 409.703 234.75C459.931 214.751 505.876 187.114 546.259 152.609C586.711 118.045 624.893 76.9962 659.742 30.6026C671.581 14.8404 680.22 2.45389 687.751 -9.56201L691.448 -7.85418C683.863 4.24806 675.171 16.7104 663.27 32.5557C628.259 79.1663 589.886 120.418 549.22 155.163C508.488 189.965 462.142 217.842 411.469 238.018C397.881 243.428 383.78 248.617 370.142 253.634C333.369 267.163 295.343 281.153 262.828 301.129C192.568 344.294 132.692 404.304 94.2285 470.106L94.2297 470.107Z" fill="url(#paint14_radial_206_1222)"/>
<path d="M96.6604 475.043L92.9082 473.426C131.672 407.111 192.014 346.634 262.817 303.134C295.703 282.931 333.941 268.863 370.92 255.258C384.529 250.251 398.602 245.073 412.134 239.686C462.362 219.687 508.307 192.05 548.689 157.545C589.142 122.981 627.324 81.9323 662.173 35.5386C674.012 19.7764 682.65 7.38992 690.182 -4.62598L693.879 -2.91814C686.294 9.18409 677.602 21.6475 665.701 37.4918C630.69 84.1023 592.317 125.354 551.651 160.099C510.918 194.901 464.573 222.778 413.899 242.954C400.312 248.364 386.21 253.553 372.572 258.57C335.8 272.099 297.774 286.089 265.258 306.065C194.999 349.23 135.123 409.24 96.6592 475.042L96.6604 475.043Z" fill="url(#paint15_radial_206_1222)"/>
<path d="M99.092 479.979L95.3398 478.362C134.104 412.047 194.445 351.57 265.248 308.071C298.134 287.867 336.372 273.799 373.351 260.194C386.961 255.187 401.034 250.009 414.565 244.622C464.793 224.623 510.738 196.986 551.121 162.481C591.574 127.917 629.755 86.8683 664.604 40.4747C676.443 24.7125 685.082 12.326 692.613 0.310059L696.31 2.01789C688.725 14.1201 680.034 26.5835 668.132 42.4278C633.121 89.0384 594.748 130.29 554.082 165.035C513.35 199.837 467.004 227.714 416.331 247.89C402.743 253.3 388.642 258.489 375.004 263.506C338.231 277.035 300.205 291.025 267.69 311.001C197.43 354.166 137.555 414.176 99.0908 479.978L99.092 479.979Z" fill="url(#paint16_radial_206_1222)"/>
<path d="M101.523 484.915L97.7705 483.298C136.535 416.983 196.877 356.506 267.679 313.007C300.565 292.803 338.803 278.735 375.782 265.13C389.392 260.123 403.465 254.946 416.996 249.558C467.224 229.559 513.169 201.922 553.552 167.418C594.004 132.853 632.186 91.8044 667.035 45.4107C678.874 29.6485 687.513 17.262 695.044 5.24609L698.741 6.95393C691.156 19.0562 682.464 31.5196 670.563 47.3639C635.552 93.9744 597.179 135.226 556.513 169.971C515.781 204.773 469.435 232.65 418.762 252.826C405.174 258.236 391.073 263.425 377.435 268.442C340.662 281.971 302.636 295.961 270.121 315.937C199.861 359.102 139.985 419.112 101.52 484.914L101.523 484.915Z" fill="url(#paint17_radial_206_1222)"/>
<path d="M103.952 489.852L100.2 488.234C138.964 421.919 199.305 361.442 270.109 317.943C302.995 297.738 341.233 283.67 378.212 270.065C391.821 265.059 405.894 259.881 419.427 254.493C469.655 234.494 515.6 206.857 555.983 172.353C596.435 137.788 634.617 96.7394 669.466 50.3458C681.307 34.5804 689.946 22.1928 697.475 10.1812L701.172 11.889C693.589 23.987 684.898 36.4504 672.994 52.2989C637.983 98.9095 599.61 140.161 558.944 174.906C518.212 209.708 471.866 237.585 421.193 257.761C407.605 263.171 393.502 268.36 379.864 273.377C343.092 286.906 305.067 300.896 272.55 320.872C202.291 364.037 142.415 424.047 103.951 489.849L103.952 489.852Z" fill="url(#paint18_radial_206_1222)"/>
<path d="M106.383 494.788L102.631 493.17C141.395 426.854 201.737 366.378 272.539 322.879C305.425 302.674 343.663 288.606 380.642 275.001C394.252 269.995 408.325 264.817 421.858 259.429C472.086 239.43 518.03 211.793 558.413 177.289C598.867 142.723 637.048 101.674 671.897 55.2818C683.738 39.5165 692.377 27.1289 699.906 15.1172L703.603 16.825C696.02 28.923 687.328 41.3864 675.424 57.235C640.414 103.844 602.042 145.096 561.375 179.842C520.642 214.644 474.296 242.521 423.623 262.697C410.036 268.107 395.933 273.296 382.295 278.313C345.522 291.842 307.498 305.832 274.981 325.808C204.723 368.972 144.846 428.983 106.382 494.785L106.383 494.788Z" fill="url(#paint19_radial_206_1222)"/>
<path d="M108.815 499.724L105.062 498.106C143.827 431.79 204.169 371.313 274.971 327.815C307.857 307.61 346.095 293.542 383.074 279.938C396.684 274.931 410.757 269.753 424.289 264.365C474.517 244.366 520.462 216.729 560.845 182.225C601.299 147.659 639.479 106.61 674.328 60.2178C686.17 44.4525 694.808 32.0649 702.337 20.0532L706.034 21.7611C698.451 33.8591 689.76 46.3225 677.856 62.171C642.845 108.781 604.473 150.032 563.806 184.778C523.074 219.58 476.728 247.457 426.055 267.633C412.467 273.043 398.365 278.232 384.727 283.249C347.954 296.778 309.929 310.768 277.413 330.744C207.153 373.908 147.277 433.919 108.813 499.721L108.815 499.724Z" fill="url(#paint20_radial_206_1222)"/>
<path d="M111.244 504.66L107.492 503.042C146.256 436.726 206.598 376.25 277.401 332.751C310.287 312.546 348.525 298.478 385.503 284.874C399.113 279.867 413.186 274.689 426.719 269.301C476.947 249.302 522.892 221.665 563.275 187.161C603.729 152.596 641.909 111.546 676.758 65.1539C688.599 49.3885 697.238 37.0009 704.767 24.9893L708.464 26.6971C700.881 38.7951 692.19 51.2585 680.286 67.107C645.275 113.717 606.903 154.968 566.236 189.714C525.504 224.516 479.158 252.393 428.485 272.569C414.897 277.979 400.794 283.168 387.156 288.185C350.384 301.714 312.359 315.704 279.842 335.68C209.584 378.844 149.707 438.855 111.242 504.658L111.244 504.66Z" fill="url(#paint21_radial_206_1222)"/>
<path d="M113.675 509.596L109.923 507.979C148.687 441.663 209.029 381.185 279.831 337.687C312.717 317.483 350.955 303.415 387.934 289.81C401.544 284.803 415.617 279.625 429.15 274.237C479.376 254.238 525.321 226.602 565.705 192.097C606.158 157.533 644.339 116.484 679.189 70.0904C691.03 54.325 699.669 41.9375 707.198 29.9258L710.895 31.6336C703.312 43.7316 694.62 56.195 682.716 72.0435C647.704 118.654 609.333 159.905 568.667 194.651C527.934 229.453 481.588 257.33 430.915 277.506C417.328 282.916 403.225 288.104 389.587 293.122C352.814 306.65 314.79 320.641 282.273 340.617C212.013 383.781 152.138 443.792 113.674 509.594L113.675 509.596Z" fill="url(#paint22_radial_206_1222)"/>
<path d="M116.106 514.531L112.354 512.913C151.118 446.598 211.46 386.121 282.262 342.622C315.149 322.417 353.388 308.349 390.369 294.744C403.977 289.737 418.049 284.56 431.58 279.172C481.807 259.173 527.752 231.537 568.136 197.032C608.589 162.468 646.769 121.419 681.619 75.025C693.461 59.2596 702.099 46.872 709.628 34.8604L713.325 36.5682C705.742 48.6662 697.051 61.1296 685.147 76.9781C650.135 123.589 611.763 164.84 571.097 199.585C530.365 234.387 484.019 262.264 433.346 282.44C419.76 287.85 405.658 293.038 392.021 298.055C355.247 311.584 317.221 325.574 284.705 345.551C214.447 388.715 154.569 448.725 116.106 514.529V514.531Z" fill="url(#paint23_radial_206_1222)"/>
<path d="M118.537 519.468L114.785 517.851C153.549 451.536 213.89 391.059 284.694 347.559C317.581 327.355 355.82 313.287 392.8 299.681C406.409 294.674 420.481 289.497 434.012 284.11C484.239 264.11 530.184 236.474 570.568 201.969C611.02 167.405 649.201 126.356 684.051 79.9624C695.892 64.1971 704.531 51.8095 712.06 39.7979L715.757 41.5057C708.174 53.6037 699.483 66.0671 687.579 81.9156C652.567 128.526 614.195 169.777 573.529 204.523C532.797 239.325 486.451 267.202 435.778 287.378C422.191 292.788 408.09 297.975 394.453 302.993C357.679 316.521 319.653 330.512 287.136 350.489C216.877 393.653 157 453.664 118.537 519.466V519.468Z" fill="url(#paint24_radial_206_1222)"/>
<path d="M120.967 524.403L117.215 522.786C155.979 456.471 216.321 395.994 287.123 352.494C320.01 332.29 358.25 318.222 395.23 304.616C408.838 299.61 422.91 294.432 436.442 289.045C486.668 269.045 532.613 241.41 572.997 206.904C613.45 172.34 651.63 131.291 686.481 84.8975C698.322 69.1322 706.961 56.7446 714.49 44.7329L718.187 46.4407C710.604 58.5388 701.912 71.0022 690.008 86.8507C654.996 133.461 616.625 174.712 575.959 209.458C535.226 244.26 488.88 272.137 438.207 292.313C424.621 297.723 410.519 302.91 396.883 307.928C360.109 321.457 322.083 335.447 289.566 355.424C219.308 398.588 159.431 458.598 120.966 524.401L120.967 524.403Z" fill="url(#paint25_radial_206_1222)"/>
<path d="M123.398 529.339L119.646 527.722C158.41 461.407 218.75 400.93 289.554 357.43C322.441 337.226 360.68 323.158 397.661 309.552C411.269 304.546 425.341 299.368 438.872 293.981C489.099 273.982 535.044 246.346 575.428 211.84C615.881 177.276 654.061 136.227 688.911 89.8335C700.754 74.0672 709.391 61.6806 716.92 49.6689L720.617 51.3768C713.034 63.4748 704.344 75.9371 692.439 91.7867C657.427 138.397 619.055 179.648 578.389 214.394C537.657 249.196 491.311 277.073 440.638 297.249C427.052 302.659 412.95 307.846 399.313 312.864C362.539 326.393 324.513 340.383 291.997 360.36C221.737 403.524 161.86 463.535 123.398 529.337V529.339Z" fill="url(#paint26_radial_206_1222)"/>
<path d="M-97.0156 312.785L-100.99 313.886C-120.803 243.392 -120.29 164.099 -99.5469 90.614C-89.9125 56.481 -71.7989 23.5036 -54.2808 -8.38818C-47.8346 -20.1249 -41.1678 -32.2606 -35.0593 -44.2208C-12.381 -88.6196 1.51191 -135.884 6.2323 -184.701C10.961 -233.601 9.24509 -285.755 1.1324 -339.712C-1.62559 -358.049 -4.2868 -372.056 -7.49874 -385.128L-3.49671 -386.131C-0.262507 -372.964 2.41578 -358.872 5.18845 -340.439C13.3392 -286.229 15.061 -233.817 10.3081 -184.66C5.54551 -135.422 -8.46924 -87.7448 -31.3482 -42.9522C-37.4832 -30.9418 -44.1629 -18.7814 -50.6224 -7.02142C-68.0426 24.6927 -86.0561 57.4873 -95.5825 91.2355C-116.165 164.155 -116.674 242.837 -97.0156 312.785Z" fill="url(#paint27_linear_206_1222)"/>
<path d="M-91.3378 315.012L-95.3125 316.113C-115.126 245.619 -114.613 166.326 -93.8701 92.84C-84.2357 58.7071 -66.1222 25.7297 -48.6041 -6.16212C-42.1578 -17.8988 -35.4911 -30.0345 -29.3825 -41.9947C-6.70429 -86.3935 7.18864 -133.658 11.909 -182.475C16.6384 -231.376 14.9218 -283.529 6.80913 -337.486C4.05254 -355.821 1.39028 -369.828 -1.821 -382.901L2.18105 -383.905C5.41564 -370.736 8.09388 -356.644 10.8652 -338.213C19.0166 -284.003 20.7384 -231.592 15.9848 -182.434C11.2222 -133.196 -2.79251 -85.5188 -25.6715 -40.7261C-31.8065 -28.7157 -38.4862 -16.5553 -44.9457 -4.79535C-62.3658 26.9188 -80.3793 59.7134 -89.9057 93.4616C-110.488 166.382 -110.997 245.063 -91.3378 315.012Z" fill="url(#paint28_linear_206_1222)"/>
<path d="M-85.6611 317.237L-89.6358 318.338C-109.448 247.845 -108.936 168.552 -88.1931 95.067C-78.5587 60.9341 -60.4451 27.9567 -42.927 -3.93511C-36.4807 -15.6718 -29.814 -27.8075 -23.7055 -39.7677C-1.02721 -84.1665 12.8657 -131.431 17.5861 -180.248C22.3154 -229.149 20.5989 -281.302 12.4863 -335.259C9.72966 -353.594 7.06739 -367.601 3.85611 -380.674L7.85816 -381.678C11.0927 -368.509 13.771 -354.417 16.5423 -335.986C24.6937 -281.776 26.4155 -229.364 21.6619 -180.207C16.8993 -130.969 2.88457 -83.2917 -19.9944 -38.4991C-26.1294 -26.4887 -32.8091 -14.3283 -39.2686 -2.56838C-56.6888 29.1458 -74.7023 61.9404 -84.2287 95.6886C-104.811 168.608 -105.32 247.29 -85.6611 317.237Z" fill="url(#paint29_linear_206_1222)"/>
<path d="M-79.9844 319.464L-83.959 320.565C-103.772 250.072 -103.259 170.778 -82.5156 97.2932C-72.8812 63.1602 -54.7677 30.1828 -37.2496 -1.70898C-30.8033 -13.4457 -24.1366 -25.5814 -18.028 -37.5416C4.65023 -81.9404 18.5432 -129.205 23.2635 -178.022C27.9929 -226.923 26.2763 -279.076 18.1636 -333.033C15.4071 -351.368 12.7448 -365.375 9.53349 -378.448L13.5355 -379.452C16.7701 -366.283 19.4484 -352.191 22.2197 -333.76C30.3711 -279.55 32.0929 -227.138 27.3393 -177.98C22.5767 -128.743 8.562 -81.0656 -14.317 -36.273C-20.452 -24.2626 -27.1316 -12.1022 -33.5912 -0.34222C-51.0113 31.3719 -69.0248 64.1665 -78.5513 97.9147C-99.1334 170.834 -99.6432 249.516 -79.9844 319.464Z" fill="url(#paint30_linear_206_1222)"/>
<path d="M-74.3066 321.69L-78.2813 322.792C-98.0943 252.298 -97.5817 173.005 -76.8389 99.5187C-67.2045 65.3858 -49.0909 32.4084 -31.5728 0.51657C-25.1266 -11.2201 -18.4598 -23.3559 -12.3513 -35.316C10.327 -79.7148 24.2199 -126.979 28.9403 -175.796C33.6696 -224.697 31.9531 -276.85 23.8405 -330.808C21.0838 -349.143 18.4216 -363.149 15.2103 -376.223L19.2114 -377.227C22.4459 -364.058 25.1242 -349.966 27.8955 -331.535C36.0468 -277.325 37.7687 -224.913 33.0151 -175.755C28.2525 -126.518 14.2378 -78.8406 -8.64122 -34.0479C-14.7762 -22.0375 -21.4559 -9.87711 -27.9155 1.88281C-45.3356 33.597 -63.3491 66.3916 -72.8755 100.14C-93.4563 173.061 -93.9654 251.742 -74.3066 321.69Z" fill="url(#paint31_linear_206_1222)"/>
<path d="M-68.6288 323.917L-72.6035 325.018C-92.4166 254.524 -91.9039 175.232 -71.1618 101.746C-61.5274 67.6133 -43.4138 34.6359 -25.8957 2.74408C-19.4494 -8.99261 -12.7827 -21.1284 -6.67416 -33.0885C16.0041 -77.4873 29.896 -124.752 34.6174 -173.569C39.3471 -222.468 37.6319 -274.623 29.5175 -328.58C26.7609 -346.915 24.0987 -360.922 20.8874 -373.995L24.8894 -374.998C28.124 -361.83 30.8022 -347.738 33.5736 -329.307C41.7249 -275.097 43.4462 -222.684 38.6932 -173.527C33.9316 -124.289 19.9169 -76.612 -2.96311 -31.8199C-9.09811 -19.8095 -15.7778 -7.6491 -22.2373 4.11084C-39.6575 35.825 -57.671 68.6196 -67.1974 102.368C-87.7786 175.288 -88.2883 253.969 -68.6288 323.917Z" fill="url(#paint32_linear_206_1222)"/>
<path d="M-62.9531 326.144L-66.9278 327.245C-86.7399 256.751 -86.2276 177.457 -65.4844 103.972C-55.85 69.8394 -37.7364 36.862 -20.2184 4.97022C-13.7721 -6.76647 -7.10531 -18.9022 -0.996789 -30.8624C21.6815 -75.2612 35.5734 -122.526 40.2948 -171.343C45.0245 -220.242 43.3093 -272.397 35.1949 -326.354C32.4383 -344.689 29.776 -358.696 26.5647 -371.769L30.5658 -372.773C33.8004 -359.604 36.4786 -345.512 39.2499 -327.081C47.4013 -272.872 49.1225 -220.459 44.3696 -171.302C39.608 -122.063 25.5932 -74.3864 2.71327 -29.5943C-3.42173 -17.5839 -10.1014 -5.42347 -16.561 6.33648C-33.9811 38.0506 -51.9946 70.8452 -61.521 104.593C-82.1022 177.513 -82.6109 256.195 -62.9531 326.144Z" fill="url(#paint33_linear_206_1222)"/>
<path d="M-57.2754 328.37L-61.2501 329.471C-81.0632 258.977 -80.5505 179.684 -59.8067 106.198C-50.1723 72.0655 -32.0587 39.0881 -14.5407 7.19628C-8.09438 -4.54041 -1.42762 -16.6761 4.68092 -28.6363C27.3592 -73.0351 41.2511 -120.3 45.9725 -169.117C50.7022 -218.016 48.987 -270.171 40.8726 -324.128C38.116 -342.463 35.4538 -356.47 32.2425 -369.543L36.2445 -370.546C39.4791 -357.377 42.1573 -343.286 44.9287 -324.855C53.08 -270.645 54.8013 -218.232 50.0483 -169.075C45.2867 -119.837 31.272 -72.1599 8.39199 -27.3677C2.25699 -15.3573 -4.42268 -3.19691 -10.8823 8.56304C-28.3024 40.2772 -46.3159 73.0718 -55.8423 106.82C-76.4251 179.74 -76.9342 258.421 -57.2754 328.37Z" fill="url(#paint34_linear_206_1222)"/>
<path d="M-51.5986 330.596L-55.5733 331.697C-75.3864 261.203 -74.8737 181.911 -54.1315 108.425C-44.4971 74.2925 -26.3835 41.3151 -8.86546 9.42326C-2.41919 -2.31342 4.24757 -14.4492 10.3561 -26.4093C33.0344 -70.8081 46.9263 -118.073 51.6477 -166.89C56.3773 -215.789 54.6622 -267.944 46.5478 -321.901C43.7912 -340.236 41.129 -354.243 37.9177 -367.316L41.9187 -368.32C45.1533 -355.151 47.8315 -341.059 50.6028 -322.628C58.7542 -268.419 60.4754 -216.006 55.7225 -166.849C50.9609 -117.61 36.9461 -69.9333 14.0661 -25.1412C7.93113 -13.1308 1.25148 -0.970396 -5.20807 10.7895C-22.6282 42.5037 -40.6417 75.2983 -50.1681 109.047C-70.7483 181.967 -71.258 260.648 -51.5986 330.596Z" fill="url(#paint35_linear_206_1222)"/>
<path d="M-45.9219 332.823L-49.8966 333.924C-69.7097 263.43 -69.197 184.138 -48.4542 110.652C-38.8198 76.5186 -20.7052 43.5417 -3.18715 11.6499C3.2591 -0.0867749 9.92587 -12.2225 16.035 -24.1836C38.7133 -68.5824 52.6052 -115.847 57.3266 -164.664C62.0563 -213.563 60.3411 -265.718 52.2268 -319.675C49.4702 -338.01 46.8079 -352.017 43.5966 -365.09L47.5987 -366.094C50.8333 -352.925 53.5115 -338.833 56.2828 -320.402C64.4341 -266.192 66.1553 -213.779 61.4024 -164.622C56.6408 -115.384 42.6261 -67.7072 19.7461 -22.915C13.6111 -10.9046 6.93144 1.25578 0.471243 13.0166C-16.9489 44.7308 -34.9618 77.5245 -44.4892 111.272C-65.0716 184.194 -65.5807 262.875 -45.9219 332.823Z" fill="url(#paint36_linear_206_1222)"/>
<path d="M-40.2452 335.049L-44.2199 336.15C-64.0319 265.657 -63.5203 186.363 -42.7765 112.878C-33.1421 78.7447 -15.0275 45.7678 2.49057 13.876C8.93682 2.1393 15.6036 -9.99644 21.7128 -21.9575C44.391 -66.3563 58.2829 -113.621 63.0043 -162.438C67.734 -211.337 66.0188 -263.492 57.9045 -317.449C55.148 -335.78 52.4857 -349.787 49.2743 -362.864L53.2764 -363.868C56.5117 -350.696 59.1893 -336.603 61.9605 -318.176C70.1119 -263.966 71.8331 -211.553 67.0802 -162.396C62.3186 -113.158 48.3038 -65.4811 25.4238 -20.689C19.2888 -8.67856 12.6092 3.48186 6.14898 15.2427C-11.2712 46.9569 -29.284 79.7505 -38.8115 113.498C-59.3949 186.419 -59.9037 265.102 -40.2452 335.049Z" fill="url(#paint37_linear_206_1222)"/>
<path d="M-34.5674 337.275L-38.5421 338.376C-58.3548 267.884 -57.8431 188.591 -37.1003 115.104C-27.4659 80.9712 -9.35131 47.9943 8.16675 16.1025C14.613 4.36578 21.2798 -7.76994 27.3889 -19.731C50.0672 -64.1298 63.9591 -111.395 68.6805 -160.211C73.4102 -209.111 71.695 -261.266 63.5806 -315.223C60.8241 -333.554 58.1619 -347.561 54.9505 -360.638L58.9525 -361.641C62.1879 -348.469 64.8655 -334.377 67.6367 -315.949C75.788 -261.74 77.5093 -209.327 72.7563 -160.17C67.9947 -110.932 53.98 -63.2546 31.1 -18.4625C24.965 -6.45205 18.2853 5.70839 11.8251 17.4693C-5.59501 49.1834 -23.6079 81.977 -33.1353 115.725C-53.7177 188.646 -54.2269 267.327 -34.5674 337.275Z" fill="url(#paint38_linear_206_1222)"/>
<path d="M-28.8907 339.502L-32.8654 340.603C-52.6785 270.11 -52.1657 190.817 -31.423 117.331C-21.7882 83.1993 -3.6746 50.2218 13.8428 18.331C20.2897 6.59336 26.9565 -5.54242 33.0663 -17.5044C55.7452 -61.9042 69.6381 -109.168 74.3579 -157.985C79.0876 -206.884 77.3723 -259.039 69.258 -312.996C66.5015 -331.327 63.8392 -345.334 60.6278 -358.411L64.6299 -359.414C67.8652 -346.243 70.5428 -332.15 73.314 -313.723C81.4654 -259.513 83.1866 -207.1 78.4337 -157.943C73.6717 -108.706 59.657 -61.0294 36.7774 -16.2358C30.6424 -4.22543 23.9624 7.93734 17.5022 19.6982C0.0817215 51.4109 -17.9321 84.2041 -27.4579 117.951C-48.0404 190.873 -48.5501 269.555 -28.8907 339.502Z" fill="url(#paint39_linear_206_1222)"/>
<path d="M-23.2129 341.729L-27.1876 342.83C-47.0007 272.336 -46.488 193.043 -25.7452 119.557C-16.1104 85.4253 2.00312 52.4479 19.5205 20.557C25.9674 8.81942 32.6342 -3.31634 38.744 -15.2783C61.4229 -59.6781 75.3158 -106.942 80.0356 -155.759C84.7653 -204.658 83.05 -256.813 74.9357 -310.77C72.1792 -329.101 69.517 -343.108 66.3056 -356.185L70.3076 -357.188C73.5429 -344.017 76.2205 -329.924 78.9917 -311.497C87.1431 -257.287 88.8643 -204.874 84.1114 -155.717C79.3494 -106.48 65.3347 -58.8033 42.4551 -14.0098C36.3201 -1.99937 29.6402 10.1634 23.18 21.9243C5.76047 53.6375 -12.2524 86.4312 -21.7782 120.178C-42.3626 193.099 -42.8724 271.781 -23.2129 341.729Z" fill="url(#paint40_linear_206_1222)"/>
<path d="M-17.5361 343.954L-21.5108 345.055C-41.3235 274.563 -40.8119 195.27 -20.0691 121.783C-10.4343 87.6518 7.6793 54.6744 25.1967 22.7835C31.6436 11.0459 38.3104 -1.08981 44.4202 -13.0518C67.0991 -57.4515 80.992 -104.716 85.7118 -153.532C90.4414 -202.432 88.7262 -254.586 80.6119 -308.543C77.8554 -326.875 75.1932 -340.882 71.9818 -353.958L75.9838 -354.962C79.2191 -341.79 81.8967 -327.698 84.6679 -309.27C92.8193 -255.061 94.5405 -202.648 89.7876 -153.491C85.0256 -104.254 71.0109 -56.5768 48.1313 -11.7833C41.9963 0.227147 35.3163 12.3899 28.8561 24.1508C11.4356 55.8635 -6.57662 88.6563 -16.103 122.404C-36.6865 195.326 -37.1946 274.007 -17.5361 343.954Z" fill="url(#paint41_linear_206_1222)"/>
<path d="M-11.8594 346.181L-15.8341 347.282C-35.6462 276.789 -35.1345 197.496 -14.3917 124.009C-4.75693 89.878 13.3567 56.9006 30.8741 25.0097C37.321 13.2721 43.9877 1.13629 50.0975 -10.8257C72.7764 -55.2254 86.6694 -102.49 91.3891 -151.306C96.1188 -200.206 94.4036 -252.36 86.2893 -306.317C83.5327 -324.649 80.8705 -338.655 77.6591 -351.732L81.6602 -352.736C84.8955 -339.564 87.5731 -325.472 90.3443 -307.044C98.4956 -252.835 100.217 -200.422 95.4639 -151.265C90.7019 -102.028 76.6872 -54.3512 53.8076 -9.55763C47.6726 2.45279 40.9927 14.6156 34.5325 26.3764C17.113 58.0896 -0.899895 90.8833 -10.4257 124.631C-31.0091 197.552 -31.5182 276.232 -11.8594 346.181Z" fill="url(#paint42_linear_206_1222)"/>
<path d="M-6.18165 348.408L-10.1563 349.509C-29.9694 279.015 -29.4567 199.722 -8.71394 126.236C0.920832 92.1045 19.0338 59.128 36.5512 27.2372C42.9981 15.4995 49.6648 3.3638 55.7747 -8.59822C78.4536 -52.9979 92.3465 -100.262 97.0663 -149.079C101.796 -197.978 100.081 -250.133 91.9664 -304.09C89.2098 -322.421 86.5477 -336.428 83.3363 -349.505L87.3383 -350.508C90.5736 -337.337 93.2512 -323.244 96.0224 -304.816C104.174 -250.607 105.895 -198.194 101.142 -149.037C96.3791 -99.8007 82.3643 -52.1237 59.4853 -7.33106C53.3504 4.67933 46.6704 16.8421 40.2102 28.603C22.7907 60.3162 4.77787 93.1099 -4.7479 126.857C-25.3314 199.778 -25.8411 278.46 -6.18165 348.408Z" fill="url(#paint43_linear_206_1222)"/>
<path d="M-0.505911 350.633L-4.48063 351.734C-24.2933 281.242 -23.78 201.948 -3.03784 128.463C6.59694 94.3315 24.7105 61.3541 42.2279 29.4632C48.6748 17.7256 55.3416 5.58987 61.4514 -6.37212C84.1303 -50.7718 98.0232 -98.0362 102.743 -146.853C107.473 -195.752 105.757 -247.907 97.6431 -301.864C94.8866 -320.195 92.2243 -334.202 89.0129 -347.279L93.015 -348.282C96.2503 -335.11 98.9279 -321.018 101.699 -302.59C109.851 -248.381 111.572 -195.968 106.819 -146.811C102.056 -97.5746 88.0411 -49.8976 65.1615 -5.10406C59.0265 6.90636 52.3465 19.0692 45.8863 30.83C28.4668 62.5432 10.454 95.3369 0.928193 129.084C-19.6553 202.005 -20.1644 280.686 -0.505911 350.633Z" fill="url(#paint44_linear_206_1222)"/>
<path d="M5.17098 352.86L1.19629 353.961C-18.6158 283.468 -18.1041 204.175 2.63868 130.689C12.2724 96.5567 30.3864 63.5806 47.9028 31.6893C54.3497 19.9517 61.0171 7.81495 67.1263 -4.14611C89.8052 -48.5459 103.698 -95.8102 108.418 -144.627C113.148 -193.526 111.432 -245.68 103.318 -299.638C100.56 -317.973 97.8981 -331.98 94.6878 -345.053L98.6899 -346.056C101.924 -332.889 104.602 -318.796 107.374 -300.364C115.525 -246.155 117.247 -193.742 112.494 -144.585C107.733 -95.3485 93.7186 -47.6716 70.838 -2.87845C64.7023 9.13289 58.023 21.2947 51.5628 33.0556C34.1433 64.7688 16.1305 97.5625 6.60472 131.31C-13.9787 204.231 -14.4878 282.912 5.17098 352.86Z" fill="url(#paint45_linear_206_1222)"/>
<path d="M10.8487 355.086L6.874 356.188C-12.9391 285.694 -12.4264 206.401 8.31638 132.915C17.9501 98.7828 36.0641 65.8068 53.5805 33.9154C60.0274 22.1778 66.6948 10.0411 72.804 -1.91999C95.4829 -46.3197 109.376 -93.5841 114.096 -142.4C118.824 -191.303 117.109 -243.455 108.996 -297.412C106.238 -315.747 103.576 -329.754 100.366 -342.827L104.368 -343.83C107.602 -330.663 110.279 -316.57 113.052 -298.138C121.202 -243.929 122.926 -191.518 118.171 -142.359C113.409 -93.122 99.3947 -45.445 76.5151 -0.651424C70.3794 11.3599 63.7001 23.5218 57.2399 35.2826C39.8204 66.9958 21.8076 99.7895 12.2818 133.537C-8.30105 206.457 -8.81014 285.138 10.8487 355.086Z" fill="url(#paint46_linear_206_1222)"/>
<path d="M16.5264 357.313L12.5517 358.414C-7.26136 287.92 -6.74968 208.627 13.9935 135.142C23.6272 101.01 41.7412 68.0342 59.2576 36.1429C65.7045 24.4053 72.3719 12.2686 78.4811 0.307481C101.16 -44.0922 115.053 -91.3566 119.773 -140.173C124.502 -189.075 122.786 -241.228 114.673 -295.184C111.915 -313.52 109.253 -327.526 106.043 -340.599L110.044 -341.603C113.278 -328.436 115.956 -314.343 118.728 -295.911C126.878 -241.702 128.602 -189.291 123.847 -140.132C119.087 -90.8954 105.072 -43.2184 82.1928 1.57514C76.0572 13.5865 69.3778 25.7483 62.9176 37.5092C45.4981 69.2224 27.4853 102.016 17.9595 135.763C-2.62433 208.683 -3.13305 287.365 16.5264 357.313Z" fill="url(#paint47_linear_206_1222)"/>
<path d="M22.2021 359.54L18.2274 360.641C-1.58501 290.146 -1.07229 210.853 19.6709 137.368C29.3046 103.236 47.4186 70.2603 64.935 38.369C71.3819 26.6314 78.0493 14.4947 84.1585 2.53362C106.837 -41.8661 120.73 -89.1305 125.45 -137.947C130.179 -186.849 128.463 -239.001 120.35 -292.958C117.593 -311.294 114.93 -325.3 111.72 -338.373L115.722 -339.376C118.956 -326.209 121.634 -312.117 124.406 -293.685C132.557 -239.476 134.28 -187.064 129.526 -137.905C124.764 -88.6684 110.749 -40.9914 87.8695 3.80219C81.7339 15.8135 75.0546 27.9754 68.5944 39.7362C51.1749 71.4494 33.162 104.243 23.6363 137.99C3.05306 210.909 2.54331 289.591 22.2021 359.54Z" fill="url(#paint48_linear_206_1222)"/>
<path d="M27.8799 361.766L23.9052 362.867C4.09218 292.373 4.60486 213.08 25.3476 139.594C34.9814 105.462 53.0953 72.486 70.6117 40.5946C77.0586 28.857 83.7261 16.7203 89.8352 4.75921C112.513 -39.6396 126.406 -86.904 131.127 -135.721C135.855 -184.621 134.14 -236.775 126.027 -290.732C123.269 -309.068 120.607 -323.075 117.397 -336.147L121.399 -337.151C124.633 -323.983 127.311 -309.891 130.083 -291.459C138.234 -237.249 139.956 -184.837 135.203 -135.68C130.44 -86.4419 116.425 -38.7648 93.5463 6.0278C87.4106 18.0391 80.7314 30.201 74.2712 41.9618C56.8517 73.675 38.8388 106.469 29.313 140.216C8.73019 213.136 8.22111 291.817 27.8799 361.766Z" fill="url(#paint49_linear_206_1222)"/>
<path d="M33.5577 363.992L29.583 365.093C9.76992 294.599 10.2826 215.306 31.0248 141.821C40.6592 107.688 58.7727 74.7106 76.2908 42.8188C82.7371 31.0821 89.4038 18.9464 95.5124 6.9862C118.191 -37.4126 132.084 -84.6769 136.804 -133.494C141.533 -182.394 139.817 -234.548 131.704 -288.505C128.946 -306.841 126.284 -320.848 123.074 -333.92L127.076 -334.924C130.31 -321.756 132.988 -307.664 135.76 -289.232C143.911 -235.022 145.633 -182.61 140.88 -133.453C136.117 -84.2148 122.102 -36.5379 99.2234 8.25479C93.0884 20.2652 86.4088 32.4256 79.9492 44.1855C62.5291 75.8997 44.5156 108.694 34.9891 142.443C14.408 215.362 13.8979 294.043 33.5577 363.992Z" fill="url(#paint50_linear_206_1222)"/>
<path d="M39.2344 366.219L35.2597 367.32C15.4467 296.826 15.9583 217.533 36.7021 144.048C46.3365 109.915 64.4501 76.9372 81.9682 45.0454C88.4145 33.3087 95.0812 21.1729 101.19 9.2128C123.868 -35.186 137.761 -82.4504 142.481 -131.268C147.21 -180.168 145.494 -232.321 137.381 -286.279C134.624 -304.614 131.962 -318.621 128.751 -331.694L132.753 -332.697C135.988 -319.53 138.665 -305.437 141.438 -287.006C149.589 -232.796 151.312 -180.385 146.558 -131.227C141.795 -81.9893 127.78 -34.3122 104.901 10.4804C98.7665 22.4908 92.0868 34.6513 85.6272 46.4112C68.2071 78.1254 50.1936 110.92 40.6672 144.668C20.0837 217.589 19.5756 296.271 39.2344 366.219Z" fill="url(#paint51_linear_206_1222)"/>
<path d="M44.9111 368.445L40.9364 369.546C21.1243 299.053 21.6367 219.759 42.3798 146.274C52.0142 112.141 70.1278 79.1633 87.6459 47.2715C94.0921 35.5348 100.759 23.399 106.867 11.4389C129.546 -32.9599 143.439 -80.2243 148.159 -129.042C152.888 -177.941 151.172 -230.095 143.059 -284.053C140.302 -302.388 137.639 -316.395 134.429 -329.468L138.431 -330.471C141.665 -317.304 144.343 -303.211 147.115 -284.779C155.266 -230.569 156.988 -178.157 152.235 -129C147.472 -79.7622 133.457 -32.0852 110.578 12.7075C104.443 24.7179 97.7638 36.8783 91.3043 48.6382C73.8841 80.3524 55.8706 113.147 46.3442 146.895C25.7614 219.815 25.2523 298.496 44.9111 368.445Z" fill="url(#paint52_linear_206_1222)"/>
<path d="M50.588 370.671L46.6133 371.772C26.8006 301.28 27.3129 221.986 48.0551 148.5C57.6895 114.367 75.8031 81.3898 93.3211 49.498C99.7674 37.7613 106.434 25.6255 112.543 13.6654C135.221 -30.7334 149.114 -77.9978 153.834 -126.815C158.563 -175.715 156.847 -227.869 148.734 -281.826C145.977 -300.163 143.315 -314.169 140.103 -327.242L144.105 -328.245C147.34 -315.078 150.018 -300.986 152.79 -282.553C160.941 -228.342 162.663 -175.93 157.91 -126.773C153.147 -77.5357 139.133 -29.8587 116.254 14.934C110.119 26.9444 103.439 39.1048 96.9795 50.8647C79.5594 82.5789 61.5459 115.374 52.0195 149.122C31.4377 222.042 30.9286 300.723 50.588 370.671Z" fill="url(#paint53_linear_206_1222)"/>
<defs>
<radialGradient id="paint0_radial_206_1222" cx="0" cy="0" r="1" gradientUnits="userSpaceOnUse" gradientTransform="translate(356.926 161.22) rotate(-19.9546) scale(377.059 337.206)">
<stop offset="0.28125" stop-color="#2E5053"/>
<stop offset="1" stop-color="#4D9F98"/>
</radialGradient>
<radialGradient id="paint1_radial_206_1222" cx="0" cy="0" r="1" gradientUnits="userSpaceOnUse" gradientTransform="translate(359.358 166.157) rotate(-19.9546) scale(377.059 337.206)">
<stop offset="0.28125" stop-color="#2E5053"/>
<stop offset="1" stop-color="#4D9F98"/>
</radialGradient>
<radialGradient id="paint2_radial_206_1222" cx="0" cy="0" r="1" gradientUnits="userSpaceOnUse" gradientTransform="translate(361.789 171.093) rotate(-19.9546) scale(377.059 337.206)">
<stop offset="0.28125" stop-color="#2E5053"/>
<stop offset="1" stop-color="#4D9F98"/>
</radialGradient>
<radialGradient id="paint3_radial_206_1222" cx="0" cy="0" r="1" gradientUnits="userSpaceOnUse" gradientTransform="translate(364.218 176.028) rotate(-19.9546) scale(377.059 337.206)">
<stop offset="0.28125" stop-color="#2E5053"/>
<stop offset="1" stop-color="#4D9F98"/>
</radialGradient>
<radialGradient id="paint4_radial_206_1222" cx="0" cy="0" r="1" gradientUnits="userSpaceOnUse" gradientTransform="translate(366.649 180.964) rotate(-19.9546) scale(377.059 337.206)">
<stop offset="0.28125" stop-color="#2E5053"/>
<stop offset="1" stop-color="#4D9F98"/>
</radialGradient>
<radialGradient id="paint5_radial_206_1222" cx="0" cy="0" r="1" gradientUnits="userSpaceOnUse" gradientTransform="translate(369.08 185.899) rotate(-19.9546) scale(377.059 337.206)">
<stop offset="0.28125" stop-color="#2E5053"/>
<stop offset="1" stop-color="#4D9F98"/>
</radialGradient>
<radialGradient id="paint6_radial_206_1222" cx="0" cy="0" r="1" gradientUnits="userSpaceOnUse" gradientTransform="translate(371.511 190.835) rotate(-19.9546) scale(377.059 337.206)">
<stop offset="0.28125" stop-color="#2E5053"/>
<stop offset="1" stop-color="#4D9F98"/>
</radialGradient>
<radialGradient id="paint7_radial_206_1222" cx="0" cy="0" r="1" gradientUnits="userSpaceOnUse" gradientTransform="translate(373.941 195.771) rotate(-19.9546) scale(377.059 337.206)">
<stop offset="0.28125" stop-color="#2E5053"/>
<stop offset="1" stop-color="#4D9F98"/>
</radialGradient>
<radialGradient id="paint8_radial_206_1222" cx="0" cy="0" r="1" gradientUnits="userSpaceOnUse" gradientTransform="translate(376.372 200.707) rotate(-19.9546) scale(377.059 337.206)">
<stop offset="0.28125" stop-color="#2E5053"/>
<stop offset="1" stop-color="#4D9F98"/>
</radialGradient>
<radialGradient id="paint9_radial_206_1222" cx="0" cy="0" r="1" gradientUnits="userSpaceOnUse" gradientTransform="translate(378.802 205.644) rotate(-19.9546) scale(377.058 337.206)">
<stop offset="0.28125" stop-color="#2E5053"/>
<stop offset="1" stop-color="#4D9F98"/>
</radialGradient>
<radialGradient id="paint10_radial_206_1222" cx="0" cy="0" r="1" gradientUnits="userSpaceOnUse" gradientTransform="translate(381.231 210.58) rotate(-19.9546) scale(377.058 337.206)">
<stop offset="0.28125" stop-color="#2E5053"/>
<stop offset="1" stop-color="#4D9F98"/>
</radialGradient>
<radialGradient id="paint11_radial_206_1222" cx="0" cy="0" r="1" gradientUnits="userSpaceOnUse" gradientTransform="translate(383.663 215.516) rotate(-19.9546) scale(377.058 337.206)">
<stop offset="0.28125" stop-color="#2E5053"/>
<stop offset="1" stop-color="#4D9F98"/>
</radialGradient>
<radialGradient id="paint12_radial_206_1222" cx="0" cy="0" r="1" gradientUnits="userSpaceOnUse" gradientTransform="translate(386.094 220.453) rotate(-19.9546) scale(377.058 337.205)">
<stop offset="0.28125" stop-color="#2E5053"/>
<stop offset="1" stop-color="#4D9F98"/>
</radialGradient>
<radialGradient id="paint13_radial_206_1222" cx="0" cy="0" r="1" gradientUnits="userSpaceOnUse" gradientTransform="translate(388.524 225.389) rotate(-19.9546) scale(377.058 337.205)">
<stop offset="0.28125" stop-color="#2E5053"/>
<stop offset="1" stop-color="#4D9F98"/>
</radialGradient>
<radialGradient id="paint14_radial_206_1222" cx="0" cy="0" r="1" gradientUnits="userSpaceOnUse" gradientTransform="translate(390.954 230.324) rotate(-19.9546) scale(377.058 337.205)">
<stop offset="0.28125" stop-color="#2E5053"/>
<stop offset="1" stop-color="#4D9F98"/>
</radialGradient>
<radialGradient id="paint15_radial_206_1222" cx="0" cy="0" r="1" gradientUnits="userSpaceOnUse" gradientTransform="translate(393.385 235.26) rotate(-19.9546) scale(377.058 337.205)">
<stop offset="0.28125" stop-color="#2E5053"/>
<stop offset="1" stop-color="#4D9F98"/>
</radialGradient>
<radialGradient id="paint16_radial_206_1222" cx="0" cy="0" r="1" gradientUnits="userSpaceOnUse" gradientTransform="translate(395.816 240.196) rotate(-19.9546) scale(377.058 337.205)">
<stop offset="0.28125" stop-color="#2E5053"/>
<stop offset="1" stop-color="#4D9F98"/>
</radialGradient>
<radialGradient id="paint17_radial_206_1222" cx="0" cy="0" r="1" gradientUnits="userSpaceOnUse" gradientTransform="translate(398.247 245.132) rotate(-19.9546) scale(377.058 337.205)">
<stop offset="0.28125" stop-color="#2E5053"/>
<stop offset="1" stop-color="#4D9F98"/>
</radialGradient>
<radialGradient id="paint18_radial_206_1222" cx="0" cy="0" r="1" gradientUnits="userSpaceOnUse" gradientTransform="translate(400.677 250.068) rotate(-19.9546) scale(377.059 337.206)">
<stop offset="0.28125" stop-color="#2E5053"/>
<stop offset="1" stop-color="#4D9F98"/>
</radialGradient>
<radialGradient id="paint19_radial_206_1222" cx="0" cy="0" r="1" gradientUnits="userSpaceOnUse" gradientTransform="translate(403.108 255.004) rotate(-19.9546) scale(377.059 337.206)">
<stop offset="0.28125" stop-color="#2E5053"/>
<stop offset="1" stop-color="#4D9F98"/>
</radialGradient>
<radialGradient id="paint20_radial_206_1222" cx="0" cy="0" r="1" gradientUnits="userSpaceOnUse" gradientTransform="translate(405.54 259.94) rotate(-19.9546) scale(377.059 337.206)">
<stop offset="0.28125" stop-color="#2E5053"/>
<stop offset="1" stop-color="#4D9F98"/>
</radialGradient>
<radialGradient id="paint21_radial_206_1222" cx="0" cy="0" r="1" gradientUnits="userSpaceOnUse" gradientTransform="translate(407.969 264.876) rotate(-19.9546) scale(377.059 337.206)">
<stop offset="0.28125" stop-color="#2E5053"/>
<stop offset="1" stop-color="#4D9F98"/>
</radialGradient>
<radialGradient id="paint22_radial_206_1222" cx="0" cy="0" r="1" gradientUnits="userSpaceOnUse" gradientTransform="translate(410.4 269.812) rotate(-19.9546) scale(377.059 337.206)">
<stop offset="0.28125" stop-color="#2E5053"/>
<stop offset="1" stop-color="#4D9F98"/>
</radialGradient>
<radialGradient id="paint23_radial_206_1222" cx="0" cy="0" r="1" gradientUnits="userSpaceOnUse" gradientTransform="translate(412.831 274.747) rotate(-19.9546) scale(377.059 337.206)">
<stop offset="0.28125" stop-color="#2E5053"/>
<stop offset="1" stop-color="#4D9F98"/>
</radialGradient>
<radialGradient id="paint24_radial_206_1222" cx="0" cy="0" r="1" gradientUnits="userSpaceOnUse" gradientTransform="translate(415.262 279.684) rotate(-19.9546) scale(377.059 337.206)">
<stop offset="0.28125" stop-color="#2E5053"/>
<stop offset="1" stop-color="#4D9F98"/>
</radialGradient>
<radialGradient id="paint25_radial_206_1222" cx="0" cy="0" r="1" gradientUnits="userSpaceOnUse" gradientTransform="translate(417.692 284.619) rotate(-19.9546) scale(377.059 337.206)">
<stop offset="0.28125" stop-color="#2E5053"/>
<stop offset="1" stop-color="#4D9F98"/>
</radialGradient>
<radialGradient id="paint26_radial_206_1222" cx="0" cy="0" r="1" gradientUnits="userSpaceOnUse" gradientTransform="translate(420.123 289.555) rotate(-19.9546) scale(377.059 337.206)">
<stop offset="0.28125" stop-color="#2E5053"/>
<stop offset="1" stop-color="#4D9F98"/>
</radialGradient>
<linearGradient id="paint27_linear_206_1222" x1="-221.422" y1="268.277" x2="22.6596" y2="-376.217" gradientUnits="userSpaceOnUse">
<stop offset="0.114583" stop-color="#2E5053"/>
<stop offset="1" stop-color="#2E5053"/>
</linearGradient>
<linearGradient id="paint28_linear_206_1222" x1="-215.744" y1="270.503" x2="28.3373" y2="-373.99" gradientUnits="userSpaceOnUse">
<stop offset="0.114583" stop-color="#2E5053"/>
<stop offset="1" stop-color="#2E5053"/>
</linearGradient>
<linearGradient id="paint29_linear_206_1222" x1="-210.067" y1="272.729" x2="34.0139" y2="-371.763" gradientUnits="userSpaceOnUse">
<stop offset="0.114583" stop-color="#2E5053"/>
<stop offset="1" stop-color="#2E5053"/>
</linearGradient>
<linearGradient id="paint30_linear_206_1222" x1="-204.391" y1="274.956" x2="39.691" y2="-369.537" gradientUnits="userSpaceOnUse">
<stop offset="0.114583" stop-color="#2E5053"/>
<stop offset="1" stop-color="#2E5053"/>
</linearGradient>
<linearGradient id="paint31_linear_206_1222" x1="-198.713" y1="277.182" x2="45.3686" y2="-367.311" gradientUnits="userSpaceOnUse">
<stop offset="0.114583" stop-color="#2E5053"/>
<stop offset="1" stop-color="#2E5053"/>
</linearGradient>
<linearGradient id="paint32_linear_206_1222" x1="-193.035" y1="279.409" x2="51.0461" y2="-365.084" gradientUnits="userSpaceOnUse">
<stop offset="0.114583" stop-color="#2E5053"/>
<stop offset="1" stop-color="#2E5053"/>
</linearGradient>
<linearGradient id="paint33_linear_206_1222" x1="-187.359" y1="281.635" x2="56.7222" y2="-362.858" gradientUnits="userSpaceOnUse">
<stop offset="0.114583" stop-color="#2E5053"/>
<stop offset="1" stop-color="#2E5053"/>
</linearGradient>
<linearGradient id="paint34_linear_206_1222" x1="-181.682" y1="283.861" x2="62.4" y2="-360.632" gradientUnits="userSpaceOnUse">
<stop offset="0.114583" stop-color="#2E5053"/>
<stop offset="1" stop-color="#2E5053"/>
</linearGradient>
<linearGradient id="paint35_linear_206_1222" x1="-176.005" y1="286.088" x2="68.0763" y2="-358.405" gradientUnits="userSpaceOnUse">
<stop offset="0.114583" stop-color="#2E5053"/>
<stop offset="1" stop-color="#2E5053"/>
</linearGradient>
<linearGradient id="paint36_linear_206_1222" x1="-170.328" y1="288.315" x2="73.7537" y2="-356.179" gradientUnits="userSpaceOnUse">
<stop offset="0.114583" stop-color="#2E5053"/>
<stop offset="1" stop-color="#2E5053"/>
</linearGradient>
<linearGradient id="paint37_linear_206_1222" x1="-164.651" y1="290.541" x2="79.4307" y2="-353.954" gradientUnits="userSpaceOnUse">
<stop offset="0.114583" stop-color="#2E5053"/>
<stop offset="1" stop-color="#2E5053"/>
</linearGradient>
<linearGradient id="paint38_linear_206_1222" x1="-158.974" y1="292.767" x2="85.108" y2="-351.727" gradientUnits="userSpaceOnUse">
<stop offset="0.114583" stop-color="#2E5053"/>
<stop offset="1" stop-color="#2E5053"/>
</linearGradient>
<linearGradient id="paint39_linear_206_1222" x1="-153.297" y1="294.994" x2="90.785" y2="-349.5" gradientUnits="userSpaceOnUse">
<stop offset="0.114583" stop-color="#2E5053"/>
<stop offset="1" stop-color="#2E5053"/>
</linearGradient>
<linearGradient id="paint40_linear_206_1222" x1="-147.619" y1="297.22" x2="96.4627" y2="-347.274" gradientUnits="userSpaceOnUse">
<stop offset="0.114583" stop-color="#2E5053"/>
<stop offset="1" stop-color="#2E5053"/>
</linearGradient>
<linearGradient id="paint41_linear_206_1222" x1="-141.942" y1="299.446" x2="102.139" y2="-345.047" gradientUnits="userSpaceOnUse">
<stop offset="0.114583" stop-color="#2E5053"/>
<stop offset="1" stop-color="#2E5053"/>
</linearGradient>
<linearGradient id="paint42_linear_206_1222" x1="-136.266" y1="301.673" x2="107.816" y2="-342.821" gradientUnits="userSpaceOnUse">
<stop offset="0.114583" stop-color="#2E5053"/>
<stop offset="1" stop-color="#2E5053"/>
</linearGradient>
<linearGradient id="paint43_linear_206_1222" x1="-130.588" y1="303.9" x2="113.494" y2="-340.594" gradientUnits="userSpaceOnUse">
<stop offset="0.114583" stop-color="#2E5053"/>
<stop offset="1" stop-color="#2E5053"/>
</linearGradient>
<linearGradient id="paint44_linear_206_1222" x1="-124.912" y1="306.125" x2="119.17" y2="-338.368" gradientUnits="userSpaceOnUse">
<stop offset="0.114583" stop-color="#2E5053"/>
<stop offset="1" stop-color="#2E5053"/>
</linearGradient>
<linearGradient id="paint45_linear_206_1222" x1="-119.236" y1="308.352" x2="124.846" y2="-336.141" gradientUnits="userSpaceOnUse">
<stop offset="0.114583" stop-color="#2E5053"/>
<stop offset="1" stop-color="#2E5053"/>
</linearGradient>
<linearGradient id="paint46_linear_206_1222" x1="-113.558" y1="310.578" x2="130.524" y2="-333.915" gradientUnits="userSpaceOnUse">
<stop offset="0.114583" stop-color="#2E5053"/>
<stop offset="1" stop-color="#2E5053"/>
</linearGradient>
<linearGradient id="paint47_linear_206_1222" x1="-107.88" y1="312.805" x2="136.201" y2="-331.688" gradientUnits="userSpaceOnUse">
<stop offset="0.114583" stop-color="#2E5053"/>
<stop offset="1" stop-color="#2E5053"/>
</linearGradient>
<linearGradient id="paint48_linear_206_1222" x1="-102.204" y1="315.031" x2="141.877" y2="-329.462" gradientUnits="userSpaceOnUse">
<stop offset="0.114583" stop-color="#2E5053"/>
<stop offset="1" stop-color="#2E5053"/>
</linearGradient>
<linearGradient id="paint49_linear_206_1222" x1="-96.5266" y1="317.257" x2="147.555" y2="-327.236" gradientUnits="userSpaceOnUse">
<stop offset="0.114583" stop-color="#2E5053"/>
<stop offset="1" stop-color="#2E5053"/>
</linearGradient>
<linearGradient id="paint50_linear_206_1222" x1="-90.8489" y1="319.483" x2="153.233" y2="-325.009" gradientUnits="userSpaceOnUse">
<stop offset="0.114583" stop-color="#2E5053"/>
<stop offset="1" stop-color="#2E5053"/>
</linearGradient>
<linearGradient id="paint51_linear_206_1222" x1="-85.1721" y1="321.711" x2="158.91" y2="-322.783" gradientUnits="userSpaceOnUse">
<stop offset="0.114583" stop-color="#2E5053"/>
<stop offset="1" stop-color="#2E5053"/>
</linearGradient>
<linearGradient id="paint52_linear_206_1222" x1="-79.495" y1="323.937" x2="164.586" y2="-320.557" gradientUnits="userSpaceOnUse">
<stop offset="0.114583" stop-color="#2E5053"/>
<stop offset="1" stop-color="#2E5053"/>
</linearGradient>
<linearGradient id="paint53_linear_206_1222" x1="-73.819" y1="326.162" x2="170.263" y2="-318.33" gradientUnits="userSpaceOnUse">
<stop offset="0.114583" stop-color="#2E5053"/>
<stop offset="1" stop-color="#2E5053"/>
</linearGradient>
</defs>
</svg>
