<svg width="419" height="430" viewBox="0 0 419 430" fill="none" xmlns="http://www.w3.org/2000/svg">
<path d="M74.5937 574.773L69.9756 572.455C117.685 477.402 191.952 390.718 279.094 328.37C319.57 299.411 366.634 279.247 412.148 259.745C428.897 252.569 446.216 245.148 462.87 237.426C524.688 208.76 581.235 169.149 630.939 119.691C680.726 70.1494 727.718 11.3125 770.61 -55.1851C785.186 -77.7836 795.817 -95.5392 805.083 -112.754L809.633 -110.306C800.3 -92.966 789.605 -75.1033 774.952 -52.3856C731.861 14.4229 684.634 73.5481 634.583 123.351C584.451 173.234 527.41 213.191 465.043 242.11C448.321 249.864 430.966 257.3 414.182 264.491C368.922 283.883 322.121 303.935 282.1 332.569C195.629 394.438 121.934 480.454 74.5937 574.77V574.773Z" fill="url(#paint0_radial_185_1621)"/>
<path d="M77.5868 581.848L72.9688 579.53C120.679 484.477 194.945 397.794 282.087 335.445C322.563 306.486 369.627 286.322 415.141 266.82C431.89 259.644 449.209 252.223 465.863 244.501C527.681 215.835 584.228 176.224 633.932 126.766C683.721 77.2229 730.713 18.3874 773.603 -48.1102C788.178 -70.7057 798.81 -88.4612 808.076 -105.679L812.626 -103.232C803.292 -85.8895 792.596 -68.0253 777.945 -45.3106C734.854 21.4978 687.628 80.623 637.576 130.428C587.444 180.311 530.403 220.268 468.036 249.187C451.315 256.941 433.959 264.377 417.175 271.568C371.915 290.959 325.114 311.012 285.093 339.646C198.622 401.514 124.927 487.53 77.5868 581.847V581.848Z" fill="url(#paint1_radial_185_1621)"/>
<path d="M80.5781 588.923L75.96 586.605C123.67 491.552 197.937 404.868 285.078 342.521C325.555 313.561 372.618 293.397 418.132 273.895C434.881 266.719 452.201 259.298 468.854 251.576C530.672 222.91 587.219 183.299 636.923 133.841C686.712 84.2979 733.704 25.4625 776.595 -41.0351C791.169 -63.6306 801.801 -81.3861 811.068 -98.6044L815.618 -96.1565C806.283 -78.8145 795.588 -60.9503 780.937 -38.2356C737.845 28.5729 690.62 87.6981 640.568 137.503C590.436 187.386 533.395 227.343 471.028 256.262C454.306 264.016 436.95 271.452 420.167 278.643C374.906 298.034 328.105 318.087 288.085 346.721C201.613 408.59 127.918 494.605 80.5765 588.922L80.5781 588.923Z" fill="url(#paint2_radial_185_1621)"/>
<path d="M83.5683 595.997L78.9502 593.679C126.66 498.626 200.927 411.943 288.068 349.594C328.545 320.634 375.609 300.47 421.122 280.969C437.871 273.792 455.191 266.372 471.845 258.649C533.662 229.984 590.21 190.372 639.913 140.915C689.703 91.3716 736.694 32.5361 779.585 -33.9615C794.159 -56.557 804.791 -74.3125 814.058 -91.5308L818.608 -89.0829C809.273 -71.7409 798.578 -53.8767 783.927 -31.162C740.835 35.6465 693.61 94.7717 643.558 144.576C593.426 194.459 536.385 234.416 474.018 263.335C457.296 271.089 439.94 278.525 423.157 285.717C377.897 305.108 331.095 325.16 291.075 353.794C204.603 415.663 130.908 501.679 83.5668 595.995L83.5683 595.997Z" fill="url(#paint3_radial_185_1621)"/>
<path d="M86.5595 603.072L81.9414 600.754C129.651 505.701 203.918 419.016 291.06 356.669C331.536 327.709 378.6 307.545 424.114 288.044C440.863 280.867 458.182 273.447 474.836 265.724C536.653 237.059 593.201 197.447 642.904 147.99C692.694 98.4465 739.685 39.611 782.576 -26.8866C797.15 -49.482 807.782 -67.2376 817.049 -84.4558L821.599 -82.0079C812.265 -64.6659 801.569 -46.8017 786.918 -24.087C743.826 42.7215 696.601 101.847 646.549 151.651C596.417 201.534 539.376 241.491 477.009 270.41C460.287 278.164 442.932 285.6 426.148 292.791C380.888 312.183 334.086 332.235 294.066 360.869C207.594 422.738 133.9 508.754 86.5595 603.07V603.072Z" fill="url(#paint4_radial_185_1621)"/>
<path d="M89.5507 610.147L84.9326 607.829C132.642 512.776 206.909 426.093 294.051 363.744C334.527 334.784 381.591 314.62 427.105 295.119C443.854 287.943 461.173 280.522 477.827 272.799C539.646 244.134 596.192 204.521 645.896 155.064C695.683 105.522 742.676 46.6846 785.567 -19.8129C800.142 -42.4084 810.774 -60.1639 820.04 -77.3822L824.59 -74.9343C815.256 -57.5923 804.56 -39.7281 789.909 -17.0134C746.819 49.7951 699.591 108.922 649.54 158.723C599.408 208.608 542.367 248.563 480 277.484C463.279 285.238 445.923 292.674 429.139 299.865C383.879 319.257 337.078 339.309 297.057 367.943C210.586 429.812 136.891 515.828 89.5507 610.144V610.147Z" fill="url(#paint5_radial_185_1621)"/>
<path d="M92.5439 617.222L87.9258 614.904C135.636 519.851 209.902 433.167 297.044 370.819C337.52 341.859 384.584 321.695 430.098 302.194C446.847 295.017 464.166 287.597 480.82 279.874C542.639 251.209 599.185 211.596 648.889 162.138C698.677 112.597 745.67 53.7596 788.56 -12.738C803.135 -35.3335 813.767 -53.089 823.033 -70.3073L827.583 -67.8594C818.249 -50.5173 807.554 -32.6532 792.902 -9.93845C749.812 56.87 702.584 115.997 652.533 165.798C602.401 215.683 545.36 255.638 482.993 284.559C466.272 292.313 448.916 299.749 432.132 306.94C386.872 326.332 340.071 346.384 300.05 375.018C213.579 436.887 139.884 522.902 92.5439 617.219V617.222Z" fill="url(#paint6_radial_185_1621)"/>
<path d="M95.5351 624.297L90.917 621.979C138.627 526.926 212.894 440.243 300.035 377.894C340.512 348.935 387.575 328.77 433.089 309.269C449.838 302.093 467.158 294.672 483.811 286.949C545.63 258.284 602.177 218.671 651.88 169.214C701.668 119.672 748.661 60.8347 791.552 -5.66291C806.126 -28.2584 816.758 -46.0139 826.024 -63.2322L830.575 -60.7843C821.24 -43.4423 810.545 -25.5781 795.894 -2.86338C752.803 63.9451 705.575 123.072 655.525 172.873C605.393 222.758 548.352 262.713 485.985 291.634C469.263 299.388 451.907 306.824 435.124 314.015C389.863 333.407 343.062 353.459 303.042 382.093C216.57 443.962 142.875 529.978 95.5336 624.294L95.5351 624.297Z" fill="url(#paint7_radial_185_1621)"/>
<path d="M98.5263 631.372L93.9082 629.054C141.618 534.001 215.885 447.317 303.027 384.969C343.503 356.01 390.567 335.845 436.081 316.344C452.829 309.168 470.149 301.747 486.803 294.024C548.622 265.359 605.168 225.746 654.871 176.289C704.659 126.747 751.652 67.9097 794.543 1.41216C809.117 -21.1833 819.749 -38.9388 829.016 -56.1571L833.566 -53.7092C824.232 -36.3672 813.536 -18.503 798.885 4.21169C755.795 71.0202 708.566 130.147 658.516 179.948C608.384 229.833 551.343 269.788 488.976 298.709C472.254 306.463 454.898 313.899 438.115 321.09C392.855 340.482 346.053 360.534 306.033 389.168C219.561 451.037 145.866 537.053 98.5263 631.369V631.372Z" fill="url(#paint8_radial_185_1621)"/>
<path d="M101.518 638.447L96.8994 636.129C144.609 541.078 218.876 454.393 306.018 392.044C346.494 363.085 393.556 342.92 439.07 323.42C455.819 316.244 473.14 308.823 489.792 301.101C551.611 272.436 608.158 232.823 657.861 183.365C707.649 133.823 754.642 74.9863 797.533 8.48869C812.107 -14.1068 822.739 -31.8623 832.005 -49.0806L836.556 -46.6327C827.221 -29.2907 816.526 -11.4265 801.875 11.2882C758.784 78.0967 711.556 137.223 661.506 187.025C611.374 236.909 554.333 276.865 491.966 305.785C475.242 313.54 457.888 320.975 441.105 328.167C395.844 347.558 349.043 367.611 309.023 396.243C222.549 458.112 148.856 544.128 101.516 638.444L101.518 638.447Z" fill="url(#paint9_radial_185_1621)"/>
<path d="M104.509 645.522L99.8906 643.204C147.6 548.153 221.867 461.467 309.009 399.119C349.485 370.16 396.548 349.996 442.061 330.495C458.81 323.319 476.131 315.899 492.784 308.176C554.603 279.511 611.149 239.898 660.852 190.44C710.64 140.898 757.633 82.0614 800.524 15.5638C815.095 -7.02868 825.727 -24.7827 834.997 -42.0055L839.547 -39.5576C830.211 -22.2111 819.514 -4.34838 804.866 18.3633C761.776 85.1718 714.547 144.299 664.497 194.1C614.365 243.985 557.324 283.94 494.957 312.861C478.234 320.615 460.879 328.05 444.096 335.242C398.836 354.633 352.034 374.686 312.014 403.318C225.541 465.187 151.847 551.203 104.507 645.519L104.509 645.522Z" fill="url(#paint10_radial_185_1621)"/>
<path d="M107.501 652.597L102.883 650.279C150.593 555.228 224.858 468.543 312.001 406.194C352.477 377.235 399.54 357.071 445.054 337.57C461.803 330.394 479.123 322.974 495.776 315.251C557.595 286.586 614.141 246.973 663.844 197.515C713.632 147.973 760.625 89.1364 803.516 22.6388C818.087 0.0463867 828.719 -17.7076 837.989 -34.9304L842.539 -32.4825C833.203 -15.136 822.506 2.72669 807.858 25.4384C764.768 92.2468 717.539 151.374 667.489 201.175C617.357 251.06 560.316 291.015 497.949 319.936C481.226 327.69 463.872 335.126 447.088 342.317C401.828 361.708 355.026 381.761 315.006 410.393C228.533 472.263 154.839 558.278 107.499 652.594L107.501 652.597Z" fill="url(#paint11_radial_185_1621)"/>
<path d="M110.492 659.672L105.874 657.354C153.584 562.303 227.849 475.618 314.992 413.269C355.467 384.311 402.529 364.147 448.042 344.647C464.792 337.469 482.113 330.049 498.767 322.326C560.586 293.661 617.134 254.048 666.836 204.592C716.623 155.05 763.616 96.213 806.507 29.7154C821.078 7.12292 831.711 -10.6311 840.98 -27.8539L845.53 -25.406C836.194 -8.05945 825.497 9.80473 810.849 32.5149C767.759 99.3234 720.531 158.45 670.48 208.252C620.348 258.135 563.307 298.092 500.94 327.011C484.217 334.765 466.861 342.202 450.076 349.393C404.817 368.785 358.016 388.837 317.997 417.47C231.524 479.34 157.831 565.354 110.491 659.671L110.492 659.672Z" fill="url(#paint12_radial_185_1621)"/>
<path d="M113.483 666.747L108.865 664.429C156.575 569.378 230.84 482.693 317.984 420.345C358.458 391.386 405.521 371.222 451.033 351.722C467.784 344.546 485.104 337.124 501.758 329.401C563.577 300.734 620.125 261.123 669.827 211.667C719.615 162.125 766.608 103.288 809.499 36.7905C824.07 14.198 834.702 -3.55602 843.971 -20.7788L848.521 -18.3309C839.186 -0.984377 828.489 16.8783 813.84 39.59C770.75 106.398 723.522 165.525 673.471 215.327C623.339 265.21 566.298 305.167 503.931 334.086C487.208 341.84 469.853 349.277 453.067 356.468C407.809 375.86 361.007 395.912 320.988 424.545C234.515 486.415 160.822 572.429 113.482 666.746L113.483 666.747Z" fill="url(#paint13_radial_185_1621)"/>
<path d="M116.475 673.821L111.856 671.503C159.566 576.451 233.832 489.767 320.975 427.418C361.45 398.46 408.512 378.296 454.024 358.796C470.775 351.618 488.095 344.197 504.749 336.475C566.568 307.809 623.116 268.196 672.818 218.74C722.606 169.198 769.599 110.362 812.49 43.8639C827.061 21.2715 837.693 3.51746 846.962 -13.7053L851.513 -11.2574C842.177 6.08911 831.48 23.9518 816.832 46.6635C773.741 113.472 726.513 172.599 676.463 222.4C626.331 272.283 569.29 312.24 506.923 341.159C490.199 348.913 472.844 356.351 456.059 363.542C410.8 382.933 363.999 402.986 323.98 431.618C237.506 493.488 163.813 579.503 116.473 673.819L116.475 673.821Z" fill="url(#paint14_radial_185_1621)"/>
<path d="M119.466 680.896L114.848 678.578C162.557 583.526 236.824 496.842 323.966 434.493C364.441 405.535 411.503 385.371 457.015 365.871C473.766 358.693 491.087 351.272 507.741 343.55C569.56 314.884 626.107 275.271 675.809 225.815C725.597 176.274 772.59 117.437 815.481 50.939C830.052 28.3466 840.684 10.5925 849.954 -6.63025L854.504 -4.18236C845.168 13.1642 834.471 31.0284 819.823 53.7385C776.733 120.547 729.504 179.674 679.454 229.475C629.322 279.358 572.281 319.315 509.914 348.234C493.191 355.988 475.835 363.426 459.05 370.617C413.791 390.008 366.99 410.061 326.971 438.693C240.498 500.564 166.804 586.578 119.464 680.894L119.466 680.896Z" fill="url(#paint15_radial_185_1621)"/>
<path d="M122.459 687.971L117.841 685.653C165.551 590.601 239.816 503.917 326.959 441.568C367.434 412.61 414.496 392.446 460.009 372.946C476.759 365.768 494.08 358.347 510.734 350.625C572.553 321.959 629.1 282.346 678.802 232.891C728.59 183.349 775.583 124.512 818.474 58.0141C833.045 35.4216 843.677 17.6676 852.947 0.444824L857.497 2.89272C848.161 20.2393 837.464 38.1034 822.816 60.8136C779.726 127.622 732.498 186.749 682.447 236.55C632.315 286.433 575.274 326.39 512.907 355.309C496.184 363.064 478.828 370.501 462.043 377.692C416.784 397.084 369.983 417.136 329.964 445.768C243.491 507.639 169.797 593.653 122.457 687.969L122.459 687.971Z" fill="url(#paint16_radial_185_1621)"/>
<path d="M125.45 695.046L120.832 692.728C168.542 597.676 242.809 510.992 329.95 448.643C370.425 419.685 417.487 399.521 463 380.021C479.75 372.843 497.071 365.422 513.725 357.7C575.544 329.034 632.092 289.421 681.794 239.965C731.581 190.424 778.574 131.587 821.465 65.089C836.036 42.4966 846.669 24.7426 855.938 7.51978L860.488 9.96767C851.152 27.3142 840.455 45.1784 825.807 67.8886C782.717 134.697 735.489 193.824 685.438 243.625C635.306 293.508 578.265 333.465 515.898 362.384C499.175 370.138 481.819 377.576 465.034 384.767C419.775 404.158 372.974 424.211 332.955 452.843C246.482 514.714 172.789 600.728 125.447 695.044L125.45 695.046Z" fill="url(#paint17_radial_185_1621)"/>
<path d="M128.441 702.121L123.823 699.803C171.533 604.752 245.798 518.067 332.942 455.718C373.416 426.759 420.479 406.594 465.991 387.094C482.741 379.918 500.062 372.496 516.718 364.773C578.537 336.108 635.084 296.495 684.786 247.039C734.574 197.497 781.567 138.66 824.458 72.1627C839.032 49.5657 849.664 31.8101 858.931 14.5934L863.481 17.0413C854.148 34.3818 843.451 52.246 828.8 74.9622C785.71 141.771 738.481 200.897 688.431 250.699C638.299 300.582 581.258 340.539 518.891 369.458C502.168 377.212 484.811 384.649 468.025 391.841C422.767 411.232 375.967 431.285 335.946 459.917C249.473 521.787 175.78 607.802 128.44 702.118L128.441 702.121Z" fill="url(#paint18_radial_185_1621)"/>
<path d="M131.433 709.196L126.814 706.878C174.524 611.825 248.791 525.142 335.933 462.793C376.407 433.834 423.47 413.669 468.982 394.169C485.733 386.993 503.053 379.571 519.709 371.848C581.528 343.183 638.076 303.57 687.777 254.114C737.567 204.571 784.558 145.734 827.449 79.2377C842.023 56.6407 852.656 38.8852 861.922 21.6685L866.472 24.1164C857.139 41.4569 846.442 59.321 831.791 82.0373C788.701 148.844 741.474 207.971 691.422 257.774C641.29 307.657 584.249 347.614 521.882 376.533C505.159 384.287 487.802 391.724 471.017 398.916C425.758 418.307 378.958 438.36 338.938 466.992C252.466 528.861 178.771 614.877 131.431 709.193L131.433 709.196Z" fill="url(#paint19_radial_185_1621)"/>
<path d="M134.425 716.271L129.807 713.953C177.516 618.9 251.783 532.216 338.925 469.868C379.4 440.909 426.462 420.744 471.974 401.244C488.725 394.068 506.046 386.646 522.701 378.923C584.52 350.258 641.068 310.645 690.77 261.189C740.559 211.646 787.55 152.809 830.441 86.3127C845.016 63.7157 855.648 45.9602 864.914 28.7434L869.464 31.1913C860.131 48.5318 849.434 66.396 834.783 89.1122C791.693 155.919 744.466 215.046 694.414 264.849C644.282 314.732 587.241 354.689 524.874 383.608C508.151 391.362 490.794 398.799 474.009 405.991C428.75 425.382 381.95 445.435 341.93 474.067C255.457 535.936 181.763 621.952 134.423 716.268L134.425 716.271Z" fill="url(#paint20_radial_185_1621)"/>
<path d="M137.416 723.346L132.798 721.028C180.508 625.975 254.774 539.292 341.916 476.943C382.391 447.984 429.453 427.819 474.966 408.319C491.716 401.143 509.037 393.721 525.692 385.999C587.511 357.333 644.059 317.72 693.761 268.264C743.55 218.721 790.542 159.884 833.433 93.3877C848.007 70.7908 858.639 53.0352 867.905 35.8185L872.456 38.2664C863.123 55.6069 852.426 73.4711 837.774 96.1873C794.684 162.994 747.457 222.121 697.405 271.924C647.273 321.807 590.232 361.764 527.866 390.683C511.142 398.437 493.785 405.874 477 413.066C431.741 432.457 384.941 452.51 344.921 481.142C258.449 543.011 184.754 629.027 137.413 723.343L137.416 723.346Z" fill="url(#paint21_radial_185_1621)"/>
<path d="M140.407 730.421L135.789 728.103C183.499 633.05 257.766 546.366 344.907 484.018C385.382 455.059 432.444 434.895 477.957 415.394C494.707 408.218 512.028 400.796 528.683 393.074C590.501 364.408 647.049 324.797 696.752 275.339C746.54 225.797 793.531 166.96 836.424 100.463C850.998 77.8658 861.63 60.1103 870.897 42.8936L875.447 45.3414C866.114 62.682 855.417 80.5461 840.766 103.262C797.674 170.071 750.447 229.198 700.397 278.999C650.265 328.882 593.224 368.839 530.857 397.758C514.133 405.512 496.776 412.95 479.991 420.141C434.732 439.532 387.933 459.585 347.912 488.217C261.439 550.086 187.746 636.102 140.406 730.418L140.407 730.421Z" fill="url(#paint22_radial_185_1621)"/>
<path d="M143.398 737.495L138.78 735.177C186.49 640.124 260.757 553.441 347.899 491.092C388.375 462.132 435.439 441.968 480.953 422.466C497.701 415.29 515.021 407.87 531.675 400.147C593.492 371.482 650.04 331.87 699.743 282.413C749.531 232.871 796.523 174.034 839.415 107.536C853.989 84.9393 864.621 67.1838 873.888 49.967L878.438 52.4149C869.105 69.7554 858.408 87.6196 843.757 110.336C800.665 177.144 753.438 236.271 703.388 286.073C653.256 335.956 596.215 375.913 533.848 404.832C517.126 412.586 499.771 420.022 482.987 427.213C437.727 446.604 390.925 466.657 350.905 495.29C264.433 557.159 190.738 643.174 143.398 737.492V737.495Z" fill="url(#paint23_radial_185_1621)"/>
<path d="M146.392 744.571L141.773 742.253C189.483 647.202 263.749 560.517 350.892 498.168C391.368 469.209 438.432 449.045 483.946 429.543C500.695 422.367 518.014 414.946 534.668 407.224C596.485 378.558 653.033 338.947 702.736 289.489C752.524 239.947 799.516 181.11 842.408 114.613C856.982 92.0159 867.615 74.2603 876.881 57.0436L881.431 59.4915C872.098 76.832 861.401 94.6962 846.75 117.412C803.658 184.221 756.432 243.348 706.381 293.149C656.249 343.032 599.208 382.989 536.841 411.908C520.119 419.662 502.764 427.098 485.98 434.289C440.72 453.681 393.919 473.733 353.898 502.367C267.425 564.236 193.73 650.252 146.392 744.568V744.571Z" fill="url(#paint24_radial_185_1621)"/>
<path d="M149.383 751.645L144.765 749.327C192.474 654.275 266.741 567.591 353.883 505.242C394.359 476.282 441.423 456.118 486.937 436.617C503.686 429.44 521.005 422.02 537.659 414.297C599.477 385.632 656.024 346.02 705.728 296.563C755.516 247.021 802.507 188.184 845.399 121.686C859.974 99.0895 870.606 81.3339 879.872 64.1172L884.422 66.5651C875.089 83.9056 864.392 101.77 849.741 124.486C806.65 191.294 759.423 250.421 709.372 300.223C659.24 350.106 602.199 390.063 539.832 418.982C523.111 426.736 505.755 434.172 488.971 441.363C443.711 460.754 396.91 480.807 356.889 509.441C270.418 571.31 196.723 657.324 149.381 751.642L149.383 751.645Z" fill="url(#paint25_radial_185_1621)"/>
<path d="M152.374 758.72L147.756 756.402C195.466 661.35 269.731 574.666 356.874 512.317C397.35 483.357 444.414 463.193 489.928 443.691C506.677 436.515 523.996 429.095 540.65 421.372C602.468 392.707 659.015 353.095 708.719 303.638C758.507 254.096 805.498 195.259 848.391 128.761C862.966 106.163 873.597 88.4089 882.863 71.1921L887.413 73.64C878.081 90.9805 867.385 108.843 852.732 131.561C809.641 198.369 762.414 257.496 712.364 307.298C662.232 357.181 605.19 397.138 542.823 426.057C526.102 433.811 508.746 441.247 491.963 448.438C446.702 467.829 399.901 487.882 359.88 516.516C273.407 578.384 199.712 664.4 152.374 758.717V758.72Z" fill="url(#paint26_radial_185_1621)"/>
<path d="M-100.576 448.38L-105.544 449.793C-134.645 347.498 -138.517 233.415 -116.449 128.563C-106.2 79.8607 -85.1515 33.1863 -64.7949 -11.9515C-57.3041 -28.5629 -49.557 -45.7392 -42.5066 -62.6867C-16.3311 -125.6 -1.44001 -193.015 1.75145 -263.061C4.9487 -333.225 -0.197459 -408.349 -13.5439 -486.344C-18.0808 -512.85 -22.2482 -533.12 -27.0595 -552.07L-22.0508 -553.341C-17.2058 -534.253 -13.012 -513.86 -8.45097 -487.215C4.95805 -408.854 10.1265 -333.358 6.91318 -262.825C3.69224 -192.176 -11.3295 -124.173 -37.7366 -60.7012C-44.8177 -43.6825 -52.5797 -26.4714 -60.0859 -9.82703C-80.3287 35.0593 -101.261 81.4749 -111.396 129.629C-133.291 233.673 -129.45 346.876 -100.576 448.38Z" fill="url(#paint27_linear_185_1621)"/>
<path d="M-93.5882 451.571L-98.5568 452.984C-127.657 350.689 -131.53 236.607 -109.463 131.753C-99.214 83.0508 -78.1655 36.3765 -57.8089 -8.76131C-50.3181 -25.3727 -42.571 -42.5489 -35.5206 -59.4965C-9.34514 -122.41 5.54599 -189.825 8.73746 -259.87C11.9354 -330.036 6.78856 -405.158 -6.55787 -483.154C-11.0929 -509.657 -15.2617 -529.928 -20.0722 -548.879L-15.0634 -550.15C-10.218 -531.06 -6.02408 -510.667 -1.46495 -484.025C11.9448 -405.665 17.1132 -330.169 13.8992 -259.635C10.6783 -188.986 -4.34351 -120.982 -30.7506 -57.5111C-37.8317 -40.4923 -45.5937 -23.2812 -53.0999 -6.63687C-73.3427 38.2494 -94.275 84.6651 -104.409 132.819C-126.305 236.866 -122.462 350.067 -93.5882 451.571Z" fill="url(#paint28_linear_185_1621)"/>
<path d="M-86.6013 454.761L-91.5698 456.174C-120.669 353.879 -124.543 239.798 -102.476 134.946C-92.2265 86.2431 -71.1779 39.5687 -50.8213 -5.56907C-43.3306 -22.1805 -35.5835 -39.3567 -28.5331 -56.3043C-2.35762 -119.217 12.5335 -186.633 15.725 -256.678C18.923 -326.843 13.7761 -401.966 0.429691 -479.962C-4.10537 -506.465 -8.27412 -526.736 -13.0847 -545.686L-8.0759 -546.958C-3.23041 -527.868 0.963435 -507.475 5.5226 -480.832C18.9324 -402.473 24.1008 -326.977 20.8867 -256.443C17.6658 -185.794 2.64402 -117.79 -23.7631 -54.3188C-30.8442 -37.3001 -38.6062 -20.089 -46.1124 -3.44463C-66.3552 41.4417 -87.2875 87.8573 -97.422 136.011C-119.318 240.056 -115.475 353.259 -86.6013 454.761Z" fill="url(#paint29_linear_185_1621)"/>
<path d="M-79.6139 457.954L-84.5825 459.367C-113.683 357.071 -117.555 242.989 -95.4877 138.137C-85.2384 89.434 -64.1898 42.7597 -43.8332 -2.37811C-36.3425 -18.9896 -28.5954 -36.1658 -21.5449 -53.1134C4.63049 -116.026 19.5216 -183.442 22.7131 -253.487C25.911 -323.653 20.7642 -398.775 7.41774 -476.771C2.88268 -503.274 -1.28609 -523.545 -6.09662 -542.495L-1.08783 -543.767C3.75763 -524.677 7.95152 -504.284 12.5106 -477.641C25.9204 -399.282 31.0888 -323.786 27.8748 -253.252C24.6539 -182.603 9.6321 -114.599 -16.775 -51.1279C-23.8561 -34.1092 -31.6181 -16.898 -39.1243 -0.253674C-59.3671 44.6326 -80.2994 91.0482 -90.4339 139.202C-112.33 243.247 -108.488 356.449 -79.6139 457.954Z" fill="url(#paint30_linear_185_1621)"/>
<path d="M-72.6263 461.145L-77.5949 462.558C-106.695 360.262 -110.568 246.181 -88.5014 141.327C-78.2521 92.6242 -57.2035 45.9498 -36.8469 0.812024C-29.3562 -15.7994 -21.6091 -32.9756 -14.5586 -49.9232C11.6168 -112.836 26.5079 -180.252 29.6994 -250.297C32.8974 -320.462 27.7505 -395.585 14.4041 -473.581C9.86904 -500.084 5.70027 -520.354 0.889743 -539.305L5.89725 -540.578C10.7427 -521.488 14.9366 -501.095 19.4957 -474.452C32.9055 -396.092 38.0739 -320.597 34.8598 -250.062C31.6389 -179.414 16.6171 -111.41 -9.78994 -47.9385C-16.871 -30.9198 -24.6331 -13.7086 -32.1393 2.93571C-52.3821 47.822 -73.3144 94.2377 -83.4489 142.391C-105.343 246.439 -101.5 359.64 -72.6263 461.145Z" fill="url(#paint31_linear_185_1621)"/>
<path d="M-65.639 464.335L-70.6076 465.749C-99.708 363.453 -103.581 249.372 -81.5148 144.519C-71.2656 95.8164 -50.217 49.142 -29.8604 4.00421C-22.3696 -12.6073 -14.6226 -29.7835 -7.5721 -46.731C18.6034 -109.644 33.4931 -177.06 36.6859 -247.105C39.8845 -317.268 34.7391 -392.393 21.3906 -470.388C16.8556 -496.891 12.6868 -517.162 7.87632 -536.113L12.8851 -537.385C17.7305 -518.295 21.9244 -497.902 26.4835 -471.259C39.8933 -392.899 45.0609 -317.402 41.8477 -246.869C38.628 -176.22 23.6062 -108.216 -2.80211 -44.7455C-9.88321 -27.7268 -17.6452 -10.5156 -25.1515 6.12867C-45.3942 51.015 -66.3265 97.4306 -76.461 145.584C-98.3555 249.63 -94.5138 362.832 -65.639 464.335Z" fill="url(#paint32_linear_185_1621)"/>
<path d="M-58.653 467.527L-63.6216 468.94C-92.7207 366.645 -96.594 252.562 -74.5267 147.71C-64.2775 99.0074 -43.2289 52.333 -22.8723 7.19525C-15.3816 -9.41619 -7.63446 -26.5924 -0.584011 -43.54C25.5914 -106.453 40.4812 -173.869 43.674 -243.914C46.8726 -314.077 41.7272 -389.202 28.3787 -467.197C23.8436 -493.7 19.6748 -513.971 14.8643 -532.922L19.8718 -534.194C24.7173 -515.105 28.9111 -494.711 33.4702 -468.069C46.88 -389.709 52.0478 -314.212 48.8344 -243.679C45.6148 -173.03 30.593 -105.026 4.18468 -41.5553C-2.89643 -24.5365 -10.6584 -7.32541 -18.1647 9.31894C-38.4074 54.2053 -59.3397 100.621 -69.4743 148.775C-91.3687 252.82 -87.5257 366.023 -58.653 467.527Z" fill="url(#paint33_linear_185_1621)"/>
<path d="M-51.6657 470.718L-56.6343 472.131C-85.7347 369.835 -89.6074 255.754 -67.5395 150.901C-57.2902 102.198 -36.2416 55.5239 -15.885 10.3861C-8.39431 -6.22529 -0.647217 -23.4015 6.40325 -40.3491C32.5787 -103.262 47.4685 -170.678 50.6613 -240.723C53.8598 -310.886 48.7145 -386.011 35.366 -464.006C30.8309 -490.509 26.6622 -510.78 21.8516 -529.731L26.8604 -531.003C31.7059 -511.913 35.8997 -491.52 40.4589 -464.877C53.8686 -386.518 59.0363 -311.02 55.823 -240.488C52.6034 -169.838 37.5816 -101.834 11.1732 -38.3636C4.09216 -21.3449 -3.66985 -4.13375 -11.1761 12.5106C-31.4189 57.3969 -52.3512 103.813 -62.4857 151.966C-84.3822 256.012 -80.5398 369.213 -51.6657 470.718Z" fill="url(#paint34_linear_185_1621)"/>
<path d="M-44.6781 473.909L-49.6467 475.322C-78.7471 373.026 -82.6198 258.945 -60.5539 154.092C-50.3046 105.39 -29.256 58.7154 -8.89945 13.5776C-1.40871 -3.03383 6.33837 -20.21 13.3888 -37.1576C39.5643 -100.071 54.454 -167.487 57.6468 -237.531C60.8454 -307.695 55.7 -382.82 42.3516 -460.815C37.8165 -487.318 33.6477 -507.589 28.8372 -526.54L33.8447 -527.812C38.6902 -508.722 42.884 -488.329 47.4432 -461.687C60.8529 -383.327 66.0205 -307.83 62.8073 -237.297C59.5876 -166.647 44.5659 -98.6434 18.1575 -35.1728C11.0764 -18.1541 3.31439 -0.943006 -4.19183 15.7013C-24.4346 60.5877 -45.3669 107.003 -55.5014 155.157C-77.3945 259.203 -73.5529 372.406 -44.6781 473.909Z" fill="url(#paint35_linear_185_1621)"/>
<path d="M-37.6911 477.101L-42.6597 478.514C-71.7601 376.218 -75.6328 262.137 -53.5661 157.283C-43.3169 108.581 -22.267 61.9071 -1.91039 16.7693C5.58035 0.157846 13.3274 -17.0184 20.3787 -33.9673C46.5541 -96.8804 61.4439 -164.297 64.6367 -234.341C67.8352 -304.504 62.6899 -379.63 49.3414 -457.625C44.8063 -484.128 40.6376 -504.398 35.8271 -523.349L40.8358 -524.621C45.6813 -505.531 49.8751 -485.138 54.4342 -458.495C67.844 -380.136 73.0117 -304.639 69.7984 -234.106C66.5788 -163.456 51.557 -95.4523 25.1486 -31.9818C18.0676 -14.963 10.3055 2.24811 2.79854 18.8937C-17.4442 63.7801 -38.3758 110.194 -48.5116 158.347C-70.4075 262.396 -66.5652 375.597 -37.6911 477.101Z" fill="url(#paint36_linear_185_1621)"/>
<path d="M-30.7041 480.291L-35.6727 481.704C-64.7718 379.409 -68.6458 265.327 -46.5778 160.474C-36.3286 111.772 -15.2787 65.098 5.07787 19.9602C12.5686 3.34876 20.3157 -13.8274 27.3669 -30.7763C53.5423 -93.6894 68.4322 -161.106 71.6249 -231.15C74.8235 -301.313 69.6781 -376.439 56.3296 -454.434C51.7949 -480.931 47.6262 -501.202 42.8153 -520.158L47.8241 -521.43C52.6707 -502.336 56.8637 -481.942 61.4225 -455.304C74.8323 -376.945 80 -301.448 76.7867 -230.915C73.5671 -160.265 58.5453 -92.2614 32.1369 -28.7909C25.0558 -11.7721 17.2938 5.43903 9.78682 22.0847C-10.456 66.971 -31.3875 113.385 -41.5233 161.538C-63.4206 265.586 -59.5777 378.789 -30.7041 480.291Z" fill="url(#paint37_linear_185_1621)"/>
<path d="M-23.7165 483.482L-28.6851 484.895C-57.7849 382.602 -61.659 268.52 -39.5923 163.666C-29.343 114.963 -8.29313 68.2895 12.0635 23.1517C19.5542 6.54027 27.3013 -10.6359 34.3525 -27.5848C60.5279 -90.4979 75.4177 -157.914 78.6105 -227.959C81.8091 -298.122 76.6637 -373.247 63.3152 -451.242C58.7805 -477.74 54.6117 -498.011 49.8008 -516.967L54.8096 -518.238C59.6562 -499.145 63.8493 -478.75 68.4081 -452.113C81.8179 -373.753 86.9855 -298.256 83.7722 -227.723C80.5526 -157.074 65.5309 -89.0699 39.1225 -25.5993C32.0414 -8.5806 24.2794 8.63059 16.7724 25.2762C-3.47042 70.1625 -24.4019 116.577 -34.5378 164.73C-56.4337 268.778 -52.5913 381.979 -23.7165 483.482Z" fill="url(#paint38_linear_185_1621)"/>
<path d="M-16.7292 486.674L-21.6978 488.087C-50.7982 385.792 -54.6709 271.711 -32.6042 166.856C-22.3544 118.156 -1.30582 71.4816 19.05 26.3452C26.5415 9.73241 34.2886 -7.44385 41.3406 -24.394C67.5168 -87.3085 82.4079 -154.724 85.5986 -224.768C88.7971 -294.931 83.6517 -370.056 70.3032 -448.051C65.7686 -474.549 61.5998 -494.82 56.7889 -513.776L61.7977 -515.047C66.6443 -495.954 70.8374 -475.559 75.3962 -448.922C88.8059 -370.562 93.9736 -295.065 90.7603 -224.532C87.5401 -153.885 72.5184 -85.8811 46.1106 -22.4085C39.0295 -5.3898 31.2672 11.8247 23.7603 28.4704C3.5169 73.3546 -17.4159 119.768 -27.5497 167.921C-49.4456 271.969 -45.604 385.171 -16.7292 486.674Z" fill="url(#paint39_linear_185_1621)"/>
<path d="M-9.7419 489.865L-14.7105 491.278C-43.8109 388.983 -47.6836 274.902 -25.6169 170.048C-15.3671 121.347 5.68147 74.6727 26.0373 29.5362C33.5288 12.9234 41.2759 -4.25278 48.3279 -21.203C74.504 -84.1174 89.3952 -151.533 92.5859 -221.577C95.7844 -291.74 90.639 -366.865 77.2905 -444.86C72.7559 -471.358 68.5871 -491.629 63.7763 -510.585L68.785 -511.856C73.6316 -492.763 77.8247 -472.368 82.3834 -445.731C95.7932 -367.371 100.961 -291.874 97.7476 -221.341C94.5274 -150.694 79.5057 -82.6901 53.0979 -19.2175C46.0168 -2.19877 38.2545 15.0158 30.7476 31.6614C10.5055 76.5464 -10.426 122.961 -20.5598 171.113C-42.4583 275.16 -38.6167 388.362 -9.7419 489.865Z" fill="url(#paint40_linear_185_1621)"/>
<path d="M-2.75557 493.056L-7.72413 494.469C-36.824 392.175 -40.698 278.093 -18.6313 173.239C-8.38152 124.539 12.667 77.8642 33.0229 32.7277C40.5144 16.1149 48.2615 -1.06124 55.3134 -18.0114C81.4896 -80.9259 96.3808 -148.341 99.5715 -218.385C102.77 -288.549 97.6246 -363.674 84.2761 -441.669C79.7414 -468.166 75.5727 -488.437 70.7618 -507.394L75.7706 -508.665C80.6171 -489.571 84.8102 -469.177 89.369 -442.54C102.779 -364.18 107.946 -288.683 104.733 -218.15C101.513 -147.502 86.4912 -79.4986 60.0834 -16.026C53.0023 0.992769 45.2401 18.2073 37.7331 34.8529C17.4898 79.7372 -3.44101 126.15 -13.5755 174.304C-35.4727 278.351 -31.6291 391.553 -2.75557 493.056Z" fill="url(#paint41_linear_185_1621)"/>
<path d="M4.23173 496.248L-0.736877 497.661C-29.8359 395.366 -33.71 281.284 -11.6433 176.43C-1.39346 127.729 19.6551 81.055 40.0109 35.9185C47.5024 19.3058 55.2495 2.12952 62.3015 -14.8207C88.4777 -77.7351 103.369 -145.151 106.56 -215.195C109.758 -285.358 104.613 -360.483 91.2642 -438.478C86.7295 -464.976 82.5608 -485.246 77.7499 -504.203L82.7574 -505.475C87.6039 -486.381 91.797 -465.987 96.3558 -439.349C109.766 -360.99 114.933 -285.493 111.72 -214.96C108.5 -144.312 93.478 -76.3085 67.0702 -12.8359C59.9891 4.1828 52.2269 21.3973 44.7199 38.043C24.4778 82.928 3.54631 129.342 -6.58743 177.495C-28.4847 281.542 -24.6423 394.743 4.23173 496.248Z" fill="url(#paint42_linear_185_1621)"/>
<path d="M11.219 499.439L6.25043 500.852C-22.85 398.556 -26.7227 284.475 -4.65598 179.621C5.59383 130.92 26.6416 84.2473 46.9975 39.1108C54.4889 22.498 62.2361 5.32181 69.288 -11.6284C95.4642 -74.5428 110.355 -141.958 113.546 -212.002C116.745 -282.166 111.599 -357.291 98.2507 -435.286C93.716 -461.783 89.5473 -482.054 84.7364 -501.011L89.7452 -502.282C94.5917 -483.188 98.7848 -462.794 103.344 -436.157C116.753 -357.797 121.921 -282.3 118.708 -211.767C115.486 -141.12 100.465 -73.1163 74.0575 -9.645C66.9764 7.37377 59.2142 24.5883 51.7072 41.2339C31.4651 86.1189 10.5336 132.533 0.399847 180.686C-21.4974 284.733 -17.6558 397.935 11.219 499.439Z" fill="url(#paint43_linear_185_1621)"/>
<path d="M18.206 502.629L13.2374 504.042C-15.8624 401.748 -19.7344 287.666 2.33152 182.813C12.5813 134.113 33.6299 87.4383 53.9858 42.3018C61.4773 25.689 69.2243 8.51284 76.2763 -8.43733C102.453 -71.3518 117.344 -138.767 120.534 -208.811C123.733 -278.974 118.588 -354.1 105.239 -432.095C100.704 -458.592 96.5355 -478.863 91.7247 -497.819L96.7335 -499.091C101.58 -479.997 105.773 -459.602 110.332 -432.965C123.742 -354.606 128.909 -279.109 125.696 -208.576C122.475 -137.929 107.453 -69.9252 81.045 -6.45264C73.9639 10.5661 66.2016 27.7807 58.6947 44.4263C38.4526 89.3113 17.5211 135.726 7.38735 183.878C-14.5099 287.925 -10.6675 401.126 18.206 502.629Z" fill="url(#paint44_linear_185_1621)"/>
<path d="M25.193 505.821L20.2244 507.234C-8.87469 404.939 -12.7487 290.857 9.31796 186.003C19.5665 137.302 40.6156 90.6297 60.9702 45.4924C68.4617 28.8797 76.2095 11.7021 83.2607 -5.24672C109.437 -68.1612 124.328 -135.577 127.519 -205.621C130.717 -275.784 125.571 -350.908 112.223 -428.904C107.687 -455.408 103.518 -475.679 98.7091 -494.629L103.718 -495.9C108.563 -476.813 112.756 -456.418 117.316 -429.775C130.726 -351.415 135.894 -275.918 132.68 -205.385C129.462 -134.738 114.441 -66.7344 88.0314 -3.26256C80.9496 13.7575 73.1881 30.9707 65.6811 47.6163C45.4391 92.5014 24.5076 138.916 14.3738 187.068C-7.52344 291.115 -3.68104 404.317 25.193 505.821Z" fill="url(#paint45_linear_185_1621)"/>
<path d="M32.1803 509.012L27.2117 510.425C-1.88865 408.129 -5.7614 294.048 16.3053 189.194C26.5538 140.493 47.6029 93.8206 67.9574 48.6834C75.4489 32.0707 83.1968 14.8931 90.248 -2.05573C116.424 -64.9702 131.315 -132.386 134.506 -202.43C137.703 -272.597 132.558 -347.719 119.211 -425.713C114.674 -452.217 110.506 -472.488 105.696 -491.438L110.705 -492.709C115.55 -473.622 119.743 -453.227 124.304 -426.584C137.712 -348.225 142.883 -272.73 139.668 -202.194C136.448 -131.547 121.426 -63.5429 95.018 -0.0702912C87.9361 16.9498 80.1747 34.163 72.6677 50.8086C52.4256 95.6936 31.4941 142.108 21.3604 190.26C-0.536138 294.306 3.30626 407.507 32.1803 509.012Z" fill="url(#paint46_linear_185_1621)"/>
<path d="M39.1686 512.203L34.2 513.616C5.0996 411.32 1.22556 297.238 23.2928 192.386C33.5413 143.685 54.5904 97.0129 74.945 51.8756C82.4364 35.2629 90.1843 18.0853 97.2355 1.13648C123.412 -61.778 138.303 -129.193 141.494 -199.237C144.691 -269.405 139.545 -344.527 126.198 -422.521C121.662 -449.025 117.493 -469.295 112.684 -488.246L117.691 -489.518C122.536 -470.43 126.729 -450.036 131.29 -423.392C144.698 -345.033 149.869 -269.538 146.654 -199.003C143.436 -128.356 128.414 -60.352 102.006 3.12063C94.9244 20.1407 87.1629 37.3539 79.6559 53.9996C59.4139 98.8846 38.4824 145.299 28.3486 193.451C6.45084 297.497 10.2938 410.7 39.1686 512.203Z" fill="url(#paint47_linear_185_1621)"/>
<path d="M46.1536 515.394L41.185 516.807C12.0854 414.51 8.21267 300.429 30.2799 195.577C40.5284 146.876 61.5775 100.204 81.9321 55.0666C89.4236 38.4538 97.1714 21.2763 104.223 4.32745C130.399 -58.587 145.29 -126.002 148.481 -196.046C151.678 -266.214 146.532 -341.336 133.185 -419.33C128.649 -445.834 124.48 -466.105 119.671 -485.055L124.68 -486.326C129.525 -467.239 133.718 -446.844 138.278 -420.201C151.687 -341.842 156.857 -266.347 153.642 -195.811C150.422 -125.164 135.4 -57.1597 108.993 6.3129C101.911 23.333 94.1493 40.5462 86.6423 57.1918C66.4003 102.077 45.4687 148.491 35.335 196.643C13.438 300.688 17.2796 413.89 46.1536 515.394Z" fill="url(#paint48_linear_185_1621)"/>
<path d="M53.1413 518.585L48.1727 519.998C19.0723 417.703 15.1995 303.622 37.2662 198.768C47.5147 150.066 68.5638 103.394 88.9184 58.2568C96.4098 41.644 104.158 24.4665 111.209 7.51763C137.384 -55.3955 152.275 -122.811 155.467 -192.856C158.664 -263.02 153.518 -338.144 140.172 -416.14C135.635 -442.644 131.467 -462.914 126.657 -481.865L131.666 -483.136C136.511 -464.048 140.704 -443.654 145.265 -417.011C158.674 -338.65 163.842 -263.154 160.629 -192.621C157.408 -121.972 142.386 -53.9681 115.979 9.5031C108.897 26.5232 101.136 43.7363 93.6286 60.382C73.3866 105.267 52.455 151.681 42.3213 199.834C20.4248 303.88 24.2672 417.081 53.1413 518.585Z" fill="url(#paint49_linear_185_1621)"/>
<path d="M60.1295 521.776L55.1609 523.189C26.0605 420.894 22.1878 306.812 44.2537 201.96C54.503 153.257 75.5516 106.583 95.9082 61.4451C103.399 44.8336 111.146 27.6573 118.196 10.7098C144.372 -52.2034 159.263 -119.619 162.455 -189.664C165.652 -259.828 160.506 -334.952 147.159 -412.948C142.623 -439.451 138.454 -459.722 133.645 -478.672L138.654 -479.944C143.499 -460.856 147.692 -440.462 152.252 -413.818C165.661 -335.457 170.829 -259.962 167.616 -189.429C164.395 -118.78 149.374 -50.776 122.966 12.6953C115.885 29.714 108.123 46.9252 100.617 63.5695C80.3743 108.456 59.442 154.871 49.3075 203.025C27.4131 307.071 31.2542 420.271 60.1295 521.776Z" fill="url(#paint50_linear_185_1621)"/>
<path d="M67.1168 524.969L62.1483 526.382C33.0479 424.086 29.1738 310.004 51.2418 205.151C61.4911 156.448 82.5396 109.774 102.896 64.636C110.387 48.0245 118.134 30.8483 125.185 13.9008C151.36 -49.0124 166.251 -116.428 169.443 -186.473C172.64 -256.637 167.494 -331.761 154.147 -409.757C149.611 -436.26 145.442 -456.531 140.633 -475.481L145.642 -476.753C150.487 -457.665 154.68 -437.271 159.24 -410.627C172.65 -332.268 177.82 -256.773 174.605 -186.239C171.384 -115.59 156.362 -47.5864 129.955 15.8849C122.874 32.9037 115.112 50.1148 107.606 66.7592C87.3631 111.645 66.4309 158.061 56.2964 206.215C34.3991 310.262 38.2428 423.464 67.1168 524.969Z" fill="url(#paint51_linear_185_1621)"/>
<path d="M74.1028 528.159L69.1342 529.572C40.0351 427.277 36.1619 313.194 58.2291 208.342C68.4784 159.639 89.5269 112.965 109.884 67.8269C117.374 51.2155 125.121 34.0393 132.172 17.0917C158.347 -45.8214 173.238 -113.237 176.43 -183.282C179.627 -253.446 174.481 -328.57 161.135 -406.566C156.598 -433.069 152.429 -453.34 147.62 -472.29L152.629 -473.562C157.474 -454.474 161.667 -434.08 166.227 -407.436C179.636 -329.075 184.805 -253.58 181.592 -183.047C178.371 -112.398 163.349 -44.394 136.942 19.0772C129.861 36.0959 122.099 53.307 114.592 69.9514C94.3497 114.838 73.4174 161.253 63.2829 209.407C41.3864 313.453 45.2288 426.654 74.1028 528.159Z" fill="url(#paint52_linear_185_1621)"/>
<path d="M81.0908 531.35L76.1222 532.763C47.0224 430.469 43.1491 316.386 65.215 211.533C75.4643 162.831 96.5129 116.156 116.869 71.0185C124.36 54.407 132.107 37.2308 139.158 20.2832C165.333 -42.6299 180.224 -110.045 183.416 -180.091C186.613 -250.255 181.467 -325.379 168.12 -403.374C163.585 -429.879 159.416 -450.15 154.605 -469.1L159.614 -470.371C164.458 -451.284 168.652 -430.89 173.213 -404.245C186.622 -325.884 191.791 -250.388 188.577 -179.855C185.357 -109.206 170.335 -41.2026 143.928 22.2687C136.847 39.2874 129.085 56.4986 121.578 73.1429C101.336 118.029 80.4033 164.445 70.2688 212.598C48.3736 316.645 52.216 429.846 81.0908 531.35Z" fill="url(#paint53_linear_185_1621)"/>
<defs>
<radialGradient id="paint0_radial_185_1621" cx="0" cy="0" r="1" gradientUnits="userSpaceOnUse" gradientTransform="translate(439.794 231.083) rotate(-22.92) scale(473.602 473.602)">
<stop offset="0.28125" stop-color="#2E5053"/>
<stop offset="1" stop-color="#4D9F98"/>
</radialGradient>
<radialGradient id="paint1_radial_185_1621" cx="0" cy="0" r="1" gradientUnits="userSpaceOnUse" gradientTransform="translate(442.787 238.158) rotate(-22.92) scale(473.602 473.602)">
<stop offset="0.28125" stop-color="#2E5053"/>
<stop offset="1" stop-color="#4D9F98"/>
</radialGradient>
<radialGradient id="paint2_radial_185_1621" cx="0" cy="0" r="1" gradientUnits="userSpaceOnUse" gradientTransform="translate(445.778 245.233) rotate(-22.92) scale(473.602 473.602)">
<stop offset="0.28125" stop-color="#2E5053"/>
<stop offset="1" stop-color="#4D9F98"/>
</radialGradient>
<radialGradient id="paint3_radial_185_1621" cx="0" cy="0" r="1" gradientUnits="userSpaceOnUse" gradientTransform="translate(448.768 252.307) rotate(-22.92) scale(473.602 473.602)">
<stop offset="0.28125" stop-color="#2E5053"/>
<stop offset="1" stop-color="#4D9F98"/>
</radialGradient>
<radialGradient id="paint4_radial_185_1621" cx="0" cy="0" r="1" gradientUnits="userSpaceOnUse" gradientTransform="translate(451.759 259.382) rotate(-22.92) scale(473.602 473.602)">
<stop offset="0.28125" stop-color="#2E5053"/>
<stop offset="1" stop-color="#4D9F98"/>
</radialGradient>
<radialGradient id="paint5_radial_185_1621" cx="0" cy="0" r="1" gradientUnits="userSpaceOnUse" gradientTransform="translate(454.751 266.456) rotate(-22.92) scale(473.603 473.603)">
<stop offset="0.28125" stop-color="#2E5053"/>
<stop offset="1" stop-color="#4D9F98"/>
</radialGradient>
<radialGradient id="paint6_radial_185_1621" cx="0" cy="0" r="1" gradientUnits="userSpaceOnUse" gradientTransform="translate(457.744 273.531) rotate(-22.92) scale(473.603 473.603)">
<stop offset="0.28125" stop-color="#2E5053"/>
<stop offset="1" stop-color="#4D9F98"/>
</radialGradient>
<radialGradient id="paint7_radial_185_1621" cx="0" cy="0" r="1" gradientUnits="userSpaceOnUse" gradientTransform="translate(460.735 280.606) rotate(-22.92) scale(473.603 473.603)">
<stop offset="0.28125" stop-color="#2E5053"/>
<stop offset="1" stop-color="#4D9F98"/>
</radialGradient>
<radialGradient id="paint8_radial_185_1621" cx="0" cy="0" r="1" gradientUnits="userSpaceOnUse" gradientTransform="translate(463.726 287.681) rotate(-22.92) scale(473.603 473.603)">
<stop offset="0.28125" stop-color="#2E5053"/>
<stop offset="1" stop-color="#4D9F98"/>
</radialGradient>
<radialGradient id="paint9_radial_185_1621" cx="0" cy="0" r="1" gradientUnits="userSpaceOnUse" gradientTransform="translate(466.717 294.757) rotate(-22.92) scale(473.602 473.602)">
<stop offset="0.28125" stop-color="#2E5053"/>
<stop offset="1" stop-color="#4D9F98"/>
</radialGradient>
<radialGradient id="paint10_radial_185_1621" cx="0" cy="0" r="1" gradientUnits="userSpaceOnUse" gradientTransform="translate(469.708 301.832) rotate(-22.92) scale(473.602 473.602)">
<stop offset="0.28125" stop-color="#2E5053"/>
<stop offset="1" stop-color="#4D9F98"/>
</radialGradient>
<radialGradient id="paint11_radial_185_1621" cx="0" cy="0" r="1" gradientUnits="userSpaceOnUse" gradientTransform="translate(472.7 308.907) rotate(-22.92) scale(473.602 473.602)">
<stop offset="0.28125" stop-color="#2E5053"/>
<stop offset="1" stop-color="#4D9F98"/>
</radialGradient>
<radialGradient id="paint12_radial_185_1621" cx="0" cy="0" r="1" gradientUnits="userSpaceOnUse" gradientTransform="translate(475.691 315.983) rotate(-22.92) scale(473.601 473.601)">
<stop offset="0.28125" stop-color="#2E5053"/>
<stop offset="1" stop-color="#4D9F98"/>
</radialGradient>
<radialGradient id="paint13_radial_185_1621" cx="0" cy="0" r="1" gradientUnits="userSpaceOnUse" gradientTransform="translate(478.683 323.058) rotate(-22.92) scale(473.601 473.601)">
<stop offset="0.28125" stop-color="#2E5053"/>
<stop offset="1" stop-color="#4D9F98"/>
</radialGradient>
<radialGradient id="paint14_radial_185_1621" cx="0" cy="0" r="1" gradientUnits="userSpaceOnUse" gradientTransform="translate(481.674 330.131) rotate(-22.92) scale(473.601 473.601)">
<stop offset="0.28125" stop-color="#2E5053"/>
<stop offset="1" stop-color="#4D9F98"/>
</radialGradient>
<radialGradient id="paint15_radial_185_1621" cx="0" cy="0" r="1" gradientUnits="userSpaceOnUse" gradientTransform="translate(484.665 337.206) rotate(-22.92) scale(473.601 473.601)">
<stop offset="0.28125" stop-color="#2E5053"/>
<stop offset="1" stop-color="#4D9F98"/>
</radialGradient>
<radialGradient id="paint16_radial_185_1621" cx="0" cy="0" r="1" gradientUnits="userSpaceOnUse" gradientTransform="translate(487.658 344.281) rotate(-22.92) scale(473.601 473.601)">
<stop offset="0.28125" stop-color="#2E5053"/>
<stop offset="1" stop-color="#4D9F98"/>
</radialGradient>
<radialGradient id="paint17_radial_185_1621" cx="0" cy="0" r="1" gradientUnits="userSpaceOnUse" gradientTransform="translate(490.649 351.356) rotate(-22.92) scale(473.601 473.601)">
<stop offset="0.28125" stop-color="#2E5053"/>
<stop offset="1" stop-color="#4D9F98"/>
</radialGradient>
<radialGradient id="paint18_radial_185_1621" cx="0" cy="0" r="1" gradientUnits="userSpaceOnUse" gradientTransform="translate(493.641 358.431) rotate(-22.92) scale(473.602 473.602)">
<stop offset="0.28125" stop-color="#2E5053"/>
<stop offset="1" stop-color="#4D9F98"/>
</radialGradient>
<radialGradient id="paint19_radial_185_1621" cx="0" cy="0" r="1" gradientUnits="userSpaceOnUse" gradientTransform="translate(496.632 365.506) rotate(-22.92) scale(473.602 473.602)">
<stop offset="0.28125" stop-color="#2E5053"/>
<stop offset="1" stop-color="#4D9F98"/>
</radialGradient>
<radialGradient id="paint20_radial_185_1621" cx="0" cy="0" r="1" gradientUnits="userSpaceOnUse" gradientTransform="translate(499.625 372.581) rotate(-22.92) scale(473.602 473.602)">
<stop offset="0.28125" stop-color="#2E5053"/>
<stop offset="1" stop-color="#4D9F98"/>
</radialGradient>
<radialGradient id="paint21_radial_185_1621" cx="0" cy="0" r="1" gradientUnits="userSpaceOnUse" gradientTransform="translate(502.616 379.656) rotate(-22.92) scale(473.602 473.603)">
<stop offset="0.28125" stop-color="#2E5053"/>
<stop offset="1" stop-color="#4D9F98"/>
</radialGradient>
<radialGradient id="paint22_radial_185_1621" cx="0" cy="0" r="1" gradientUnits="userSpaceOnUse" gradientTransform="translate(505.607 386.731) rotate(-22.92) scale(473.602 473.602)">
<stop offset="0.28125" stop-color="#2E5053"/>
<stop offset="1" stop-color="#4D9F98"/>
</radialGradient>
<radialGradient id="paint23_radial_185_1621" cx="0" cy="0" r="1" gradientUnits="userSpaceOnUse" gradientTransform="translate(508.598 393.804) rotate(-22.92) scale(473.602 473.603)">
<stop offset="0.28125" stop-color="#2E5053"/>
<stop offset="1" stop-color="#4D9F98"/>
</radialGradient>
<radialGradient id="paint24_radial_185_1621" cx="0" cy="0" r="1" gradientUnits="userSpaceOnUse" gradientTransform="translate(511.591 400.881) rotate(-22.92) scale(473.602 473.602)">
<stop offset="0.28125" stop-color="#2E5053"/>
<stop offset="1" stop-color="#4D9F98"/>
</radialGradient>
<radialGradient id="paint25_radial_185_1621" cx="0" cy="0" r="1" gradientUnits="userSpaceOnUse" gradientTransform="translate(514.583 407.955) rotate(-22.92) scale(473.602 473.602)">
<stop offset="0.28125" stop-color="#2E5053"/>
<stop offset="1" stop-color="#4D9F98"/>
</radialGradient>
<radialGradient id="paint26_radial_185_1621" cx="0" cy="0" r="1" gradientUnits="userSpaceOnUse" gradientTransform="translate(517.574 415.029) rotate(-22.92) scale(473.602 473.602)">
<stop offset="0.28125" stop-color="#2E5053"/>
<stop offset="1" stop-color="#4D9F98"/>
</radialGradient>
<linearGradient id="paint27_linear_185_1621" x1="-260.594" y1="378.97" x2="132.926" y2="-482.538" gradientUnits="userSpaceOnUse">
<stop offset="0.114583" stop-color="#2E5053"/>
<stop offset="1" stop-color="#2E5053"/>
</linearGradient>
<linearGradient id="paint28_linear_185_1621" x1="-253.607" y1="382.161" x2="139.914" y2="-479.347" gradientUnits="userSpaceOnUse">
<stop offset="0.114583" stop-color="#2E5053"/>
<stop offset="1" stop-color="#2E5053"/>
</linearGradient>
<linearGradient id="paint29_linear_185_1621" x1="-246.619" y1="385.351" x2="146.9" y2="-476.155" gradientUnits="userSpaceOnUse">
<stop offset="0.114583" stop-color="#2E5053"/>
<stop offset="1" stop-color="#2E5053"/>
</linearGradient>
<linearGradient id="paint30_linear_185_1621" x1="-239.632" y1="388.544" x2="153.888" y2="-472.964" gradientUnits="userSpaceOnUse">
<stop offset="0.114583" stop-color="#2E5053"/>
<stop offset="1" stop-color="#2E5053"/>
</linearGradient>
<linearGradient id="paint31_linear_185_1621" x1="-232.645" y1="391.734" x2="160.876" y2="-469.774" gradientUnits="userSpaceOnUse">
<stop offset="0.114583" stop-color="#2E5053"/>
<stop offset="1" stop-color="#2E5053"/>
</linearGradient>
<linearGradient id="paint32_linear_185_1621" x1="-225.657" y1="394.925" x2="167.862" y2="-466.581" gradientUnits="userSpaceOnUse">
<stop offset="0.114583" stop-color="#2E5053"/>
<stop offset="1" stop-color="#2E5053"/>
</linearGradient>
<linearGradient id="paint33_linear_185_1621" x1="-218.671" y1="398.117" x2="174.849" y2="-463.391" gradientUnits="userSpaceOnUse">
<stop offset="0.114583" stop-color="#2E5053"/>
<stop offset="1" stop-color="#2E5053"/>
</linearGradient>
<linearGradient id="paint34_linear_185_1621" x1="-211.684" y1="401.308" x2="181.836" y2="-460.2" gradientUnits="userSpaceOnUse">
<stop offset="0.114583" stop-color="#2E5053"/>
<stop offset="1" stop-color="#2E5053"/>
</linearGradient>
<linearGradient id="paint35_linear_185_1621" x1="-204.697" y1="404.499" x2="188.823" y2="-457.008" gradientUnits="userSpaceOnUse">
<stop offset="0.114583" stop-color="#2E5053"/>
<stop offset="1" stop-color="#2E5053"/>
</linearGradient>
<linearGradient id="paint36_linear_185_1621" x1="-197.709" y1="407.691" x2="195.811" y2="-453.819" gradientUnits="userSpaceOnUse">
<stop offset="0.114583" stop-color="#2E5053"/>
<stop offset="1" stop-color="#2E5053"/>
</linearGradient>
<linearGradient id="paint37_linear_185_1621" x1="-190.722" y1="410.882" x2="202.799" y2="-450.628" gradientUnits="userSpaceOnUse">
<stop offset="0.114583" stop-color="#2E5053"/>
<stop offset="1" stop-color="#2E5053"/>
</linearGradient>
<linearGradient id="paint38_linear_185_1621" x1="-183.734" y1="414.072" x2="209.786" y2="-447.436" gradientUnits="userSpaceOnUse">
<stop offset="0.114583" stop-color="#2E5053"/>
<stop offset="1" stop-color="#2E5053"/>
</linearGradient>
<linearGradient id="paint39_linear_185_1621" x1="-176.747" y1="417.264" x2="216.773" y2="-444.245" gradientUnits="userSpaceOnUse">
<stop offset="0.114583" stop-color="#2E5053"/>
<stop offset="1" stop-color="#2E5053"/>
</linearGradient>
<linearGradient id="paint40_linear_185_1621" x1="-169.76" y1="420.455" x2="223.761" y2="-441.054" gradientUnits="userSpaceOnUse">
<stop offset="0.114583" stop-color="#2E5053"/>
<stop offset="1" stop-color="#2E5053"/>
</linearGradient>
<linearGradient id="paint41_linear_185_1621" x1="-162.773" y1="423.646" x2="230.747" y2="-437.863" gradientUnits="userSpaceOnUse">
<stop offset="0.114583" stop-color="#2E5053"/>
<stop offset="1" stop-color="#2E5053"/>
</linearGradient>
<linearGradient id="paint42_linear_185_1621" x1="-155.786" y1="426.838" x2="237.734" y2="-434.672" gradientUnits="userSpaceOnUse">
<stop offset="0.114583" stop-color="#2E5053"/>
<stop offset="1" stop-color="#2E5053"/>
</linearGradient>
<linearGradient id="paint43_linear_185_1621" x1="-148.799" y1="430.029" x2="244.721" y2="-431.479" gradientUnits="userSpaceOnUse">
<stop offset="0.114583" stop-color="#2E5053"/>
<stop offset="1" stop-color="#2E5053"/>
</linearGradient>
<linearGradient id="paint44_linear_185_1621" x1="-141.811" y1="433.219" x2="251.708" y2="-428.289" gradientUnits="userSpaceOnUse">
<stop offset="0.114583" stop-color="#2E5053"/>
<stop offset="1" stop-color="#2E5053"/>
</linearGradient>
<linearGradient id="paint45_linear_185_1621" x1="-134.825" y1="436.411" x2="258.695" y2="-425.097" gradientUnits="userSpaceOnUse">
<stop offset="0.114583" stop-color="#2E5053"/>
<stop offset="1" stop-color="#2E5053"/>
</linearGradient>
<linearGradient id="paint46_linear_185_1621" x1="-127.838" y1="439.602" x2="265.682" y2="-421.906" gradientUnits="userSpaceOnUse">
<stop offset="0.114583" stop-color="#2E5053"/>
<stop offset="1" stop-color="#2E5053"/>
</linearGradient>
<linearGradient id="paint47_linear_185_1621" x1="-120.85" y1="442.793" x2="272.67" y2="-418.714" gradientUnits="userSpaceOnUse">
<stop offset="0.114583" stop-color="#2E5053"/>
<stop offset="1" stop-color="#2E5053"/>
</linearGradient>
<linearGradient id="paint48_linear_185_1621" x1="-113.864" y1="445.985" x2="279.656" y2="-415.524" gradientUnits="userSpaceOnUse">
<stop offset="0.114583" stop-color="#2E5053"/>
<stop offset="1" stop-color="#2E5053"/>
</linearGradient>
<linearGradient id="paint49_linear_185_1621" x1="-106.877" y1="449.175" x2="286.643" y2="-412.333" gradientUnits="userSpaceOnUse">
<stop offset="0.114583" stop-color="#2E5053"/>
<stop offset="1" stop-color="#2E5053"/>
</linearGradient>
<linearGradient id="paint50_linear_185_1621" x1="-99.8889" y1="452.366" x2="293.631" y2="-409.141" gradientUnits="userSpaceOnUse">
<stop offset="0.114583" stop-color="#2E5053"/>
<stop offset="1" stop-color="#2E5053"/>
</linearGradient>
<linearGradient id="paint51_linear_185_1621" x1="-92.9016" y1="455.558" x2="300.619" y2="-405.95" gradientUnits="userSpaceOnUse">
<stop offset="0.114583" stop-color="#2E5053"/>
<stop offset="1" stop-color="#2E5053"/>
</linearGradient>
<linearGradient id="paint52_linear_185_1621" x1="-85.9151" y1="458.749" x2="307.605" y2="-402.759" gradientUnits="userSpaceOnUse">
<stop offset="0.114583" stop-color="#2E5053"/>
<stop offset="1" stop-color="#2E5053"/>
</linearGradient>
<linearGradient id="paint53_linear_185_1621" x1="-78.9281" y1="461.939" x2="314.592" y2="-399.567" gradientUnits="userSpaceOnUse">
<stop offset="0.114583" stop-color="#2E5053"/>
<stop offset="1" stop-color="#2E5053"/>
</linearGradient>
</defs>
</svg>
