<svg width="83" height="83" viewBox="0 0 83 83" fill="none" xmlns="http://www.w3.org/2000/svg">
<path d="M41.9588 82.9953C64.5932 82.9953 82.942 64.6254 82.942 41.9649C82.942 19.3044 64.5932 0.934418 41.9588 0.934418C19.3244 0.934418 0.975586 19.3044 0.975586 41.9649C0.975586 64.6254 19.3244 82.9953 41.9588 82.9953Z" fill="#E9E9E9"/>
<path d="M41.9584 73.7202C59.4764 73.7202 73.6775 59.5027 73.6775 41.9645C73.6775 24.4263 59.4764 10.2088 41.9584 10.2088C24.4404 10.2088 10.2393 24.4263 10.2393 41.9645C10.2393 59.5027 24.4404 73.7202 41.9584 73.7202Z" fill="#2E5053"/>
<path d="M49.5953 31.5499H44.9526C44.4861 30.254 43.2643 29.3155 41.8204 29.3155C40.3765 29.3155 39.1548 30.254 38.6883 31.5499H34.0456C32.8238 31.5499 31.8242 32.5554 31.8242 33.7844V49.4256C31.8242 50.6545 32.8238 51.66 34.0456 51.66H49.5953C50.8171 51.66 51.8167 50.6545 51.8167 49.4256V33.7844C51.8167 32.5554 50.8171 31.5499 49.5953 31.5499ZM41.8204 31.5499C42.4313 31.5499 42.9311 32.0527 42.9311 32.6672C42.9311 33.2816 42.4313 33.7844 41.8204 33.7844C41.2096 33.7844 40.7098 33.2816 40.7098 32.6672C40.7098 32.0527 41.2096 31.5499 41.8204 31.5499ZM41.8204 36.0188C43.6642 36.0188 45.1525 37.5159 45.1525 39.3705C45.1525 41.2251 43.6642 42.7222 41.8204 42.7222C39.9767 42.7222 38.4884 41.2251 38.4884 39.3705C38.4884 37.5159 39.9767 36.0188 41.8204 36.0188ZM48.4846 49.4256H35.1563V47.8614C35.1563 45.627 39.5991 44.398 41.8204 44.398C44.0418 44.398 48.4846 45.627 48.4846 47.8614V49.4256Z" fill="white"/>
</svg>
