<svg width="108" height="108" viewBox="0 0 108 108" fill="none" xmlns="http://www.w3.org/2000/svg">
<path d="M69.6428 92.2327C90.5543 83.561 100.485 59.5595 91.8228 38.6239C83.1609 17.6883 59.1871 7.7466 38.2756 16.4184C17.3642 25.0902 7.43389 49.0917 16.0957 70.0272C24.7575 90.9628 48.7314 100.905 69.6428 92.2327Z" fill="#E9E9E9"/>
<path d="M53.9584 86.0814C71.4764 86.0814 85.6775 71.8639 85.6775 54.3257C85.6775 36.7875 71.4764 22.57 53.9584 22.57C36.4404 22.57 22.2393 36.7875 22.2393 54.3257C22.2393 71.8639 36.4404 86.0814 53.9584 86.0814Z" fill="#2E5053"/>
<path d="M61.0992 46.5079H56.2858C55.8022 45.1721 54.5355 44.2048 53.0385 44.2048C51.5416 44.2048 50.2749 45.1721 49.7912 46.5079H44.9779C43.7112 46.5079 42.6748 47.5442 42.6748 48.8109V64.9323C42.6748 66.199 43.7112 67.2353 44.9779 67.2353H61.0992C62.3659 67.2353 63.4023 66.199 63.4023 64.9323V48.8109C63.4023 47.5442 62.3659 46.5079 61.0992 46.5079ZM53.0385 46.5079C53.6719 46.5079 54.1901 47.0261 54.1901 47.6594C54.1901 48.2927 53.6719 48.8109 53.0385 48.8109C52.4052 48.8109 51.887 48.2927 51.887 47.6594C51.887 47.0261 52.4052 46.5079 53.0385 46.5079ZM50.7355 62.6292L46.1294 58.0231L47.753 56.3995L50.7355 59.3704L58.324 51.7819L59.9477 53.417L50.7355 62.6292Z" fill="white"/>
</svg>
