<svg width="100" height="99" viewBox="0 0 100 99" fill="none" xmlns="http://www.w3.org/2000/svg">
<path d="M89.846 58.7835C95.0453 36.7289 81.4021 14.6304 59.373 9.4251C37.3439 4.21976 15.2708 17.8787 10.0715 39.9333C4.87213 61.9878 18.5154 84.0863 40.5445 89.2916C62.5736 94.497 84.6467 80.838 89.846 58.7835Z" fill="#E9E9E9"/>
<path d="M49.9652 81.1254C67.4832 81.1254 81.6843 66.9079 81.6843 49.3697C81.6843 31.8315 67.4832 17.614 49.9652 17.614C32.4472 17.614 18.2461 31.8315 18.2461 49.3697C18.2461 66.9079 32.4472 81.1254 49.9652 81.1254Z" fill="#2E5053"/>
<g clip-path="url(#clip0_286_11417)">
<path d="M61.2915 41.5633L48.4321 54.4339L43.6535 49.6553L45.2426 48.0662L48.4321 51.2557L59.7024 39.9855L61.2915 41.5633ZM50.0212 58.2658C45.0511 58.2658 41.005 54.2198 41.005 49.2496C41.005 44.2794 45.0511 40.2334 50.0212 40.2334C51.7907 40.2334 53.4474 40.7518 54.8449 41.6422L56.4791 40.008C54.642 38.7345 52.4218 37.9794 50.0212 37.9794C43.8001 37.9794 38.751 43.0284 38.751 49.2496C38.751 55.4708 43.8001 60.5199 50.0212 60.5199C51.971 60.5199 53.808 60.024 55.4084 59.1449L53.7179 57.4544C52.5909 57.9728 51.3399 58.2658 50.0212 58.2658ZM57.9104 52.6307H54.5293V54.8847H57.9104V58.2658H60.1645V54.8847H63.5455V52.6307H60.1645V49.2496H57.9104V52.6307Z" fill="white"/>
</g>
<defs>
<clipPath id="clip0_286_11417">
<rect width="27.0486" height="27.0486" fill="white" transform="translate(36.4971 35.7253)"/>
</clipPath>
</defs>
</svg>
