<svg width="108" height="108" viewBox="0 0 108 108" fill="none" xmlns="http://www.w3.org/2000/svg">
<path d="M69.6428 91.563C90.5543 82.8912 100.485 58.8897 91.8228 37.9541C83.1609 17.0186 59.1871 7.07682 38.2757 15.7486C17.3642 24.4204 7.43389 48.4219 16.0957 69.3575C24.7575 90.293 48.7314 100.235 69.6428 91.563Z" fill="#E9E9E9"/>
<path d="M53.9593 85.4162C71.4773 85.4162 85.6785 71.1987 85.6785 53.6605C85.6785 36.1223 71.4773 21.9048 53.9593 21.9048C36.4414 21.9048 22.2402 36.1223 22.2402 53.6605C22.2402 71.1987 36.4414 85.4162 53.9593 85.4162Z" fill="#2E5053"/>
<path d="M66.27 44.5499V46.7781H62.9277V50.1205H60.6994V46.7781H57.357V44.5499H60.6994V41.2075H62.9277V44.5499H66.27ZM62.9277 60.1477H47.3298V44.5499H54.0146V42.3216H47.3298C46.1043 42.3216 45.1016 43.3243 45.1016 44.5499V60.1477C45.1016 61.3732 46.1043 62.3759 47.3298 62.3759H62.9277C64.1532 62.3759 65.1559 61.3732 65.1559 60.1477V53.4629H62.9277V60.1477ZM58.4711 53.4629V57.9194H60.6994V53.4629H58.4711ZM54.0146 57.9194H56.2429V49.0064H54.0146V57.9194ZM51.7863 57.9194V51.2346H49.5581V57.9194H51.7863Z" fill="white"/>
</svg>
