<svg width="116" height="117" viewBox="0 0 116 117" fill="none" xmlns="http://www.w3.org/2000/svg">
<path d="M86.9385 87.3032C102.943 71.2798 102.943 45.3008 86.9385 29.2774C70.9335 13.254 44.9844 13.254 28.9795 29.2774C12.9746 45.3008 12.9746 71.2799 28.9795 87.3032C44.9844 103.327 70.9336 103.327 86.9385 87.3032Z" fill="#E9E9E9"/>
<path d="M57.9613 90.0444C75.4793 90.0444 89.6804 75.8269 89.6804 58.2887C89.6804 40.7505 75.4793 26.533 57.9613 26.533C40.4433 26.533 26.2422 40.7505 26.2422 58.2887C26.2422 75.8269 40.4433 90.0444 57.9613 90.0444Z" fill="#2E5053"/>
<path d="M67.7806 59.2282C67.88 56.6338 66.9582 53.984 64.9203 51.9461C62.9346 49.9603 60.748 49.4891 60.6191 49.4333L60.6154 49.4341C55.5347 48.03 52.028 51.1353 51.9617 51.1649C47.3167 54.8122 46.9576 61.6619 51.0811 65.7854C51.5087 66.213 51.965 66.5916 52.4433 66.9225V66.7186C52.4433 64.5224 53.7239 62.6199 55.5774 61.718C54.7695 61.0304 54.2555 60.0073 54.2555 58.8658C54.2555 56.8006 55.9356 55.1205 58.0007 55.1205C60.0658 55.1205 61.7459 56.8006 61.7459 58.8658C61.7459 60.0072 61.2319 61.0305 60.4239 61.718C60.9975 61.997 61.516 62.3721 61.9589 62.8219C63.0332 60.6938 65.2391 59.2305 67.7806 59.2282Z" fill="white"/>
<path d="M61.401 64.4157C60.6614 63.3273 59.4135 62.6108 58.0013 62.6108C55.7362 62.6108 53.8936 64.4535 53.8936 66.7185V67.7513C56.3538 68.8881 59.1737 68.9368 61.6441 67.9488C61.3977 67.262 61.2632 66.5224 61.2632 65.752C61.2632 65.2941 61.3108 64.8472 61.401 64.4157Z" fill="white"/>
<path d="M58.0005 61.1613C59.2683 61.1613 60.296 60.1336 60.296 58.8659C60.296 57.5981 59.2683 56.5704 58.0005 56.5704C56.7328 56.5704 55.7051 57.5981 55.7051 58.8659C55.7051 60.1336 56.7328 61.1613 58.0005 61.1613Z" fill="white"/>
<path d="M67.787 60.6779C64.9847 60.6779 62.7129 62.9497 62.7129 65.7521C62.7129 68.5544 64.9847 70.8262 67.787 70.8262C70.5894 70.8262 72.8612 68.5544 72.8612 65.7521C72.8612 62.9497 70.5894 60.6779 67.787 60.6779Z" fill="white"/>
<path d="M67.9316 63.4456L63.6015 70.9456L72.2618 70.9456L67.9316 63.4456Z" fill="#2E5053"/>
</svg>
