<svg width="116" height="117" viewBox="0 0 116 117" fill="none" xmlns="http://www.w3.org/2000/svg">
<path d="M86.9385 87.0339C102.943 71.0105 102.943 45.0315 86.9385 29.0081C70.9336 12.9847 44.9844 12.9847 28.9795 29.0081C12.9746 45.0315 12.9746 71.0105 28.9795 87.0339C44.9844 103.057 70.9336 103.057 86.9385 87.0339Z" fill="#E9E9E9"/>
<path d="M57.9613 89.7751C75.4793 89.7751 89.6804 75.5576 89.6804 58.0194C89.6804 40.4812 75.4793 26.2637 57.9613 26.2637C40.4433 26.2637 26.2422 40.4812 26.2422 58.0194C26.2422 75.5576 40.4433 89.7751 57.9613 89.7751Z" fill="#2E5053"/>
<g clip-path="url(#clip0_286_11438)">
<path d="M65.2446 52.5245H51.7693C50.287 52.5245 49.0742 53.7373 49.0742 55.2196V68.6949C49.0742 70.1772 50.287 71.3899 51.7693 71.3899H65.2446C66.7269 71.3899 67.9396 70.1772 67.9396 68.6949V55.2196C67.9396 53.7373 66.7269 52.5245 65.2446 52.5245ZM59.8545 69.3687H57.1594V67.3474H59.8545V69.3687ZM59.8545 65.9998H57.1594C57.1594 63.9785 53.7906 61.9572 53.7906 59.2622C53.7906 56.6614 55.9062 54.5458 58.5069 54.5458C61.1077 54.5458 63.2233 56.6614 63.2233 59.2622C63.2233 61.9572 59.8545 63.9785 59.8545 65.9998ZM66.5921 50.5032H50.4217C50.4217 49.3848 51.3246 48.4819 52.443 48.4819H64.5708C65.6893 48.4819 66.5921 49.3848 66.5921 50.5032ZM65.2446 46.4606H51.7693C51.7693 45.3422 52.6721 44.4393 53.7906 44.4393H63.2233C64.3417 44.4393 65.2446 45.3422 65.2446 46.4606Z" fill="white"/>
</g>
<defs>
<clipPath id="clip0_286_11438">
<rect width="32.3407" height="32.3407" fill="white" transform="translate(42.3369 41.7443)"/>
</clipPath>
</defs>
</svg>
