<svg width="36" height="36" viewBox="0 0 36 36" fill="none" xmlns="http://www.w3.org/2000/svg">
<path d="M23.8107 10.8757C24.2306 10.8757 24.6334 11.0425 24.9303 11.3395C25.2272 11.6364 25.394 12.0391 25.394 12.4591V23.5424C25.394 23.9623 25.2272 24.3651 24.9303 24.662C24.6334 24.9589 24.2306 25.1257 23.8107 25.1257H12.7274C12.3075 25.1257 11.9047 24.9589 11.6078 24.662C11.3109 24.3651 11.144 23.9623 11.144 23.5424V12.4591C11.144 12.0391 11.3109 11.6364 11.6078 11.3395C11.9047 11.0425 12.3075 10.8757 12.7274 10.8757H23.8107ZM23.4149 23.1466V18.9507C23.4149 18.2663 23.143 17.6098 22.659 17.1258C22.175 16.6418 21.5185 16.3699 20.834 16.3699C20.1611 16.3699 19.3774 16.7816 18.9974 17.3991V16.5203H16.7886V23.1466H18.9974V19.2436C18.9974 18.6341 19.4882 18.1353 20.0978 18.1353C20.3917 18.1353 20.6737 18.2521 20.8815 18.4599C21.0894 18.6678 21.2061 18.9497 21.2061 19.2436V23.1466H23.4149ZM14.2157 15.2774C14.5684 15.2774 14.9067 15.1373 15.1562 14.8879C15.4056 14.6384 15.5457 14.3001 15.5457 13.9474C15.5457 13.2111 14.952 12.6095 14.2157 12.6095C13.8609 12.6095 13.5206 12.7504 13.2697 13.0013C13.0188 13.2523 12.8778 13.5926 12.8778 13.9474C12.8778 14.6836 13.4795 15.2774 14.2157 15.2774ZM15.3161 23.1466V16.5203H13.1232V23.1466H15.3161Z" fill="#D2D2D2"/>
<rect x="1.28973" y="1.02069" width="33.9586" height="33.9586" rx="16.9793" stroke="#D2D2D2" stroke-width="1.04138"/>
</svg>
