<svg width="50" height="196" viewBox="0 0 50 196" fill="none" xmlns="http://www.w3.org/2000/svg">
<path d="M0.333008 12.8C0.333008 8.31958 0.333008 6.07937 1.20496 4.36808C1.97194 2.86278 3.19579 1.63893 4.70108 0.871948C6.41238 0 8.65259 0 13.133 0H284.899C289.379 0 291.619 0 293.33 0.871948C294.836 1.63893 296.06 2.86278 296.827 4.36808C297.699 6.07937 297.699 8.31958 297.699 12.8V183.2C297.699 187.68 297.699 189.921 296.827 191.632C296.06 193.137 294.836 194.361 293.33 195.128C291.619 196 289.379 196 284.899 196H13.133C8.65259 196 6.41238 196 4.70108 195.128C3.19579 194.361 1.97194 193.137 1.20496 191.632C0.333008 189.921 0.333008 187.68 0.333008 183.2V12.8Z" fill="#2E5053"/>
</svg>
