<svg width="301" height="133" viewBox="0 0 301 133" fill="none" xmlns="http://www.w3.org/2000/svg">
<path d="M0 12.72C0 8.31504 0 6.11257 0.843643 4.42417C1.61799 2.87446 2.87446 1.61799 4.42417 0.843643C6.11257 0 8.31504 0 12.72 0H287.613C292.018 0 294.221 0 295.909 0.843643C297.459 1.61799 298.715 2.87446 299.49 4.42417C300.333 6.11257 300.333 8.31504 300.333 12.72V120.28C300.333 124.685 300.333 126.887 299.49 128.576C298.715 130.126 297.459 131.382 295.909 132.156C294.221 133 292.018 133 287.613 133H12.72C8.31505 133 6.11257 133 4.42417 132.156C2.87446 131.382 1.61799 130.126 0.843643 128.576C0 126.887 0 124.685 0 120.28V12.72Z" fill="#E9E9E9"/>
</svg>
