<svg width="301" height="133" viewBox="0 0 301 133" fill="none" xmlns="http://www.w3.org/2000/svg">
<path d="M0 12.8C0 8.31958 0 6.07937 0.871948 4.36808C1.63893 2.86278 2.86278 1.63893 4.36808 0.871948C6.07937 0 8.31958 0 12.8 0H287.235C291.715 0 293.955 0 295.667 0.871948C297.172 1.63893 298.396 2.86278 299.163 4.36808C300.035 6.07937 300.035 8.31958 300.035 12.8V120.2C300.035 124.68 300.035 126.921 299.163 128.632C298.396 130.137 297.172 131.361 295.667 132.128C293.955 133 291.715 133 287.235 133H12.8C8.31957 133 6.07937 133 4.36808 132.128C2.86278 131.361 1.63893 130.137 0.871948 128.632C0 126.921 0 124.68 0 120.2V12.8Z" fill="#F6F7F8"/>
</svg>
