<svg width="363" height="133" viewBox="0 0 363 133" fill="none" xmlns="http://www.w3.org/2000/svg">
<path d="M0 12.8C0 8.31958 0 6.07937 0.871948 4.36808C1.63893 2.86278 2.86278 1.63893 4.36808 0.871948C6.07937 0 8.31958 0 12.8 0H350.2C354.68 0 356.921 0 358.632 0.871948C360.137 1.63893 361.361 2.86278 362.128 4.36808C363 6.07937 363 8.31958 363 12.8V120.2C363 124.68 363 126.921 362.128 128.632C361.361 130.137 360.137 131.361 358.632 132.128C356.921 133 354.68 133 350.2 133H12.8C8.31958 133 6.07937 133 4.36808 132.128C2.86278 131.361 1.63893 130.137 0.871948 128.632C0 126.921 0 124.68 0 120.2V12.8Z" fill="#F6F7F8"/>
</svg>
