<svg width="50" height="133" viewBox="0 0 50 133" fill="none" xmlns="http://www.w3.org/2000/svg">
<path d="M0.333008 12.8C0.333008 8.31958 0.333008 6.07937 1.20496 4.36808C1.97194 2.86278 3.19579 1.63893 4.70108 0.871948C6.41238 0 8.65259 0 13.133 0H287.866C292.347 0 294.587 0 296.298 0.871948C297.804 1.63893 299.027 2.86278 299.794 4.36808C300.666 6.07937 300.666 8.31958 300.666 12.8V120.2C300.666 124.68 300.666 126.921 299.794 128.632C299.027 130.137 297.804 131.361 296.298 132.128C294.587 133 292.347 133 287.866 133H13.133C8.65259 133 6.41238 133 4.70108 132.128C3.19579 131.361 1.97194 130.137 1.20496 128.632C0.333008 126.921 0.333008 124.68 0.333008 120.2V12.8Z" fill="#F6F7F8"/>
</svg>
