<svg width="363" height="133" viewBox="0 0 363 133" fill="none" xmlns="http://www.w3.org/2000/svg">
<path d="M0 12.72C0 8.31504 0 6.11257 0.843643 4.42417C1.61799 2.87446 2.87446 1.61799 4.42417 0.843643C6.11257 0 8.31504 0 12.72 0H350.28C354.685 0 356.887 0 358.576 0.843643C360.126 1.61799 361.382 2.87446 362.156 4.42417C363 6.11257 363 8.31504 363 12.72V120.28C363 124.685 363 126.887 362.156 128.576C361.382 130.126 360.126 131.382 358.576 132.156C356.887 133 354.685 133 350.28 133H12.72C8.31505 133 6.11257 133 4.42417 132.156C2.87446 131.382 1.61799 130.126 0.843643 128.576C0 126.887 0 124.685 0 120.28V12.72Z" fill="#E9E9E9"/>
</svg>
