<svg width="363" height="196" viewBox="0 0 363 196" fill="none" xmlns="http://www.w3.org/2000/svg">
<path d="M0 12.8C0 8.31958 0 6.07937 0.871948 4.36808C1.63893 2.86278 2.86278 1.63893 4.36808 0.871948C6.07937 0 8.31958 0 12.8 0H350.2C354.68 0 356.921 0 358.632 0.871948C360.137 1.63893 361.361 2.86278 362.128 4.36808C363 6.07937 363 8.31958 363 12.8V183.2C363 187.68 363 189.921 362.128 191.632C361.361 193.137 360.137 194.361 358.632 195.128C356.921 196 354.68 196 350.2 196H12.8C8.31958 196 6.07937 196 4.36808 195.128C2.86278 194.361 1.63893 193.137 0.871948 191.632C0 189.921 0 187.68 0 183.2V12.8Z" fill="#202020"/>
</svg>
