<svg width="301" height="196" viewBox="0 0 301 196" fill="none" xmlns="http://www.w3.org/2000/svg">
<path d="M0 12.8C0 8.31958 0 6.07937 0.871948 4.36808C1.63893 2.86278 2.86278 1.63893 4.36808 0.871948C6.07937 0 8.31958 0 12.8 0H287.533C292.014 0 294.254 0 295.965 0.871948C297.471 1.63893 298.694 2.86278 299.461 4.36808C300.333 6.07937 300.333 8.31958 300.333 12.8V183.2C300.333 187.68 300.333 189.921 299.461 191.632C298.694 193.137 297.471 194.361 295.965 195.128C294.254 196 292.014 196 287.533 196H12.8C8.31958 196 6.07937 196 4.36808 195.128C2.86278 194.361 1.63893 193.137 0.871948 191.632C0 189.921 0 187.68 0 183.2V12.8Z" fill="#4D9F98"/>
</svg>
