<svg width="301" height="133" viewBox="0 0 301 133" fill="none" xmlns="http://www.w3.org/2000/svg">
<path d="M0 12.8C0 8.31958 0 6.07937 0.871948 4.36808C1.63893 2.86278 2.86278 1.63893 4.36808 0.871948C6.07937 0 8.31958 0 12.8 0H287.533C292.014 0 294.254 0 295.965 0.871948C297.471 1.63893 298.694 2.86278 299.461 4.36808C300.333 6.07937 300.333 8.31958 300.333 12.8V120.2C300.333 124.68 300.333 126.921 299.461 128.632C298.694 130.137 297.471 131.361 295.965 132.128C294.254 133 292.014 133 287.533 133H12.8C8.31958 133 6.07937 133 4.36808 132.128C2.86278 131.361 1.63893 130.137 0.871948 128.632C0 126.921 0 124.68 0 120.2V12.8Z" fill="#E9E9E9"/>
</svg>
