<svg width="36" height="36" viewBox="0 0 36 36" fill="none" xmlns="http://www.w3.org/2000/svg">
<path d="M26.529 12.8778C25.921 13.1478 25.268 13.3295 24.5825 13.4114C25.2826 12.9922 25.8194 12.3283 26.0722 11.5368C25.4179 11.925 24.6924 12.207 23.92 12.3595C23.3019 11.7007 22.4214 11.2891 21.4469 11.2891C19.5755 11.2891 18.0585 12.8067 18.0585 14.6775C18.0585 14.943 18.089 15.2022 18.1461 15.4493C15.3301 15.3083 12.8335 13.959 11.1615 11.9084C10.8706 12.409 10.7035 12.9909 10.7035 13.6128C10.7035 14.788 11.3013 15.8254 12.2103 16.4327C11.6551 16.4149 11.1323 16.2625 10.6756 16.009C10.6756 16.0236 10.6756 16.037 10.6756 16.0516C10.6756 17.6937 11.8432 19.0633 13.3938 19.3739C13.1099 19.4514 12.81 19.4927 12.5006 19.4927C12.2828 19.4927 12.0699 19.4711 11.8635 19.4324C12.2948 20.7785 13.5463 21.7587 15.029 21.786C13.8696 22.695 12.4085 23.2369 10.8204 23.2369C10.5472 23.2369 10.2773 23.221 10.0117 23.1893C11.5116 24.1504 13.2922 24.7113 15.2062 24.7113C21.4393 24.7113 24.8468 19.548 24.8468 15.0701C24.8468 14.9234 24.8436 14.7772 24.8373 14.6318C25.4998 14.1534 26.0748 13.5569 26.529 12.8778Z" fill="#D2D2D2"/>
<rect x="1.29022" y="1.02069" width="33.9586" height="33.9586" rx="16.9793" stroke="#D2D2D2" stroke-width="1.04138"/>
</svg>
