<svg width="35" height="35" viewBox="0 0 35 35" fill="none" xmlns="http://www.w3.org/2000/svg">
<path d="M26.1561 13.336C25.9423 12.5945 25.3162 12.0099 24.5222 11.8102C23.0716 11.4395 17.2689 11.4395 17.2689 11.4395C17.2689 11.4395 11.4663 11.4395 10.0156 11.796C9.23687 11.9956 8.59553 12.5945 8.38175 13.336C8 14.6907 8 17.4999 8 17.4999C8 17.4999 8 20.3234 8.38175 21.6638C8.59553 22.4054 9.2216 22.99 10.0156 23.1897C11.4816 23.5604 17.2689 23.5604 17.2689 23.5604C17.2689 23.5604 23.0716 23.5604 24.5222 23.2039C25.3162 23.0043 25.9423 22.4196 26.1561 21.6781C26.5379 20.3234 26.5379 17.5142 26.5379 17.5142C26.5379 17.5142 26.5531 14.6907 26.1561 13.336Z" fill="#D2D2D2"/>
<path d="M20.2472 17.5006L15.4219 14.9053V20.0959L20.2472 17.5006Z" fill="#2C3E47"/>
<rect x="0.52069" y="0.52069" width="33.4966" height="33.9586" rx="16.7483" stroke="#D2D2D2" stroke-width="1.04138"/>
</svg>
