<svg width="35" height="35" viewBox="0 0 35 35" fill="none" xmlns="http://www.w3.org/2000/svg">
<path d="M25.7594 12.3778C25.1515 12.6478 24.4985 12.8295 23.813 12.9114C24.5131 12.4922 25.0499 11.8283 25.3027 11.0368C24.6484 11.425 23.9229 11.707 23.1504 11.8595C22.5323 11.2007 21.6519 10.7891 20.6774 10.7891C18.8059 10.7891 17.289 12.3067 17.289 14.1775C17.289 14.443 17.3194 14.7022 17.3766 14.9493C14.5605 14.8083 12.064 13.459 10.392 11.4084C10.1011 11.909 9.93398 12.4909 9.93398 13.1128C9.93398 14.288 10.5318 15.3254 11.4408 15.9327C10.8856 15.9149 10.3628 15.7625 9.90603 15.509C9.90603 15.5236 9.90603 15.537 9.90603 15.5516C9.90603 17.1937 11.0736 18.5633 12.6243 18.8739C12.3403 18.9514 12.0405 18.9927 11.7311 18.9927C11.5132 18.9927 11.3004 18.9711 11.094 18.9324C11.5253 20.2785 12.7767 21.2587 14.2594 21.286C13.1001 22.195 11.639 22.7369 10.0509 22.7369C9.77771 22.7369 9.50772 22.721 9.24219 22.6893C10.742 23.6504 12.5226 24.2113 14.4367 24.2113C20.6698 24.2113 24.0773 19.048 24.0773 14.5701C24.0773 14.4234 24.0741 14.2772 24.0677 14.1318C24.7303 13.6534 25.3052 13.0569 25.7594 12.3778Z" fill="#D2D2D2"/>
<rect x="0.52069" y="0.52069" width="33.9586" height="33.9586" rx="16.9793" stroke="#D2D2D2" stroke-width="1.04138"/>
</svg>
