<svg width="36" height="36" viewBox="0 0 36 36" fill="none" xmlns="http://www.w3.org/2000/svg">
<path d="M23.8112 10.8755C24.2311 10.8755 24.6339 11.0423 24.9308 11.3392C25.2277 11.6362 25.3945 12.0389 25.3945 12.4588V23.5422C25.3945 23.9621 25.2277 24.3648 24.9308 24.6617C24.6339 24.9587 24.2311 25.1255 23.8112 25.1255H12.7279C12.3079 25.1255 11.9052 24.9587 11.6083 24.6617C11.3113 24.3648 11.1445 23.9621 11.1445 23.5422V12.4588C11.1445 12.0389 11.3113 11.6362 11.6083 11.3392C11.9052 11.0423 12.3079 10.8755 12.7279 10.8755H23.8112ZM23.4154 23.1463V18.9505C23.4154 18.266 23.1435 17.6096 22.6595 17.1256C22.1755 16.6416 21.519 16.3697 20.8345 16.3697C20.1616 16.3697 19.3779 16.7813 18.9979 17.3988V16.5201H16.7891V23.1463H18.9979V19.2434C18.9979 18.6338 19.4887 18.1351 20.0983 18.1351C20.3922 18.1351 20.6741 18.2518 20.882 18.4597C21.0898 18.6675 21.2066 18.9495 21.2066 19.2434V23.1463H23.4154ZM14.2162 15.2772C14.5689 15.2772 14.9072 15.137 15.1567 14.8876C15.4061 14.6382 15.5462 14.2999 15.5462 13.9472C15.5462 13.2109 14.9524 12.6092 14.2162 12.6092C13.8614 12.6092 13.5211 12.7502 13.2701 13.0011C13.0192 13.252 12.8783 13.5923 12.8783 13.9472C12.8783 14.6834 13.4799 15.2772 14.2162 15.2772ZM15.3166 23.1463V16.5201H13.1237V23.1463H15.3166Z" fill="#D2D2D2"/>
<rect x="1.29022" y="1.02069" width="33.9586" height="33.9586" rx="16.9793" stroke="#D2D2D2" stroke-width="1.04138"/>
</svg>
