<svg width="38" height="31" viewBox="0 0 38 31" fill="none" xmlns="http://www.w3.org/2000/svg">
<path d="M34.1364 0.5H3.86364C2.01364 0.5 0.5 2 0.5 3.83333V23.8333C0.5 25.6667 2.01364 27.1667 3.86364 27.1667H12.2727V30.5H25.7273V27.1667H34.1364C35.9864 27.1667 37.5 25.6667 37.5 23.8333V3.83333C37.5 2 35.9864 0.5 34.1364 0.5ZM34.1364 23.8333H3.86364V3.83333H34.1364V23.8333ZM30.7727 8.83333H12.2727V12.1667H30.7727V8.83333ZM30.7727 15.5H12.2727V18.8333H30.7727V15.5ZM10.5909 8.83333H7.22727V12.1667H10.5909V8.83333ZM10.5909 15.5H7.22727V18.8333H10.5909V15.5Z" fill="url(#paint0_linear_509_21867)"/>
<defs>
<linearGradient id="paint0_linear_509_21867" x1="22.3134" y1="-6.20589" x2="-7.85923" y2="11.4618" gradientUnits="userSpaceOnUse">
<stop stop-color="#999999"/>
<stop offset="1" stop-color="#828282"/>
</linearGradient>
</defs>
</svg>
