<svg width="35" height="35" viewBox="0 0 35 35" fill="none" xmlns="http://www.w3.org/2000/svg">
<path d="M25.7587 12.3778C25.1508 12.6478 24.4977 12.8295 23.8123 12.9114C24.5123 12.4922 25.0491 11.8283 25.302 11.0368C24.6476 11.425 23.9222 11.707 23.1497 11.8595C22.5316 11.2007 21.6511 10.7891 20.6767 10.7891C18.8052 10.7891 17.2882 12.3067 17.2882 14.1775C17.2882 14.443 17.3187 14.7022 17.3759 14.9493C14.5598 14.8083 12.0633 13.459 10.3913 11.4084C10.1003 11.909 9.93325 12.4909 9.93325 13.1128C9.93325 14.288 10.531 15.3254 11.4401 15.9327C10.8849 15.9149 10.362 15.7625 9.9053 15.509C9.9053 15.5236 9.9053 15.537 9.9053 15.5516C9.9053 17.1937 11.0729 18.5633 12.6235 18.8739C12.3396 18.9514 12.0397 18.9927 11.7304 18.9927C11.5125 18.9927 11.2997 18.9711 11.0932 18.9324C11.5246 20.2785 12.776 21.2587 14.2587 21.286C13.0994 22.195 11.6383 22.7369 10.0501 22.7369C9.77697 22.7369 9.50699 22.721 9.24146 22.6893C10.7413 23.6504 12.5219 24.2113 14.4359 24.2113C20.669 24.2113 24.0765 19.048 24.0765 14.5701C24.0765 14.4234 24.0734 14.2772 24.067 14.1318C24.7296 13.6534 25.3045 13.0569 25.7587 12.3778Z" fill="#D2D2D2"/>
<rect x="0.52069" y="0.52069" width="33.9586" height="33.9586" rx="16.9793" stroke="#D2D2D2" stroke-width="1.04138"/>
</svg>
