<svg width="36" height="36" viewBox="0 0 36 36" fill="none" xmlns="http://www.w3.org/2000/svg">
<path d="M14.9316 9.9931C12.3567 9.9931 10.2622 12.0895 10.2622 14.6651V21.3375C10.2622 23.9124 12.3586 26.0069 14.9342 26.0069H21.6066C24.1815 26.0069 26.276 23.9105 26.276 21.3349V14.6625C26.276 12.0876 24.1796 9.9931 21.604 9.9931H14.9316ZM22.9398 12.6621C23.3081 12.6621 23.607 12.961 23.607 13.3293C23.607 13.6976 23.3081 13.9966 22.9398 13.9966C22.5715 13.9966 22.2726 13.6976 22.2726 13.3293C22.2726 12.961 22.5715 12.6621 22.9398 12.6621ZM18.2691 13.9966C20.477 13.9966 22.2726 15.7921 22.2726 18C22.2726 20.2079 20.477 22.0034 18.2691 22.0034C16.0612 22.0034 14.2657 20.2079 14.2657 18C14.2657 15.7921 16.0612 13.9966 18.2691 13.9966ZM18.2691 15.331C17.5613 15.331 16.8824 15.6122 16.3819 16.1128C15.8813 16.6133 15.6001 17.2921 15.6001 18C15.6001 18.7079 15.8813 19.3867 16.3819 19.8872C16.8824 20.3878 17.5613 20.669 18.2691 20.669C18.977 20.669 19.6558 20.3878 20.1563 19.8872C20.6569 19.3867 20.9381 18.7079 20.9381 18C20.9381 17.2921 20.6569 16.6133 20.1563 16.1128C19.6558 15.6122 18.977 15.331 18.2691 15.331Z" fill="#D2D2D2"/>
<rect x="1.28973" y="1.02069" width="33.9586" height="33.9586" rx="16.9793" stroke="#D2D2D2" stroke-width="1.04138"/>
</svg>
