<svg width="36" height="36" viewBox="0 0 36 36" fill="none" xmlns="http://www.w3.org/2000/svg">
<path d="M26.5277 12.8776C25.9198 13.1476 25.2668 13.3293 24.5813 13.4113C25.2814 12.992 25.8182 12.3282 26.071 11.5366C25.4167 11.9248 24.6912 12.2068 23.9188 12.3593C23.3006 11.7005 22.4202 11.2889 21.4457 11.2889C19.5742 11.2889 18.0573 12.8065 18.0573 14.6773C18.0573 14.9429 18.0878 15.202 18.1449 15.4492C15.3288 15.3081 12.8323 13.9589 11.1603 11.9083C10.8694 12.4088 10.7023 12.9907 10.7023 13.6126C10.7023 14.7879 11.3001 15.8252 12.2091 16.4325C11.6539 16.4147 11.1311 16.2623 10.6743 16.0088C10.6743 16.0234 10.6743 16.0368 10.6743 16.0514C10.6743 17.6935 11.8419 19.0631 13.3926 19.3738C13.1086 19.4513 12.8088 19.4926 12.4994 19.4926C12.2815 19.4926 12.0687 19.471 11.8623 19.4322C12.2936 20.7783 13.5451 21.7585 15.0277 21.7858C13.8684 22.6949 12.4073 23.2367 10.8192 23.2367C10.546 23.2367 10.276 23.2209 10.0105 23.1891C11.5103 24.1502 13.291 24.7112 15.205 24.7112C21.4381 24.7112 24.8456 19.5478 24.8456 15.0699C24.8456 14.9232 24.8424 14.7771 24.8361 14.6316C25.4986 14.1532 26.0735 13.5567 26.5277 12.8776Z" fill="#D2D2D2"/>
<rect x="1.28973" y="1.02069" width="33.9586" height="33.9586" rx="16.9793" stroke="#D2D2D2" stroke-width="1.04138"/>
</svg>
