<svg width="300" height="196" viewBox="0 0 300 196" fill="none" xmlns="http://www.w3.org/2000/svg">
<path d="M0 12.8C0 8.31958 0 6.07937 0.871948 4.36808C1.63893 2.86278 2.86278 1.63893 4.36808 0.871948C6.07937 0 8.31958 0 12.8 0H287.2C291.68 0 293.921 0 295.632 0.871948C297.137 1.63893 298.361 2.86278 299.128 4.36808C300 6.07937 300 8.31958 300 12.8V183.2C300 187.68 300 189.921 299.128 191.632C298.361 193.137 297.137 194.361 295.632 195.128C293.921 196 291.68 196 287.2 196H12.8C8.31958 196 6.07937 196 4.36808 195.128C2.86278 194.361 1.63893 193.137 0.871948 191.632C0 189.921 0 187.68 0 183.2V12.8Z" fill="#4D9F98"/>
</svg>
