<svg width="363" height="539" viewBox="0 0 363 539" fill="none" xmlns="http://www.w3.org/2000/svg">
<path d="M0 12.8C0 8.31958 0 6.07937 0.871948 4.36808C1.63893 2.86278 2.86278 1.63893 4.36808 0.871948C6.07937 0 8.31958 0 12.8 0H350.2C354.68 0 356.921 0 358.632 0.871948C360.137 1.63893 361.361 2.86278 362.128 4.36808C363 6.07937 363 8.31958 363 12.8V526.2C363 530.68 363 532.921 362.128 534.632C361.361 536.137 360.137 537.361 358.632 538.128C356.921 539 354.68 539 350.2 539H12.8C8.31958 539 6.07937 539 4.36808 538.128C2.86278 537.361 1.63893 536.137 0.871948 534.632C0 532.921 0 530.68 0 526.2V12.8Z" fill="#D2D2D2"/>
</svg>
