<svg width="36" height="36" viewBox="0 0 36 36" fill="none" xmlns="http://www.w3.org/2000/svg">
<g clip-path="url(#clip0_509_15408)">
<path d="M18.2689 10C13.8509 10 10.2689 13.582 10.2689 18C10.2689 22.0107 13.2236 25.3227 17.0729 25.9013V20.12H15.0936V18.0173H17.0729V16.618C17.0729 14.3013 18.2016 13.2847 20.1269 13.2847C21.0489 13.2847 21.5369 13.3533 21.7676 13.384V15.2193H20.4543C19.6369 15.2193 19.3516 15.9947 19.3516 16.868V18.0173H21.7469L21.4223 20.12H19.3516V25.918C23.2563 25.3887 26.2689 22.05 26.2689 18C26.2689 13.582 22.6869 10 18.2689 10Z" fill="#D2D2D2"/>
</g>
<rect x="1.28961" y="1.02069" width="33.9586" height="33.9586" rx="16.9793" stroke="#D2D2D2" stroke-width="1.04138"/>
<defs>
<clipPath id="clip0_509_15408">
<rect width="16" height="16" fill="white" transform="translate(10.2689 10)"/>
</clipPath>
</defs>
</svg>
