<svg width="36" height="36" viewBox="0 0 36 36" fill="none" xmlns="http://www.w3.org/2000/svg">
<path d="M26.5275 12.8778C25.9196 13.1478 25.2665 13.3295 24.5811 13.4114C25.2811 12.9922 25.8179 12.3283 26.0707 11.5368C25.4164 11.925 24.691 12.207 23.9185 12.3595C23.3004 11.7007 22.4199 11.2891 21.4455 11.2891C19.574 11.2891 18.057 12.8067 18.057 14.6775C18.057 14.943 18.0875 15.2022 18.1447 15.4493C15.3286 15.3083 12.8321 13.959 11.1601 11.9084C10.8691 12.409 10.702 12.9909 10.702 13.6128C10.702 14.788 11.2998 15.8254 12.2089 16.4327C11.6537 16.4149 11.1308 16.2625 10.6741 16.009C10.6741 16.0236 10.6741 16.037 10.6741 16.0516C10.6741 17.6937 11.8417 19.0633 13.3923 19.3739C13.1084 19.4514 12.8085 19.4927 12.4992 19.4927C12.2813 19.4927 12.0685 19.4711 11.862 19.4324C12.2934 20.7785 13.5448 21.7587 15.0275 21.786C13.8682 22.695 12.4071 23.2369 10.8189 23.2369C10.5458 23.2369 10.2758 23.221 10.0103 23.1893C11.5101 24.1504 13.2907 24.7113 15.2047 24.7113C21.4378 24.7113 24.8453 19.548 24.8453 15.0701C24.8453 14.9234 24.8422 14.7772 24.8358 14.6318C25.4984 14.1534 26.0733 13.5569 26.5275 12.8778Z" fill="#D2D2D2"/>
<rect x="1.28961" y="1.02069" width="33.9586" height="33.9586" rx="16.9793" stroke="#D2D2D2" stroke-width="1.04138"/>
</svg>
