<svg width="36" height="36" viewBox="0 0 36 36" fill="none" xmlns="http://www.w3.org/2000/svg">
<path d="M14.9314 9.99316C12.3565 9.99316 10.262 12.0896 10.262 14.6652V21.3376C10.262 23.9125 12.3585 26.007 14.934 26.007H21.6064C24.1813 26.007 26.2758 23.9105 26.2758 21.335V14.6626C26.2758 12.0877 24.1794 9.99316 21.6038 9.99316H14.9314ZM22.9396 12.6621C23.3079 12.6621 23.6069 12.9611 23.6069 13.3294C23.6069 13.6977 23.3079 13.9966 22.9396 13.9966C22.5713 13.9966 22.2724 13.6977 22.2724 13.3294C22.2724 12.9611 22.5713 12.6621 22.9396 12.6621ZM18.2689 13.9966C20.4768 13.9966 22.2724 15.7922 22.2724 18.0001C22.2724 20.208 20.4768 22.0035 18.2689 22.0035C16.061 22.0035 14.2655 20.208 14.2655 18.0001C14.2655 15.7922 16.061 13.9966 18.2689 13.9966ZM18.2689 15.3311C17.5611 15.3311 16.8822 15.6123 16.3817 16.1128C15.8811 16.6133 15.6 17.2922 15.6 18.0001C15.6 18.7079 15.8811 19.3868 16.3817 19.8873C16.8822 20.3878 17.5611 20.669 18.2689 20.669C18.9768 20.669 19.6556 20.3878 20.1562 19.8873C20.6567 19.3868 20.9379 18.7079 20.9379 18.0001C20.9379 17.2922 20.6567 16.6133 20.1562 16.1128C19.6556 15.6123 18.9768 15.3311 18.2689 15.3311Z" fill="#D2D2D2"/>
<rect x="1.28961" y="1.02069" width="33.9586" height="33.9586" rx="16.9793" stroke="#D2D2D2" stroke-width="1.04138"/>
</svg>
