<svg width="35" height="35" viewBox="0 0 35 35" fill="none" xmlns="http://www.w3.org/2000/svg">
<path d="M14.1626 9.49219C11.5877 9.49219 9.49316 11.5886 9.49316 14.1642V20.8366C9.49316 23.4115 11.5896 25.506 14.1652 25.506H20.8376C23.4125 25.506 25.507 23.4095 25.507 20.834V14.1616C25.507 11.5867 23.4105 9.49219 20.835 9.49219H14.1626ZM22.1708 12.1612C22.5391 12.1612 22.838 12.4601 22.838 12.8284C22.838 13.1967 22.5391 13.4956 22.1708 13.4956C21.8024 13.4956 21.5035 13.1967 21.5035 12.8284C21.5035 12.4601 21.8024 12.1612 22.1708 12.1612ZM17.5001 13.4956C19.708 13.4956 21.5035 15.2912 21.5035 17.4991C21.5035 19.707 19.708 21.5025 17.5001 21.5025C15.2922 21.5025 13.4966 19.707 13.4966 17.4991C13.4966 15.2912 15.2922 13.4956 17.5001 13.4956ZM17.5001 14.8301C16.7922 14.8301 16.1133 15.1113 15.6128 15.6118C15.1123 16.1124 14.8311 16.7912 14.8311 17.4991C14.8311 18.2069 15.1123 18.8858 15.6128 19.3863C16.1133 19.8869 16.7922 20.168 17.5001 20.168C18.2079 20.168 18.8868 19.8869 19.3873 19.3863C19.8878 18.8858 20.169 18.2069 20.169 17.4991C20.169 16.7912 19.8878 16.1124 19.3873 15.6118C18.8868 15.1113 18.2079 14.8301 17.5001 14.8301Z" fill="#D2D2D2"/>
<rect x="0.52069" y="0.52069" width="33.9586" height="33.9586" rx="16.9793" stroke="#D2D2D2" stroke-width="1.04138"/>
</svg>
