<svg width="36" height="36" viewBox="0 0 36 36" fill="none" xmlns="http://www.w3.org/2000/svg">
<path d="M26.925 13.836C26.7112 13.0945 26.0852 12.5099 25.2911 12.3102C23.8405 11.9395 18.0378 11.9395 18.0378 11.9395C18.0378 11.9395 12.2352 11.9395 10.7846 12.296C10.0058 12.4956 9.36445 13.0945 9.15067 13.836C8.76892 15.1907 8.76892 17.9999 8.76892 17.9999C8.76892 17.9999 8.76892 20.8234 9.15067 22.1638C9.36445 22.9054 9.99053 23.49 10.7846 23.6897C12.2505 24.0604 18.0378 24.0604 18.0378 24.0604C18.0378 24.0604 23.8405 24.0604 25.2911 23.7039C26.0852 23.5043 26.7112 22.9196 26.925 22.1781C27.3068 20.8234 27.3068 18.0142 27.3068 18.0142C27.3068 18.0142 27.322 15.1907 26.925 13.836Z" fill="#D2D2D2"/>
<path d="M21.0153 18.0006L16.1899 15.4053V20.5959L21.0153 18.0006Z" fill="#2C3E47"/>
<rect x="1.28961" y="1.02069" width="33.4966" height="33.9586" rx="16.7483" stroke="#D2D2D2" stroke-width="1.04138"/>
</svg>
