<svg width="71" height="59" viewBox="0 0 71 59" fill="none" xmlns="http://www.w3.org/2000/svg">
<g clip-path="url(#clip0_509_15226)">
<path d="M71 31.7083C70.5206 33.2251 70.0456 34.7419 69.1178 36.0652C68.6917 36.6724 68.2322 37.2528 67.6862 37.7555C67.1247 38.2715 66.47 38.634 65.6909 38.5739C65.1405 38.5317 64.8386 38.8208 64.6766 39.2345C64.0773 40.7491 63.6534 42.3304 62.9809 43.8428C64.4413 42.0257 66.4233 41.3874 68.6029 41.1739C69.4286 41.0938 69.5218 41.1761 69.211 41.9212C68.3099 44.0852 66.9072 45.8066 64.6988 46.7474C63.9552 47.0654 63.1562 47.1455 62.3994 46.8452C61.7823 46.6006 61.3984 46.8786 61.1032 47.3012C60.3885 48.3242 59.7204 49.3762 58.928 50.3815C59.9868 49.8611 61.0876 49.5697 62.2507 49.5341C63.3759 49.5008 64.4458 49.7543 65.4911 50.1524C65.9439 50.3259 66.0061 50.5483 65.6776 50.9064C63.9175 52.8347 61.769 53.8911 59.1256 53.7821C58.4886 53.7554 57.9182 53.4752 57.4521 53.0304C57.1258 52.719 56.7374 52.7301 56.44 52.9503C55.4834 53.6598 54.58 54.4404 53.5746 55.1121C55.9828 54.754 57.9936 55.5636 59.8314 56.9937C60.2242 57.2984 60.2109 57.4985 59.8425 57.7743C58.9236 58.4593 57.8471 58.7306 56.7485 58.8841C55.2903 59.0887 53.8431 59.062 52.4937 58.3459C52.0143 58.0923 51.6081 57.7498 51.3284 57.285C51.0133 56.7557 50.5671 56.6712 50.0278 56.8313C49.2998 57.0515 48.5718 57.2761 47.846 57.5007C47.5641 57.5875 47.3222 57.6097 47.1247 57.305C46.9116 56.9759 46.8828 56.789 47.3355 56.6756C48.1856 56.4621 49.009 56.153 49.848 55.9039C50.5827 55.6881 50.7469 55.2366 50.7447 54.5783C50.7447 53.8622 50.7048 53.146 50.8579 52.4343C51.344 50.1813 52.558 48.4688 54.5578 47.3212C54.7088 47.2345 54.8708 47.061 55.0594 47.19C55.2525 47.3212 55.1371 47.5258 55.106 47.7015C54.8885 48.9314 54.6777 50.1613 54.4468 51.389C54.2626 52.3676 53.8787 53.2683 53.1751 54.1936C54.4979 53.4863 55.4834 52.6189 56.4444 51.7293C56.8417 51.3623 56.7263 50.8285 56.5798 50.357C55.6054 47.2478 56.1825 44.4255 58.129 41.8544C58.2755 41.6609 58.3954 41.3407 58.695 41.4408C58.9391 41.5231 58.8837 41.8389 58.9014 42.0546C59.0457 43.6915 59.3276 45.3173 59.3031 46.9631C59.2943 47.5125 59.1611 48.0574 59.0657 48.7424C59.9113 47.8194 60.4928 46.8586 60.9855 45.86C61.1964 45.433 60.9411 44.9526 60.6926 44.5522C58.9525 41.7232 58.9636 38.783 60.1332 35.7672C60.2131 35.5581 60.2398 35.2401 60.4995 35.2356C60.7702 35.2334 60.7791 35.567 60.8568 35.7672C61.5515 37.5753 62.3927 39.3435 62.5547 41.314C62.5836 41.6565 62.5592 42.0057 62.5592 42.5306C63.0541 41.5253 63.2472 40.5823 63.6201 39.7193C64.2349 38.2959 63.7977 37.3307 62.7012 36.341C61.2319 35.0132 60.697 33.165 60.4506 31.2457C60.3352 30.3471 60.3907 29.4442 60.5106 28.5456C60.5305 28.3944 60.5194 28.1965 60.7125 28.1431C60.8701 28.0986 60.9611 28.2409 61.0388 28.3521C62.1663 29.9535 63.5446 31.3924 64.2704 33.2584C64.3991 33.5898 64.5035 33.9323 64.6766 34.435C64.8808 33.0271 64.9407 31.7905 64.9296 30.5517C64.9252 29.9535 64.5767 29.5576 64.0684 29.3107C60.9611 27.8028 59.9912 25.0361 59.6871 21.8734C59.6738 21.7355 59.656 21.5843 59.7892 21.4931C59.9446 21.3886 60.0467 21.5287 60.1443 21.611C61.7291 22.9677 63.589 24.0486 64.5856 26.0302C64.5678 24.6847 64.286 23.3925 63.953 22.1159C63.8665 21.7845 63.5113 21.5732 63.1429 21.5443C60.3729 21.3241 58.9369 19.4826 57.8849 17.1962C57.654 16.6958 57.0681 16.0553 57.4254 15.6683C57.7051 15.3636 58.4109 15.9263 58.9036 16.1465C60.2442 16.747 61.7069 17.1406 62.8433 18.4439C62.4704 17.1606 61.9976 16.1131 61.4827 15.09C61.2097 14.5451 60.626 14.6853 60.171 14.7631C58.3732 15.07 56.9127 14.3984 55.6054 13.2552C55.0439 12.7637 54.6089 12.1632 54.2116 11.536C54.0007 11.2024 53.9719 10.96 54.4824 10.9955C56.2646 11.1223 58.0891 11.0267 59.8292 12.132C59.3187 11.1245 58.7727 10.3328 58.1468 9.61439C57.825 9.2452 57.3167 9.42313 56.9127 9.60327C54.7953 10.5463 52.2096 9.58103 50.7869 7.78177C50.5383 7.46817 50.4917 7.20796 50.9378 7.14346C52.5691 6.90993 54.2027 6.41397 55.8673 7.08563C55.2991 6.13151 54.4713 5.52434 53.5479 5.35753C51.2818 4.94608 49.9257 3.46708 49.0401 1.45875C48.847 1.02283 48.4253 0.424558 48.6872 0.128757C49.0135 -0.242662 49.5617 0.255529 49.9945 0.413437C50.9667 0.771512 51.9765 1.06286 52.8199 1.70117C53.8454 2.47737 54.671 3.38924 54.6533 4.79262C54.651 5.00168 54.7443 5.13958 54.8885 5.26857C55.7253 6.03143 56.5421 6.8143 57.3233 7.66167C56.7108 6.33167 56.3689 4.94831 56.2291 3.50489C56.1403 2.57523 56.1936 1.65447 56.3201 0.735927C56.3845 0.271097 56.5798 0.17991 56.9349 0.537985C58.7816 2.39063 59.9446 4.55909 60.0311 7.22797C60.0511 7.81957 59.9157 8.38449 59.5872 8.88045C59.1567 9.5321 59.2587 10.1282 59.6738 10.7398C60.2509 11.5916 60.7991 12.4612 61.4072 13.3063C61.2963 12.4011 61.132 11.5182 61.1409 10.613C61.1587 9.17848 61.4405 7.81735 62.0687 6.52294C62.3084 6.02698 62.5081 6.04032 62.75 6.48736C63.9552 8.72254 64.4413 11.1223 64.2948 13.6466C64.2527 14.3694 63.9708 15.0522 63.4536 15.586C63.043 16.0086 62.9942 16.5201 63.1429 17.005C63.4559 18.0169 63.8531 18.9999 64.2904 20.192C64.2527 18.5462 64.3326 17.1251 64.8941 15.7684C65.2537 14.901 65.7974 14.1582 66.3301 13.4042C66.6431 12.9616 66.8473 13.124 66.9582 13.5376C67.5886 15.8974 67.775 18.2727 67.1247 20.6613C66.8872 21.5332 66.3523 22.2337 65.7087 22.8476C65.2714 23.2657 65.0983 23.7795 65.1915 24.3599C65.3624 25.4119 65.429 26.475 65.4867 27.5537C65.7419 27.4692 65.6865 27.2579 65.7198 27.0955C66.197 24.7758 67.411 22.9232 69.2621 21.4687C69.6749 21.1439 69.8347 21.3152 69.8569 21.7533C69.9923 24.4044 69.4951 26.9132 68.1102 29.2017C67.7706 29.7622 67.2867 30.2515 66.6475 30.4227C65.9506 30.6096 65.7597 31.0744 65.6931 31.6838C65.5533 32.9715 65.6465 34.2771 65.3846 35.5804C65.7442 34.9309 66.1614 34.3304 66.6053 33.7499C67.5841 32.4711 68.8315 31.5481 70.323 30.9499C70.5428 30.8609 70.7625 30.812 70.9978 30.8676V31.7016L71 31.7083Z" fill="#DFBC46"/>
<path d="M25.3734 43.5846C25.6598 41.8854 25.9505 40.1529 26.2457 38.4203C26.4876 37.008 26.7185 35.5913 26.9915 34.1857C27.0669 33.7965 26.9049 33.5874 26.663 33.3517C24.5078 31.2544 22.3638 29.1482 20.2086 27.0531C19.8469 26.6995 19.5028 26.3481 19.7115 25.7943C19.9068 25.2761 20.384 25.2338 20.8523 25.1671C23.7998 24.7468 26.7451 24.3108 29.6948 23.8972C30.1276 23.8371 30.3651 23.6481 30.5604 23.2433C31.8589 20.5588 33.1906 17.8922 34.5067 15.2189C34.7154 14.7963 34.904 14.3581 35.4656 14.3404C36.0671 14.3226 36.2713 14.7763 36.491 15.2233C37.7938 17.8788 39.1167 20.5233 40.4018 23.1877C40.6171 23.6347 40.8856 23.8438 41.3717 23.9105C44.3436 24.322 47.3133 24.7579 50.283 25.1827C50.7114 25.2427 51.1176 25.3428 51.284 25.801C51.4594 26.2836 51.2197 26.6328 50.8823 26.9619C48.7427 29.0414 46.6208 31.1387 44.4724 33.2071C44.0862 33.5785 43.953 33.9077 44.0573 34.4659C44.5989 37.3995 45.0783 40.3419 45.5821 43.2821C45.6598 43.7336 45.6864 44.1673 45.2558 44.4742C44.8519 44.7611 44.4657 44.6077 44.0862 44.4075C41.4094 42.9997 38.7283 41.6007 36.0648 40.1729C35.6498 39.9505 35.3368 39.9594 34.9284 40.1773C32.2428 41.6163 29.5461 43.033 26.845 44.4453C26.0215 44.8768 25.3468 44.4831 25.3801 43.589L25.3734 43.5846Z" fill="#DFBC46"/>
<path d="M12.0608 50.3816C11.284 49.3875 10.6048 48.3422 9.89902 47.3147C9.58385 46.8543 9.18212 46.6163 8.54512 46.8565C7.60626 47.2101 6.64077 47.0166 5.79958 46.5451C3.88192 45.4687 2.5258 43.874 1.72455 41.8123C1.51814 41.283 1.67572 41.1073 2.23282 41.1584C4.46343 41.3631 6.50538 41.9613 8.00134 43.834C7.31551 42.2905 6.90268 40.6669 6.25236 39.1323C6.19909 39.0078 6.09034 38.9077 6.01265 38.7943C5.92831 38.6697 5.81068 38.5919 5.66419 38.6008C4.03063 38.7142 3.0718 37.68 2.20619 36.5279C1.07646 35.0267 0.348455 33.3386 0.033284 31.4815C-0.0776916 30.8254 0.0599182 30.7231 0.69026 30.9722C2.68782 31.7551 4.14382 33.1563 5.21807 34.9867C5.32238 35.1646 5.42004 35.3492 5.52214 35.5293C5.53324 35.5471 5.55321 35.5605 5.67751 35.6783C5.34902 34.2305 5.4378 32.8627 5.26912 31.5149C5.20253 30.9878 4.9606 30.6164 4.37021 30.4362C3.48463 30.1627 2.92531 29.4487 2.5258 28.6481C1.48263 26.5597 1.01875 24.3356 1.10975 22.0003C1.11863 21.7579 1.05426 21.4332 1.32948 21.3242C1.56697 21.2308 1.73343 21.4955 1.90877 21.6356C3.80868 23.1591 4.94729 25.1385 5.47331 27.5338C5.57985 26.2995 5.69748 25.0651 5.78404 23.8285C5.80402 23.5238 5.65087 23.2258 5.42448 23.0234C3.53346 21.3487 3.39141 19.1246 3.4935 16.8361C3.54233 15.7507 3.65553 14.6676 4.00177 13.6245C4.06614 13.431 4.09721 13.153 4.3347 13.1552C4.46787 13.1552 4.61658 13.3688 4.72977 13.5089C6.2568 15.3971 6.88492 17.5633 6.67185 20.0076C6.89602 19.6918 7.85263 17.0718 7.88814 16.7516C7.93697 16.2889 7.82599 15.8953 7.49973 15.5461C6.95595 14.9634 6.69182 14.2295 6.66741 13.4577C6.59195 11.0602 7.03585 8.76271 8.16558 6.62538C8.26768 6.43189 8.34092 6.14054 8.61836 6.165C8.85363 6.18502 8.88026 6.46525 8.9646 6.6454C9.89902 8.59813 10.0366 10.642 9.6349 12.7438C9.6016 12.9217 9.57275 13.1019 9.6349 13.3265C10.2897 12.3101 10.9733 11.3137 11.577 10.2684C11.7412 9.98372 11.8078 9.53669 11.577 9.20085C10.647 7.8464 10.9089 6.40965 11.3151 4.9907C11.8034 3.28929 12.74 1.8392 14.0029 0.602617C14.1272 0.480293 14.2448 0.262335 14.4512 0.333505C14.6776 0.413571 14.6599 0.667114 14.6887 0.86728C15.0128 3.22257 14.6754 5.47554 13.6389 7.61732L13.8808 7.85974C14.6665 6.9501 15.4545 6.0449 16.2335 5.13081C16.3001 5.05297 16.3334 4.92175 16.3334 4.81277C16.3622 3.14695 17.3854 2.15057 18.6883 1.38771C19.6871 0.802782 20.8124 0.493637 21.8866 0.071065C22.2728 -0.0801715 22.477 0.0110153 22.3216 0.478069C21.456 3.08467 19.9778 5.01294 17.0525 5.44441C16.1403 5.57785 15.7363 6.46303 15.0882 7.03461C16.6952 6.44079 18.2666 6.88338 19.838 7.11023C20.5039 7.20587 20.5349 7.35265 20.1221 7.87753C18.8303 9.52112 16.2113 10.6065 13.9652 9.57227C13.3659 9.29649 12.8754 9.41436 12.5003 10.0327C12.0986 10.6932 11.5881 11.287 11.1708 12.1366C12.8776 11.0468 14.6754 11.138 16.431 11.0046C16.855 10.9734 17.0902 11.0557 16.7928 11.5317C15.8695 13.0085 14.671 14.1383 12.9642 14.6609C12.2118 14.8922 11.4638 14.8678 10.7025 14.7477C10.0033 14.6387 9.5328 14.8411 9.2598 15.575C8.92243 16.4758 8.49407 17.3432 8.13895 18.4129C9.65487 16.885 11.5725 16.4558 13.286 15.6417C13.5102 15.535 13.8209 15.5083 13.6611 15.9131C12.8887 17.8636 12.0253 19.754 10.1054 20.8905C9.49507 21.2508 8.83809 21.431 8.13895 21.4999C7.40429 21.5711 6.99368 21.9292 6.87382 22.712C6.70514 23.8152 6.39663 24.8983 6.40995 26.0459C7.40207 24.0665 9.25314 22.9789 10.8423 21.6289C10.94 21.5466 11.0376 21.4087 11.1952 21.4955C11.3062 21.5578 11.3195 21.6823 11.3106 21.8024C11.1264 24.4068 10.3474 26.7421 8.30097 28.508C7.90812 28.846 7.44202 29.0484 6.98924 29.2753C6.3478 29.5978 6.01931 30.0915 6.05038 30.8299C6.09699 31.9775 6.10365 33.1273 6.34336 34.2839C6.93375 31.9842 8.55177 30.3228 9.86573 28.4768C9.96782 28.3345 10.0544 28.1099 10.2719 28.1543C10.4961 28.201 10.4694 28.439 10.4938 28.6125C10.7935 30.9322 10.4406 33.1273 9.25758 35.169C8.86917 35.8429 8.32539 36.3745 7.76607 36.8927C7.11797 37.4932 6.86494 38.1382 7.18012 39.0478C7.56409 40.1554 7.86373 41.2941 8.36977 42.3817C8.27878 39.9708 9.34192 37.8802 10.152 35.7206C10.2208 35.5405 10.2364 35.2424 10.4783 35.238C10.7136 35.2335 10.7535 35.5093 10.829 35.6984C12.0164 38.7053 12.063 41.65 10.334 44.4879C9.89014 45.2174 9.84131 45.8757 10.3807 46.5985C10.8823 47.2724 11.2618 48.0397 11.8855 48.6402C11.3461 46.3939 11.9609 44.2032 12.0986 41.9991C12.1119 41.7967 12.0475 41.4765 12.3516 41.4253C12.578 41.3853 12.6912 41.6299 12.8155 41.7923C14.7864 44.3744 15.399 47.2123 14.4135 50.3505C14.2027 51.0199 14.2626 51.5737 14.8818 52.0675C15.7829 52.7859 16.6463 53.5487 17.7916 54.2093C16.3112 52.1453 16.2868 49.8101 15.854 47.5882C15.8273 47.4525 15.7852 47.2991 15.9139 47.2035C16.0781 47.0811 16.2246 47.2123 16.3578 47.2902C18.6994 48.6246 19.9823 50.6441 20.2442 53.3241C20.2508 53.393 20.2442 53.462 20.2464 53.5331C20.2775 56.0619 20.0333 55.4392 22.3749 56.3266C22.7411 56.4645 23.1384 56.5156 23.5046 56.6535C23.7 56.7269 24.115 56.6491 23.9907 57.0605C23.8864 57.403 23.6733 57.6832 23.2183 57.5387C22.5813 57.3363 21.9354 57.1606 21.3007 56.9515C20.3507 56.6357 20.1421 56.6958 19.5517 57.4653C18.8592 58.3683 17.8759 58.7619 16.8017 58.9109C15.0483 59.1534 13.3504 58.9087 11.7323 58.1659C11.648 58.1281 11.5681 58.0814 11.4882 58.0324C10.6492 57.5209 10.6492 57.4119 11.4283 56.8114C12.9509 55.6371 14.9595 54.7742 17.4254 55.1167C16.4022 54.4539 15.4811 53.6577 14.5067 52.9349C14.2803 52.7681 13.9141 52.7125 13.6633 52.946C12.5491 53.9869 11.2263 53.9824 9.8857 53.6466C8.13229 53.2062 6.56753 52.4033 5.3579 50.9933C4.95173 50.5195 5.08046 50.3038 5.5976 50.1125C7.7816 49.3052 9.92343 49.3096 12.0542 50.3928L12.0608 50.3816Z" fill="#DFBC46"/>
</g>
<defs>
<clipPath id="clip0_509_15226">
<rect width="71" height="59" fill="white"/>
</clipPath>
</defs>
</svg>
