<svg width="35" height="35" viewBox="0 0 35 35" fill="none" xmlns="http://www.w3.org/2000/svg">
<path d="M23.0417 10.375C23.4616 10.375 23.8643 10.5418 24.1613 10.8387C24.4582 11.1357 24.625 11.5384 24.625 11.9583V23.0417C24.625 23.4616 24.4582 23.8643 24.1613 24.1613C23.8643 24.4582 23.4616 24.625 23.0417 24.625H11.9583C11.5384 24.625 11.1357 24.4582 10.8387 24.1613C10.5418 23.8643 10.375 23.4616 10.375 23.0417V11.9583C10.375 11.5384 10.5418 11.1357 10.8387 10.8387C11.1357 10.5418 11.5384 10.375 11.9583 10.375H23.0417ZM22.6458 22.6458V18.45C22.6458 17.7655 22.3739 17.1091 21.8899 16.6251C21.4059 16.1411 20.7495 15.8692 20.065 15.8692C19.3921 15.8692 18.6083 16.2808 18.2283 16.8983V16.0196H16.0196V22.6458H18.2283V18.7429C18.2283 18.1333 18.7192 17.6346 19.3288 17.6346C19.6227 17.6346 19.9046 17.7514 20.1125 17.9592C20.3203 18.1671 20.4371 18.449 20.4371 18.7429V22.6458H22.6458ZM13.4467 14.7767C13.7994 14.7767 14.1377 14.6365 14.3871 14.3871C14.6365 14.1377 14.7767 13.7994 14.7767 13.4467C14.7767 12.7104 14.1829 12.1088 13.4467 12.1088C13.0918 12.1088 12.7515 12.2497 12.5006 12.5006C12.2497 12.7515 12.1088 13.0918 12.1088 13.4467C12.1088 14.1829 12.7104 14.7767 13.4467 14.7767ZM14.5471 22.6458V16.0196H12.3542V22.6458H14.5471Z" fill="#D2D2D2"/>
<rect x="0.52069" y="0.52069" width="33.9586" height="33.9586" rx="16.9793" stroke="#D2D2D2" stroke-width="1.04138"/>
</svg>
