<svg width="36" height="36" viewBox="0 0 36 36" fill="none" xmlns="http://www.w3.org/2000/svg">
<path d="M23.8105 10.876C24.2305 10.876 24.6332 11.0428 24.9301 11.3397C25.227 11.6367 25.3939 12.0394 25.3939 12.4593V23.5426C25.3939 23.9626 25.227 24.3653 24.9301 24.6622C24.6332 24.9592 24.2305 25.126 23.8105 25.126H12.7272C12.3073 25.126 11.9045 24.9592 11.6076 24.6622C11.3107 24.3653 11.1439 23.9626 11.1439 23.5426V12.4593C11.1439 12.0394 11.3107 11.6367 11.6076 11.3397C11.9045 11.0428 12.3073 10.876 12.7272 10.876H23.8105ZM23.4147 23.1468V18.951C23.4147 18.2665 23.1428 17.6101 22.6588 17.1261C22.1748 16.6421 21.5183 16.3701 20.8339 16.3701C20.1609 16.3701 19.3772 16.7818 18.9972 17.3993V16.5206H16.7884V23.1468H18.9972V19.2439C18.9972 18.6343 19.488 18.1356 20.0976 18.1356C20.3916 18.1356 20.6735 18.2523 20.8813 18.4602C21.0892 18.668 21.2059 18.9499 21.2059 19.2439V23.1468H23.4147ZM14.2155 15.2776C14.5683 15.2776 14.9066 15.1375 15.156 14.8881C15.4054 14.6387 15.5455 14.3004 15.5455 13.9476C15.5455 13.2114 14.9518 12.6097 14.2155 12.6097C13.8607 12.6097 13.5204 12.7507 13.2695 13.0016C13.0186 13.2525 12.8776 13.5928 12.8776 13.9476C12.8776 14.6839 13.4793 15.2776 14.2155 15.2776ZM15.3159 23.1468V16.5206H13.123V23.1468H15.3159Z" fill="#D2D2D2"/>
<rect x="1.28961" y="1.02069" width="33.9586" height="33.9586" rx="16.9793" stroke="#D2D2D2" stroke-width="1.04138"/>
</svg>
