<svg width="36" height="36" viewBox="0 0 36 36" fill="none" xmlns="http://www.w3.org/2000/svg">
<path d="M14.9311 9.99316C12.3562 9.99316 10.2617 12.0896 10.2617 14.6652V21.3376C10.2617 23.9125 12.3582 26.007 14.9337 26.007H21.6061C24.181 26.007 26.2755 23.9105 26.2755 21.335V14.6626C26.2755 12.0877 24.1791 9.99316 21.6035 9.99316H14.9311ZM22.9393 12.6621C23.3076 12.6621 23.6065 12.9611 23.6065 13.3294C23.6065 13.6977 23.3076 13.9966 22.9393 13.9966C22.571 13.9966 22.2721 13.6977 22.2721 13.3294C22.2721 12.9611 22.571 12.6621 22.9393 12.6621ZM18.2686 13.9966C20.4765 13.9966 22.2721 15.7922 22.2721 18.0001C22.2721 20.208 20.4765 22.0035 18.2686 22.0035C16.0607 22.0035 14.2652 20.208 14.2652 18.0001C14.2652 15.7922 16.0607 13.9966 18.2686 13.9966ZM18.2686 15.3311C17.5608 15.3311 16.8819 15.6123 16.3814 16.1128C15.8808 16.6133 15.5996 17.2922 15.5996 18.0001C15.5996 18.7079 15.8808 19.3868 16.3814 19.8873C16.8819 20.3878 17.5608 20.669 18.2686 20.669C18.9765 20.669 19.6553 20.3878 20.1559 19.8873C20.6564 19.3868 20.9376 18.7079 20.9376 18.0001C20.9376 17.2922 20.6564 16.6133 20.1559 16.1128C19.6553 15.6123 18.9765 15.3311 18.2686 15.3311Z" fill="#D2D2D2"/>
<rect x="1.28924" y="1.02069" width="33.9586" height="33.9586" rx="16.9793" stroke="#D2D2D2" stroke-width="1.04138"/>
</svg>
