<svg width="35" height="35" viewBox="0 0 35 35" fill="none" xmlns="http://www.w3.org/2000/svg">
<g clip-path="url(#clip0_509_21955)">
<path d="M17.5 9.5C13.082 9.5 9.5 13.082 9.5 17.5C9.5 21.5107 12.4547 24.8227 16.304 25.4013V19.62H14.3247V17.5173H16.304V16.118C16.304 13.8013 17.4327 12.7847 19.358 12.7847C20.28 12.7847 20.768 12.8533 20.9987 12.884V14.7193H19.6853C18.868 14.7193 18.5827 15.4947 18.5827 16.368V17.5173H20.978L20.6533 19.62H18.5827V25.418C22.4873 24.8887 25.5 21.55 25.5 17.5C25.5 13.082 21.918 9.5 17.5 9.5Z" fill="#D2D2D2"/>
</g>
<rect x="0.52069" y="0.52069" width="33.9586" height="33.9586" rx="16.9793" stroke="#D2D2D2" stroke-width="1.04138"/>
<defs>
<clipPath id="clip0_509_21955">
<rect width="16" height="16" fill="white" transform="translate(9.5 9.5)"/>
</clipPath>
</defs>
</svg>
