<svg width="18" height="18" viewBox="0 0 18 18" fill="none" xmlns="http://www.w3.org/2000/svg">
<g clip-path="url(#clip0_509_22191)">
<path d="M17.2458 8.30052L9.69555 0.750266C9.36837 0.423088 8.83565 0.423088 8.51268 0.750266L0.962424 8.30052C0.635247 8.6277 0.635247 9.16042 0.962424 9.4876L8.51268 17.0336V17.0379C8.83985 17.365 9.37258 17.365 9.69976 17.0379L17.25 9.4876C17.5771 9.15621 17.5771 8.6277 17.2458 8.30052ZM10.7819 10.9892V8.89195H7.42627V11.4087H5.74842V8.05305C5.74842 7.58745 6.12172 7.21415 6.58732 7.21415H10.7819V5.11683L13.7181 8.05305L10.7819 10.9892Z" fill="#4D9F98"/>
</g>
<defs>
<clipPath id="clip0_509_22191">
<rect width="16.7784" height="16.7784" fill="white" transform="translate(0.716309 0.504883)"/>
</clipPath>
</defs>
</svg>
