<svg width="36" height="36" viewBox="0 0 36 36" fill="none" xmlns="http://www.w3.org/2000/svg">
<path d="M26.9251 13.836C26.7114 13.0945 26.0853 12.5099 25.2913 12.3102C23.8406 11.9395 18.038 11.9395 18.038 11.9395C18.038 11.9395 12.2353 11.9395 10.7847 12.296C10.0059 12.4956 9.36458 13.0945 9.15079 13.836C8.76904 15.1907 8.76904 17.9999 8.76904 17.9999C8.76904 17.9999 8.76904 20.8234 9.15079 22.1638C9.36458 22.9054 9.99065 23.49 10.7847 23.6897C12.2506 24.0604 18.038 24.0604 18.038 24.0604C18.038 24.0604 23.8406 24.0604 25.2913 23.7039C26.0853 23.5043 26.7114 22.9196 26.9251 22.1781C27.3069 20.8234 27.3069 18.0142 27.3069 18.0142C27.3069 18.0142 27.3222 15.1907 26.9251 13.836Z" fill="#D2D2D2"/>
<path d="M21.0153 18.0006L16.1899 15.4053V20.5959L21.0153 18.0006Z" fill="#2C3E47"/>
<rect x="1.28973" y="1.02069" width="33.4966" height="33.9586" rx="16.7483" stroke="#D2D2D2" stroke-width="1.04138"/>
</svg>
