<svg width="36" height="36" viewBox="0 0 36 36" fill="none" xmlns="http://www.w3.org/2000/svg">
<path d="M26.5277 12.8778C25.9198 13.1478 25.2668 13.3295 24.5813 13.4114C25.2814 12.9922 25.8182 12.3283 26.071 11.5368C25.4167 11.925 24.6912 12.207 23.9188 12.3595C23.3006 11.7007 22.4202 11.2891 21.4457 11.2891C19.5742 11.2891 18.0573 12.8067 18.0573 14.6775C18.0573 14.943 18.0878 15.2022 18.1449 15.4493C15.3288 15.3083 12.8323 13.959 11.1603 11.9084C10.8694 12.409 10.7023 12.9909 10.7023 13.6128C10.7023 14.788 11.3001 15.8254 12.2091 16.4327C11.6539 16.4149 11.1311 16.2625 10.6743 16.009C10.6743 16.0236 10.6743 16.037 10.6743 16.0516C10.6743 17.6937 11.8419 19.0633 13.3926 19.3739C13.1086 19.4514 12.8088 19.4927 12.4994 19.4927C12.2815 19.4927 12.0687 19.4711 11.8623 19.4324C12.2936 20.7785 13.5451 21.7587 15.0277 21.786C13.8684 22.695 12.4073 23.2369 10.8192 23.2369C10.546 23.2369 10.276 23.221 10.0105 23.1893C11.5103 24.1504 13.291 24.7113 15.205 24.7113C21.4381 24.7113 24.8456 19.548 24.8456 15.0701C24.8456 14.9234 24.8424 14.7772 24.8361 14.6318C25.4986 14.1534 26.0735 13.5569 26.5277 12.8778Z" fill="#D2D2D2"/>
<rect x="1.28973" y="1.02069" width="33.9586" height="33.9586" rx="16.9793" stroke="#D2D2D2" stroke-width="1.04138"/>
</svg>
