<svg width="36" height="36" viewBox="0 0 36 36" fill="none" xmlns="http://www.w3.org/2000/svg">
<path d="M23.8107 10.876C24.2306 10.876 24.6334 11.0428 24.9303 11.3397C25.2272 11.6367 25.394 12.0394 25.394 12.4593V23.5426C25.394 23.9626 25.2272 24.3653 24.9303 24.6622C24.6334 24.9592 24.2306 25.126 23.8107 25.126H12.7274C12.3075 25.126 11.9047 24.9592 11.6078 24.6622C11.3109 24.3653 11.144 23.9626 11.144 23.5426V12.4593C11.144 12.0394 11.3109 11.6367 11.6078 11.3397C11.9047 11.0428 12.3075 10.876 12.7274 10.876H23.8107ZM23.4149 23.1468V18.951C23.4149 18.2665 23.143 17.6101 22.659 17.1261C22.175 16.6421 21.5185 16.3701 20.834 16.3701C20.1611 16.3701 19.3774 16.7818 18.9974 17.3993V16.5206H16.7886V23.1468H18.9974V19.2439C18.9974 18.6343 19.4882 18.1356 20.0978 18.1356C20.3917 18.1356 20.6737 18.2523 20.8815 18.4602C21.0894 18.668 21.2061 18.9499 21.2061 19.2439V23.1468H23.4149ZM14.2157 15.2776C14.5684 15.2776 14.9067 15.1375 15.1562 14.8881C15.4056 14.6387 15.5457 14.3004 15.5457 13.9476C15.5457 13.2114 14.952 12.6097 14.2157 12.6097C13.8609 12.6097 13.5206 12.7507 13.2697 13.0016C13.0188 13.2525 12.8778 13.5928 12.8778 13.9476C12.8778 14.6839 13.4795 15.2776 14.2157 15.2776ZM15.3161 23.1468V16.5206H13.1232V23.1468H15.3161Z" fill="#D2D2D2"/>
<rect x="1.28973" y="1.02069" width="33.9586" height="33.9586" rx="16.9793" stroke="#D2D2D2" stroke-width="1.04138"/>
</svg>
