<svg width="36" height="36" viewBox="0 0 36 36" fill="none" xmlns="http://www.w3.org/2000/svg">
<path d="M3.16406 5.34375H32.8359C34.5841 5.34375 36 6.76842 36 8.50781V27.4922C36 29.2419 34.5737 30.6562 32.8359 30.6562H3.16406C1.43051 30.6562 0 29.2479 0 27.4922V8.50781C0 6.77152 1.41026 5.34375 3.16406 5.34375ZM3.60717 7.45312C4.25363 8.09613 15.3785 19.1625 15.7627 19.5446C16.3603 20.1422 17.1548 20.4713 18 20.4713C18.8452 20.4713 19.6397 20.1421 20.2393 19.5426C20.4976 19.2856 31.4998 8.34145 32.3928 7.45312H3.60717ZM33.8906 27.0629V8.93848L24.7755 18.0056L33.8906 27.0629ZM32.3915 28.5469L23.2799 19.4932L21.7289 21.0361C20.7328 22.0321 19.4086 22.5806 18 22.5806C16.5914 22.5806 15.2672 22.0321 14.2731 21.0381L12.7201 19.4932L3.60851 28.5469H32.3915ZM2.10938 27.0629L11.2245 18.0056L2.10938 8.93848V27.0629Z" fill="#4D9F98"/>
</svg>
