<svg width="36" height="36" viewBox="0 0 36 36" fill="none" xmlns="http://www.w3.org/2000/svg">
<g clip-path="url(#clip0_509_16000)">
<path d="M30.782 4.71594C27.7407 1.67462 23.6968 -0.000170102 19.396 1.29583e-08C18.6912 1.29583e-08 18.1201 0.571248 18.1201 1.27587C18.1201 1.98048 18.6914 2.55173 19.396 2.55173C23.0154 2.55156 26.4182 3.96097 28.9776 6.52035C31.5371 9.07974 32.9465 12.4827 32.9464 16.1023C32.9464 16.8069 33.5174 17.3781 34.2222 17.3781C34.9268 17.3781 35.4981 16.8069 35.4981 16.1024C35.4983 11.8011 33.8235 7.75726 30.782 4.71594Z" fill="#4D9F98"/>
<path d="M25.5336 16.1022C25.5336 16.8069 26.1048 17.3781 26.8096 17.3779C27.5142 17.3779 28.0853 16.8067 28.0853 16.1021C28.085 11.3116 24.1869 7.41377 19.3962 7.41309C19.396 7.41309 19.3962 7.41309 19.396 7.41309C18.6914 7.41309 18.1203 7.98416 18.1201 8.68878C18.1201 9.3934 18.6912 9.96465 19.3958 9.96482C22.7799 9.96533 25.5332 12.7185 25.5336 16.1022Z" fill="#4D9F98"/>
<path d="M22.7105 22.6079C20.7657 22.5072 19.7749 23.9535 19.2998 24.6483C18.9019 25.2299 19.0509 26.0238 19.6326 26.4217C20.2142 26.8196 21.0081 26.6706 21.406 26.089C21.9674 25.2682 22.2217 25.1391 22.5667 25.1554C23.6709 25.2852 28.0199 28.4721 28.4554 29.4687C28.5646 29.7621 28.5606 30.0498 28.4433 30.3997C27.9868 31.7548 27.2309 32.7071 26.2572 33.1535C25.3321 33.5776 24.1979 33.5392 22.978 33.0428C18.4229 31.1861 14.4432 28.5951 11.1497 25.3415C11.1484 25.3401 11.147 25.3389 11.1458 25.3376C7.89901 22.0474 5.31274 18.0728 3.45917 13.5246C2.9626 12.3037 2.92415 11.1693 3.34825 10.2444C3.79463 9.27068 4.74694 8.51486 6.10089 8.05878C6.45201 7.94106 6.73916 7.93732 7.02989 8.04551C8.03 8.48254 11.2168 12.8314 11.3454 13.9232C11.3638 14.2811 11.2336 14.5352 10.4135 15.0956C9.83169 15.493 9.68216 16.2869 10.0797 16.8687C10.4771 17.4505 11.2709 17.5999 11.8528 17.2025C12.5479 16.7279 13.9939 15.7398 13.8935 13.7884C13.783 11.7501 9.81791 6.35218 7.92334 5.65556C7.08075 5.34153 6.19445 5.33608 5.28808 5.64025C3.24873 6.32701 1.77587 7.5515 1.02873 9.1812C0.304035 10.7623 0.327 12.5966 1.09592 14.4869C3.07964 19.3543 5.85507 23.6131 9.34499 27.1456C9.3535 27.1542 9.36217 27.1627 9.37102 27.1711C12.9009 30.6545 17.1548 33.4249 22.0157 35.4062C22.9891 35.8021 23.9477 36.0002 24.8645 36.0002C25.7276 36.0002 26.554 35.8247 27.3206 35.4732C28.9505 34.7262 30.1748 33.2536 30.862 31.2129C31.1655 30.3082 31.1606 29.4222 30.8489 28.5835C30.1499 26.6839 24.752 22.7188 22.7105 22.6079Z" fill="#4D9F98"/>
</g>
<defs>
<clipPath id="clip0_509_16000">
<rect width="36" height="36" fill="white"/>
</clipPath>
</defs>
</svg>
