<svg width="36" height="36" viewBox="0 0 36 36" fill="none" xmlns="http://www.w3.org/2000/svg">
<g clip-path="url(#clip0_240_3211)">
<path d="M18.2686 10C13.8506 10 10.2686 13.582 10.2686 18C10.2686 22.0107 13.2232 25.3227 17.0726 25.9013V20.12H15.0932V18.0173H17.0726V16.618C17.0726 14.3013 18.2012 13.2847 20.1266 13.2847C21.0486 13.2847 21.5366 13.3533 21.7672 13.384V15.2193H20.4539C19.6366 15.2193 19.3512 15.9947 19.3512 16.868V18.0173H21.7466L21.4219 20.12H19.3512V25.918C23.2559 25.3887 26.2686 22.05 26.2686 18C26.2686 13.582 22.6866 10 18.2686 10Z" fill="#D2D2D2"/>
</g>
<rect x="1.28924" y="1.02069" width="33.9586" height="33.9586" rx="16.9793" stroke="#D2D2D2" stroke-width="1.04138"/>
<defs>
<clipPath id="clip0_240_3211">
<rect width="16" height="16" fill="white" transform="translate(10.2686 10)"/>
</clipPath>
</defs>
</svg>
