<svg width="36" height="36" viewBox="0 0 36 36" fill="none" xmlns="http://www.w3.org/2000/svg">
<path d="M26.527 12.8776C25.9191 13.1476 25.266 13.3293 24.5806 13.4112C25.2806 12.9919 25.8174 12.3281 26.0703 11.5366C25.4159 11.9247 24.6905 12.2068 23.918 12.3592C23.2999 11.7005 22.4195 11.2888 21.445 11.2888C19.5735 11.2888 18.0565 12.8064 18.0565 14.6773C18.0565 14.9428 18.087 15.202 18.1442 15.4491C15.3281 15.3081 12.8316 13.9588 11.1596 11.9082C10.8686 12.4088 10.7016 12.9907 10.7016 13.6126C10.7016 14.7878 11.2993 15.8252 12.2084 16.4325C11.6532 16.4147 11.1304 16.2622 10.6736 16.0088C10.6736 16.0234 10.6736 16.0367 10.6736 16.0513C10.6736 17.6934 11.8412 19.0631 13.3919 19.3737C13.1079 19.4512 12.8081 19.4925 12.4987 19.4925C12.2808 19.4925 12.068 19.4709 11.8615 19.4321C12.2929 20.7782 13.5443 21.7584 15.027 21.7858C13.8677 22.6948 12.4066 23.2367 10.8184 23.2367C10.5453 23.2367 10.2753 23.2208 10.0098 23.189C11.5096 24.1502 13.2902 24.7111 15.2042 24.7111C21.4374 24.7111 24.8449 19.5478 24.8449 15.0699C24.8449 14.9231 24.8417 14.777 24.8353 14.6315C25.4979 14.1532 26.0728 13.5567 26.527 12.8776Z" fill="#D2D2D2"/>
<rect x="1.28924" y="1.02069" width="33.9586" height="33.9586" rx="16.9793" stroke="#D2D2D2" stroke-width="1.04138"/>
</svg>
