<svg width="36" height="36" viewBox="0 0 36 36" fill="none" xmlns="http://www.w3.org/2000/svg">
<path d="M26.9247 13.836C26.7109 13.0945 26.0848 12.5099 25.2908 12.3102C23.8401 11.9395 18.0375 11.9395 18.0375 11.9395C18.0375 11.9395 12.2349 11.9395 10.7842 12.296C10.0054 12.4956 9.36409 13.0945 9.15031 13.836C8.76855 15.1907 8.76855 17.9999 8.76855 17.9999C8.76855 17.9999 8.76855 20.8234 9.15031 22.1638C9.36409 22.9054 9.99016 23.49 10.7842 23.6897C12.2501 24.0604 18.0375 24.0604 18.0375 24.0604C18.0375 24.0604 23.8401 24.0604 25.2908 23.7039C26.0848 23.5043 26.7109 22.9196 26.9247 22.1781C27.3064 20.8234 27.3064 18.0142 27.3064 18.0142C27.3064 18.0142 27.3217 15.1907 26.9247 13.836Z" fill="#D2D2D2"/>
<path d="M21.0148 18.0008L16.1895 15.4055V20.5961L21.0148 18.0008Z" fill="#2C3E47"/>
<rect x="1.28924" y="1.02069" width="33.4966" height="33.9586" rx="16.7483" stroke="#D2D2D2" stroke-width="1.04138"/>
</svg>
