<svg width="321" height="293" viewBox="0 0 321 293" fill="none" xmlns="http://www.w3.org/2000/svg">
<path d="M74.0937 623.773L69.4756 621.455C117.185 526.402 191.452 439.718 278.594 377.37C319.07 348.411 366.134 328.247 411.648 308.745C428.397 301.569 445.716 294.148 462.37 286.426C524.188 257.76 580.735 218.149 630.439 168.691C680.226 119.149 727.218 60.3125 770.11 -6.18513C784.686 -28.7836 795.317 -46.5392 804.583 -63.7544L809.133 -61.3065C799.8 -43.966 789.105 -26.1033 774.452 -3.3856C731.361 63.4229 684.134 122.548 634.083 172.351C583.951 222.234 526.91 262.191 464.543 291.11C447.821 298.864 430.466 306.3 413.682 313.491C368.422 332.883 321.621 352.935 281.6 381.569C195.129 443.438 121.434 529.454 74.0937 623.77V623.773Z" fill="url(#paint0_radial_288_1088)"/>
<path d="M77.0868 630.848L72.4688 628.53C120.179 533.477 194.445 446.795 281.587 384.446C322.063 355.486 369.127 335.322 414.641 315.82C431.39 308.644 448.709 301.223 465.363 293.501C527.181 264.835 583.728 225.224 633.432 175.767C683.221 126.223 730.213 67.3876 773.103 0.890068C787.678 -21.7054 798.31 -39.4609 807.576 -56.6792L812.126 -54.2313C802.792 -36.8893 792.096 -19.0251 777.445 3.6896C734.354 70.4981 687.128 129.623 637.076 179.428C586.944 229.311 529.903 269.268 467.536 298.187C450.815 305.941 433.459 313.377 416.675 320.568C371.415 339.96 324.614 360.012 284.593 388.646C198.122 450.515 124.427 536.531 77.0868 630.847V630.848Z" fill="url(#paint1_radial_288_1088)"/>
<path d="M80.0781 637.923L75.46 635.605C123.17 540.552 197.437 453.868 284.578 391.52C325.055 362.561 372.118 342.397 417.632 322.895C434.381 315.719 451.701 308.298 468.354 300.576C530.172 271.91 586.719 232.299 636.423 182.841C686.212 133.298 733.204 74.4623 776.095 7.96477C790.669 -14.6307 801.301 -32.3862 810.568 -49.6045L815.118 -47.1566C805.783 -29.8146 795.088 -11.9504 780.437 10.7643C737.345 77.5728 690.12 136.698 640.068 186.503C589.936 236.386 532.895 276.343 470.528 305.262C453.806 313.016 436.45 320.452 419.667 327.643C374.406 347.034 327.605 367.087 287.585 395.72C201.113 457.589 127.418 543.605 80.0765 637.922L80.0781 637.923Z" fill="url(#paint2_radial_288_1088)"/>
<path d="M83.0683 644.997L78.4502 642.679C126.16 547.626 200.427 460.943 287.568 398.594C328.045 369.634 375.109 349.47 420.622 329.969C437.371 322.792 454.691 315.372 471.345 307.649C533.162 278.984 589.71 239.372 639.413 189.915C689.203 140.372 736.194 81.5361 779.085 15.0385C793.659 -7.55697 804.291 -25.3125 813.558 -42.5308L818.108 -40.0829C808.773 -22.7409 798.078 -4.87666 783.427 17.838C740.335 84.6465 693.11 143.772 643.058 193.576C592.926 243.459 535.885 283.416 473.518 312.335C456.796 320.089 439.44 327.525 422.657 334.717C377.397 354.108 330.595 374.16 290.575 402.794C204.103 464.663 130.408 550.679 83.0668 644.995L83.0683 644.997Z" fill="url(#paint3_radial_288_1088)"/>
<path d="M86.0595 652.072L81.4414 649.754C129.151 554.701 203.418 468.017 290.56 405.669C331.036 376.71 378.1 356.545 423.614 337.044C440.363 329.868 457.682 322.447 474.336 314.725C536.153 286.059 592.701 246.448 642.404 196.99C692.194 147.447 739.185 88.6113 782.076 22.1137C796.65 -0.481781 807.282 -18.2373 816.549 -35.4556L821.099 -33.0077C811.765 -15.6657 801.069 2.19853 786.418 24.9132C743.326 91.7217 696.101 150.847 646.049 200.651C595.917 250.534 538.876 290.492 476.509 319.41C459.787 327.165 442.432 334.6 425.648 341.792C380.388 361.183 333.586 381.236 293.566 409.869C207.094 471.738 133.4 557.754 86.0595 652.07V652.072Z" fill="url(#paint4_radial_288_1088)"/>
<path d="M89.0507 659.147L84.4326 656.829C132.142 561.776 206.409 475.093 293.551 412.744C334.027 383.784 381.091 363.62 426.605 344.119C443.354 336.942 460.673 329.522 477.327 321.799C539.146 293.134 595.692 253.521 645.396 204.063C695.183 154.521 742.176 95.6845 785.067 29.1869C799.642 6.59146 810.274 -11.1641 819.54 -28.3823L824.09 -25.9344C814.756 -8.59241 804.06 9.27177 789.409 31.9865C746.319 98.7949 699.091 157.922 649.04 207.723C598.908 257.608 541.867 297.563 479.5 326.484C462.779 334.238 445.423 341.674 428.639 348.865C383.379 368.256 336.578 388.309 296.557 416.943C210.086 478.812 136.391 564.827 89.0507 659.144V659.147Z" fill="url(#paint5_radial_288_1088)"/>
<path d="M92.0439 666.222L87.4258 663.904C135.136 568.851 209.402 482.167 296.544 419.819C337.02 390.86 384.084 370.695 429.598 351.194C446.347 344.018 463.666 336.597 480.32 328.874C542.139 300.209 598.685 260.596 648.389 211.139C698.177 161.597 745.17 102.76 788.06 36.2621C802.635 13.6667 813.267 -4.08887 822.533 -21.3071L827.083 -18.8592C817.749 -1.51722 807.054 16.347 792.402 39.0617C749.312 105.87 702.084 164.997 652.033 214.798C601.901 264.683 544.86 304.638 482.493 333.559C465.772 341.313 448.416 348.749 431.632 355.94C386.372 375.332 339.571 395.384 299.55 424.018C213.079 485.887 139.384 571.903 92.0439 666.219V666.222Z" fill="url(#paint6_radial_288_1088)"/>
<path d="M95.0351 673.297L90.417 670.979C138.127 575.926 212.394 489.243 299.535 426.894C340.012 397.935 387.075 377.771 432.589 358.269C449.338 351.093 466.658 343.672 483.311 335.95C545.13 307.284 601.677 267.671 651.38 218.214C701.168 168.672 748.161 109.835 791.052 43.3373C805.626 20.7419 816.258 2.98632 825.524 -14.2319L830.075 -11.784C820.74 5.55797 810.045 23.4222 795.394 46.1369C752.303 112.945 705.075 172.072 655.025 221.874C604.893 271.758 547.852 311.714 485.485 340.634C468.763 348.388 451.407 355.824 434.624 363.015C389.363 382.407 342.562 402.459 302.542 431.093C216.07 492.962 142.375 578.978 95.0336 673.294L95.0351 673.297Z" fill="url(#paint7_radial_288_1088)"/>
<path d="M98.0263 680.372L93.4082 678.054C141.118 583.001 215.385 496.317 302.527 433.969C343.003 405.009 390.067 384.845 435.581 365.344C452.329 358.167 469.649 350.747 486.303 343.024C548.122 314.359 604.668 274.746 654.371 225.289C704.159 175.747 751.152 116.91 794.043 50.412C808.617 27.8166 819.249 10.061 828.516 -7.15723L833.066 -4.70934C823.732 12.6327 813.036 30.4969 798.385 53.2116C755.295 120.02 708.066 179.147 658.016 228.948C607.884 278.833 550.843 318.788 488.476 347.709C471.754 355.463 454.398 362.899 437.615 370.09C392.355 389.482 345.553 409.534 305.533 438.168C219.061 500.037 145.366 586.052 98.0263 680.369V680.372Z" fill="url(#paint8_radial_288_1088)"/>
<path d="M101.018 687.447L96.3994 685.129C144.109 590.078 218.376 503.393 305.518 441.044C345.994 412.085 393.056 391.92 438.57 372.42C455.319 365.244 472.64 357.823 489.292 350.101C551.111 321.436 607.658 281.823 657.361 232.365C707.149 182.823 754.142 123.986 797.033 57.4887C811.607 34.8932 822.239 17.1377 831.505 -0.0805664L836.056 2.36732C826.721 19.7093 816.026 37.5735 801.375 60.2882C758.284 127.097 711.056 186.223 661.006 236.025C610.874 285.909 553.833 325.865 491.466 354.785C474.742 362.54 457.388 369.975 440.605 377.167C395.344 396.558 348.543 416.611 308.523 445.243C222.049 507.112 148.356 593.128 101.016 687.444L101.018 687.447Z" fill="url(#paint9_radial_288_1088)"/>
<path d="M104.009 694.522L99.3906 692.204C147.1 597.153 221.367 510.467 308.509 448.12C348.985 419.16 396.048 398.996 441.561 379.495C458.31 372.319 475.631 364.899 492.284 357.176C554.103 328.511 610.649 288.898 660.352 239.44C710.14 189.898 757.133 131.061 800.024 64.5639C814.595 41.9714 825.227 24.2174 834.497 6.99463L839.047 9.44252C829.711 26.7891 819.014 44.6517 804.366 67.3634C761.276 134.172 714.047 193.299 663.997 243.1C613.865 292.985 556.824 332.94 494.457 361.861C477.734 369.615 460.379 377.051 443.596 384.242C398.336 403.633 351.534 423.686 311.514 452.318C225.041 514.187 151.347 600.203 104.007 694.519L104.009 694.522Z" fill="url(#paint10_radial_288_1088)"/>
<path d="M107.001 701.597L102.383 699.279C150.093 604.227 224.358 517.543 311.501 455.194C351.977 426.235 399.04 406.07 444.554 386.57C461.303 379.394 478.623 371.973 495.276 364.251C557.095 335.586 613.641 295.972 663.344 246.515C713.132 196.973 760.125 138.136 803.016 71.6386C817.587 49.0461 828.219 31.2921 837.489 14.0693L842.039 16.5172C832.703 33.8638 822.006 51.7264 807.358 74.4381C764.268 141.247 717.039 200.373 666.989 250.175C616.857 300.059 559.816 340.015 497.449 368.935C480.726 376.69 463.372 384.125 446.588 391.317C401.328 410.708 354.526 430.761 314.506 459.393C228.033 521.263 154.339 607.278 106.999 701.594L107.001 701.597Z" fill="url(#paint11_radial_288_1088)"/>
<path d="M109.992 708.672L105.374 706.354C153.084 611.303 227.349 524.618 314.492 462.269C354.967 433.311 402.029 413.147 447.542 393.647C464.292 386.469 481.613 379.049 498.267 371.326C560.086 342.661 616.634 303.048 666.336 253.592C716.123 204.05 763.116 145.213 806.007 78.7153C820.578 56.1228 831.211 38.3688 840.48 21.146L845.03 23.5939C835.694 40.9404 824.997 58.8046 810.349 81.5148C767.259 148.323 720.031 207.45 669.98 257.251C619.848 307.134 562.807 347.092 500.44 376.011C483.717 383.765 466.361 391.202 449.576 398.393C404.317 417.785 357.516 437.837 317.497 466.469C231.024 528.34 157.331 614.354 109.991 708.67L109.992 708.672Z" fill="url(#paint12_radial_288_1088)"/>
<path d="M112.983 715.747L108.365 713.429C156.075 618.378 230.34 531.693 317.484 469.345C357.958 440.386 405.021 420.222 450.533 400.722C467.284 393.546 484.604 386.124 501.258 378.401C563.077 349.734 619.625 310.123 669.327 260.667C719.115 211.125 766.108 152.288 808.999 85.7905C823.57 63.198 834.202 45.444 843.471 28.2212L848.021 30.6691C838.686 48.0156 827.989 65.8783 813.34 88.59C770.25 155.398 723.022 214.525 672.971 264.327C622.839 314.21 565.798 354.167 503.431 383.086C486.708 390.84 469.353 398.277 452.567 405.468C407.309 424.86 360.507 444.912 320.488 473.545C234.015 535.415 160.322 621.429 112.982 715.746L112.983 715.747Z" fill="url(#paint13_radial_288_1088)"/>
<path d="M115.975 722.821L111.356 720.503C159.066 625.452 233.332 538.767 320.475 476.418C360.95 447.46 408.012 427.296 453.524 407.796C470.275 400.618 487.595 393.197 504.249 385.475C566.068 356.81 622.616 317.197 672.318 267.741C722.106 218.199 769.099 159.362 811.99 92.8642C826.561 70.2717 837.193 52.5177 846.462 35.2949L851.013 37.7428C841.677 55.0894 830.98 72.952 816.332 95.6637C773.241 162.472 726.013 221.599 675.963 271.4C625.831 321.283 568.79 361.241 506.423 390.159C489.699 397.914 472.344 405.351 455.559 412.542C410.3 431.934 363.499 451.986 323.48 480.618C237.006 542.489 163.313 628.503 115.973 722.819L115.975 722.821Z" fill="url(#paint14_radial_288_1088)"/>
<path d="M118.966 729.896L114.348 727.578C162.057 632.526 236.324 545.842 323.466 483.493C363.941 454.535 411.003 434.371 456.515 414.87C473.266 407.693 490.587 400.272 507.241 392.55C569.06 363.884 625.607 324.271 675.309 274.815C725.097 225.273 772.09 166.436 814.981 99.9389C829.552 77.3464 840.184 59.5924 849.454 42.3696L854.004 44.8175C844.668 62.1641 833.971 80.0282 819.323 102.738C776.233 169.547 729.004 228.674 678.954 278.475C628.822 328.358 571.781 368.315 509.414 397.234C492.691 404.988 475.335 412.426 458.55 419.617C413.291 439.008 366.49 459.061 326.471 487.693C239.998 549.563 166.304 635.578 118.964 729.894L118.966 729.896Z" fill="url(#paint15_radial_288_1088)"/>
<path d="M121.959 736.971L117.341 734.653C165.051 639.601 239.316 552.917 326.459 490.568C366.934 461.61 413.996 441.446 459.509 421.946C476.259 414.768 493.58 407.347 510.234 399.625C572.053 370.959 628.6 331.346 678.302 281.891C728.09 232.349 775.083 173.512 817.974 107.014C832.545 84.4216 843.177 66.6676 852.447 49.4448L856.997 51.8927C847.661 69.2393 836.964 87.1034 822.316 109.814C779.226 176.622 731.998 235.749 681.947 285.55C631.815 335.433 574.774 375.39 512.407 404.309C495.684 412.064 478.328 419.501 461.543 426.692C416.284 446.084 369.483 466.136 329.464 494.768C242.991 556.639 169.297 642.653 121.957 736.969L121.959 736.971Z" fill="url(#paint16_radial_288_1088)"/>
<path d="M124.95 744.046L120.332 741.728C168.042 646.677 242.309 559.992 329.45 497.643C369.925 468.685 416.987 448.521 462.5 429.021C479.25 421.843 496.571 414.423 513.225 406.7C575.044 378.035 631.592 338.422 681.294 288.966C731.081 239.424 778.074 180.587 820.965 114.089C835.536 91.4968 846.169 73.7428 855.438 56.52L859.988 58.9679C850.652 76.3145 839.955 94.1786 825.307 116.889C782.217 183.697 734.989 242.824 684.938 292.626C634.806 342.508 577.765 382.466 515.398 411.385C498.675 419.139 481.319 426.576 464.534 433.767C419.275 453.159 372.474 473.211 332.455 501.843C245.982 563.714 172.289 649.728 124.947 744.044L124.95 744.046Z" fill="url(#paint17_radial_288_1088)"/>
<path d="M127.941 751.121L123.323 748.803C171.033 653.751 245.298 567.067 332.442 504.718C372.916 475.758 419.979 455.594 465.491 436.094C482.241 428.918 499.562 421.496 516.218 413.773C578.037 385.108 634.584 345.495 684.286 296.039C734.074 246.497 781.067 187.66 823.958 121.163C838.532 98.5655 849.164 80.81 858.431 63.5933L862.981 66.0412C853.648 83.3817 842.951 101.246 828.3 123.962C785.21 190.771 737.981 249.897 687.931 299.699C637.799 349.582 580.758 389.539 518.391 418.458C501.668 426.212 484.311 433.649 467.525 440.841C422.267 460.232 375.467 480.284 335.446 508.917C248.973 570.787 175.28 656.801 127.94 751.118L127.941 751.121Z" fill="url(#paint18_radial_288_1088)"/>
<path d="M130.933 758.196L126.314 755.878C174.024 660.825 248.291 574.142 335.433 511.793C375.907 482.834 422.97 462.669 468.482 443.169C485.233 435.993 502.553 428.571 519.209 420.848C581.028 392.183 637.576 352.57 687.277 303.114C737.067 253.571 784.058 194.734 826.949 128.238C841.523 105.641 852.156 87.8852 861.422 70.6685L865.972 73.1164C856.639 90.4569 845.942 108.321 831.291 131.037C788.201 197.844 740.974 256.971 690.922 306.774C640.79 356.657 583.749 396.614 521.382 425.533C504.659 433.287 487.302 440.724 470.517 447.916C425.258 467.307 378.458 487.36 338.438 515.992C251.966 577.861 178.271 663.877 130.931 758.193L130.933 758.196Z" fill="url(#paint19_radial_288_1088)"/>
<path d="M133.925 765.271L129.307 762.953C177.016 667.9 251.283 581.216 338.425 518.869C378.9 489.909 425.962 469.745 471.474 450.245C488.225 443.068 505.546 435.646 522.201 427.924C584.02 399.258 640.568 359.645 690.27 310.189C740.059 260.646 787.05 201.809 829.941 135.313C844.516 112.716 855.148 94.9604 864.414 77.7437L868.964 80.1915C859.631 97.532 848.934 115.396 834.283 138.112C791.193 204.919 743.966 264.046 693.914 313.849C643.782 363.732 586.741 403.689 524.374 432.608C507.651 440.362 490.294 447.8 473.509 454.991C428.25 474.382 381.45 494.435 341.43 523.067C254.957 584.936 181.263 670.952 133.923 765.268L133.925 765.271Z" fill="url(#paint20_radial_288_1088)"/>
<path d="M136.916 772.346L132.298 770.028C180.008 674.975 254.274 588.292 341.416 525.943C381.891 496.984 428.953 476.819 474.466 457.319C491.216 450.143 508.537 442.721 525.192 434.998C587.011 406.333 643.559 366.72 693.261 317.264C743.05 267.721 790.042 208.884 832.933 142.388C847.507 119.791 858.139 102.035 867.405 84.8184L871.956 87.2663C862.623 104.607 851.926 122.471 837.274 145.187C794.184 211.994 746.957 271.121 696.905 320.924C646.773 370.807 589.732 410.764 527.366 439.683C510.642 447.437 493.285 454.874 476.5 462.066C431.241 481.457 384.441 501.51 344.421 530.142C257.949 592.011 184.254 678.027 136.913 772.343L136.916 772.346Z" fill="url(#paint21_radial_288_1088)"/>
<path d="M139.907 779.421L135.289 777.103C182.999 682.05 257.266 595.366 344.407 533.018C384.882 504.059 431.944 483.895 477.457 464.394C494.207 457.218 511.528 449.796 528.183 442.074C590.001 413.408 646.549 373.797 696.252 324.339C746.04 274.797 793.031 215.96 835.924 149.463C850.498 126.866 861.13 109.11 870.397 91.8936L874.947 94.3414C865.614 111.682 854.917 129.546 840.266 152.262C797.174 219.071 749.947 278.198 699.897 327.999C649.765 377.882 592.724 417.839 530.357 446.758C513.633 454.512 496.276 461.95 479.491 469.141C434.232 488.532 387.433 508.585 347.412 537.217C260.939 599.086 187.246 685.102 139.906 779.418L139.907 779.421Z" fill="url(#paint22_radial_288_1088)"/>
<path d="M142.898 786.495L138.28 784.177C185.99 689.124 260.257 602.441 347.399 540.092C387.875 511.132 434.939 490.968 480.453 471.467C497.201 464.29 514.521 456.87 531.175 449.147C592.992 420.482 649.54 380.87 699.243 331.413C749.031 281.871 796.023 223.034 838.915 156.537C853.489 133.94 864.121 116.184 873.388 98.9673L877.938 101.415C868.605 118.756 857.908 136.62 843.257 159.336C800.165 226.145 752.938 285.271 702.888 335.073C652.756 384.956 595.715 424.913 533.348 453.832C516.626 461.586 499.271 469.022 482.487 476.213C437.227 495.604 390.425 515.657 350.405 544.291C263.933 606.16 190.238 692.174 142.898 786.492V786.495Z" fill="url(#paint23_radial_288_1088)"/>
<path d="M145.892 793.571L141.273 791.253C188.983 696.202 263.249 609.517 350.392 547.168C390.868 518.209 437.932 498.044 483.446 478.543C500.195 471.367 517.514 463.946 534.168 456.224C595.985 427.558 652.533 387.947 702.236 338.489C752.024 288.947 799.016 230.11 841.908 163.613C856.482 141.016 867.115 123.26 876.381 106.043L880.931 108.491C871.598 125.832 860.901 143.696 846.25 166.412C803.158 233.221 755.932 292.347 705.881 342.149C655.749 392.032 598.708 431.989 536.341 460.908C519.619 468.662 502.264 476.098 485.48 483.289C440.22 502.681 393.419 522.733 353.398 551.367C266.925 613.236 193.23 699.252 145.892 793.568V793.571Z" fill="url(#paint24_radial_288_1088)"/>
<path d="M148.883 800.645L144.265 798.327C191.974 703.275 266.241 616.591 353.383 554.242C393.859 525.282 440.923 505.118 486.437 485.617C503.186 478.44 520.505 471.02 537.159 463.297C598.977 434.632 655.524 395.02 705.228 345.563C755.016 296.021 802.007 237.184 844.899 170.686C859.474 148.089 870.106 130.334 879.372 113.117L883.922 115.565C874.589 132.906 863.892 150.77 849.241 173.486C806.15 240.294 758.923 299.421 708.872 349.223C658.74 399.106 601.699 439.063 539.332 467.982C522.611 475.736 505.255 483.172 488.471 490.363C443.211 509.754 396.41 529.807 356.389 558.441C269.918 620.31 196.223 706.324 148.881 800.642L148.883 800.645Z" fill="url(#paint25_radial_288_1088)"/>
<path d="M151.874 807.72L147.256 805.402C194.966 710.351 269.231 623.666 356.374 561.317C396.85 532.358 443.914 512.193 489.428 492.692C506.177 485.516 523.496 478.095 540.15 470.372C601.968 441.707 658.515 402.096 708.219 352.638C758.007 303.096 804.998 244.259 847.891 177.762C862.466 155.163 873.097 137.409 882.363 120.192L886.913 122.64C877.581 139.981 866.885 157.843 852.232 180.561C809.141 247.37 761.914 306.496 711.864 356.298C661.732 406.181 604.69 446.138 542.323 475.057C525.602 482.811 508.246 490.247 491.463 497.438C446.202 516.83 399.401 536.882 359.38 565.516C272.907 627.385 199.212 713.401 151.874 807.717V807.72Z" fill="url(#paint26_radial_288_1088)"/>
<path d="M-101.076 497.38L-106.044 498.793C-135.145 396.498 -139.017 282.415 -116.949 177.563C-106.7 128.861 -85.6515 82.1863 -65.2949 37.0485C-57.8041 20.4371 -50.057 3.26084 -43.0066 -13.6867C-16.8311 -76.5998 -1.94001 -144.015 1.25145 -214.061C4.4487 -284.225 -0.697459 -359.349 -14.0439 -437.344C-18.5808 -463.85 -22.7482 -484.12 -27.5595 -503.07L-22.5508 -504.341C-17.7058 -485.253 -13.512 -464.86 -8.95097 -438.215C4.45805 -359.854 9.62649 -284.358 6.41318 -213.825C3.19224 -143.176 -11.8295 -75.1725 -38.2366 -11.7012C-45.3177 5.31749 -53.0797 22.5286 -60.5859 39.173C-80.8287 84.0593 -101.761 130.475 -111.896 178.629C-133.791 282.673 -129.95 395.876 -101.076 497.38Z" fill="url(#paint27_linear_288_1088)"/>
<path d="M-94.0882 500.571L-99.0568 501.984C-128.157 399.689 -132.03 285.607 -109.963 180.753C-99.714 132.051 -78.6655 85.3765 -58.3089 40.2387C-50.8181 23.6273 -43.071 6.45106 -36.0206 -10.4965C-9.84514 -73.4097 5.04599 -140.825 8.23746 -210.87C11.4354 -281.036 6.28856 -356.158 -7.05787 -434.154C-11.5929 -460.657 -15.7617 -480.928 -20.5722 -499.879L-15.5634 -501.15C-10.718 -482.06 -6.52408 -461.667 -1.96495 -435.025C11.4448 -356.665 16.6132 -281.169 13.3992 -210.635C10.1783 -139.986 -4.84351 -71.9824 -31.2506 -8.51109C-38.3317 8.50765 -46.0937 25.7188 -53.5999 42.3631C-73.8427 87.2494 -94.775 133.665 -104.909 181.819C-126.805 285.866 -122.962 399.067 -94.0882 500.571Z" fill="url(#paint28_linear_288_1088)"/>
<path d="M-87.1013 503.761L-92.0698 505.174C-121.169 402.879 -125.043 288.798 -102.976 183.946C-92.7265 135.243 -71.6779 88.5687 -51.3213 43.4309C-43.8306 26.8195 -36.0835 9.64327 -29.0331 -7.30429C-2.85762 -70.2174 12.0335 -137.633 15.225 -207.678C18.423 -277.843 13.2761 -352.966 -0.0703088 -430.962C-4.60537 -457.465 -8.77412 -477.736 -13.5847 -496.686L-8.5759 -497.958C-3.73041 -478.868 0.463435 -458.475 5.0226 -431.832C18.4324 -353.473 23.6008 -277.977 20.3867 -207.443C17.1658 -136.794 2.14402 -68.7901 -24.2631 -5.31881C-31.3442 11.6999 -39.1062 28.911 -46.6124 45.5554C-66.8552 90.4417 -87.7875 136.857 -97.922 185.011C-119.818 289.056 -115.975 402.259 -87.1013 503.761Z" fill="url(#paint29_linear_288_1088)"/>
<path d="M-80.1139 506.954L-85.0825 508.367C-114.183 406.071 -118.055 291.989 -95.9877 187.137C-85.7384 138.434 -64.6898 91.7598 -44.3332 46.622C-36.8425 30.0106 -29.0954 12.8343 -22.0449 -4.11324C4.13049 -67.0264 19.0216 -134.442 22.2131 -204.487C25.411 -274.652 20.2642 -349.775 6.91774 -427.771C2.38268 -454.274 -1.78609 -474.544 -6.59662 -493.495L-1.58783 -494.767C3.25763 -475.677 7.45152 -455.284 12.0106 -428.641C25.4204 -350.282 30.5888 -274.786 27.3748 -204.252C24.1539 -133.603 9.1321 -65.599 -17.275 -2.12776C-24.3561 14.891 -32.1181 32.1021 -39.6243 48.7464C-59.8671 93.6328 -80.7994 140.048 -90.9339 188.202C-112.83 292.247 -108.988 405.449 -80.1139 506.954Z" fill="url(#paint30_linear_288_1088)"/>
<path d="M-73.1263 510.144L-78.0949 511.558C-107.195 409.262 -111.068 295.181 -89.0014 190.327C-78.7521 141.624 -57.7035 94.9497 -37.3469 49.8119C-29.8562 33.2004 -22.1091 16.0242 -15.0586 -0.92331C11.1168 -63.8365 26.0079 -131.252 29.1994 -201.297C32.3974 -271.463 27.2505 -346.585 13.9041 -424.581C9.36904 -451.084 5.20027 -471.355 0.389743 -490.305L5.39725 -491.578C10.2427 -472.488 14.4366 -452.095 18.9957 -425.452C32.4055 -347.093 37.5739 -271.597 34.3598 -201.063C31.1389 -130.414 16.1171 -62.4099 -10.2899 1.06135C-17.371 18.0801 -25.1331 35.2912 -32.6393 51.9356C-52.8821 96.8219 -73.8144 143.238 -83.9489 191.391C-105.843 295.439 -102 408.64 -73.1263 510.144Z" fill="url(#paint31_linear_288_1088)"/>
<path d="M-66.139 513.335L-71.1076 514.748C-100.208 412.453 -104.081 298.372 -82.0148 193.519C-71.7656 144.816 -50.717 98.1419 -30.3604 53.0041C-22.8696 36.3926 -15.1226 19.2164 -8.0721 2.26886C18.1034 -60.6443 32.9931 -128.06 36.1859 -198.105C39.3845 -268.268 34.2391 -343.393 20.8906 -421.388C16.3556 -447.892 12.1868 -468.162 7.37632 -487.113L12.3851 -488.385C17.2305 -469.295 21.4244 -448.902 25.9835 -422.259C39.3933 -343.9 44.5609 -268.402 41.3477 -197.87C38.128 -127.22 23.1062 -59.2161 -3.30211 4.25437C-10.3832 21.2731 -18.1452 38.4842 -25.6515 55.1285C-45.8942 100.015 -66.8265 146.431 -76.961 194.584C-98.8555 298.63 -95.0138 411.832 -66.139 513.335Z" fill="url(#paint32_linear_288_1088)"/>
<path d="M-59.153 516.527L-64.1216 517.94C-93.2207 415.645 -97.094 301.562 -75.0267 196.71C-64.7775 148.007 -43.7289 101.333 -23.3723 56.1953C-15.8816 39.5838 -8.13446 22.4076 -1.08401 5.46001C25.0914 -57.4531 39.9812 -124.869 43.174 -194.914C46.3726 -265.077 41.2272 -340.202 27.8787 -418.197C23.3436 -444.7 19.1748 -464.971 14.3643 -483.922L19.3718 -485.194C24.2173 -466.105 28.4111 -445.711 32.9702 -419.069C46.38 -340.709 51.5478 -265.212 48.3344 -194.679C45.1148 -124.03 30.093 -56.0258 3.68468 7.44472C-3.39643 24.4635 -11.1584 41.6746 -18.6647 58.3189C-38.9074 103.205 -59.8397 149.621 -69.9743 197.775C-91.8687 301.82 -88.0257 415.023 -59.153 516.527Z" fill="url(#paint33_linear_288_1088)"/>
<path d="M-52.1657 519.718L-57.1343 521.131C-86.2347 418.835 -90.1074 304.754 -68.0395 199.901C-57.7902 151.198 -36.7416 104.524 -16.385 59.3861C-8.89431 42.7747 -1.14722 25.5985 5.90325 8.65094C32.0787 -54.2622 46.9685 -121.678 50.1613 -191.723C53.3598 -261.886 48.2145 -337.011 34.866 -415.006C30.3309 -441.509 26.1622 -461.78 21.3516 -480.731L26.3604 -482.003C31.2059 -462.913 35.3997 -442.52 39.9589 -415.877C53.3686 -337.518 58.5363 -262.02 55.323 -191.488C52.1034 -120.838 37.0816 -52.8341 10.6732 10.6364C3.59216 27.6551 -4.16985 44.8663 -11.6761 61.5106C-31.9189 106.397 -52.8512 152.813 -62.9857 200.966C-84.8822 305.012 -81.0398 418.213 -52.1657 519.718Z" fill="url(#paint34_linear_288_1088)"/>
<path d="M-45.1781 522.909L-50.1467 524.322C-79.2471 422.026 -83.1198 307.945 -61.0539 203.092C-50.8046 154.39 -29.756 107.715 -9.39945 62.5774C-1.90871 45.9659 5.83837 28.7897 12.8888 11.8422C39.0643 -51.071 53.954 -118.487 57.1468 -188.532C60.3454 -258.695 55.2 -333.82 41.8516 -411.815C37.3165 -438.318 33.1477 -458.589 28.3372 -477.54L33.3447 -478.812C38.1902 -459.723 42.384 -439.329 46.9432 -412.687C60.3529 -334.327 65.5205 -258.83 62.3073 -188.297C59.0876 -117.648 44.0659 -49.6436 17.6575 13.8269C10.5764 30.8456 2.81439 48.0568 -4.69183 64.7011C-24.9346 109.587 -45.8669 156.003 -56.0014 204.157C-77.8945 308.203 -74.0529 421.405 -45.1781 522.909Z" fill="url(#paint35_linear_288_1088)"/>
<path d="M-38.1911 526.101L-43.1597 527.514C-72.2601 425.219 -76.1328 311.137 -54.0661 206.283C-43.8169 157.581 -22.767 110.907 -2.41039 65.7694C5.08035 49.158 12.8274 31.9817 19.8787 15.0329C46.0541 -47.8803 60.9439 -115.296 64.1367 -185.341C67.3352 -255.504 62.1899 -330.63 48.8414 -408.624C44.3063 -435.128 40.1376 -455.398 35.3271 -474.349L40.3358 -475.621C45.1813 -456.531 49.3751 -436.138 53.9342 -409.495C67.344 -331.136 72.5117 -255.638 69.2984 -185.106C66.0788 -114.456 51.057 -46.4522 24.6486 17.0183C17.5676 34.0371 9.80552 51.2482 2.29854 67.8939C-17.9442 112.78 -38.8758 159.195 -49.0116 207.347C-70.9075 311.396 -67.0652 424.597 -38.1911 526.101Z" fill="url(#paint36_linear_288_1088)"/>
<path d="M-31.2041 529.291L-36.1727 530.704C-65.2718 428.409 -69.1458 314.328 -47.0778 209.474C-36.8286 160.772 -15.7787 114.098 4.57787 68.9603C12.0686 52.3489 19.8157 35.1727 26.8669 18.2238C53.0423 -44.6893 67.9322 -112.106 71.1249 -182.15C74.3235 -252.313 69.1781 -327.439 55.8296 -405.434C51.2949 -431.931 47.1262 -452.202 42.3153 -471.158L47.3241 -472.43C52.1707 -453.336 56.3637 -432.941 60.9225 -406.304C74.3323 -327.945 79.5 -252.448 76.2867 -181.915C73.0671 -111.265 58.0453 -43.2613 31.6369 20.2092C24.5558 37.228 16.7938 54.4391 9.28682 71.0848C-10.956 115.971 -31.8875 162.385 -42.0233 210.538C-63.9206 314.586 -60.0777 427.789 -31.2041 529.291Z" fill="url(#paint37_linear_288_1088)"/>
<path d="M-24.2165 532.482L-29.1851 533.895C-58.2849 431.602 -62.159 317.52 -40.0923 212.666C-29.843 163.963 -8.79313 117.289 11.5635 72.1516C19.0542 55.5401 26.8013 38.364 33.8525 21.4151C60.0279 -41.498 74.9177 -108.914 78.1105 -178.959C81.3091 -249.122 76.1637 -324.247 62.8152 -402.242C58.2805 -428.74 54.1117 -449.011 49.3008 -467.967L54.3096 -469.238C59.1562 -450.145 63.3493 -429.75 67.9081 -403.113C81.3179 -324.753 86.4855 -249.256 83.2722 -178.723C80.0526 -108.074 65.0309 -40.07 38.6225 23.4005C31.5414 40.4193 23.7794 57.6305 16.2724 74.2761C-3.97042 119.162 -24.9019 165.577 -35.0378 213.73C-56.9337 317.778 -53.0913 430.979 -24.2165 532.482Z" fill="url(#paint38_linear_288_1088)"/>
<path d="M-17.2292 535.674L-22.1978 537.087C-51.2982 434.792 -55.1709 320.711 -33.1042 215.857C-22.8544 167.156 -1.80582 120.482 18.55 75.3453C26.0415 58.7325 33.7886 41.5563 40.8406 24.6061C67.0168 -38.3084 81.9079 -105.724 85.0986 -175.768C88.2971 -245.931 83.1517 -321.056 69.8032 -399.051C65.2686 -425.549 61.0998 -445.82 56.2889 -464.776L61.2977 -466.047C66.1443 -446.954 70.3374 -426.559 74.8962 -399.922C88.3059 -321.562 93.4736 -246.065 90.2603 -175.532C87.0401 -104.885 72.0184 -36.881 45.6106 26.5916C38.5295 43.6103 30.7672 60.8248 23.2603 77.4705C3.0169 122.355 -17.9159 168.768 -28.0497 216.921C-49.9456 320.969 -46.104 434.171 -17.2292 535.674Z" fill="url(#paint39_linear_288_1088)"/>
<path d="M-10.2419 538.865L-15.2105 540.278C-44.3109 437.983 -48.1836 323.902 -26.1169 219.048C-15.8671 170.347 5.18147 123.673 25.5373 78.5362C33.0288 61.9234 40.7759 44.7472 47.8279 27.797C74.004 -35.1174 88.8952 -102.533 92.0859 -172.577C95.2844 -242.74 90.139 -317.865 76.7905 -395.86C72.2559 -422.358 68.0871 -442.629 63.2763 -461.585L68.285 -462.856C73.1316 -443.763 77.3247 -423.368 81.8834 -396.731C95.2932 -318.371 100.461 -242.874 97.2476 -172.341C94.0274 -101.694 79.0057 -33.6901 52.5979 29.7825C45.5168 46.8012 37.7545 64.0158 30.2476 80.6614C10.0055 125.546 -10.926 171.961 -21.0598 220.113C-42.9583 324.16 -39.1167 437.362 -10.2419 538.865Z" fill="url(#paint40_linear_288_1088)"/>
<path d="M-3.25557 542.055L-8.22413 543.468C-37.324 441.175 -41.198 327.093 -19.1313 222.239C-8.88152 173.538 12.167 126.864 32.5229 81.7275C40.0144 65.1147 47.7615 47.9385 54.8134 30.9883C80.9896 -31.9261 95.8808 -99.3416 99.0715 -169.386C102.27 -239.549 97.1246 -314.674 83.7761 -392.669C79.2414 -419.167 75.0727 -439.437 70.2618 -458.394L75.2706 -459.665C80.1171 -440.571 84.3102 -420.177 88.869 -393.54C102.279 -315.18 107.446 -239.683 104.233 -169.15C101.013 -98.5027 85.9912 -30.4988 59.5834 32.9738C52.5023 49.9925 44.7401 67.2071 37.2331 83.8527C16.9898 128.737 -3.94101 175.15 -14.0755 223.304C-35.9727 327.351 -32.1291 440.553 -3.25557 542.055Z" fill="url(#paint41_linear_288_1088)"/>
<path d="M3.73173 545.248L-1.23688 546.661C-30.3359 444.366 -34.21 330.284 -12.1433 225.43C-1.89346 176.729 19.1551 130.055 39.5109 84.9185C47.0024 68.3058 54.7495 51.1295 61.8015 34.1793C87.9777 -28.7351 102.869 -96.1505 106.06 -166.195C109.258 -236.358 104.113 -311.483 90.7642 -389.478C86.2295 -415.976 82.0608 -436.246 77.2499 -455.203L82.2574 -456.475C87.1039 -437.381 91.297 -416.987 95.8558 -390.349C109.266 -311.99 114.433 -236.493 111.22 -165.96C108 -95.3124 92.978 -27.3085 66.5702 36.1641C59.4891 53.1828 51.7269 70.3973 44.2199 87.043C23.9778 131.928 3.04631 178.342 -7.08743 226.495C-28.9847 330.542 -25.1423 443.743 3.73173 545.248Z" fill="url(#paint42_linear_288_1088)"/>
<path d="M10.719 548.439L5.75043 549.852C-23.35 447.556 -27.2227 333.475 -5.15598 228.621C5.09383 179.92 26.1416 133.247 46.4975 88.1108C53.9889 71.498 61.7361 54.3218 68.788 37.3716C94.9642 -25.5428 109.855 -92.9583 113.046 -163.002C116.245 -233.166 111.099 -308.291 97.7507 -386.286C93.216 -412.783 89.0473 -433.054 84.2364 -452.011L89.2452 -453.282C94.0917 -434.188 98.2848 -413.794 102.844 -387.157C116.253 -308.797 121.421 -233.3 118.208 -162.767C114.986 -92.1202 99.9645 -24.1163 73.5575 39.355C66.4764 56.3738 58.7142 73.5883 51.2072 90.2339C30.9651 135.119 10.0336 181.533 -0.100153 229.686C-21.9974 333.733 -18.1558 446.935 10.719 548.439Z" fill="url(#paint43_linear_288_1088)"/>
<path d="M17.706 551.629L12.7374 553.042C-16.3624 450.748 -20.2344 336.666 1.83152 231.813C12.0813 183.112 33.1299 136.438 53.4858 91.3017C60.9773 74.6889 68.7243 57.5127 75.7763 40.5625C101.953 -22.3519 116.844 -89.7674 120.034 -159.811C123.233 -229.975 118.088 -305.1 104.739 -383.095C100.204 -409.592 96.0355 -429.863 91.2247 -448.82L96.2335 -450.091C101.08 -430.997 105.273 -410.603 109.832 -383.966C123.242 -305.606 128.409 -230.109 125.196 -159.576C121.975 -88.9293 106.953 -20.9254 80.545 42.5472C73.4639 59.566 65.7016 76.7805 58.1947 93.4262C37.9526 138.311 17.0211 184.725 6.88735 232.878C-15.0099 336.925 -11.1675 450.126 17.706 551.629Z" fill="url(#paint44_linear_288_1088)"/>
<path d="M24.693 554.821L19.7244 556.234C-9.37469 453.939 -13.2487 339.857 8.81796 235.003C19.0665 186.302 40.1156 139.63 60.4702 94.4925C67.9617 77.8798 75.7095 60.7023 82.7607 43.7534C108.937 -19.1611 123.828 -86.5765 127.019 -156.621C130.217 -226.784 125.071 -301.908 111.723 -379.904C107.187 -406.408 103.018 -426.679 98.2091 -445.629L103.218 -446.9C108.063 -427.813 112.256 -407.418 116.816 -380.775C130.226 -302.415 135.394 -226.918 132.18 -156.385C128.962 -85.7382 113.941 -17.7343 87.5314 45.7376C80.4496 62.7576 72.6881 79.9708 65.1811 96.6165C44.9391 141.501 24.0076 187.916 13.8738 236.068C-8.02344 340.116 -4.18104 453.317 24.693 554.821Z" fill="url(#paint45_linear_288_1088)"/>
<path d="M31.6803 558.012L26.7117 559.425C-2.38865 457.129 -6.2614 343.048 15.8053 238.194C26.0538 189.493 47.1029 142.821 67.4574 97.6835C74.9489 81.0708 82.6968 63.8933 89.748 46.9444C115.924 -15.9701 130.815 -83.3855 134.006 -153.43C137.203 -223.597 132.058 -298.719 118.711 -376.713C114.174 -403.217 110.006 -423.488 105.196 -442.438L110.205 -443.709C115.05 -424.622 119.243 -404.227 123.804 -377.584C137.212 -299.225 142.383 -223.73 139.168 -153.194C135.948 -82.5467 120.926 -14.5428 94.518 48.9298C87.4361 65.9499 79.6747 83.1631 72.1677 99.8087C51.9256 144.694 30.9941 191.108 20.8604 239.26C-1.03614 343.307 2.80626 456.508 31.6803 558.012Z" fill="url(#paint46_linear_288_1088)"/>
<path d="M38.6686 561.203L33.7 562.616C4.5996 460.32 0.725555 346.238 22.7928 241.387C33.0413 192.685 54.0904 146.013 74.445 100.876C81.9364 84.263 89.6843 67.0854 96.7355 50.1366C122.912 -12.7778 137.803 -80.1932 140.994 -150.237C144.191 -220.405 139.045 -295.527 125.698 -373.521C121.162 -400.025 116.993 -420.295 112.184 -439.246L117.191 -440.518C122.036 -421.43 126.229 -401.036 130.79 -374.392C144.198 -296.033 149.369 -220.538 146.154 -150.003C142.936 -79.3557 127.914 -11.3518 101.506 52.1207C94.4244 69.1408 86.6629 86.354 79.1559 103C58.9139 147.885 37.9824 194.299 27.8486 242.451C5.95084 346.497 9.79378 459.7 38.6686 561.203Z" fill="url(#paint47_linear_288_1088)"/>
<path d="M45.6536 564.394L40.685 565.807C11.5854 463.51 7.71267 349.429 29.7799 244.577C40.0284 195.876 61.0775 149.204 81.4321 104.066C88.9236 87.4536 96.6714 70.2761 103.723 53.3272C129.899 -9.58728 144.79 -77.0027 147.981 -147.047C151.178 -217.214 146.032 -292.336 132.685 -370.33C128.149 -396.834 123.98 -417.105 119.171 -436.055L124.18 -437.326C129.025 -418.239 133.218 -397.844 137.778 -371.201C151.187 -292.842 156.357 -217.347 153.142 -146.811C149.922 -76.1639 134.9 -8.15994 108.493 55.3127C101.411 72.3327 93.6493 89.5459 86.1423 106.192C65.9003 151.077 44.9687 197.491 34.835 245.643C12.938 349.687 16.7796 462.89 45.6536 564.394Z" fill="url(#paint48_linear_288_1088)"/>
<path d="M52.6413 567.585L47.6727 568.998C18.5723 466.703 14.6995 352.622 36.7662 247.768C47.0147 199.066 68.0638 152.394 88.4184 107.257C95.9098 90.644 103.658 73.4665 110.709 56.5176C136.884 -6.39552 151.775 -73.811 154.967 -143.856C158.164 -214.02 153.018 -289.144 139.672 -367.14C135.135 -393.644 130.967 -413.914 126.157 -432.865L131.166 -434.136C136.011 -415.048 140.204 -394.654 144.765 -368.011C158.174 -289.65 163.342 -214.154 160.129 -143.621C156.908 -72.9721 141.886 -4.96814 115.479 58.5031C108.397 75.5232 100.636 92.7363 93.1286 109.382C72.8866 154.267 51.955 200.681 41.8213 248.834C19.9248 352.88 23.7672 466.081 52.6413 567.585Z" fill="url(#paint49_linear_288_1088)"/>
<path d="M59.6295 570.776L54.6609 572.189C25.5605 469.894 21.6878 355.812 43.7537 250.96C54.003 202.257 75.0516 155.583 95.4082 110.445C102.899 93.8336 110.646 76.6573 117.696 59.7098C143.872 -3.20339 158.763 -70.6187 161.955 -140.664C165.152 -210.828 160.006 -285.952 146.659 -363.948C142.123 -390.451 137.954 -410.722 133.145 -429.672L138.154 -430.944C142.999 -411.856 147.192 -391.462 151.752 -364.818C165.161 -286.457 170.329 -210.962 167.116 -140.429C163.895 -69.7799 148.874 -1.77601 122.466 61.6953C115.385 78.714 107.623 95.9252 100.117 112.569C79.8743 157.456 58.942 203.871 48.8075 252.025C26.9131 356.071 30.7542 469.271 59.6295 570.776Z" fill="url(#paint50_linear_288_1088)"/>
<path d="M66.6168 573.969L61.6483 575.382C32.5479 473.086 28.6738 359.004 50.7418 254.151C60.9911 205.448 82.0396 158.774 102.396 113.636C109.887 97.0247 117.634 79.8485 124.685 62.9009C150.86 -0.0122762 165.751 -67.4277 168.943 -137.473C172.14 -207.637 166.994 -282.761 153.647 -360.756C149.111 -387.26 144.942 -407.531 140.133 -426.481L145.142 -427.753C149.987 -408.665 154.18 -388.271 158.74 -361.627C172.15 -283.268 177.32 -207.772 174.105 -137.239C170.884 -66.5902 155.862 1.41374 129.455 64.885C122.374 81.9038 114.612 99.115 107.106 115.759C86.8631 160.646 65.9309 207.061 55.7964 255.215C33.8991 359.262 37.7428 472.464 66.6168 573.969Z" fill="url(#paint51_linear_288_1088)"/>
<path d="M73.6028 577.159L68.6342 578.572C39.5351 476.277 35.6619 362.194 57.7291 257.342C67.9784 208.639 89.0269 161.965 109.384 116.827C116.874 100.216 124.621 83.0394 131.672 66.0919C157.847 3.17869 172.738 -64.2367 175.93 -134.282C179.127 -204.446 173.981 -279.57 160.635 -357.565C156.098 -384.069 151.929 -404.34 147.12 -423.29L152.129 -424.562C156.974 -405.474 161.167 -385.08 165.727 -358.436C179.136 -280.075 184.305 -204.58 181.092 -134.047C177.871 -63.3979 162.849 4.60607 136.442 68.0773C129.361 85.0961 121.599 102.307 114.092 118.952C93.8497 163.838 72.9174 210.253 62.7829 258.407C40.8864 362.453 44.7288 475.654 73.6028 577.159Z" fill="url(#paint52_linear_288_1088)"/>
<path d="M80.5908 580.35L75.6222 581.763C46.5224 479.469 42.6491 365.386 64.715 260.533C74.9643 211.831 96.0129 165.156 116.369 120.019C123.86 103.407 131.607 86.2309 138.658 69.2834C164.833 6.37019 179.724 -61.0451 182.916 -131.09C186.113 -201.254 180.967 -276.379 167.62 -354.374C163.085 -380.879 158.916 -401.15 154.105 -420.1L159.114 -421.371C163.958 -402.283 168.152 -381.89 172.713 -355.245C186.122 -276.884 191.291 -201.388 188.077 -130.855C184.857 -60.2064 169.835 7.79756 143.428 71.2688C136.347 88.2876 128.585 105.499 121.078 122.143C100.836 167.029 79.9033 213.445 69.7688 261.599C47.8736 365.646 51.716 478.847 80.5908 580.35Z" fill="url(#paint53_linear_288_1088)"/>
<defs>
<radialGradient id="paint0_radial_288_1088" cx="0" cy="0" r="1" gradientUnits="userSpaceOnUse" gradientTransform="translate(439.294 280.083) rotate(-22.92) scale(473.602 473.602)">
<stop offset="0.28125" stop-color="#2E5053"/>
<stop offset="1" stop-color="#4D9F98"/>
</radialGradient>
<radialGradient id="paint1_radial_288_1088" cx="0" cy="0" r="1" gradientUnits="userSpaceOnUse" gradientTransform="translate(442.287 287.158) rotate(-22.92) scale(473.602 473.602)">
<stop offset="0.28125" stop-color="#2E5053"/>
<stop offset="1" stop-color="#4D9F98"/>
</radialGradient>
<radialGradient id="paint2_radial_288_1088" cx="0" cy="0" r="1" gradientUnits="userSpaceOnUse" gradientTransform="translate(445.278 294.233) rotate(-22.92) scale(473.602 473.602)">
<stop offset="0.28125" stop-color="#2E5053"/>
<stop offset="1" stop-color="#4D9F98"/>
</radialGradient>
<radialGradient id="paint3_radial_288_1088" cx="0" cy="0" r="1" gradientUnits="userSpaceOnUse" gradientTransform="translate(448.268 301.307) rotate(-22.92) scale(473.602 473.602)">
<stop offset="0.28125" stop-color="#2E5053"/>
<stop offset="1" stop-color="#4D9F98"/>
</radialGradient>
<radialGradient id="paint4_radial_288_1088" cx="0" cy="0" r="1" gradientUnits="userSpaceOnUse" gradientTransform="translate(451.259 308.382) rotate(-22.92) scale(473.602 473.602)">
<stop offset="0.28125" stop-color="#2E5053"/>
<stop offset="1" stop-color="#4D9F98"/>
</radialGradient>
<radialGradient id="paint5_radial_288_1088" cx="0" cy="0" r="1" gradientUnits="userSpaceOnUse" gradientTransform="translate(454.251 315.456) rotate(-22.92) scale(473.603 473.603)">
<stop offset="0.28125" stop-color="#2E5053"/>
<stop offset="1" stop-color="#4D9F98"/>
</radialGradient>
<radialGradient id="paint6_radial_288_1088" cx="0" cy="0" r="1" gradientUnits="userSpaceOnUse" gradientTransform="translate(457.244 322.531) rotate(-22.92) scale(473.603 473.603)">
<stop offset="0.28125" stop-color="#2E5053"/>
<stop offset="1" stop-color="#4D9F98"/>
</radialGradient>
<radialGradient id="paint7_radial_288_1088" cx="0" cy="0" r="1" gradientUnits="userSpaceOnUse" gradientTransform="translate(460.235 329.606) rotate(-22.92) scale(473.603 473.603)">
<stop offset="0.28125" stop-color="#2E5053"/>
<stop offset="1" stop-color="#4D9F98"/>
</radialGradient>
<radialGradient id="paint8_radial_288_1088" cx="0" cy="0" r="1" gradientUnits="userSpaceOnUse" gradientTransform="translate(463.226 336.681) rotate(-22.92) scale(473.603 473.603)">
<stop offset="0.28125" stop-color="#2E5053"/>
<stop offset="1" stop-color="#4D9F98"/>
</radialGradient>
<radialGradient id="paint9_radial_288_1088" cx="0" cy="0" r="1" gradientUnits="userSpaceOnUse" gradientTransform="translate(466.217 343.757) rotate(-22.92) scale(473.602 473.602)">
<stop offset="0.28125" stop-color="#2E5053"/>
<stop offset="1" stop-color="#4D9F98"/>
</radialGradient>
<radialGradient id="paint10_radial_288_1088" cx="0" cy="0" r="1" gradientUnits="userSpaceOnUse" gradientTransform="translate(469.208 350.832) rotate(-22.92) scale(473.602 473.602)">
<stop offset="0.28125" stop-color="#2E5053"/>
<stop offset="1" stop-color="#4D9F98"/>
</radialGradient>
<radialGradient id="paint11_radial_288_1088" cx="0" cy="0" r="1" gradientUnits="userSpaceOnUse" gradientTransform="translate(472.2 357.907) rotate(-22.92) scale(473.602 473.602)">
<stop offset="0.28125" stop-color="#2E5053"/>
<stop offset="1" stop-color="#4D9F98"/>
</radialGradient>
<radialGradient id="paint12_radial_288_1088" cx="0" cy="0" r="1" gradientUnits="userSpaceOnUse" gradientTransform="translate(475.191 364.983) rotate(-22.92) scale(473.601 473.601)">
<stop offset="0.28125" stop-color="#2E5053"/>
<stop offset="1" stop-color="#4D9F98"/>
</radialGradient>
<radialGradient id="paint13_radial_288_1088" cx="0" cy="0" r="1" gradientUnits="userSpaceOnUse" gradientTransform="translate(478.183 372.058) rotate(-22.92) scale(473.601 473.601)">
<stop offset="0.28125" stop-color="#2E5053"/>
<stop offset="1" stop-color="#4D9F98"/>
</radialGradient>
<radialGradient id="paint14_radial_288_1088" cx="0" cy="0" r="1" gradientUnits="userSpaceOnUse" gradientTransform="translate(481.174 379.132) rotate(-22.92) scale(473.601 473.601)">
<stop offset="0.28125" stop-color="#2E5053"/>
<stop offset="1" stop-color="#4D9F98"/>
</radialGradient>
<radialGradient id="paint15_radial_288_1088" cx="0" cy="0" r="1" gradientUnits="userSpaceOnUse" gradientTransform="translate(484.165 386.206) rotate(-22.92) scale(473.601 473.601)">
<stop offset="0.28125" stop-color="#2E5053"/>
<stop offset="1" stop-color="#4D9F98"/>
</radialGradient>
<radialGradient id="paint16_radial_288_1088" cx="0" cy="0" r="1" gradientUnits="userSpaceOnUse" gradientTransform="translate(487.158 393.281) rotate(-22.92) scale(473.601 473.601)">
<stop offset="0.28125" stop-color="#2E5053"/>
<stop offset="1" stop-color="#4D9F98"/>
</radialGradient>
<radialGradient id="paint17_radial_288_1088" cx="0" cy="0" r="1" gradientUnits="userSpaceOnUse" gradientTransform="translate(490.149 400.357) rotate(-22.92) scale(473.601 473.601)">
<stop offset="0.28125" stop-color="#2E5053"/>
<stop offset="1" stop-color="#4D9F98"/>
</radialGradient>
<radialGradient id="paint18_radial_288_1088" cx="0" cy="0" r="1" gradientUnits="userSpaceOnUse" gradientTransform="translate(493.141 407.431) rotate(-22.92) scale(473.602 473.602)">
<stop offset="0.28125" stop-color="#2E5053"/>
<stop offset="1" stop-color="#4D9F98"/>
</radialGradient>
<radialGradient id="paint19_radial_288_1088" cx="0" cy="0" r="1" gradientUnits="userSpaceOnUse" gradientTransform="translate(496.132 414.506) rotate(-22.92) scale(473.602 473.602)">
<stop offset="0.28125" stop-color="#2E5053"/>
<stop offset="1" stop-color="#4D9F98"/>
</radialGradient>
<radialGradient id="paint20_radial_288_1088" cx="0" cy="0" r="1" gradientUnits="userSpaceOnUse" gradientTransform="translate(499.125 421.581) rotate(-22.92) scale(473.602 473.602)">
<stop offset="0.28125" stop-color="#2E5053"/>
<stop offset="1" stop-color="#4D9F98"/>
</radialGradient>
<radialGradient id="paint21_radial_288_1088" cx="0" cy="0" r="1" gradientUnits="userSpaceOnUse" gradientTransform="translate(502.116 428.656) rotate(-22.92) scale(473.602 473.603)">
<stop offset="0.28125" stop-color="#2E5053"/>
<stop offset="1" stop-color="#4D9F98"/>
</radialGradient>
<radialGradient id="paint22_radial_288_1088" cx="0" cy="0" r="1" gradientUnits="userSpaceOnUse" gradientTransform="translate(505.107 435.731) rotate(-22.92) scale(473.602 473.602)">
<stop offset="0.28125" stop-color="#2E5053"/>
<stop offset="1" stop-color="#4D9F98"/>
</radialGradient>
<radialGradient id="paint23_radial_288_1088" cx="0" cy="0" r="1" gradientUnits="userSpaceOnUse" gradientTransform="translate(508.098 442.805) rotate(-22.92) scale(473.602 473.603)">
<stop offset="0.28125" stop-color="#2E5053"/>
<stop offset="1" stop-color="#4D9F98"/>
</radialGradient>
<radialGradient id="paint24_radial_288_1088" cx="0" cy="0" r="1" gradientUnits="userSpaceOnUse" gradientTransform="translate(511.091 449.881) rotate(-22.92) scale(473.602 473.602)">
<stop offset="0.28125" stop-color="#2E5053"/>
<stop offset="1" stop-color="#4D9F98"/>
</radialGradient>
<radialGradient id="paint25_radial_288_1088" cx="0" cy="0" r="1" gradientUnits="userSpaceOnUse" gradientTransform="translate(514.083 456.955) rotate(-22.92) scale(473.602 473.602)">
<stop offset="0.28125" stop-color="#2E5053"/>
<stop offset="1" stop-color="#4D9F98"/>
</radialGradient>
<radialGradient id="paint26_radial_288_1088" cx="0" cy="0" r="1" gradientUnits="userSpaceOnUse" gradientTransform="translate(517.074 464.03) rotate(-22.92) scale(473.602 473.602)">
<stop offset="0.28125" stop-color="#2E5053"/>
<stop offset="1" stop-color="#4D9F98"/>
</radialGradient>
<linearGradient id="paint27_linear_288_1088" x1="-261.094" y1="427.97" x2="132.426" y2="-433.538" gradientUnits="userSpaceOnUse">
<stop offset="0.114583" stop-color="#2E5053"/>
<stop offset="1" stop-color="#2E5053"/>
</linearGradient>
<linearGradient id="paint28_linear_288_1088" x1="-254.107" y1="431.161" x2="139.414" y2="-430.347" gradientUnits="userSpaceOnUse">
<stop offset="0.114583" stop-color="#2E5053"/>
<stop offset="1" stop-color="#2E5053"/>
</linearGradient>
<linearGradient id="paint29_linear_288_1088" x1="-247.119" y1="434.351" x2="146.4" y2="-427.155" gradientUnits="userSpaceOnUse">
<stop offset="0.114583" stop-color="#2E5053"/>
<stop offset="1" stop-color="#2E5053"/>
</linearGradient>
<linearGradient id="paint30_linear_288_1088" x1="-240.132" y1="437.544" x2="153.388" y2="-423.964" gradientUnits="userSpaceOnUse">
<stop offset="0.114583" stop-color="#2E5053"/>
<stop offset="1" stop-color="#2E5053"/>
</linearGradient>
<linearGradient id="paint31_linear_288_1088" x1="-233.145" y1="440.734" x2="160.376" y2="-420.774" gradientUnits="userSpaceOnUse">
<stop offset="0.114583" stop-color="#2E5053"/>
<stop offset="1" stop-color="#2E5053"/>
</linearGradient>
<linearGradient id="paint32_linear_288_1088" x1="-226.157" y1="443.925" x2="167.362" y2="-417.581" gradientUnits="userSpaceOnUse">
<stop offset="0.114583" stop-color="#2E5053"/>
<stop offset="1" stop-color="#2E5053"/>
</linearGradient>
<linearGradient id="paint33_linear_288_1088" x1="-219.171" y1="447.117" x2="174.349" y2="-414.391" gradientUnits="userSpaceOnUse">
<stop offset="0.114583" stop-color="#2E5053"/>
<stop offset="1" stop-color="#2E5053"/>
</linearGradient>
<linearGradient id="paint34_linear_288_1088" x1="-212.184" y1="450.308" x2="181.336" y2="-411.2" gradientUnits="userSpaceOnUse">
<stop offset="0.114583" stop-color="#2E5053"/>
<stop offset="1" stop-color="#2E5053"/>
</linearGradient>
<linearGradient id="paint35_linear_288_1088" x1="-205.197" y1="453.498" x2="188.323" y2="-408.008" gradientUnits="userSpaceOnUse">
<stop offset="0.114583" stop-color="#2E5053"/>
<stop offset="1" stop-color="#2E5053"/>
</linearGradient>
<linearGradient id="paint36_linear_288_1088" x1="-198.209" y1="456.691" x2="195.311" y2="-404.818" gradientUnits="userSpaceOnUse">
<stop offset="0.114583" stop-color="#2E5053"/>
<stop offset="1" stop-color="#2E5053"/>
</linearGradient>
<linearGradient id="paint37_linear_288_1088" x1="-191.222" y1="459.882" x2="202.299" y2="-401.628" gradientUnits="userSpaceOnUse">
<stop offset="0.114583" stop-color="#2E5053"/>
<stop offset="1" stop-color="#2E5053"/>
</linearGradient>
<linearGradient id="paint38_linear_288_1088" x1="-184.234" y1="463.072" x2="209.286" y2="-398.436" gradientUnits="userSpaceOnUse">
<stop offset="0.114583" stop-color="#2E5053"/>
<stop offset="1" stop-color="#2E5053"/>
</linearGradient>
<linearGradient id="paint39_linear_288_1088" x1="-177.247" y1="466.265" x2="216.273" y2="-395.245" gradientUnits="userSpaceOnUse">
<stop offset="0.114583" stop-color="#2E5053"/>
<stop offset="1" stop-color="#2E5053"/>
</linearGradient>
<linearGradient id="paint40_linear_288_1088" x1="-170.26" y1="469.455" x2="223.261" y2="-392.054" gradientUnits="userSpaceOnUse">
<stop offset="0.114583" stop-color="#2E5053"/>
<stop offset="1" stop-color="#2E5053"/>
</linearGradient>
<linearGradient id="paint41_linear_288_1088" x1="-163.273" y1="472.645" x2="230.247" y2="-388.863" gradientUnits="userSpaceOnUse">
<stop offset="0.114583" stop-color="#2E5053"/>
<stop offset="1" stop-color="#2E5053"/>
</linearGradient>
<linearGradient id="paint42_linear_288_1088" x1="-156.286" y1="475.838" x2="237.234" y2="-385.672" gradientUnits="userSpaceOnUse">
<stop offset="0.114583" stop-color="#2E5053"/>
<stop offset="1" stop-color="#2E5053"/>
</linearGradient>
<linearGradient id="paint43_linear_288_1088" x1="-149.299" y1="479.029" x2="244.221" y2="-382.479" gradientUnits="userSpaceOnUse">
<stop offset="0.114583" stop-color="#2E5053"/>
<stop offset="1" stop-color="#2E5053"/>
</linearGradient>
<linearGradient id="paint44_linear_288_1088" x1="-142.311" y1="482.219" x2="251.208" y2="-379.289" gradientUnits="userSpaceOnUse">
<stop offset="0.114583" stop-color="#2E5053"/>
<stop offset="1" stop-color="#2E5053"/>
</linearGradient>
<linearGradient id="paint45_linear_288_1088" x1="-135.325" y1="485.411" x2="258.195" y2="-376.097" gradientUnits="userSpaceOnUse">
<stop offset="0.114583" stop-color="#2E5053"/>
<stop offset="1" stop-color="#2E5053"/>
</linearGradient>
<linearGradient id="paint46_linear_288_1088" x1="-128.338" y1="488.602" x2="265.182" y2="-372.906" gradientUnits="userSpaceOnUse">
<stop offset="0.114583" stop-color="#2E5053"/>
<stop offset="1" stop-color="#2E5053"/>
</linearGradient>
<linearGradient id="paint47_linear_288_1088" x1="-121.35" y1="491.793" x2="272.17" y2="-369.714" gradientUnits="userSpaceOnUse">
<stop offset="0.114583" stop-color="#2E5053"/>
<stop offset="1" stop-color="#2E5053"/>
</linearGradient>
<linearGradient id="paint48_linear_288_1088" x1="-114.364" y1="494.984" x2="279.156" y2="-366.524" gradientUnits="userSpaceOnUse">
<stop offset="0.114583" stop-color="#2E5053"/>
<stop offset="1" stop-color="#2E5053"/>
</linearGradient>
<linearGradient id="paint49_linear_288_1088" x1="-107.377" y1="498.175" x2="286.143" y2="-363.333" gradientUnits="userSpaceOnUse">
<stop offset="0.114583" stop-color="#2E5053"/>
<stop offset="1" stop-color="#2E5053"/>
</linearGradient>
<linearGradient id="paint50_linear_288_1088" x1="-100.389" y1="501.366" x2="293.131" y2="-360.141" gradientUnits="userSpaceOnUse">
<stop offset="0.114583" stop-color="#2E5053"/>
<stop offset="1" stop-color="#2E5053"/>
</linearGradient>
<linearGradient id="paint51_linear_288_1088" x1="-93.4016" y1="504.558" x2="300.119" y2="-356.95" gradientUnits="userSpaceOnUse">
<stop offset="0.114583" stop-color="#2E5053"/>
<stop offset="1" stop-color="#2E5053"/>
</linearGradient>
<linearGradient id="paint52_linear_288_1088" x1="-86.4151" y1="507.749" x2="307.105" y2="-353.759" gradientUnits="userSpaceOnUse">
<stop offset="0.114583" stop-color="#2E5053"/>
<stop offset="1" stop-color="#2E5053"/>
</linearGradient>
<linearGradient id="paint53_linear_288_1088" x1="-79.4281" y1="510.939" x2="314.092" y2="-350.567" gradientUnits="userSpaceOnUse">
<stop offset="0.114583" stop-color="#2E5053"/>
<stop offset="1" stop-color="#2E5053"/>
</linearGradient>
</defs>
</svg>
