<svg width="470" height="430" viewBox="0 0 470 430" fill="none" xmlns="http://www.w3.org/2000/svg">
<path d="M74.0937 574.773L69.4756 572.455C117.185 477.402 191.452 390.718 278.594 328.37C319.07 299.411 366.134 279.246 411.648 259.745C428.397 252.569 445.716 245.148 462.37 237.426C524.188 208.76 580.735 169.149 630.439 119.691C680.226 70.1493 727.218 11.3123 770.11 -55.1852C784.686 -77.7837 795.317 -95.5393 804.583 -112.755L809.133 -110.307C799.8 -92.9661 789.105 -75.1034 774.452 -52.3857C731.361 14.4228 684.134 73.548 634.083 123.351C583.951 173.234 526.91 213.191 464.543 242.11C447.821 249.864 430.466 257.3 413.682 264.491C368.422 283.883 321.621 303.935 281.6 332.569C195.129 394.438 121.434 480.454 74.0937 574.77V574.773Z" fill="url(#paint0_radial_240_2903)"/>
<path d="M77.0868 581.848L72.4688 579.53C120.179 484.477 194.445 397.794 281.587 335.445C322.063 306.486 369.127 286.321 414.641 266.82C431.39 259.644 448.709 252.223 465.363 244.501C527.181 215.835 583.728 176.224 633.432 126.766C683.221 77.2228 730.213 18.3873 773.103 -48.1103C787.678 -70.7057 798.31 -88.4613 807.576 -105.68L812.126 -103.232C802.792 -85.8896 792.096 -68.0254 777.445 -45.3107C734.354 21.4977 687.128 80.623 637.076 130.427C586.944 180.31 529.903 220.268 467.536 249.187C450.815 256.941 433.459 264.376 416.675 271.568C371.415 290.959 324.614 311.012 284.593 339.645C198.122 401.514 124.427 487.53 77.0868 581.847V581.848Z" fill="url(#paint1_radial_240_2903)"/>
<path d="M80.0781 588.923L75.46 586.605C123.17 491.552 197.437 404.868 284.578 342.52C325.055 313.561 372.118 293.397 417.632 273.895C434.381 266.719 451.701 259.298 468.354 251.576C530.172 222.91 586.719 183.299 636.423 133.841C686.212 84.2978 733.204 25.4623 776.095 -41.0352C790.669 -63.6307 801.301 -81.3862 810.568 -98.6045L815.118 -96.1566C805.783 -78.8146 795.088 -60.9504 780.437 -38.2357C737.345 28.5728 690.12 87.698 640.068 137.503C589.936 187.386 532.895 227.343 470.528 256.262C453.806 264.016 436.45 271.452 419.667 278.643C374.406 298.034 327.605 318.087 287.585 346.72C201.113 408.589 127.418 494.605 80.0765 588.922L80.0781 588.923Z" fill="url(#paint2_radial_240_2903)"/>
<path d="M83.0683 595.997L78.4502 593.679C126.16 498.626 200.427 411.943 287.568 349.594C328.045 320.634 375.109 300.47 420.622 280.968C437.371 273.792 454.691 266.372 471.345 258.649C533.162 229.984 589.71 190.372 639.413 140.915C689.203 91.3714 736.194 32.5359 779.085 -33.9617C793.659 -56.5572 804.291 -74.3127 813.558 -91.5309L818.108 -89.083C808.773 -71.741 798.078 -53.8768 783.427 -31.1621C740.335 35.6463 693.11 94.7715 643.058 144.576C592.926 194.459 535.885 234.416 473.518 263.335C456.796 271.089 439.44 278.525 422.657 285.716C377.397 305.108 330.595 325.16 290.575 353.794C204.103 415.663 130.408 501.679 83.0668 595.995L83.0683 595.997Z" fill="url(#paint3_radial_240_2903)"/>
<path d="M86.0595 603.072L81.4414 600.754C129.151 505.701 203.418 419.016 290.56 356.669C331.036 327.709 378.1 307.545 423.614 288.043C440.363 280.867 457.682 273.447 474.336 265.724C536.153 237.059 592.701 197.447 642.404 147.99C692.194 98.4464 739.185 39.6109 782.076 -26.8866C796.65 -49.4821 807.282 -67.2376 816.549 -84.4559L821.099 -82.008C811.765 -64.666 801.069 -46.8018 786.418 -24.0871C743.326 42.7214 696.101 101.847 646.049 151.651C595.917 201.534 538.876 241.491 476.509 270.41C459.787 278.164 442.432 285.6 425.648 292.791C380.388 312.183 333.586 332.235 293.566 360.869C207.094 422.738 133.4 508.754 86.0595 603.07V603.072Z" fill="url(#paint4_radial_240_2903)"/>
<path d="M89.0507 610.147L84.4326 607.829C132.142 512.776 206.409 426.093 293.551 363.744C334.027 334.784 381.091 314.62 426.605 295.118C443.354 287.942 460.673 280.522 477.327 272.799C539.146 244.134 595.692 204.521 645.396 155.063C695.183 105.521 742.176 46.6845 785.067 -19.8131C799.642 -42.4086 810.274 -60.1641 819.54 -77.3824L824.09 -74.9345C814.756 -57.5924 804.06 -39.7283 789.409 -17.0136C746.319 49.7949 699.091 108.922 649.04 158.723C598.908 208.608 541.867 248.563 479.5 277.484C462.779 285.238 445.423 292.674 428.639 299.865C383.379 319.256 336.578 339.309 296.557 367.943C210.086 429.812 136.391 515.827 89.0507 610.144V610.147Z" fill="url(#paint5_radial_240_2903)"/>
<path d="M92.0439 617.222L87.4258 614.904C135.136 519.851 209.402 433.166 296.544 370.819C337.02 341.859 384.084 321.695 429.598 302.194C446.347 295.017 463.666 287.597 480.32 279.874C542.139 251.209 598.685 211.596 648.389 162.138C698.177 112.597 745.17 53.7595 788.06 -12.7381C802.635 -35.3335 813.267 -53.0891 822.533 -70.3073L827.083 -67.8594C817.749 -50.5174 807.054 -32.6532 792.402 -9.93851C749.312 56.87 702.084 115.997 652.033 165.798C601.901 215.683 544.86 255.638 482.493 284.559C465.772 292.313 448.416 299.749 431.632 306.94C386.372 326.331 339.571 346.384 299.55 375.018C213.079 436.887 139.384 522.902 92.0439 617.219V617.222Z" fill="url(#paint6_radial_240_2903)"/>
<path d="M95.0351 624.297L90.417 621.979C138.127 526.926 212.394 440.243 299.535 377.894C340.012 348.934 387.075 328.77 432.589 309.269C449.338 302.092 466.658 294.672 483.311 286.949C545.13 258.284 601.677 218.671 651.38 169.213C701.168 119.672 748.161 60.8346 791.052 -5.663C805.626 -28.2585 816.258 -46.014 825.524 -63.2323L830.075 -60.7844C820.74 -43.4424 810.045 -25.5782 795.394 -2.86347C752.303 63.945 705.075 123.072 655.025 172.873C604.893 222.758 547.852 262.713 485.485 291.634C468.763 299.388 451.407 306.824 434.624 314.015C389.363 333.406 342.562 353.459 302.542 382.093C216.07 443.962 142.375 529.977 95.0336 624.294L95.0351 624.297Z" fill="url(#paint7_radial_240_2903)"/>
<path d="M98.0263 631.372L93.4082 629.054C141.118 534.001 215.385 447.317 302.527 384.969C343.003 356.009 390.067 335.845 435.581 316.344C452.329 309.167 469.649 301.747 486.303 294.024C548.122 265.359 604.668 225.746 654.371 176.289C704.159 126.747 751.152 67.9096 794.043 1.41203C808.617 -21.1834 819.249 -38.939 828.516 -56.1572L833.066 -53.7093C823.732 -36.3673 813.036 -18.5031 798.385 4.21157C755.295 71.02 708.066 130.147 658.016 179.948C607.884 229.833 550.843 269.788 488.476 298.709C471.754 306.463 454.398 313.899 437.615 321.09C392.355 340.482 345.553 360.534 305.533 389.168C219.061 451.037 145.366 537.052 98.0263 631.369V631.372Z" fill="url(#paint8_radial_240_2903)"/>
<path d="M101.018 638.447L96.3994 636.129C144.109 541.077 218.376 454.393 305.518 392.044C345.994 363.085 393.056 342.92 438.57 323.42C455.319 316.244 472.64 308.823 489.292 301.101C551.111 272.435 607.658 232.822 657.361 183.365C707.149 133.823 754.142 74.9862 797.033 8.4886C811.607 -14.1069 822.239 -31.8624 831.505 -49.0807L836.056 -46.6328C826.721 -29.2908 816.026 -11.4266 801.375 11.2881C758.284 78.0966 711.056 137.223 661.006 187.025C610.874 236.909 553.833 276.865 491.466 305.785C474.742 313.54 457.388 320.975 440.605 328.167C395.344 347.558 348.543 367.611 308.523 396.243C222.049 458.112 148.356 544.128 101.016 638.444L101.018 638.447Z" fill="url(#paint9_radial_240_2903)"/>
<path d="M104.009 645.522L99.3906 643.204C147.1 548.153 221.367 461.467 308.509 399.119C348.985 370.16 396.048 349.995 441.561 330.495C458.31 323.319 475.631 315.898 492.284 308.176C554.103 279.511 610.649 239.898 660.352 190.44C710.14 140.898 757.133 82.0612 800.024 15.5637C814.595 -7.0288 825.227 -24.7828 834.497 -42.0056L839.047 -39.5577C829.711 -22.2112 819.014 -4.3485 804.366 18.3632C761.276 85.1717 714.047 144.298 663.997 194.1C613.865 243.984 556.824 283.94 494.457 312.86C477.734 320.615 460.379 328.05 443.596 335.242C398.336 354.633 351.534 374.686 311.514 403.318C225.041 465.187 151.347 551.203 104.007 645.519L104.009 645.522Z" fill="url(#paint10_radial_240_2903)"/>
<path d="M107.001 652.597L102.383 650.279C150.093 555.228 224.358 468.543 311.501 406.194C351.977 377.235 399.04 357.07 444.554 337.57C461.303 330.394 478.623 322.974 495.276 315.251C557.095 286.586 613.641 246.973 663.344 197.515C713.132 147.973 760.125 89.1363 803.016 22.6387C817.587 0.0462341 828.219 -17.7078 837.489 -34.9306L842.039 -32.4827C832.703 -15.1361 822.006 2.72654 807.358 25.4382C764.268 92.2467 717.039 151.373 666.989 201.175C616.857 251.059 559.816 291.015 497.449 319.936C480.726 327.69 463.372 335.125 446.588 342.317C401.328 361.708 354.526 381.761 314.506 410.393C228.033 472.263 154.339 558.278 106.999 652.594L107.001 652.597Z" fill="url(#paint11_radial_240_2903)"/>
<path d="M109.992 659.672L105.374 657.354C153.084 562.303 227.349 475.618 314.492 413.269C354.967 384.311 402.029 364.147 447.542 344.647C464.292 337.469 481.613 330.049 498.267 322.326C560.086 293.661 616.634 254.048 666.336 204.592C716.123 155.05 763.116 96.2128 806.007 29.7153C820.578 7.1228 831.211 -10.6312 840.48 -27.854L845.03 -25.4061C835.694 -8.05957 824.997 9.80461 810.349 32.5148C767.259 99.3232 720.031 158.45 669.98 208.251C619.848 258.134 562.807 298.092 500.44 327.011C483.717 334.765 466.361 342.202 449.576 349.393C404.317 368.785 357.516 388.837 317.497 417.469C231.024 479.34 157.331 565.354 109.991 659.67L109.992 659.672Z" fill="url(#paint12_radial_240_2903)"/>
<path d="M112.983 666.747L108.365 664.429C156.075 569.378 230.34 482.693 317.484 420.344C357.958 391.386 405.021 371.222 450.533 351.722C467.284 344.546 484.604 337.124 501.258 329.401C563.077 300.734 619.625 261.123 669.327 211.667C719.115 162.125 766.108 103.288 808.999 36.7903C823.57 14.1978 834.202 -3.55621 843.471 -20.779L848.021 -18.3311C838.686 -0.98456 827.989 16.8781 813.34 39.5898C770.25 106.398 723.022 165.525 672.971 215.326C622.839 265.209 565.798 305.167 503.431 334.086C486.708 341.84 469.353 349.277 452.567 356.468C407.309 375.86 360.507 395.912 320.488 424.544C234.015 486.415 160.322 572.429 112.982 666.746L112.983 666.747Z" fill="url(#paint13_radial_240_2903)"/>
<path d="M115.975 673.821L111.356 671.502C159.066 576.451 233.332 489.767 320.475 427.418C360.95 398.46 408.012 378.296 453.524 358.795C470.275 351.618 487.595 344.197 504.249 336.475C566.068 307.809 622.616 268.196 672.318 218.74C722.106 169.198 769.099 110.361 811.99 43.8638C826.561 21.2714 837.193 3.51734 846.462 -13.7054L851.013 -11.2576C841.677 6.08899 830.98 23.9517 816.332 46.6633C773.241 113.472 726.013 172.599 675.963 222.4C625.831 272.283 568.79 312.24 506.423 341.159C489.699 348.913 472.344 356.351 455.559 363.542C410.3 382.933 363.499 402.986 323.48 431.618C237.006 493.488 163.313 579.503 115.973 673.819L115.975 673.821Z" fill="url(#paint14_radial_240_2903)"/>
<path d="M118.966 680.896L114.348 678.577C162.057 583.526 236.324 496.842 323.466 434.493C363.941 405.535 411.003 385.371 456.515 365.87C473.266 358.693 490.587 351.272 507.241 343.55C569.06 314.884 625.607 275.271 675.309 225.815C725.097 176.273 772.09 117.436 814.981 50.9389C829.552 28.3464 840.184 10.5924 849.454 -6.6304L854.004 -4.18251C844.668 13.164 833.971 31.0282 819.323 53.7384C776.233 120.547 729.004 179.674 678.954 229.475C628.822 279.358 571.781 319.315 509.414 348.234C492.691 355.988 475.335 363.426 458.55 370.617C413.291 390.008 366.49 410.061 326.471 438.693C239.998 500.563 166.304 586.578 118.964 680.894L118.966 680.896Z" fill="url(#paint15_radial_240_2903)"/>
<path d="M121.959 687.971L117.341 685.652C165.051 590.601 239.316 503.917 326.459 441.568C366.934 412.61 413.996 392.446 459.509 372.945C476.259 365.768 493.58 358.347 510.234 350.625C572.053 321.959 628.6 282.346 678.302 232.89C728.09 183.348 775.083 124.511 817.974 58.0139C832.545 35.4214 843.177 17.6674 852.447 0.444641L856.997 2.89253C847.661 20.2391 836.964 38.1033 822.316 60.8134C779.226 127.622 731.998 186.749 681.947 236.55C631.815 286.433 574.774 326.39 512.407 355.309C495.684 363.063 478.328 370.501 461.543 377.692C416.284 397.083 369.483 417.136 329.464 445.768C242.991 507.638 169.297 593.653 121.957 687.969L121.959 687.971Z" fill="url(#paint16_radial_240_2903)"/>
<path d="M124.95 695.046L120.332 692.728C168.042 597.676 242.309 510.992 329.45 448.643C369.925 419.685 416.987 399.521 462.5 380.021C479.25 372.843 496.571 365.422 513.225 357.7C575.044 329.034 631.592 289.421 681.294 239.965C731.081 190.423 778.074 131.587 820.965 65.0889C835.536 42.4965 846.169 24.7425 855.438 7.51968L859.988 9.96758C850.652 27.3141 839.955 45.1783 825.307 67.8885C782.217 134.697 734.989 193.824 684.938 243.625C634.806 293.508 577.765 333.465 515.398 362.384C498.675 370.138 481.319 377.576 464.534 384.767C419.275 404.158 372.474 424.211 332.455 452.843C245.982 514.714 172.289 600.728 124.947 695.044L124.95 695.046Z" fill="url(#paint17_radial_240_2903)"/>
<path d="M127.941 702.121L123.323 699.803C171.033 604.751 245.298 518.067 332.442 455.718C372.916 426.758 419.979 406.594 465.491 387.094C482.241 379.918 499.562 372.496 516.218 364.773C578.037 336.108 634.584 296.495 684.286 247.039C734.074 197.497 781.067 138.66 823.958 72.1625C838.532 49.5655 849.164 31.81 858.431 14.5932L862.981 17.0411C853.648 34.3816 842.951 52.2458 828.3 74.962C785.21 141.771 737.981 200.897 687.931 250.699C637.799 300.582 580.758 340.539 518.391 369.458C501.668 377.212 484.311 384.649 467.525 391.841C422.267 411.232 375.467 431.284 335.446 459.917C248.973 521.787 175.28 607.801 127.94 702.118L127.941 702.121Z" fill="url(#paint18_radial_240_2903)"/>
<path d="M130.933 709.196L126.314 706.878C174.024 611.825 248.291 525.142 335.433 462.793C375.907 433.833 422.97 413.669 468.482 394.169C485.233 386.993 502.553 379.571 519.209 371.848C581.028 343.183 637.576 303.57 687.277 254.114C737.067 204.571 784.058 145.734 826.949 79.2375C841.523 56.6406 852.156 38.885 861.422 21.6683L865.972 24.1162C856.639 41.4567 845.942 59.3209 831.291 82.0371C788.201 148.844 740.974 207.971 690.922 257.774C640.79 307.657 583.749 347.614 521.382 376.533C504.659 384.287 487.302 391.724 470.517 398.915C425.258 418.307 378.458 438.359 338.438 466.992C251.966 528.861 178.271 614.876 130.931 709.193L130.933 709.196Z" fill="url(#paint19_radial_240_2903)"/>
<path d="M133.925 716.271L129.307 713.953C177.016 618.9 251.283 532.216 338.425 469.868C378.9 440.909 425.962 420.744 471.474 401.244C488.225 394.068 505.546 386.646 522.201 378.923C584.02 350.258 640.568 310.645 690.27 261.189C740.059 211.646 787.05 152.809 829.941 86.3126C844.516 63.7156 855.148 45.9601 864.414 28.7433L868.964 31.1912C859.631 48.5317 848.934 66.3959 834.283 89.1121C791.193 155.919 743.966 215.046 693.914 264.849C643.782 314.732 586.741 354.689 524.374 383.608C507.651 391.362 490.294 398.799 473.509 405.991C428.25 425.382 381.45 445.435 341.43 474.067C254.957 535.936 181.263 621.952 133.923 716.268L133.925 716.271Z" fill="url(#paint20_radial_240_2903)"/>
<path d="M136.916 723.346L132.298 721.028C180.008 625.975 254.274 539.292 341.416 476.943C381.891 447.984 428.953 427.819 474.466 408.319C491.216 401.143 508.537 393.721 525.192 385.998C587.011 357.333 643.559 317.72 693.261 268.264C743.05 218.721 790.042 159.884 832.933 93.3876C847.507 70.7906 858.139 53.0351 867.405 35.8184L871.956 38.2663C862.623 55.6068 851.926 73.4709 837.274 96.1872C794.184 162.994 746.957 222.121 696.905 271.924C646.773 321.807 589.732 361.764 527.366 390.683C510.642 398.437 493.285 405.874 476.5 413.066C431.241 432.457 384.441 452.51 344.421 481.142C257.949 543.011 184.254 629.027 136.913 723.343L136.916 723.346Z" fill="url(#paint21_radial_240_2903)"/>
<path d="M139.907 730.421L135.289 728.103C182.999 633.05 257.266 546.366 344.407 484.018C384.882 455.059 431.944 434.894 477.457 415.394C494.207 408.218 511.528 400.796 528.183 393.073C590.001 364.408 646.549 324.797 696.252 275.339C746.04 225.797 793.031 166.96 835.924 100.463C850.498 77.8657 861.13 60.1102 870.397 42.8934L874.947 45.3413C865.614 62.6818 854.917 80.546 840.266 103.262C797.174 170.071 749.947 229.197 699.897 278.999C649.765 328.882 592.724 368.839 530.357 397.758C513.633 405.512 496.276 412.949 479.491 420.141C434.232 439.532 387.433 459.585 347.412 488.217C260.939 550.086 187.246 636.102 139.906 730.418L139.907 730.421Z" fill="url(#paint22_radial_240_2903)"/>
<path d="M142.898 737.495L138.28 735.176C185.99 640.124 260.257 553.441 347.399 491.092C387.875 462.132 434.939 441.968 480.453 422.466C497.201 415.29 514.521 407.869 531.175 400.147C592.992 371.482 649.54 331.87 699.243 282.413C749.031 232.871 796.023 174.034 838.915 107.536C853.489 84.9392 864.121 67.1837 873.388 49.9669L877.938 52.4148C868.605 69.7553 857.908 87.6195 843.257 110.336C800.165 177.144 752.938 236.271 702.888 286.072C652.756 335.955 595.715 375.913 533.348 404.831C516.626 412.586 499.271 420.021 482.487 427.213C437.227 446.604 390.425 466.657 350.405 495.29C263.933 557.159 190.238 643.174 142.898 737.492V737.495Z" fill="url(#paint23_radial_240_2903)"/>
<path d="M145.892 744.571L141.273 742.253C188.983 647.202 263.249 560.517 350.392 498.168C390.868 469.209 437.932 449.045 483.446 429.543C500.195 422.367 517.514 414.946 534.168 407.224C595.985 378.558 652.533 338.947 702.236 289.489C752.024 239.947 799.016 181.11 841.908 114.613C856.482 92.0158 867.115 74.2603 876.381 57.0435L880.931 59.4914C871.598 76.8319 860.901 94.6961 846.25 117.412C803.158 184.221 755.932 243.348 705.881 293.149C655.749 343.032 598.708 382.989 536.341 411.908C519.619 419.662 502.264 427.098 485.48 434.289C440.22 453.681 393.419 473.733 353.398 502.367C266.925 564.236 193.23 650.252 145.892 744.568V744.571Z" fill="url(#paint24_radial_240_2903)"/>
<path d="M148.883 751.645L144.265 749.327C191.974 654.275 266.241 567.591 353.383 505.242C393.859 476.282 440.923 456.118 486.437 436.616C503.186 429.44 520.505 422.02 537.159 414.297C598.977 385.632 655.524 346.02 705.228 296.563C755.016 247.021 802.007 188.184 844.899 121.686C859.474 99.0893 870.106 81.3338 879.372 64.117L883.922 66.5649C874.589 83.9054 863.892 101.77 849.241 124.486C806.15 191.294 758.923 250.421 708.872 300.223C658.74 350.106 601.699 390.063 539.332 418.982C522.611 426.736 505.255 434.172 488.471 441.363C443.211 460.754 396.41 480.807 356.389 509.44C269.918 571.309 196.223 657.324 148.881 751.642L148.883 751.645Z" fill="url(#paint25_radial_240_2903)"/>
<path d="M151.874 758.72L147.256 756.402C194.966 661.35 269.231 574.666 356.374 512.317C396.85 483.357 443.914 463.193 489.428 443.691C506.177 436.515 523.496 429.095 540.15 421.372C601.968 392.707 658.515 353.095 708.219 303.638C758.007 254.096 804.998 195.259 847.891 128.761C862.466 106.163 873.097 88.4088 882.363 71.1921L886.913 73.64C877.581 90.9805 866.885 108.843 852.232 131.561C809.141 198.369 761.914 257.496 711.864 307.298C661.732 357.181 604.69 397.138 542.323 426.057C525.602 433.811 508.246 441.247 491.463 448.438C446.202 467.829 399.401 487.882 359.38 516.516C272.907 578.384 199.212 664.4 151.874 758.717V758.72Z" fill="url(#paint26_radial_240_2903)"/>
<path d="M-101.076 448.38L-106.044 449.793C-135.145 347.498 -139.017 233.415 -116.949 128.563C-106.7 79.8607 -85.6515 33.1863 -65.2949 -11.9515C-57.8041 -28.5629 -50.057 -45.7392 -43.0066 -62.6867C-16.8311 -125.6 -1.94001 -193.015 1.25145 -263.061C4.4487 -333.225 -0.697459 -408.349 -14.0439 -486.344C-18.5808 -512.85 -22.7482 -533.12 -27.5595 -552.07L-22.5508 -553.341C-17.7058 -534.253 -13.512 -513.86 -8.95097 -487.215C4.45805 -408.854 9.62649 -333.358 6.41318 -262.825C3.19224 -192.176 -11.8295 -124.173 -38.2366 -60.7012C-45.3177 -43.6825 -53.0797 -26.4714 -60.5859 -9.82703C-80.8287 35.0593 -101.761 81.4749 -111.896 129.629C-133.791 233.673 -129.95 346.876 -101.076 448.38Z" fill="url(#paint27_linear_240_2903)"/>
<path d="M-94.0882 451.571L-99.0568 452.984C-128.157 350.689 -132.03 236.607 -109.963 131.753C-99.714 83.0508 -78.6655 36.3765 -58.3089 -8.76131C-50.8181 -25.3727 -43.071 -42.5489 -36.0206 -59.4965C-9.84514 -122.41 5.04599 -189.825 8.23746 -259.87C11.4354 -330.036 6.28856 -405.158 -7.05787 -483.154C-11.5929 -509.657 -15.7617 -529.928 -20.5722 -548.879L-15.5634 -550.15C-10.718 -531.06 -6.52408 -510.667 -1.96495 -484.025C11.4448 -405.665 16.6132 -330.169 13.3992 -259.635C10.1783 -188.986 -4.84351 -120.982 -31.2506 -57.5111C-38.3317 -40.4923 -46.0937 -23.2812 -53.5999 -6.63687C-73.8427 38.2494 -94.775 84.6651 -104.909 132.819C-126.805 236.866 -122.962 350.067 -94.0882 451.571Z" fill="url(#paint28_linear_240_2903)"/>
<path d="M-87.1013 454.761L-92.0698 456.174C-121.169 353.879 -125.043 239.798 -102.976 134.946C-92.7265 86.2431 -71.6779 39.5687 -51.3213 -5.56907C-43.8306 -22.1805 -36.0835 -39.3567 -29.0331 -56.3043C-2.85762 -119.217 12.0335 -186.633 15.225 -256.678C18.423 -326.843 13.2761 -401.966 -0.0703088 -479.962C-4.60537 -506.465 -8.77412 -526.736 -13.5847 -545.686L-8.5759 -546.958C-3.73041 -527.868 0.463435 -507.475 5.0226 -480.832C18.4324 -402.473 23.6008 -326.977 20.3867 -256.443C17.1658 -185.794 2.14402 -117.79 -24.2631 -54.3188C-31.3442 -37.3001 -39.1062 -20.089 -46.6124 -3.44463C-66.8552 41.4417 -87.7875 87.8573 -97.922 136.011C-119.818 240.056 -115.975 353.259 -87.1013 454.761Z" fill="url(#paint29_linear_240_2903)"/>
<path d="M-80.1139 457.954L-85.0825 459.367C-114.183 357.071 -118.055 242.989 -95.9877 138.137C-85.7384 89.434 -64.6898 42.7597 -44.3332 -2.37811C-36.8425 -18.9896 -29.0954 -36.1658 -22.0449 -53.1134C4.13049 -116.026 19.0216 -183.442 22.2131 -253.487C25.411 -323.653 20.2642 -398.775 6.91774 -476.771C2.38268 -503.274 -1.78609 -523.545 -6.59662 -542.495L-1.58783 -543.767C3.25763 -524.677 7.45152 -504.284 12.0106 -477.641C25.4204 -399.282 30.5888 -323.786 27.3748 -253.252C24.1539 -182.603 9.1321 -114.599 -17.275 -51.1279C-24.3561 -34.1092 -32.1181 -16.898 -39.6243 -0.253674C-59.8671 44.6326 -80.7994 91.0482 -90.9339 139.202C-112.83 243.247 -108.988 356.449 -80.1139 457.954Z" fill="url(#paint30_linear_240_2903)"/>
<path d="M-73.1263 461.144L-78.0949 462.558C-107.195 360.262 -111.068 246.181 -89.0014 141.327C-78.7521 92.6241 -57.7035 45.9498 -37.3469 0.811963C-29.8562 -15.7995 -22.1091 -32.9757 -15.0586 -49.9232C11.1168 -112.836 26.0079 -180.252 29.1994 -250.297C32.3974 -320.463 27.2505 -395.585 13.9041 -473.581C9.36904 -500.084 5.20027 -520.354 0.389743 -539.305L5.39725 -540.578C10.2427 -521.488 14.4366 -501.095 18.9957 -474.452C32.4055 -396.093 37.5739 -320.597 34.3598 -250.062C31.1389 -179.414 16.1171 -111.41 -10.2899 -47.9386C-17.371 -30.9198 -25.1331 -13.7087 -32.6393 2.93565C-52.8821 47.822 -73.8144 94.2376 -83.9489 142.391C-105.843 246.439 -102 359.64 -73.1263 461.144Z" fill="url(#paint31_linear_240_2903)"/>
<path d="M-66.139 464.335L-71.1076 465.749C-100.208 363.453 -104.081 249.372 -82.0148 144.519C-71.7656 95.8164 -50.717 49.142 -30.3604 4.00421C-22.8696 -12.6073 -15.1226 -29.7835 -8.0721 -46.731C18.1034 -109.644 32.9931 -177.06 36.1859 -247.105C39.3845 -317.268 34.2391 -392.393 20.8906 -470.388C16.3556 -496.891 12.1868 -517.162 7.37632 -536.113L12.3851 -537.385C17.2305 -518.295 21.4244 -497.902 25.9835 -471.259C39.3933 -392.899 44.5609 -317.402 41.3477 -246.869C38.128 -176.22 23.1062 -108.216 -3.30211 -44.7455C-10.3832 -27.7268 -18.1452 -10.5156 -25.6515 6.12867C-45.8942 51.015 -66.8265 97.4306 -76.961 145.584C-98.8555 249.63 -95.0138 362.832 -66.139 464.335Z" fill="url(#paint32_linear_240_2903)"/>
<path d="M-59.153 467.527L-64.1216 468.94C-93.2207 366.645 -97.094 252.562 -75.0267 147.71C-64.7775 99.0073 -43.7289 52.333 -23.3723 7.19519C-15.8816 -9.41625 -8.13446 -26.5925 -1.08401 -43.5401C25.0914 -106.453 39.9812 -173.869 43.174 -243.914C46.3726 -314.077 41.2272 -389.202 27.8787 -467.197C23.3436 -493.7 19.1748 -513.971 14.3643 -532.922L19.3718 -534.194C24.2173 -515.105 28.4111 -494.711 32.9702 -468.069C46.38 -389.709 51.5478 -314.212 48.3344 -243.679C45.1148 -173.03 30.093 -105.026 3.68468 -41.5553C-3.39643 -24.5366 -11.1584 -7.32547 -18.6647 9.31887C-38.9074 54.2052 -59.8397 100.621 -69.9743 148.774C-91.8687 252.82 -88.0257 366.023 -59.153 467.527Z" fill="url(#paint33_linear_240_2903)"/>
<path d="M-52.1657 470.718L-57.1343 472.131C-86.2347 369.835 -90.1074 255.754 -68.0395 150.901C-57.7902 102.198 -36.7416 55.5239 -16.385 10.3861C-8.89431 -6.22535 -1.14722 -23.4015 5.90325 -40.3491C32.0787 -103.262 46.9685 -170.678 50.1613 -240.723C53.3598 -310.886 48.2145 -386.012 34.866 -464.006C30.3309 -490.51 26.1622 -510.78 21.3516 -529.731L26.3604 -531.003C31.2059 -511.913 35.3997 -491.52 39.9589 -464.877C53.3686 -386.518 58.5363 -311.02 55.323 -240.488C52.1034 -169.838 37.0816 -101.834 10.6732 -38.3637C3.59216 -21.3449 -4.16985 -4.13381 -11.6761 12.5105C-31.9189 57.3968 -52.8512 103.812 -62.9857 151.966C-84.8822 256.012 -81.0398 369.213 -52.1657 470.718Z" fill="url(#paint34_linear_240_2903)"/>
<path d="M-45.1781 473.909L-50.1467 475.322C-79.2471 373.026 -83.1198 258.945 -61.0539 154.092C-50.8046 105.39 -29.756 58.7154 -9.39945 13.5776C-1.90871 -3.03383 5.83837 -20.21 12.8888 -37.1576C39.0643 -100.071 53.954 -167.487 57.1468 -237.531C60.3454 -307.695 55.2 -382.82 41.8516 -460.815C37.3165 -487.318 33.1477 -507.589 28.3372 -526.54L33.3447 -527.812C38.1902 -508.722 42.384 -488.329 46.9432 -461.687C60.3529 -383.327 65.5205 -307.83 62.3073 -237.297C59.0876 -166.647 44.0659 -98.6434 17.6575 -35.1728C10.5764 -18.1541 2.81439 -0.943006 -4.69183 15.7013C-24.9346 60.5877 -45.8669 107.003 -56.0014 155.157C-77.8945 259.203 -74.0529 372.406 -45.1781 473.909Z" fill="url(#paint35_linear_240_2903)"/>
<path d="M-38.1911 477.101L-43.1597 478.514C-72.2601 376.218 -76.1328 262.137 -54.0661 157.283C-43.8169 108.581 -22.767 61.907 -2.41039 16.7692C5.08035 0.157785 12.8274 -17.0184 19.8787 -33.9673C46.0541 -96.8805 60.9439 -164.297 64.1367 -234.341C67.3352 -304.504 62.1899 -379.63 48.8414 -457.625C44.3063 -484.128 40.1376 -504.399 35.3271 -523.349L40.3358 -524.621C45.1813 -505.531 49.3751 -485.138 53.9342 -458.495C67.344 -380.136 72.5117 -304.639 69.2984 -234.106C66.0788 -163.456 51.057 -95.4524 24.6486 -31.9818C17.5676 -14.9631 9.80552 2.24805 2.29854 18.8937C-17.9442 63.78 -38.8758 110.194 -49.0116 158.347C-70.9075 262.395 -67.0652 375.596 -38.1911 477.101Z" fill="url(#paint36_linear_240_2903)"/>
<path d="M-31.2041 480.291L-36.1727 481.704C-65.2718 379.409 -69.1458 265.327 -47.0778 160.474C-36.8286 111.772 -15.7787 65.0979 4.57787 19.9602C12.0686 3.3487 19.8157 -13.8275 26.8669 -30.7764C53.0423 -93.6895 67.9322 -161.106 71.1249 -231.15C74.3235 -301.314 69.1781 -376.439 55.8296 -454.434C51.2949 -480.931 47.1262 -501.202 42.3153 -520.158L47.3241 -521.43C52.1707 -502.336 56.3637 -481.942 60.9225 -455.304C74.3323 -376.945 79.5 -301.448 76.2867 -230.915C73.0671 -160.265 58.0453 -92.2615 31.6369 -28.7909C24.5558 -11.7722 16.7938 5.43896 9.28682 22.0846C-10.956 66.9709 -31.8875 113.385 -42.0233 161.538C-63.9206 265.586 -60.0777 378.789 -31.2041 480.291Z" fill="url(#paint37_linear_240_2903)"/>
<path d="M-24.2165 483.482L-29.1851 484.895C-58.2849 382.602 -62.159 268.52 -40.0923 163.666C-29.843 114.963 -8.79313 68.2894 11.5635 23.1517C19.0542 6.54021 26.8013 -10.636 33.8525 -27.5848C60.0279 -90.498 74.9177 -157.914 78.1105 -227.959C81.3091 -298.122 76.1637 -373.247 62.8152 -451.242C58.2805 -477.74 54.1117 -498.011 49.3008 -516.967L54.3096 -518.238C59.1562 -499.145 63.3493 -478.75 67.9081 -452.113C81.3179 -373.753 86.4855 -298.256 83.2722 -227.723C80.0526 -157.074 65.0309 -89.0699 38.6225 -25.5994C31.5414 -8.58066 23.7794 8.63053 16.2724 25.2762C-3.97042 70.1625 -24.9019 116.577 -35.0378 164.73C-56.9337 268.778 -53.0913 381.979 -24.2165 483.482Z" fill="url(#paint38_linear_240_2903)"/>
<path d="M-17.2292 486.674L-22.1978 488.087C-51.2982 385.792 -55.1709 271.711 -33.1042 166.857C-22.8544 118.156 -1.80582 71.4817 18.55 26.3452C26.0415 9.73247 33.7886 -7.44379 40.8406 -24.394C67.0168 -87.3084 81.9079 -154.724 85.0986 -224.768C88.2971 -294.931 83.1517 -370.056 69.8032 -448.051C65.2686 -474.549 61.0998 -494.82 56.2889 -513.776L61.2977 -515.047C66.1443 -495.954 70.3374 -475.559 74.8962 -448.922C88.3059 -370.562 93.4736 -295.065 90.2603 -224.532C87.0401 -153.885 72.0184 -85.881 45.6106 -22.4085C38.5295 -5.38974 30.7672 11.8248 23.2603 28.4704C3.0169 73.3547 -17.9159 119.768 -28.0497 167.921C-49.9456 271.969 -46.104 385.171 -17.2292 486.674Z" fill="url(#paint39_linear_240_2903)"/>
<path d="M-10.2419 489.865L-15.2105 491.278C-44.3109 388.983 -48.1836 274.902 -26.1169 170.048C-15.8671 121.347 5.18147 74.6727 25.5373 29.5362C33.0288 12.9234 40.7759 -4.25278 47.8279 -21.203C74.004 -84.1174 88.8952 -151.533 92.0859 -221.577C95.2844 -291.74 90.139 -366.865 76.7905 -444.86C72.2559 -471.358 68.0871 -491.629 63.2763 -510.585L68.285 -511.856C73.1316 -492.763 77.3247 -472.368 81.8834 -445.731C95.2932 -367.371 100.461 -291.874 97.2476 -221.341C94.0274 -150.694 79.0057 -82.6901 52.5979 -19.2175C45.5168 -2.19877 37.7545 15.0158 30.2476 31.6614C10.0055 76.5464 -10.926 122.961 -21.0598 171.113C-42.9583 275.16 -39.1167 388.362 -10.2419 489.865Z" fill="url(#paint40_linear_240_2903)"/>
<path d="M-3.25557 493.055L-8.22413 494.469C-37.324 392.175 -41.198 278.093 -19.1313 173.239C-8.88152 124.538 12.167 77.8641 32.5229 32.7277C40.0144 16.1149 47.7615 -1.0613 54.8134 -18.0115C80.9896 -80.9259 95.8808 -148.341 99.0715 -218.385C102.27 -288.549 97.1246 -363.674 83.7761 -441.669C79.2414 -468.166 75.0727 -488.437 70.2618 -507.394L75.2706 -508.665C80.1171 -489.571 84.3102 -469.177 88.869 -442.54C102.279 -364.18 107.446 -288.683 104.233 -218.15C101.013 -147.503 85.9912 -79.4986 59.5834 -16.026C52.5023 0.992708 44.7401 18.2072 37.2331 34.8529C16.9898 79.7371 -3.94101 126.15 -14.0755 174.304C-35.9727 278.351 -32.1291 391.553 -3.25557 493.055Z" fill="url(#paint41_linear_240_2903)"/>
<path d="M3.73173 496.248L-1.23688 497.661C-30.3359 395.366 -34.21 281.284 -12.1433 176.43C-1.89346 127.729 19.1551 81.0551 39.5109 35.9186C47.0024 19.3058 54.7495 2.12958 61.8015 -14.8206C87.9777 -77.7351 102.869 -145.15 106.06 -215.194C109.258 -285.358 104.113 -360.483 90.7642 -438.478C86.2295 -464.976 82.0608 -485.246 77.2499 -504.203L82.2574 -505.475C87.1039 -486.381 91.297 -465.987 95.8558 -439.349C109.266 -360.99 114.433 -285.493 111.22 -214.96C108 -144.312 92.978 -76.3084 66.5702 -12.8359C59.4891 4.18287 51.7269 21.3974 44.2199 38.043C23.9778 82.928 3.04631 129.342 -7.08743 177.495C-28.9847 281.542 -25.1423 394.743 3.73173 496.248Z" fill="url(#paint42_linear_240_2903)"/>
<path d="M10.719 499.439L5.75043 500.852C-23.35 398.556 -27.2227 284.475 -5.15598 179.621C5.09383 130.92 26.1416 84.2473 46.4975 39.1108C53.9889 22.4981 61.7361 5.32187 68.788 -11.6283C94.9642 -74.5428 109.855 -141.958 113.046 -212.002C116.245 -282.165 111.099 -357.291 97.7507 -435.286C93.216 -461.783 89.0473 -482.054 84.2364 -501.01L89.2452 -502.282C94.0917 -483.188 98.2848 -462.793 102.844 -436.156C116.253 -357.797 121.421 -282.3 118.208 -211.767C114.986 -141.12 99.9645 -73.1162 73.5575 -9.64494C66.4764 7.37383 58.7142 24.5883 51.2072 41.234C30.9651 86.119 10.0336 132.533 -0.100153 180.686C-21.9974 284.733 -18.1558 397.935 10.719 499.439Z" fill="url(#paint43_linear_240_2903)"/>
<path d="M17.706 502.629L12.7374 504.042C-16.3624 401.748 -20.2344 287.666 1.83152 182.813C12.0813 134.113 33.1299 87.4382 53.4858 42.3017C60.9773 25.689 68.7243 8.51278 75.7763 -8.43739C101.953 -71.3519 116.844 -138.767 120.034 -208.811C123.233 -278.975 118.088 -354.1 104.739 -432.095C100.204 -458.592 96.0355 -478.863 91.2247 -497.819L96.2335 -499.091C101.08 -479.997 105.273 -459.603 109.832 -432.966C123.242 -354.606 128.409 -279.109 125.196 -208.576C121.975 -137.929 106.953 -69.9253 80.545 -6.4527C73.4639 10.566 65.7016 27.7806 58.1947 44.4262C37.9526 89.3113 17.0211 135.726 6.88735 183.878C-15.0099 287.925 -11.1675 401.126 17.706 502.629Z" fill="url(#paint44_linear_240_2903)"/>
<path d="M24.693 505.821L19.7244 507.234C-9.37469 404.939 -13.2487 290.857 8.81796 186.003C19.0665 137.302 40.1156 90.6297 60.4702 45.4924C67.9617 28.8797 75.7095 11.7021 82.7607 -5.24672C108.937 -68.1612 123.828 -135.577 127.019 -205.621C130.217 -275.784 125.071 -350.908 111.723 -428.904C107.187 -455.408 103.018 -475.679 98.2091 -494.629L103.218 -495.9C108.063 -476.813 112.256 -456.418 116.816 -429.775C130.226 -351.415 135.394 -275.918 132.18 -205.385C128.962 -134.738 113.941 -66.7344 87.5314 -3.26256C80.4496 13.7575 72.6881 30.9707 65.1811 47.6163C44.9391 92.5014 24.0076 138.916 13.8738 187.068C-8.02344 291.115 -4.18104 404.317 24.693 505.821Z" fill="url(#paint45_linear_240_2903)"/>
<path d="M31.6803 509.012L26.7117 510.425C-2.38865 408.129 -6.2614 294.048 15.8053 189.194C26.0538 140.493 47.1029 93.8206 67.4574 48.6834C74.9489 32.0707 82.6968 14.8931 89.748 -2.05573C115.924 -64.9702 130.815 -132.386 134.006 -202.43C137.203 -272.597 132.058 -347.719 118.711 -425.713C114.174 -452.217 110.006 -472.488 105.196 -491.438L110.205 -492.709C115.05 -473.622 119.243 -453.227 123.804 -426.584C137.212 -348.225 142.383 -272.73 139.168 -202.194C135.948 -131.547 120.926 -63.5429 94.518 -0.0702912C87.4361 16.9498 79.6747 34.163 72.1677 50.8086C51.9256 95.6936 30.9941 142.108 20.8604 190.26C-1.03614 294.306 2.80626 407.507 31.6803 509.012Z" fill="url(#paint46_linear_240_2903)"/>
<path d="M38.6686 512.203L33.7 513.616C4.5996 411.32 0.725555 297.238 22.7928 192.386C33.0413 143.685 54.0904 97.0129 74.445 51.8756C81.9364 35.2629 89.6843 18.0853 96.7355 1.13648C122.912 -61.778 137.803 -129.193 140.994 -199.237C144.191 -269.405 139.045 -344.527 125.698 -422.521C121.162 -449.025 116.993 -469.295 112.184 -488.246L117.191 -489.518C122.036 -470.43 126.229 -450.036 130.79 -423.392C144.198 -345.033 149.369 -269.538 146.154 -199.003C142.936 -128.356 127.914 -60.352 101.506 3.12063C94.4244 20.1407 86.6629 37.3539 79.1559 53.9996C58.9139 98.8846 37.9824 145.299 27.8486 193.451C5.95084 297.497 9.79378 410.7 38.6686 512.203Z" fill="url(#paint47_linear_240_2903)"/>
<path d="M45.6536 515.394L40.685 516.807C11.5854 414.51 7.71267 300.429 29.7799 195.577C40.0284 146.876 61.0775 100.204 81.4321 55.0666C88.9236 38.4538 96.6714 21.2763 103.723 4.32745C129.899 -58.587 144.79 -126.002 147.981 -196.046C151.178 -266.214 146.032 -341.336 132.685 -419.33C128.149 -445.834 123.98 -466.105 119.171 -485.055L124.18 -486.326C129.025 -467.239 133.218 -446.844 137.778 -420.201C151.187 -341.842 156.357 -266.347 153.142 -195.811C149.922 -125.164 134.9 -57.1597 108.493 6.3129C101.411 23.333 93.6493 40.5462 86.1423 57.1918C65.9003 102.077 44.9687 148.491 34.835 196.643C12.938 300.688 16.7796 413.89 45.6536 515.394Z" fill="url(#paint48_linear_240_2903)"/>
<path d="M52.6413 518.585L47.6727 519.998C18.5723 417.703 14.6995 303.622 36.7662 198.767C47.0147 150.066 68.0638 103.394 88.4184 58.2567C95.9098 41.644 103.658 24.4665 110.709 7.51757C136.884 -55.3956 151.775 -122.811 154.967 -192.856C158.164 -263.02 153.018 -338.144 139.672 -416.14C135.135 -442.644 130.967 -462.914 126.157 -481.865L131.166 -483.136C136.011 -464.048 140.204 -443.654 144.765 -417.011C158.174 -338.65 163.342 -263.154 160.129 -192.621C156.908 -121.972 141.886 -53.9682 115.479 9.50304C108.397 26.5231 100.636 43.7363 93.1286 60.3819C72.8866 105.267 51.955 151.681 41.8213 199.834C19.9248 303.88 23.7672 417.081 52.6413 518.585Z" fill="url(#paint49_linear_240_2903)"/>
<path d="M59.6295 521.776L54.6609 523.189C25.5605 420.894 21.6878 306.812 43.7537 201.96C54.003 153.257 75.0516 106.583 95.4082 61.4451C102.899 44.8336 110.646 27.6573 117.696 10.7098C143.872 -52.2034 158.763 -119.619 161.955 -189.664C165.152 -259.828 160.006 -334.952 146.659 -412.948C142.123 -439.451 137.954 -459.722 133.145 -478.672L138.154 -479.944C142.999 -460.856 147.192 -440.462 151.752 -413.818C165.161 -335.457 170.329 -259.962 167.116 -189.429C163.895 -118.78 148.874 -50.776 122.466 12.6953C115.385 29.714 107.623 46.9252 100.117 63.5695C79.8743 108.456 58.942 154.871 48.8075 203.025C26.9131 307.071 30.7542 420.271 59.6295 521.776Z" fill="url(#paint50_linear_240_2903)"/>
<path d="M66.6168 524.968L61.6483 526.382C32.5479 424.086 28.6738 310.004 50.7418 205.151C60.9911 156.448 82.0396 109.774 102.396 64.6359C109.887 48.0245 117.634 30.8483 124.685 13.9007C150.86 -49.0125 165.751 -116.428 168.943 -186.473C172.14 -256.637 166.994 -331.761 153.647 -409.757C149.111 -436.261 144.942 -456.531 140.133 -475.481L145.142 -476.753C149.987 -457.665 154.18 -437.271 158.74 -410.627C172.15 -332.268 177.32 -256.773 174.105 -186.239C170.884 -115.59 155.862 -47.5864 129.455 15.8849C122.374 32.9036 114.612 50.1148 107.106 66.7591C86.8631 111.645 65.9309 158.061 55.7964 206.215C33.8991 310.262 37.7428 423.464 66.6168 524.968Z" fill="url(#paint51_linear_240_2903)"/>
<path d="M73.6028 528.159L68.6342 529.572C39.5351 427.277 35.6619 313.194 57.7291 208.342C67.9784 159.639 89.0269 112.965 109.384 67.8269C116.874 51.2155 124.621 34.0393 131.672 17.0917C157.847 -45.8214 172.738 -113.237 175.93 -183.282C179.127 -253.446 173.981 -328.57 160.635 -406.566C156.098 -433.069 151.929 -453.34 147.12 -472.29L152.129 -473.562C156.974 -454.474 161.167 -434.08 165.727 -407.436C179.136 -329.075 184.305 -253.58 181.092 -183.047C177.871 -112.398 162.849 -44.394 136.442 19.0772C129.361 36.0959 121.599 53.307 114.092 69.9514C93.8497 114.838 72.9174 161.253 62.7829 209.407C40.8864 313.453 44.7288 426.654 73.6028 528.159Z" fill="url(#paint52_linear_240_2903)"/>
<path d="M80.5908 531.35L75.6222 532.763C46.5224 430.469 42.6491 316.386 64.715 211.533C74.9643 162.831 96.0129 116.156 116.369 71.0184C123.86 54.407 131.607 37.2307 138.658 20.2832C164.833 -42.63 179.724 -110.045 182.916 -180.091C186.113 -250.255 180.967 -325.379 167.62 -403.374C163.085 -429.879 158.916 -450.15 154.105 -469.1L159.114 -470.371C163.958 -451.284 168.152 -430.89 172.713 -404.245C186.122 -325.884 191.291 -250.388 188.077 -179.855C184.857 -109.207 169.835 -41.2026 143.428 22.2686C136.347 39.2874 128.585 56.4985 121.078 73.1429C100.836 118.029 79.9033 164.445 69.7688 212.598C47.8736 316.645 51.716 429.846 80.5908 531.35Z" fill="url(#paint53_linear_240_2903)"/>
<defs>
<radialGradient id="paint0_radial_240_2903" cx="0" cy="0" r="1" gradientUnits="userSpaceOnUse" gradientTransform="translate(439.294 231.083) rotate(-22.92) scale(473.602 473.602)">
<stop offset="0.28125" stop-color="#2E5053"/>
<stop offset="1" stop-color="#4D9F98"/>
</radialGradient>
<radialGradient id="paint1_radial_240_2903" cx="0" cy="0" r="1" gradientUnits="userSpaceOnUse" gradientTransform="translate(442.287 238.158) rotate(-22.92) scale(473.602 473.602)">
<stop offset="0.28125" stop-color="#2E5053"/>
<stop offset="1" stop-color="#4D9F98"/>
</radialGradient>
<radialGradient id="paint2_radial_240_2903" cx="0" cy="0" r="1" gradientUnits="userSpaceOnUse" gradientTransform="translate(445.278 245.233) rotate(-22.92) scale(473.602 473.602)">
<stop offset="0.28125" stop-color="#2E5053"/>
<stop offset="1" stop-color="#4D9F98"/>
</radialGradient>
<radialGradient id="paint3_radial_240_2903" cx="0" cy="0" r="1" gradientUnits="userSpaceOnUse" gradientTransform="translate(448.268 252.306) rotate(-22.92) scale(473.602 473.602)">
<stop offset="0.28125" stop-color="#2E5053"/>
<stop offset="1" stop-color="#4D9F98"/>
</radialGradient>
<radialGradient id="paint4_radial_240_2903" cx="0" cy="0" r="1" gradientUnits="userSpaceOnUse" gradientTransform="translate(451.259 259.381) rotate(-22.92) scale(473.602 473.602)">
<stop offset="0.28125" stop-color="#2E5053"/>
<stop offset="1" stop-color="#4D9F98"/>
</radialGradient>
<radialGradient id="paint5_radial_240_2903" cx="0" cy="0" r="1" gradientUnits="userSpaceOnUse" gradientTransform="translate(454.251 266.456) rotate(-22.92) scale(473.603 473.603)">
<stop offset="0.28125" stop-color="#2E5053"/>
<stop offset="1" stop-color="#4D9F98"/>
</radialGradient>
<radialGradient id="paint6_radial_240_2903" cx="0" cy="0" r="1" gradientUnits="userSpaceOnUse" gradientTransform="translate(457.244 273.531) rotate(-22.92) scale(473.603 473.603)">
<stop offset="0.28125" stop-color="#2E5053"/>
<stop offset="1" stop-color="#4D9F98"/>
</radialGradient>
<radialGradient id="paint7_radial_240_2903" cx="0" cy="0" r="1" gradientUnits="userSpaceOnUse" gradientTransform="translate(460.235 280.606) rotate(-22.92) scale(473.603 473.603)">
<stop offset="0.28125" stop-color="#2E5053"/>
<stop offset="1" stop-color="#4D9F98"/>
</radialGradient>
<radialGradient id="paint8_radial_240_2903" cx="0" cy="0" r="1" gradientUnits="userSpaceOnUse" gradientTransform="translate(463.226 287.681) rotate(-22.92) scale(473.603 473.603)">
<stop offset="0.28125" stop-color="#2E5053"/>
<stop offset="1" stop-color="#4D9F98"/>
</radialGradient>
<radialGradient id="paint9_radial_240_2903" cx="0" cy="0" r="1" gradientUnits="userSpaceOnUse" gradientTransform="translate(466.217 294.757) rotate(-22.92) scale(473.602 473.602)">
<stop offset="0.28125" stop-color="#2E5053"/>
<stop offset="1" stop-color="#4D9F98"/>
</radialGradient>
<radialGradient id="paint10_radial_240_2903" cx="0" cy="0" r="1" gradientUnits="userSpaceOnUse" gradientTransform="translate(469.208 301.832) rotate(-22.92) scale(473.602 473.602)">
<stop offset="0.28125" stop-color="#2E5053"/>
<stop offset="1" stop-color="#4D9F98"/>
</radialGradient>
<radialGradient id="paint11_radial_240_2903" cx="0" cy="0" r="1" gradientUnits="userSpaceOnUse" gradientTransform="translate(472.2 308.907) rotate(-22.92) scale(473.602 473.602)">
<stop offset="0.28125" stop-color="#2E5053"/>
<stop offset="1" stop-color="#4D9F98"/>
</radialGradient>
<radialGradient id="paint12_radial_240_2903" cx="0" cy="0" r="1" gradientUnits="userSpaceOnUse" gradientTransform="translate(475.191 315.983) rotate(-22.92) scale(473.601 473.601)">
<stop offset="0.28125" stop-color="#2E5053"/>
<stop offset="1" stop-color="#4D9F98"/>
</radialGradient>
<radialGradient id="paint13_radial_240_2903" cx="0" cy="0" r="1" gradientUnits="userSpaceOnUse" gradientTransform="translate(478.183 323.058) rotate(-22.92) scale(473.601 473.601)">
<stop offset="0.28125" stop-color="#2E5053"/>
<stop offset="1" stop-color="#4D9F98"/>
</radialGradient>
<radialGradient id="paint14_radial_240_2903" cx="0" cy="0" r="1" gradientUnits="userSpaceOnUse" gradientTransform="translate(481.174 330.131) rotate(-22.92) scale(473.601 473.601)">
<stop offset="0.28125" stop-color="#2E5053"/>
<stop offset="1" stop-color="#4D9F98"/>
</radialGradient>
<radialGradient id="paint15_radial_240_2903" cx="0" cy="0" r="1" gradientUnits="userSpaceOnUse" gradientTransform="translate(484.165 337.206) rotate(-22.92) scale(473.601 473.601)">
<stop offset="0.28125" stop-color="#2E5053"/>
<stop offset="1" stop-color="#4D9F98"/>
</radialGradient>
<radialGradient id="paint16_radial_240_2903" cx="0" cy="0" r="1" gradientUnits="userSpaceOnUse" gradientTransform="translate(487.158 344.281) rotate(-22.92) scale(473.601 473.601)">
<stop offset="0.28125" stop-color="#2E5053"/>
<stop offset="1" stop-color="#4D9F98"/>
</radialGradient>
<radialGradient id="paint17_radial_240_2903" cx="0" cy="0" r="1" gradientUnits="userSpaceOnUse" gradientTransform="translate(490.149 351.356) rotate(-22.92) scale(473.601 473.601)">
<stop offset="0.28125" stop-color="#2E5053"/>
<stop offset="1" stop-color="#4D9F98"/>
</radialGradient>
<radialGradient id="paint18_radial_240_2903" cx="0" cy="0" r="1" gradientUnits="userSpaceOnUse" gradientTransform="translate(493.141 358.431) rotate(-22.92) scale(473.602 473.602)">
<stop offset="0.28125" stop-color="#2E5053"/>
<stop offset="1" stop-color="#4D9F98"/>
</radialGradient>
<radialGradient id="paint19_radial_240_2903" cx="0" cy="0" r="1" gradientUnits="userSpaceOnUse" gradientTransform="translate(496.132 365.506) rotate(-22.92) scale(473.602 473.602)">
<stop offset="0.28125" stop-color="#2E5053"/>
<stop offset="1" stop-color="#4D9F98"/>
</radialGradient>
<radialGradient id="paint20_radial_240_2903" cx="0" cy="0" r="1" gradientUnits="userSpaceOnUse" gradientTransform="translate(499.125 372.581) rotate(-22.92) scale(473.602 473.602)">
<stop offset="0.28125" stop-color="#2E5053"/>
<stop offset="1" stop-color="#4D9F98"/>
</radialGradient>
<radialGradient id="paint21_radial_240_2903" cx="0" cy="0" r="1" gradientUnits="userSpaceOnUse" gradientTransform="translate(502.116 379.656) rotate(-22.92) scale(473.602 473.603)">
<stop offset="0.28125" stop-color="#2E5053"/>
<stop offset="1" stop-color="#4D9F98"/>
</radialGradient>
<radialGradient id="paint22_radial_240_2903" cx="0" cy="0" r="1" gradientUnits="userSpaceOnUse" gradientTransform="translate(505.107 386.731) rotate(-22.92) scale(473.602 473.602)">
<stop offset="0.28125" stop-color="#2E5053"/>
<stop offset="1" stop-color="#4D9F98"/>
</radialGradient>
<radialGradient id="paint23_radial_240_2903" cx="0" cy="0" r="1" gradientUnits="userSpaceOnUse" gradientTransform="translate(508.098 393.804) rotate(-22.92) scale(473.602 473.603)">
<stop offset="0.28125" stop-color="#2E5053"/>
<stop offset="1" stop-color="#4D9F98"/>
</radialGradient>
<radialGradient id="paint24_radial_240_2903" cx="0" cy="0" r="1" gradientUnits="userSpaceOnUse" gradientTransform="translate(511.091 400.881) rotate(-22.92) scale(473.602 473.602)">
<stop offset="0.28125" stop-color="#2E5053"/>
<stop offset="1" stop-color="#4D9F98"/>
</radialGradient>
<radialGradient id="paint25_radial_240_2903" cx="0" cy="0" r="1" gradientUnits="userSpaceOnUse" gradientTransform="translate(514.083 407.954) rotate(-22.92) scale(473.602 473.602)">
<stop offset="0.28125" stop-color="#2E5053"/>
<stop offset="1" stop-color="#4D9F98"/>
</radialGradient>
<radialGradient id="paint26_radial_240_2903" cx="0" cy="0" r="1" gradientUnits="userSpaceOnUse" gradientTransform="translate(517.074 415.029) rotate(-22.92) scale(473.602 473.602)">
<stop offset="0.28125" stop-color="#2E5053"/>
<stop offset="1" stop-color="#4D9F98"/>
</radialGradient>
<linearGradient id="paint27_linear_240_2903" x1="-261.094" y1="378.97" x2="132.426" y2="-482.538" gradientUnits="userSpaceOnUse">
<stop offset="0.114583" stop-color="#2E5053"/>
<stop offset="1" stop-color="#2E5053"/>
</linearGradient>
<linearGradient id="paint28_linear_240_2903" x1="-254.107" y1="382.161" x2="139.414" y2="-479.347" gradientUnits="userSpaceOnUse">
<stop offset="0.114583" stop-color="#2E5053"/>
<stop offset="1" stop-color="#2E5053"/>
</linearGradient>
<linearGradient id="paint29_linear_240_2903" x1="-247.119" y1="385.351" x2="146.4" y2="-476.155" gradientUnits="userSpaceOnUse">
<stop offset="0.114583" stop-color="#2E5053"/>
<stop offset="1" stop-color="#2E5053"/>
</linearGradient>
<linearGradient id="paint30_linear_240_2903" x1="-240.132" y1="388.544" x2="153.388" y2="-472.964" gradientUnits="userSpaceOnUse">
<stop offset="0.114583" stop-color="#2E5053"/>
<stop offset="1" stop-color="#2E5053"/>
</linearGradient>
<linearGradient id="paint31_linear_240_2903" x1="-233.145" y1="391.734" x2="160.376" y2="-469.774" gradientUnits="userSpaceOnUse">
<stop offset="0.114583" stop-color="#2E5053"/>
<stop offset="1" stop-color="#2E5053"/>
</linearGradient>
<linearGradient id="paint32_linear_240_2903" x1="-226.157" y1="394.925" x2="167.362" y2="-466.581" gradientUnits="userSpaceOnUse">
<stop offset="0.114583" stop-color="#2E5053"/>
<stop offset="1" stop-color="#2E5053"/>
</linearGradient>
<linearGradient id="paint33_linear_240_2903" x1="-219.171" y1="398.117" x2="174.349" y2="-463.391" gradientUnits="userSpaceOnUse">
<stop offset="0.114583" stop-color="#2E5053"/>
<stop offset="1" stop-color="#2E5053"/>
</linearGradient>
<linearGradient id="paint34_linear_240_2903" x1="-212.184" y1="401.308" x2="181.336" y2="-460.2" gradientUnits="userSpaceOnUse">
<stop offset="0.114583" stop-color="#2E5053"/>
<stop offset="1" stop-color="#2E5053"/>
</linearGradient>
<linearGradient id="paint35_linear_240_2903" x1="-205.197" y1="404.499" x2="188.323" y2="-457.008" gradientUnits="userSpaceOnUse">
<stop offset="0.114583" stop-color="#2E5053"/>
<stop offset="1" stop-color="#2E5053"/>
</linearGradient>
<linearGradient id="paint36_linear_240_2903" x1="-198.209" y1="407.691" x2="195.311" y2="-453.819" gradientUnits="userSpaceOnUse">
<stop offset="0.114583" stop-color="#2E5053"/>
<stop offset="1" stop-color="#2E5053"/>
</linearGradient>
<linearGradient id="paint37_linear_240_2903" x1="-191.222" y1="410.882" x2="202.299" y2="-450.628" gradientUnits="userSpaceOnUse">
<stop offset="0.114583" stop-color="#2E5053"/>
<stop offset="1" stop-color="#2E5053"/>
</linearGradient>
<linearGradient id="paint38_linear_240_2903" x1="-184.234" y1="414.072" x2="209.286" y2="-447.436" gradientUnits="userSpaceOnUse">
<stop offset="0.114583" stop-color="#2E5053"/>
<stop offset="1" stop-color="#2E5053"/>
</linearGradient>
<linearGradient id="paint39_linear_240_2903" x1="-177.247" y1="417.264" x2="216.273" y2="-444.245" gradientUnits="userSpaceOnUse">
<stop offset="0.114583" stop-color="#2E5053"/>
<stop offset="1" stop-color="#2E5053"/>
</linearGradient>
<linearGradient id="paint40_linear_240_2903" x1="-170.26" y1="420.455" x2="223.261" y2="-441.054" gradientUnits="userSpaceOnUse">
<stop offset="0.114583" stop-color="#2E5053"/>
<stop offset="1" stop-color="#2E5053"/>
</linearGradient>
<linearGradient id="paint41_linear_240_2903" x1="-163.273" y1="423.646" x2="230.247" y2="-437.863" gradientUnits="userSpaceOnUse">
<stop offset="0.114583" stop-color="#2E5053"/>
<stop offset="1" stop-color="#2E5053"/>
</linearGradient>
<linearGradient id="paint42_linear_240_2903" x1="-156.286" y1="426.838" x2="237.234" y2="-434.672" gradientUnits="userSpaceOnUse">
<stop offset="0.114583" stop-color="#2E5053"/>
<stop offset="1" stop-color="#2E5053"/>
</linearGradient>
<linearGradient id="paint43_linear_240_2903" x1="-149.299" y1="430.029" x2="244.221" y2="-431.479" gradientUnits="userSpaceOnUse">
<stop offset="0.114583" stop-color="#2E5053"/>
<stop offset="1" stop-color="#2E5053"/>
</linearGradient>
<linearGradient id="paint44_linear_240_2903" x1="-142.311" y1="433.219" x2="251.208" y2="-428.289" gradientUnits="userSpaceOnUse">
<stop offset="0.114583" stop-color="#2E5053"/>
<stop offset="1" stop-color="#2E5053"/>
</linearGradient>
<linearGradient id="paint45_linear_240_2903" x1="-135.325" y1="436.411" x2="258.195" y2="-425.097" gradientUnits="userSpaceOnUse">
<stop offset="0.114583" stop-color="#2E5053"/>
<stop offset="1" stop-color="#2E5053"/>
</linearGradient>
<linearGradient id="paint46_linear_240_2903" x1="-128.338" y1="439.602" x2="265.182" y2="-421.906" gradientUnits="userSpaceOnUse">
<stop offset="0.114583" stop-color="#2E5053"/>
<stop offset="1" stop-color="#2E5053"/>
</linearGradient>
<linearGradient id="paint47_linear_240_2903" x1="-121.35" y1="442.793" x2="272.17" y2="-418.714" gradientUnits="userSpaceOnUse">
<stop offset="0.114583" stop-color="#2E5053"/>
<stop offset="1" stop-color="#2E5053"/>
</linearGradient>
<linearGradient id="paint48_linear_240_2903" x1="-114.364" y1="445.985" x2="279.156" y2="-415.524" gradientUnits="userSpaceOnUse">
<stop offset="0.114583" stop-color="#2E5053"/>
<stop offset="1" stop-color="#2E5053"/>
</linearGradient>
<linearGradient id="paint49_linear_240_2903" x1="-107.377" y1="449.175" x2="286.143" y2="-412.333" gradientUnits="userSpaceOnUse">
<stop offset="0.114583" stop-color="#2E5053"/>
<stop offset="1" stop-color="#2E5053"/>
</linearGradient>
<linearGradient id="paint50_linear_240_2903" x1="-100.389" y1="452.366" x2="293.131" y2="-409.141" gradientUnits="userSpaceOnUse">
<stop offset="0.114583" stop-color="#2E5053"/>
<stop offset="1" stop-color="#2E5053"/>
</linearGradient>
<linearGradient id="paint51_linear_240_2903" x1="-93.4016" y1="455.558" x2="300.119" y2="-405.95" gradientUnits="userSpaceOnUse">
<stop offset="0.114583" stop-color="#2E5053"/>
<stop offset="1" stop-color="#2E5053"/>
</linearGradient>
<linearGradient id="paint52_linear_240_2903" x1="-86.4151" y1="458.749" x2="307.105" y2="-402.759" gradientUnits="userSpaceOnUse">
<stop offset="0.114583" stop-color="#2E5053"/>
<stop offset="1" stop-color="#2E5053"/>
</linearGradient>
<linearGradient id="paint53_linear_240_2903" x1="-79.4281" y1="461.939" x2="314.092" y2="-399.567" gradientUnits="userSpaceOnUse">
<stop offset="0.114583" stop-color="#2E5053"/>
<stop offset="1" stop-color="#2E5053"/>
</linearGradient>
</defs>
</svg>
