<svg width="36" height="36" viewBox="0 0 36 36" fill="none" xmlns="http://www.w3.org/2000/svg">
<path d="M23.8102 10.8757C24.2301 10.8757 24.6329 11.0425 24.9298 11.3395C25.2267 11.6364 25.3936 12.0391 25.3936 12.4591V23.5424C25.3936 23.9623 25.2267 24.3651 24.9298 24.662C24.6329 24.9589 24.2301 25.1257 23.8102 25.1257H12.7269C12.307 25.1257 11.9042 24.9589 11.6073 24.662C11.3104 24.3651 11.1436 23.9623 11.1436 23.5424V12.4591C11.1436 12.0391 11.3104 11.6364 11.6073 11.3395C11.9042 11.0425 12.307 10.8757 12.7269 10.8757H23.8102ZM23.4144 23.1466V18.9507C23.4144 18.2663 23.1425 17.6098 22.6585 17.1258C22.1745 16.6418 21.518 16.3699 20.8336 16.3699C20.1606 16.3699 19.3769 16.7816 18.9969 17.3991V16.5203H16.7881V23.1466H18.9969V19.2436C18.9969 18.6341 19.4877 18.1353 20.0973 18.1353C20.3913 18.1353 20.6732 18.2521 20.881 18.4599C21.0889 18.6678 21.2056 18.9497 21.2056 19.2436V23.1466H23.4144ZM14.2152 15.2774C14.568 15.2774 14.9063 15.1373 15.1557 14.8879C15.4051 14.6384 15.5452 14.3001 15.5452 13.9474C15.5452 13.2111 14.9515 12.6095 14.2152 12.6095C13.8604 12.6095 13.5201 12.7504 13.2692 13.0013C13.0183 13.2523 12.8773 13.5926 12.8773 13.9474C12.8773 14.6836 13.479 15.2774 14.2152 15.2774ZM15.3156 23.1466V16.5203H13.1227V23.1466H15.3156Z" fill="#D2D2D2"/>
<rect x="1.28924" y="1.02069" width="33.9586" height="33.9586" rx="16.9793" stroke="#D2D2D2" stroke-width="1.04138"/>
</svg>
