<svg width="36" height="36" viewBox="0 0 36 36" fill="none" xmlns="http://www.w3.org/2000/svg">
<path d="M26.5275 12.8776C25.9196 13.1476 25.2665 13.3293 24.5811 13.4113C25.2811 12.992 25.8179 12.3282 26.0707 11.5366C25.4164 11.9248 24.691 12.2068 23.9185 12.3593C23.3004 11.7005 22.4199 11.2889 21.4455 11.2889C19.574 11.2889 18.057 12.8065 18.057 14.6773C18.057 14.9429 18.0875 15.202 18.1447 15.4492C15.3286 15.3081 12.8321 13.9589 11.1601 11.9083C10.8691 12.4088 10.702 12.9907 10.702 13.6126C10.702 14.7879 11.2998 15.8252 12.2089 16.4325C11.6537 16.4147 11.1308 16.2623 10.6741 16.0088C10.6741 16.0234 10.6741 16.0368 10.6741 16.0514C10.6741 17.6935 11.8417 19.0631 13.3923 19.3738C13.1084 19.4513 12.8085 19.4926 12.4992 19.4926C12.2813 19.4926 12.0685 19.471 11.862 19.4322C12.2934 20.7783 13.5448 21.7585 15.0275 21.7858C13.8682 22.6949 12.4071 23.2367 10.8189 23.2367C10.5458 23.2367 10.2758 23.2209 10.0103 23.1891C11.5101 24.1502 13.2907 24.7112 15.2047 24.7112C21.4378 24.7112 24.8453 19.5478 24.8453 15.0699C24.8453 14.9232 24.8422 14.7771 24.8358 14.6316C25.4984 14.1532 26.0733 13.5567 26.5275 12.8776Z" fill="#D2D2D2"/>
<rect x="1.28973" y="1.02069" width="33.9586" height="33.9586" rx="16.9793" stroke="#D2D2D2" stroke-width="1.04138"/>
</svg>
