<svg width="36" height="36" viewBox="0 0 36 36" fill="none" xmlns="http://www.w3.org/2000/svg">
<path d="M26.9251 13.8361C26.7114 13.0946 26.0853 12.5099 25.2913 12.3103C23.8406 11.9395 18.038 11.9395 18.038 11.9395C18.038 11.9395 12.2353 11.9395 10.7847 12.296C10.0059 12.4957 9.36458 13.0946 9.15079 13.8361C8.76904 15.1908 8.76904 18 8.76904 18C8.76904 18 8.76904 20.8235 9.15079 22.1639C9.36458 22.9054 9.99065 23.4901 10.7847 23.6897C12.2506 24.0605 18.038 24.0605 18.038 24.0605C18.038 24.0605 23.8406 24.0605 25.2913 23.704C26.0853 23.5043 26.7114 22.9197 26.9251 22.1782C27.3069 20.8235 27.3069 18.0143 27.3069 18.0143C27.3069 18.0143 27.3222 15.1908 26.9251 13.8361Z" fill="#D2D2D2"/>
<path d="M21.0153 18.001L16.1899 15.4056V20.5963L21.0153 18.001Z" fill="#2C3E47"/>
<rect x="1.28973" y="1.02069" width="33.4966" height="33.9586" rx="16.7483" stroke="#D2D2D2" stroke-width="1.04138"/>
</svg>
