<svg width="35" height="35" viewBox="0 0 35 35" fill="none" xmlns="http://www.w3.org/2000/svg">
<path d="M25.7585 12.3778C25.1505 12.6478 24.4975 12.8295 23.812 12.9114C24.5121 12.4922 25.0489 11.8283 25.3017 11.0368C24.6474 11.425 23.9219 11.707 23.1495 11.8595C22.5314 11.2007 21.6509 10.7891 20.6764 10.7891C18.805 10.7891 17.288 12.3067 17.288 14.1775C17.288 14.443 17.3185 14.7022 17.3756 14.9493C14.5596 14.8083 12.063 13.459 10.391 11.4084C10.1001 11.909 9.933 12.4909 9.933 13.1128C9.933 14.288 10.5308 15.3254 11.4398 15.9327C10.8846 15.9149 10.3618 15.7625 9.90505 15.509C9.90505 15.5236 9.90505 15.537 9.90505 15.5516C9.90505 17.1937 11.0726 18.5633 12.6233 18.8739C12.3393 18.9514 12.0395 18.9927 11.7301 18.9927C11.5122 18.9927 11.2994 18.9711 11.093 18.9324C11.5243 20.2785 12.7758 21.2587 14.2584 21.286C13.0991 22.195 11.638 22.7369 10.0499 22.7369C9.77673 22.7369 9.50675 22.721 9.24121 22.6893C10.741 23.6504 12.5217 24.2113 14.4357 24.2113C20.6688 24.2113 24.0763 19.048 24.0763 14.5701C24.0763 14.4234 24.0731 14.2772 24.0668 14.1318C24.7293 13.6534 25.3042 13.0569 25.7585 12.3778Z" fill="#D2D2D2"/>
<rect x="0.52069" y="0.52069" width="33.9586" height="33.9586" rx="16.9793" stroke="#D2D2D2" stroke-width="1.04138"/>
</svg>
