<svg width="16" height="17" viewBox="0 0 16 17" fill="none" xmlns="http://www.w3.org/2000/svg">
<path d="M8 0.743164C3.57604 0.743164 0 4.3192 0 8.74316C0 13.1671 3.57604 16.7432 8 16.7432C12.424 16.7432 16 13.1671 16 8.74316C16 4.3192 12.424 0.743164 8 0.743164ZM11.871 7.08418L7.13364 11.8031C6.98616 11.9506 6.80191 12.0242 6.61751 12.0242C6.43311 12.0242 6.23035 11.9506 6.10138 11.8031L3.76034 9.48042C3.46538 9.18546 3.46538 8.72463 3.76034 8.42967C4.0553 8.13471 4.51613 8.13471 4.81109 8.42967L6.61751 10.2361L10.8203 6.03332C11.1152 5.73836 11.5761 5.73836 11.871 6.03332C12.1475 6.32841 12.1475 6.80761 11.871 7.08421L11.871 7.08418Z" fill="#00DFC2"/>
</svg>
