<svg width="17" height="17" viewBox="0 0 17 17" fill="none" xmlns="http://www.w3.org/2000/svg">
<path d="M8.58789 0.743164C4.16393 0.743164 0.587891 4.3192 0.587891 8.74316C0.587891 13.1671 4.16393 16.7432 8.58789 16.7432C13.0119 16.7432 16.5879 13.1671 16.5879 8.74316C16.5879 4.3192 13.0119 0.743164 8.58789 0.743164ZM12.4589 7.08418L7.72153 11.8031C7.57405 11.9506 7.3898 12.0242 7.2054 12.0242C7.02101 12.0242 6.81824 11.9506 6.68927 11.8031L4.34823 9.48042C4.05327 9.18546 4.05327 8.72463 4.34823 8.42967C4.64319 8.13471 5.10402 8.13471 5.39898 8.42967L7.2054 10.2361L11.4082 6.03332C11.7031 5.73836 12.164 5.73836 12.4589 6.03332C12.7354 6.32841 12.7354 6.80761 12.4589 7.08421L12.4589 7.08418Z" fill="#00DFC2"/>
</svg>
