<svg width="36" height="36" viewBox="0 0 36 36" fill="none" xmlns="http://www.w3.org/2000/svg">
<g clip-path="url(#clip0_185_3387)">
<path d="M18.269 10C13.851 10 10.269 13.582 10.269 18C10.269 22.0107 13.2237 25.3227 17.073 25.9013V20.12H15.0937V18.0173H17.073V16.618C17.073 14.3013 18.2017 13.2847 20.127 13.2847C21.049 13.2847 21.537 13.3533 21.7677 13.384V15.2193H20.4544C19.637 15.2193 19.3517 15.9947 19.3517 16.868V18.0173H21.747L21.4224 20.12H19.3517V25.918C23.2564 25.3887 26.269 22.05 26.269 18C26.269 13.582 22.687 10 18.269 10Z" fill="#D2D2D2"/>
</g>
<rect x="1.28973" y="1.02069" width="33.9586" height="33.9586" rx="16.9793" stroke="#D2D2D2" stroke-width="1.04138"/>
<defs>
<clipPath id="clip0_185_3387">
<rect width="16" height="16" fill="white" transform="translate(10.269 10)"/>
</clipPath>
</defs>
</svg>
