<svg width="98" height="99" viewBox="0 0 98 99" fill="none" xmlns="http://www.w3.org/2000/svg">
<path style="mix-blend-mode:multiply" d="M48.9768 98.0093C76.0261 98.0093 97.9662 76.0692 97.9815 49.0047C97.9968 21.9401 76.0814 0 49.0322 0C21.9829 0 0.0427806 21.9401 0.0274905 49.0047C0.0122003 76.0692 21.9276 98.0093 48.9768 98.0093Z" fill="url(#paint0_radial_244_4968)"/>
<path d="M48.9771 84.1929C68.4534 84.1929 84.2546 68.4043 84.2702 48.928C84.2858 29.4517 68.5097 13.6631 49.0335 13.6631C29.5572 13.6631 13.7559 29.4517 13.7404 48.928C13.7248 68.4043 29.5008 84.1929 48.9771 84.1929Z" fill="#4D9F98"/>
<path d="M49.0046 15.1516C67.605 15.1516 82.7399 30.2986 82.7399 48.9139C82.7399 67.5291 67.605 82.6762 49.0046 82.6762C30.4042 82.6762 15.2693 67.5291 15.2693 48.9139C15.2693 30.2986 30.4042 15.1516 49.0046 15.1516ZM49.0046 12.1182C28.6967 12.1182 12.2383 28.5898 12.2383 48.9139C12.2383 69.238 28.6967 85.7096 49.0046 85.7096C69.3125 85.7096 85.771 69.238 85.771 48.9139C85.771 28.5898 69.3125 12.1182 49.0046 12.1182Z" fill="white"/>
<path d="M52.4417 43.1572H45.6247C44.0175 43.1572 42.7104 44.4642 42.7104 46.0713V52.8883C42.7104 54.4954 44.0174 55.8024 45.6247 55.8024H52.4414C54.0485 55.8024 55.3556 54.4955 55.3556 52.8883L55.3553 46.0713C55.356 44.4642 54.0483 43.1572 52.4417 43.1572ZM53.413 52.8885C53.413 53.4241 52.9773 53.8598 52.4417 53.8598H45.6247C45.0891 53.8598 44.6534 53.4241 44.6534 52.8885V46.0716C44.6534 45.536 45.0891 45.1004 45.6247 45.1004H52.4414C52.977 45.1004 53.4126 45.536 53.4126 46.0716L53.413 52.8885Z" fill="#F6F7F8"/>
<path d="M67.546 50.4615C68.0881 50.4615 68.5278 50.0214 68.5278 49.4797C68.5278 48.9375 68.0878 48.4978 67.546 48.4978H62.8903V46.1903H67.546C68.0881 46.1903 68.5278 45.7502 68.5278 45.2084C68.5278 44.6663 68.0878 44.2266 67.546 44.2266H62.8903V41.5149C62.8903 38.2662 60.2475 35.6234 56.999 35.6234H54.2861V30.9672C54.2861 30.4251 53.846 29.9854 53.3043 29.9854C52.7622 29.9854 52.3225 30.4254 52.3225 30.9672V35.6234H50.0147V30.9672C50.0147 30.4251 49.5746 29.9854 49.0328 29.9854C48.4907 29.9854 48.051 30.4254 48.051 30.9672V35.6234H45.7443V30.9672C45.7443 30.4251 45.3042 29.9854 44.7625 29.9854C44.2203 29.9854 43.7807 30.4254 43.7807 30.9672V35.6234H41.0677C37.8191 35.6234 35.1764 38.2663 35.1764 41.5149V44.2266H30.5207C29.9786 44.2266 29.5389 44.6667 29.5389 45.2084C29.5389 45.7506 29.979 46.1903 30.5207 46.1903H35.1764L35.1761 48.4978H30.5204C29.9783 48.4978 29.5386 48.9379 29.5386 49.4797C29.5386 50.0221 29.9786 50.4615 30.5204 50.4615H35.1761V52.7684H30.5204C29.9783 52.7684 29.5386 53.2084 29.5386 53.7502C29.5386 54.2923 29.9786 54.732 30.5204 54.732H35.1761V57.4447C35.1761 60.6934 37.8189 63.3362 41.0674 63.3362H43.7803V67.9924C43.7803 68.5345 44.2204 68.9743 44.7621 68.9743C45.3042 68.9743 45.7439 68.5342 45.7439 67.9924V63.3362L48.051 63.3366V67.9928C48.051 68.5349 48.4911 68.9746 49.0329 68.9746C49.575 68.9746 50.0147 68.5345 50.0147 67.9928V63.3366H52.3214V67.9928C52.3214 68.5349 52.7615 68.9746 53.3032 68.9746C53.8453 68.9746 54.285 68.5345 54.285 67.9928V63.3366H56.998C60.2466 63.3366 62.8893 60.6937 62.8893 57.4451V54.7324H67.545C68.0871 54.7324 68.5268 54.2923 68.5268 53.7505C68.5268 53.2084 68.0867 52.7687 67.545 52.7687H62.8893L62.8896 50.4615L67.546 50.4615ZM60.9263 57.4455C60.9263 59.6113 59.1643 61.3733 56.9986 61.3733H41.0664C38.9007 61.3733 37.1387 59.6113 37.1387 57.4455L37.1391 41.5145C37.1391 39.3488 38.901 37.5867 41.0667 37.5867H56.9989C59.1646 37.5867 60.9266 39.3488 60.9266 41.5145L60.9263 57.4455Z" fill="#F6F7F8"/>
<defs>
<radialGradient id="paint0_radial_244_4968" cx="0" cy="0" r="1" gradientUnits="userSpaceOnUse" gradientTransform="translate(49.0023 49.0059) rotate(22.5162) scale(48.9713 49.0104)">
<stop offset="0.36" stop-color="#ACC2D4"/>
<stop offset="0.44" stop-color="#BACCDB"/>
<stop offset="0.68" stop-color="#DFE7EE"/>
<stop offset="0.88" stop-color="#F6F8FA"/>
<stop offset="1" stop-color="white"/>
</radialGradient>
</defs>
</svg>
