<svg width="73" height="259" viewBox="0 0 73 259" fill="none" xmlns="http://www.w3.org/2000/svg">
<path d="M67.2184 258L67.2184 22.0124C67.2184 12.5441 58.7749 4.84228 48.3949 4.84228L3.11623 4.84229C2.75473 4.84229 2.4707 5.10137 2.4707 5.43111C2.4707 5.76085 2.75473 6.01993 3.11623 6.01993L48.3949 6.01993C58.0649 6.01993 65.9273 13.1918 65.9273 22.0124L65.9273 258C65.9273 258.33 66.2114 258.589 66.5728 258.589C66.9343 258.589 67.2184 258.33 67.2184 258Z" fill="black"/>
<path d="M7 5.50001C7 6.88299 5.88298 8 4.50001 8C3.11703 8 2 6.88299 2 5.50001C2 4.11703 3.11703 3 4.50001 3C5.88298 3 7 4.11703 7 5.50001Z" fill="black"/>
</svg>
