<svg width="98" height="99" viewBox="0 0 98 99" fill="none" xmlns="http://www.w3.org/2000/svg">
<path style="mix-blend-mode:multiply" d="M48.9768 98.0093C76.0261 98.0093 97.9662 76.0692 97.9815 49.0047C97.9968 21.9401 76.0814 0 49.0322 0C21.9829 0 0.0427806 21.9401 0.0274905 49.0047C0.0122003 76.0692 21.9276 98.0093 48.9768 98.0093Z" fill="url(#paint0_radial_244_4962)"/>
<path d="M48.9771 84.1929C68.4534 84.1929 84.2546 68.4043 84.2702 48.928C84.2858 29.4517 68.5097 13.6631 49.0335 13.6631C29.5572 13.6631 13.7559 29.4517 13.7404 48.928C13.7248 68.4043 29.5008 84.1929 48.9771 84.1929Z" fill="#4D9F98"/>
<path d="M49.0046 15.1516C67.605 15.1516 82.7399 30.2986 82.7399 48.9139C82.7399 67.5291 67.605 82.6762 49.0046 82.6762C30.4042 82.6762 15.2693 67.5291 15.2693 48.9139C15.2693 30.2986 30.4042 15.1516 49.0046 15.1516ZM49.0046 12.1182C28.6967 12.1182 12.2383 28.5898 12.2383 48.9139C12.2383 69.238 28.6967 85.7096 49.0046 85.7096C69.3125 85.7096 85.771 69.238 85.771 48.9139C85.771 28.5898 69.3125 12.1182 49.0046 12.1182Z" fill="white"/>
<path d="M65.2916 46.0419C65.6831 46.0419 66 45.7155 66 45.3127V42.3961C66 42.3942 65.9989 42.3926 65.9989 42.3908C65.9982 42.3022 65.9794 42.2165 65.9488 42.1345C65.9391 42.1086 65.9244 42.0869 65.9118 42.0623C65.8854 42.0102 65.8553 41.9618 65.8168 41.9171C65.7957 41.8928 65.7739 41.8719 65.7497 41.8504C65.7307 41.8335 65.7171 41.8121 65.6963 41.7973L49.4047 30.1309C49.1611 29.9564 48.8389 29.9564 48.5953 30.1309L32.3037 41.7973C32.2829 41.8124 32.269 41.8335 32.2502 41.8504C32.2261 41.8721 32.2043 41.893 32.1832 41.9174C32.1449 41.962 32.1143 42.0104 32.0881 42.0628C32.0758 42.0871 32.0609 42.1088 32.0514 42.1347C32.0206 42.2165 32.0018 42.3024 32.001 42.391C32.001 42.3926 32 42.3942 32 42.3961V45.3127C32 45.7155 32.3168 46.0419 32.7084 46.0419H36.2502V60.625H32.7084C32.3168 60.625 32 60.9511 32 61.3542V64.2708C32 64.6739 32.3168 65 32.7084 65H65.2916C65.6832 65 66 64.6739 66 64.2708V61.3542C66 60.9511 65.6832 60.625 65.2916 60.625H61.7498L61.7501 46.0419H65.2916ZM49 31.6178L63.0335 41.6667H34.967L49 31.6178ZM33.4167 44.5835V43.1252H64.5838V44.5835H33.4167ZM46.1664 60.625H41.9163L41.9165 46.0419H46.1667L46.1664 60.625ZM47.5831 46.0419H50.4165V60.625H47.5831V46.0419ZM51.8332 46.0419H56.0834V60.625H51.8332V46.0419ZM37.6661 46.0419H40.4996V60.625H37.6661V46.0419ZM64.5829 62.0834V63.5417H33.4165V62.0834H64.5829ZM60.333 60.6253H57.4996V46.0422H60.333V60.6253Z" fill="#F6F7F8"/>
<defs>
<radialGradient id="paint0_radial_244_4962" cx="0" cy="0" r="1" gradientUnits="userSpaceOnUse" gradientTransform="translate(49.0023 49.0059) rotate(22.5162) scale(48.9713 49.0104)">
<stop offset="0.36" stop-color="#ACC2D4"/>
<stop offset="0.44" stop-color="#BACCDB"/>
<stop offset="0.68" stop-color="#DFE7EE"/>
<stop offset="0.88" stop-color="#F6F8FA"/>
<stop offset="1" stop-color="white"/>
</radialGradient>
</defs>
</svg>
