<svg width="98" height="99" viewBox="0 0 98 99" fill="none" xmlns="http://www.w3.org/2000/svg">
<path style="mix-blend-mode:multiply" d="M48.9768 98.0093C76.0261 98.0093 97.9662 76.0692 97.9815 49.0047C97.9968 21.9401 76.0814 0 49.0322 0C21.9829 0 0.0427806 21.9401 0.0274905 49.0047C0.0122003 76.0692 21.9276 98.0093 48.9768 98.0093Z" fill="url(#paint0_radial_244_4975)"/>
<path d="M48.9771 84.1929C68.4534 84.1929 84.2546 68.4043 84.2702 48.928C84.2858 29.4517 68.5097 13.6631 49.0335 13.6631C29.5572 13.6631 13.7559 29.4517 13.7404 48.928C13.7248 68.4043 29.5008 84.1929 48.9771 84.1929Z" fill="#4D9F98"/>
<path d="M49.0046 15.1516C67.605 15.1516 82.7399 30.2986 82.7399 48.9139C82.7399 67.5291 67.605 82.6762 49.0046 82.6762C30.4042 82.6762 15.2693 67.5291 15.2693 48.9139C15.2693 30.2986 30.4042 15.1516 49.0046 15.1516ZM49.0046 12.1182C28.6967 12.1182 12.2383 28.5898 12.2383 48.9139C12.2383 69.238 28.6967 85.7096 49.0046 85.7096C69.3125 85.7096 85.771 69.238 85.771 48.9139C85.771 28.5898 69.3125 12.1182 49.0046 12.1182Z" fill="white"/>
<path d="M47.5387 43.9529L45.0828 41.2153L43.8848 42.2576L47.4668 46.2499L53.3848 40.4207L52.2586 39.3076L47.5387 43.9529Z" fill="#F6F7F8"/>
<path d="M63.7114 57.7567C62.7159 57.7578 61.7521 58.1054 60.9842 58.7398C60.2163 59.3743 59.692 60.2561 59.5014 61.235H57.1577V52.0347C58.9191 51.6108 60.44 50.5023 61.3851 48.9535C62.3299 47.405 62.6213 45.5434 62.195 43.7791C61.7686 42.0152 60.6595 40.4932 59.1122 39.5494V39.3404V39.3401C59.1136 37.3321 58.2934 35.4111 56.8425 34.0254C55.3918 32.6398 53.4373 31.9109 51.4355 32.0087C49.4336 32.1066 47.5591 33.0227 46.2499 34.5432C45.7205 34.3746 45.1679 34.2905 44.6125 34.2939C43.2999 34.2989 42.034 34.7836 41.0528 35.657C40.0716 36.5307 39.4423 37.7332 39.283 39.0386C37.403 39.7841 35.9498 41.3268 35.3157 43.2504C34.6814 45.1737 34.9314 47.2801 35.998 49.0009C37.0645 50.722 38.838 51.8802 40.84 52.1634V61.2352H38.4964C38.2274 59.8224 37.2706 58.6382 35.9473 58.0806C34.624 57.5232 33.1101 57.6666 31.9142 58.4623C30.7186 59.2583 30 60.601 30 62.0393C30 63.4777 30.7186 64.8206 31.9142 65.6164C33.1102 66.4124 34.624 66.5557 35.9473 65.9981C37.2706 65.4408 38.2274 64.2566 38.4964 62.8434H42.4455L42.4452 52.2357H48.1963V57.8331C46.7862 58.1024 45.604 59.0611 45.0478 60.3869C44.4912 61.7131 44.6343 63.23 45.4288 64.4279C46.2232 65.6259 47.5633 66.3462 48.9988 66.3462C50.4343 66.3462 51.7744 65.6259 52.5688 64.4279C53.3633 63.2299 53.5063 61.713 52.9498 60.3869C52.3936 59.0611 51.2114 58.1024 49.8013 57.8331V52.2357H55.5524V62.8434H59.5015H59.5012C59.7025 63.918 60.3052 64.875 61.1865 65.5198C62.0674 66.1644 63.1609 66.448 64.2434 66.313C65.3262 66.1779 66.3166 65.6343 67.0131 64.7928C67.7095 63.951 68.0595 62.8751 67.9917 61.7843C67.9237 60.6932 67.443 59.6692 66.6477 58.9208C65.8524 58.1725 64.8021 57.7562 63.7111 57.7568L63.7114 57.7567ZM34.2866 64.7375C33.5759 64.7395 32.8934 64.4587 32.3892 63.9569C31.885 63.4548 31.6003 62.773 31.5978 62.0608C31.5953 61.3487 31.8752 60.6646 32.376 60.1592C32.8765 59.6537 33.557 59.3682 34.2678 59.3654C34.9786 59.3626 35.6613 59.6425 36.166 60.144C36.6708 60.6455 36.9563 61.3271 36.9594 62.0393C36.9616 62.752 36.6811 63.4367 36.18 63.9424C35.6789 64.4484 34.9978 64.7342 34.2865 64.7376L34.2866 64.7375ZM51.6796 62.0392C51.683 62.7522 51.403 63.4375 50.9017 63.9435C50.4003 64.4498 49.7187 64.7353 49.007 64.7376C48.2954 64.7395 47.6121 64.4582 47.1076 63.9551C46.6032 63.4519 46.319 62.7686 46.3182 62.0556C46.3171 61.3423 46.599 60.6582 47.1018 60.1536C47.6048 59.649 48.2873 59.3654 48.9989 59.3654C49.7075 59.3663 50.3869 59.6482 50.8891 60.1491C51.3913 60.6498 51.6755 61.3294 51.6796 62.0393V62.0392ZM55.5405 50.6273H41.8397C40.1363 50.6632 38.5224 49.8635 37.5172 48.4852C36.512 47.1069 36.2415 45.3236 36.7933 43.7082C37.345 42.0932 38.6492 40.8498 40.2866 40.3774C40.62 40.2742 40.8487 39.9671 40.8524 39.6176C40.8703 38.6286 41.2737 37.6862 41.9766 36.9917C42.6793 36.2972 43.6258 35.9062 44.6128 35.902C45.1534 35.9023 45.6872 36.0204 46.178 36.2478C46.5251 36.4074 46.9363 36.2997 47.1611 35.9906C48.1104 34.6715 49.5748 33.8191 51.1883 33.6463C52.8022 33.4733 54.4132 33.9958 55.6195 35.0839C56.8257 36.1716 57.5136 37.7221 57.5113 39.3481C57.5113 39.5411 57.5113 39.7504 57.4833 39.9313H57.483C57.4466 40.2634 57.6193 40.5837 57.9166 40.7354C59.3247 41.4493 60.3347 42.7633 60.664 44.3099C60.9929 45.8565 60.6057 47.4693 59.6103 48.6965C58.6151 49.9236 57.1188 50.6336 55.5408 50.6274L55.5405 50.6273ZM63.7117 64.7369C63.0015 64.7358 62.321 64.4525 61.8191 63.949C61.3174 63.4458 61.0352 62.7634 61.035 62.0521C61.0347 61.3405 61.316 60.6581 61.8174 60.1543C62.3185 59.6505 62.999 59.3664 63.709 59.3647C64.4192 59.3628 65.1009 59.6435 65.6047 60.1447C66.1086 60.6459 66.3933 61.3273 66.3967 62.0386C66.3987 62.7535 66.1168 63.4399 65.6131 63.9459C65.1092 64.4521 64.4251 64.7369 63.7118 64.7369L63.7117 64.7369Z" fill="#F6F7F8"/>
<defs>
<radialGradient id="paint0_radial_244_4975" cx="0" cy="0" r="1" gradientUnits="userSpaceOnUse" gradientTransform="translate(49.0023 49.0059) rotate(22.5162) scale(48.9713 49.0104)">
<stop offset="0.36" stop-color="#ACC2D4"/>
<stop offset="0.44" stop-color="#BACCDB"/>
<stop offset="0.68" stop-color="#DFE7EE"/>
<stop offset="0.88" stop-color="#F6F8FA"/>
<stop offset="1" stop-color="white"/>
</radialGradient>
</defs>
</svg>
