<svg width="256" height="767" viewBox="0 0 256 767" fill="none" xmlns="http://www.w3.org/2000/svg">
<path d="M10.9393 90.0607C11.5251 90.6465 12.4749 90.6465 13.0607 90.0607L22.6066 80.5147C23.1924 79.9289 23.1924 78.9792 22.6066 78.3934C22.0208 77.8076 21.0711 77.8076 20.4853 78.3934L12 86.8787L3.51472 78.3934C2.92893 77.8076 1.97919 77.8076 1.3934 78.3934C0.807613 78.9792 0.807613 79.9289 1.3934 80.5147L10.9393 90.0607ZM10.5 35L10.5 89L13.5 89L13.5 35L10.5 35Z" fill="#00DFC2"/>
<path d="M200.939 330.939C200.354 331.525 200.354 332.475 200.939 333.061L210.485 342.607C211.071 343.192 212.021 343.192 212.607 342.607C213.192 342.021 213.192 341.071 212.607 340.485L204.121 332L212.607 323.515C213.192 322.929 213.192 321.979 212.607 321.393C212.021 320.808 211.071 320.808 210.485 321.393L200.939 330.939ZM256 330.5H202V333.5H256V330.5Z" fill="#00DFC2"/>
<path d="M70.9393 435.061C71.5251 435.646 72.4749 435.646 73.0607 435.061L82.6066 425.515C83.1924 424.929 83.1924 423.979 82.6066 423.393C82.0208 422.808 81.0711 422.808 80.4853 423.393L72 431.879L63.5147 423.393C62.9289 422.808 61.9792 422.808 61.3934 423.393C60.8076 423.979 60.8076 424.929 61.3934 425.515L70.9393 435.061ZM70.5 378L70.5 434L73.5 434L73.5 378L70.5 378Z" fill="#00DFC2"/>
<path d="M148.061 493.061C148.646 492.475 148.646 491.525 148.061 490.939L138.515 481.393C137.929 480.808 136.979 480.808 136.393 481.393C135.808 481.979 135.808 482.929 136.393 483.515L144.879 492L136.393 500.485C135.808 501.071 135.808 502.021 136.393 502.607C136.979 503.192 137.929 503.192 138.515 502.607L148.061 493.061ZM113 493.5L147 493.5L147 490.5L113 490.5L113 493.5Z" fill="#00DFC2"/>
<path d="M199.939 582.061C200.525 582.646 201.475 582.646 202.061 582.061L211.607 572.515C212.192 571.929 212.192 570.979 211.607 570.393C211.021 569.808 210.071 569.808 209.485 570.393L201 578.879L192.515 570.393C191.929 569.808 190.979 569.808 190.393 570.393C189.808 570.979 189.808 571.929 190.393 572.515L199.939 582.061ZM199.5 553L199.5 581L202.5 581L202.5 553L199.5 553Z" fill="#00DFC2"/>
<path d="M68.9393 766.061C69.5251 766.646 70.4749 766.646 71.0607 766.061L80.6066 756.515C81.1924 755.929 81.1924 754.979 80.6066 754.393C80.0208 753.808 79.0711 753.808 78.4853 754.393L70 762.879L61.5147 754.393C60.9289 753.808 59.9792 753.808 59.3934 754.393C58.8076 754.979 58.8076 755.929 59.3934 756.515L68.9393 766.061ZM68.5 737L68.5 765L71.5 765L71.5 737L68.5 737Z" fill="#00DFC2"/>
<path d="M129.939 625.939C129.354 626.525 129.354 627.475 129.939 628.061L139.485 637.607C140.071 638.192 141.021 638.192 141.607 637.607C142.192 637.021 142.192 636.071 141.607 635.485L133.121 627L141.607 618.515C142.192 617.929 142.192 616.979 141.607 616.393C141.021 615.808 140.071 615.808 139.485 616.393L129.939 625.939ZM159 625.5H131V628.5H159V625.5Z" fill="#00DFC2"/>
<line x1="12.5" y1="89" x2="12.5" y2="125" stroke="#00DFC2" stroke-width="3"/>
<line x1="72.5" y1="434" x2="72.5" y2="453" stroke="#00DFC2" stroke-width="3"/>
<line x1="134" y1="36.5" x2="11" y2="36.5" stroke="#00DFC2" stroke-width="3"/>
</svg>
