<svg width="98" height="99" viewBox="0 0 98 99" fill="none" xmlns="http://www.w3.org/2000/svg">
<path style="mix-blend-mode:multiply" d="M48.9768 98.0093C76.0261 98.0093 97.9662 76.0692 97.9815 49.0047C97.9968 21.9401 76.0814 0 49.0322 0C21.9829 0 0.0427806 21.9401 0.0274905 49.0047C0.0122003 76.0692 21.9276 98.0093 48.9768 98.0093Z" fill="url(#paint0_radial_244_4983)"/>
<path d="M48.7388 84.1929C68.2151 84.1929 84.0164 68.4043 84.0319 48.928C84.0475 29.4517 68.2715 13.6631 48.7952 13.6631C29.3189 13.6631 13.5177 29.4517 13.5021 48.928C13.4865 68.4043 29.2626 84.1929 48.7388 84.1929Z" fill="#4D9F98"/>
<path d="M48.7663 15.1516C67.3667 15.1516 82.5017 30.2986 82.5017 48.9139C82.5017 67.5291 67.3667 82.6762 48.7663 82.6762C30.1659 82.6762 15.031 67.5291 15.031 48.9139C15.031 30.2986 30.1659 15.1516 48.7663 15.1516ZM48.7663 12.1182C28.4585 12.1182 12 28.5898 12 48.9139C12 69.238 28.4585 85.7096 48.7663 85.7096C69.0742 85.7096 85.5327 69.238 85.5327 48.9139C85.5327 28.5898 69.0742 12.1182 48.7663 12.1182Z" fill="white"/>
<path d="M54.9278 62.7276H53.4901V61.0903H43.51V62.7276H42.0723C41.0997 62.7276 40.3384 63.5694 40.3384 64.5518C40.3384 65.5809 41.0994 66.376 42.0723 66.376H54.928C55.9006 66.376 56.6619 65.5343 56.6619 64.5518C56.6616 63.5228 55.9006 62.7276 54.928 62.7276H54.9278Z" fill="#F6F7F8"/>
<path d="M64.3774 32.3125H32.6642C31.2032 32.3125 30 33.6071 30 35.2255V57.0027C30 58.6211 31.2032 59.9157 32.6642 59.9157H64.3344C65.7954 59.9157 66.9986 58.6211 66.9986 57.0027L66.9989 35.2255C67.0418 33.607 65.8386 32.3125 64.3776 32.3125H64.3774ZM48.5208 58.5284C47.9192 58.5284 47.4036 57.9737 47.4036 57.3264C47.4036 56.679 47.9192 56.1243 48.5208 56.1243C49.1224 56.1243 49.638 56.679 49.638 57.3264C49.638 58.0198 49.1224 58.5284 48.5208 58.5284ZM64.5922 54.8294H32.4493V35.2253C32.4493 35.0405 32.5782 34.9015 32.7071 34.9015H64.3773C64.5062 34.9015 64.6351 35.0402 64.6351 35.2253L64.5922 54.8294Z" fill="#F6F7F8"/>
<path d="M59.872 37.5981C58.691 37.5981 57.7288 38.5977 57.7288 39.8246C57.7288 40.0972 57.7724 40.3697 57.9036 40.597L53.3552 44.9133C53.0929 44.777 52.7429 44.686 52.4366 44.686C51.8679 44.686 51.3868 44.9133 50.9932 45.3221L45.8758 42.8231V42.6868C45.8758 41.4599 44.9135 40.4603 43.7325 40.4603C42.5515 40.4603 41.5892 41.4599 41.5892 42.6868C41.5892 43.0503 41.7204 43.4138 41.8516 43.7317L37.6526 49.1387C37.4338 49.0477 37.259 49.0024 37.0402 49.0024C35.8592 49.0024 34.897 50.002 34.897 51.2288C34.897 52.4557 35.8592 53.4553 37.0402 53.4553C38.2213 53.4553 39.1835 52.4557 39.1835 51.2288C39.1835 50.8653 39.0523 50.5018 38.9211 50.1839L43.1638 44.7317C43.3825 44.8226 43.5573 44.868 43.7761 44.868C44.3448 44.868 44.8259 44.6407 45.2195 44.2319L50.3369 46.7309V46.8672C50.3369 48.0941 51.2991 49.0936 52.4802 49.0936C53.6612 49.0936 54.6234 48.0941 54.6234 46.8672C54.6234 46.5946 54.5798 46.3221 54.4486 46.0948L59.0409 41.7782C59.3033 41.9145 59.6532 42.0054 59.9596 42.0054C61.1406 42.0054 62.1029 41.0058 62.1029 39.779C62.0153 38.5977 61.053 37.5981 59.872 37.5981Z" fill="#F6F7F8"/>
<path d="M54.9278 62.7276H53.4901V61.0903H43.51V62.7276H42.0723C41.0997 62.7276 40.3384 63.5694 40.3384 64.5518C40.3384 65.5809 41.0994 66.376 42.0723 66.376H54.928C55.9006 66.376 56.6619 65.5343 56.6619 64.5518C56.6616 63.5228 55.9006 62.7276 54.928 62.7276H54.9278Z" fill="#F6F7F8"/>
<path d="M64.3774 32.3125H32.6642C31.2032 32.3125 30 33.6071 30 35.2255V57.0027C30 58.6211 31.2032 59.9157 32.6642 59.9157H64.3344C65.7954 59.9157 66.9986 58.6211 66.9986 57.0027L66.9989 35.2255C67.0418 33.607 65.8386 32.3125 64.3776 32.3125H64.3774ZM48.5208 58.5284C47.9192 58.5284 47.4036 57.9737 47.4036 57.3264C47.4036 56.679 47.9192 56.1243 48.5208 56.1243C49.1224 56.1243 49.638 56.679 49.638 57.3264C49.638 58.0198 49.1224 58.5284 48.5208 58.5284ZM64.5922 54.8294H32.4493V35.2253C32.4493 35.0405 32.5782 34.9015 32.7071 34.9015H64.3773C64.5062 34.9015 64.6351 35.0402 64.6351 35.2253L64.5922 54.8294Z" fill="#F6F7F8"/>
<path d="M59.872 37.5981C58.691 37.5981 57.7288 38.5977 57.7288 39.8246C57.7288 40.0972 57.7724 40.3697 57.9036 40.597L53.3552 44.9133C53.0929 44.777 52.7429 44.686 52.4366 44.686C51.8679 44.686 51.3868 44.9133 50.9932 45.3221L45.8758 42.8231V42.6868C45.8758 41.4599 44.9135 40.4603 43.7325 40.4603C42.5515 40.4603 41.5892 41.4599 41.5892 42.6868C41.5892 43.0503 41.7204 43.4138 41.8516 43.7317L37.6526 49.1387C37.4338 49.0477 37.259 49.0024 37.0402 49.0024C35.8592 49.0024 34.897 50.002 34.897 51.2288C34.897 52.4557 35.8592 53.4553 37.0402 53.4553C38.2213 53.4553 39.1835 52.4557 39.1835 51.2288C39.1835 50.8653 39.0523 50.5018 38.9211 50.1839L43.1638 44.7317C43.3825 44.8226 43.5573 44.868 43.7761 44.868C44.3448 44.868 44.8259 44.6407 45.2195 44.2319L50.3369 46.7309V46.8672C50.3369 48.0941 51.2991 49.0936 52.4802 49.0936C53.6612 49.0936 54.6234 48.0941 54.6234 46.8672C54.6234 46.5946 54.5798 46.3221 54.4486 46.0948L59.0409 41.7782C59.3033 41.9145 59.6532 42.0054 59.9596 42.0054C61.1406 42.0054 62.1029 41.0058 62.1029 39.779C62.0153 38.5977 61.053 37.5981 59.872 37.5981Z" fill="#F6F7F8"/>
<defs>
<radialGradient id="paint0_radial_244_4983" cx="0" cy="0" r="1" gradientUnits="userSpaceOnUse" gradientTransform="translate(49.0023 49.0059) rotate(22.5162) scale(48.9713 49.0104)">
<stop offset="0.36" stop-color="#ACC2D4"/>
<stop offset="0.44" stop-color="#BACCDB"/>
<stop offset="0.68" stop-color="#DFE7EE"/>
<stop offset="0.88" stop-color="#F6F8FA"/>
<stop offset="1" stop-color="white"/>
</radialGradient>
</defs>
</svg>
