<svg width="73" height="119" viewBox="0 0 73 119" fill="none" xmlns="http://www.w3.org/2000/svg">
<path d="M5.78163 113.622L5.78163 22.0124C5.78163 12.5441 14.2251 4.84228 24.6051 4.84228L69.8838 4.84229C70.2453 4.84229 70.5293 5.10137 70.5293 5.43111C70.5293 5.76085 70.2453 6.01993 69.8838 6.01993L24.6051 6.01993C14.9351 6.01993 7.07268 13.1918 7.07268 22.0124L7.07267 113.622C7.07267 113.951 6.78864 114.211 6.42715 114.211C6.06566 114.211 5.78163 113.951 5.78163 113.622Z" fill="black"/>
<path d="M4 113.5C4 114.883 5.11702 116 6.49999 116C7.88297 116 9 114.883 9 113.5C9 112.117 7.88297 111 6.5 111C5.11702 111 4 112.117 4 113.5Z" fill="black"/>
<path d="M66 5.50001C66 6.88299 67.117 8 68.5 8C69.883 8 71 6.88299 71 5.50001C71 4.11703 69.883 3 68.5 3C67.117 3 66 4.11703 66 5.50001Z" fill="black"/>
</svg>
