<svg width="834" height="571" viewBox="0 0 834 571" fill="none" xmlns="http://www.w3.org/2000/svg">
<path style="mix-blend-mode:multiply" d="M424.963 441.187C506.129 441.187 571.927 375.337 571.927 294.106C571.927 212.875 506.129 147.025 424.963 147.025C343.797 147.025 277.999 212.875 277.999 294.106C277.999 375.337 343.797 441.187 424.963 441.187Z" fill="url(#paint0_radial_1_4699)"/>
<path d="M424.963 387.106C485.901 387.106 535.301 337.667 535.301 276.68C535.301 215.694 485.901 166.254 424.963 166.254C364.025 166.254 314.625 215.694 314.625 276.68C314.625 337.667 364.025 387.106 424.963 387.106Z" fill="#2E5053"/>
<path d="M315.929 210.375C315.757 210.375 315.584 210.336 315.431 210.24C314.97 209.952 314.836 209.377 315.124 208.916C338.844 170.476 379.919 147.523 424.982 147.523C470.046 147.523 511.12 170.476 534.841 208.916C535.109 209.358 534.975 209.952 534.534 210.24C534.074 210.528 533.499 210.375 533.211 209.933C509.836 172.069 469.375 149.462 424.982 149.462C380.59 149.462 340.129 172.069 316.754 209.933C316.581 210.221 316.255 210.394 315.929 210.394V210.375Z" fill="black"/>
<path d="M424.963 405.837C375.183 405.837 330.695 377.991 308.872 333.141C308.642 332.661 308.834 332.085 309.313 331.855C309.793 331.625 310.368 331.817 310.598 332.296C332.094 376.475 375.911 403.918 424.963 403.918C474.015 403.918 517.832 376.475 539.328 332.296C539.558 331.817 540.133 331.625 540.613 331.855C541.092 332.085 541.284 332.661 541.054 333.141C519.232 377.971 474.763 405.837 424.963 405.837Z" fill="black"/>
<path d="M533.997 210.375C533.671 210.375 533.364 210.221 533.172 209.914C509.797 172.05 469.335 149.443 424.943 149.443C380.551 149.443 340.09 172.05 316.715 209.914C316.427 210.375 315.852 210.509 315.392 210.221C314.931 209.933 314.797 209.358 315.085 208.897C338.805 170.457 379.88 147.504 424.943 147.504C470.007 147.504 511.081 170.457 534.802 208.897C535.07 209.338 534.936 209.933 534.495 210.221C534.342 210.317 534.169 210.356 533.997 210.356V210.375Z" fill="black"/>
<path d="M537.065 207.515C538.12 209.204 537.583 211.43 535.896 212.486C534.208 213.541 531.984 213.004 530.929 211.315C529.874 209.626 530.411 207.4 532.099 206.345C533.786 205.289 536.011 205.826 537.065 207.515Z" fill="black"/>
<path d="M312.861 207.515C311.806 209.204 312.343 211.43 314.03 212.486C315.718 213.541 317.942 213.004 318.997 211.315C320.052 209.626 319.515 207.4 317.827 206.345C316.14 205.289 313.915 205.826 312.861 207.515Z" fill="black"/>
<path d="M424.963 405.837C375.183 405.837 330.695 377.991 308.872 333.141C308.642 332.661 308.834 332.085 309.313 331.855C309.793 331.625 310.368 331.817 310.598 332.296C332.094 376.475 375.911 403.918 424.963 403.918C474.015 403.918 517.832 376.475 539.328 332.296C539.558 331.817 540.133 331.625 540.613 331.855C541.092 332.085 541.284 332.661 541.054 333.141C519.232 377.971 474.763 405.837 424.963 405.837Z" fill="black"/>
<path d="M306.495 334.292C305.632 332.507 306.361 330.339 308.163 329.475C309.946 328.612 312.113 329.341 312.976 331.145C313.839 332.93 313.11 335.098 311.308 335.962C309.525 336.826 307.358 336.096 306.495 334.292Z" fill="black"/>
<path d="M543.432 334.292C544.295 332.507 543.566 330.339 541.764 329.475C539.981 328.612 537.814 329.341 536.951 331.145C536.088 332.93 536.817 335.098 538.619 335.962C540.402 336.826 542.569 336.096 543.432 334.292Z" fill="black"/>
<path d="M298.115 248.085H148.946C133.528 248.085 120.987 235.534 120.987 220.105V199.301C120.987 198.764 121.409 198.342 121.946 198.342C122.483 198.342 122.905 198.764 122.905 199.301V220.105C122.905 234.479 134.583 246.166 148.946 246.166H298.115C298.652 246.166 299.074 246.588 299.074 247.126C299.074 247.663 298.652 248.085 298.115 248.085Z" fill="black"/>
<path d="M118.341 199.474C118.341 197.478 119.952 195.866 121.946 195.866C123.94 195.866 125.551 197.478 125.551 199.474C125.551 201.47 123.94 203.082 121.946 203.082C119.952 203.082 118.341 201.47 118.341 199.474Z" fill="black"/>
<path d="M297.922 250.734C299.917 250.734 301.528 249.122 301.528 247.126C301.528 245.13 299.917 243.518 297.922 243.518C295.928 243.518 294.317 245.13 294.317 247.126C294.317 249.122 295.928 250.734 297.922 250.734Z" fill="black"/>
<path d="M121.946 349.78C121.409 349.78 120.987 349.357 120.987 348.82V328.017C120.987 312.587 133.528 300.036 148.946 300.036H298.115C298.652 300.036 299.074 300.458 299.074 300.996C299.074 301.533 298.652 301.955 298.115 301.955H148.946C134.583 301.955 122.905 313.643 122.905 328.017V348.82C122.905 349.357 122.483 349.78 121.946 349.78Z" fill="black"/>
<path d="M121.946 352.255C123.937 352.255 125.551 350.64 125.551 348.647C125.551 346.655 123.937 345.039 121.946 345.039C119.955 345.039 118.341 346.655 118.341 348.647C118.341 350.64 119.955 352.255 121.946 352.255Z" fill="black"/>
<path d="M297.922 304.603C299.913 304.603 301.528 302.988 301.528 300.996C301.528 299.003 299.913 297.388 297.922 297.388C295.931 297.388 294.317 299.003 294.317 300.996C294.317 302.988 295.931 304.603 297.922 304.603Z" fill="black"/>
<path d="M727.865 349.78C727.328 349.78 726.906 349.357 726.906 348.82V328.017C726.906 313.643 715.228 301.955 700.865 301.955H551.696C551.159 301.955 550.737 301.533 550.737 300.996C550.737 300.458 551.159 300.036 551.696 300.036H700.865C716.283 300.036 728.824 312.587 728.824 328.017V348.82C728.824 349.357 728.402 349.78 727.865 349.78Z" fill="black"/>
<path d="M731.47 348.647C731.47 350.643 729.859 352.255 727.865 352.255C725.871 352.255 724.26 350.643 724.26 348.647C724.26 346.651 725.871 345.039 727.865 345.039C729.859 345.039 731.47 346.651 731.47 348.647Z" fill="black"/>
<path d="M551.888 297.388C549.894 297.388 548.283 299 548.283 300.996C548.283 302.991 549.894 304.603 551.888 304.603C553.883 304.603 555.493 302.991 555.493 300.996C555.493 299 553.883 297.388 551.888 297.388Z" fill="black"/>
<path d="M700.865 248.085H551.696C551.159 248.085 550.737 247.663 550.737 247.126C550.737 246.588 551.159 246.166 551.696 246.166H700.865C715.228 246.166 726.906 234.479 726.906 220.105V199.301C726.906 198.764 727.328 198.342 727.865 198.342C728.402 198.342 728.824 198.764 728.824 199.301V220.105C728.824 235.534 716.283 248.085 700.865 248.085Z" fill="black"/>
<path d="M724.26 199.474C724.26 197.478 725.871 195.866 727.865 195.866C729.859 195.866 731.47 197.478 731.47 199.474C731.47 201.47 729.859 203.082 727.865 203.082C725.871 203.082 724.26 201.47 724.26 199.474Z" fill="black"/>
<path d="M551.888 243.518C549.894 243.518 548.283 245.13 548.283 247.126C548.283 249.122 549.894 250.734 551.888 250.734C553.883 250.734 555.493 249.122 555.493 247.126C555.493 245.13 553.883 243.518 551.888 243.518Z" fill="black"/>
<path style="mix-blend-mode:multiply" d="M157.513 208.306C204.938 188.647 227.458 134.233 207.814 86.7701C188.17 39.3073 133.8 16.7684 86.3753 36.4282C38.9504 56.0879 16.4295 110.501 36.0736 157.964C55.7176 205.427 110.088 227.966 157.513 208.306Z" fill="url(#paint1_radial_1_4699)"/>
<path d="M169.27 158.697C195.398 132.548 195.398 90.1526 169.27 64.0039C143.142 37.8551 100.78 37.8551 74.6525 64.0039C48.5246 90.1526 48.5246 132.548 74.6525 158.697C100.78 184.846 143.142 184.846 169.27 158.697Z" fill="#4D9F98"/>
<path d="M121.946 47.2495C157.249 47.2495 185.974 75.9979 185.974 111.329C185.974 146.66 157.249 175.408 121.946 175.408C86.6433 175.408 57.9178 146.679 57.9178 111.329C57.9178 75.9787 86.6433 47.2495 121.946 47.2495ZM121.946 41.4921C83.4025 41.4921 52.165 72.7738 52.165 111.329C52.165 149.884 83.4025 181.166 121.946 181.166C160.49 181.166 191.727 149.903 191.727 111.329C191.727 72.7546 160.49 41.4921 121.946 41.4921Z" fill="white"/>
<path style="mix-blend-mode:multiply" d="M812.468 143.71C824.259 93.7102 793.318 43.6109 743.358 31.8099C693.399 20.009 643.339 50.9751 631.548 100.975C619.756 150.974 650.698 201.074 700.657 212.875C750.617 224.676 800.676 193.709 812.468 143.71Z" fill="url(#paint2_radial_1_4699)"/>
<path d="M769.377 158.68C795.505 132.531 795.505 90.1353 769.377 63.9865C743.249 37.8378 700.888 37.8378 674.76 63.9865C648.632 90.1353 648.632 132.531 674.76 158.68C700.888 184.828 743.249 184.828 769.377 158.68Z" fill="#4D9F98"/>
<path d="M722.054 47.2495C757.357 47.2495 786.083 75.998 786.083 111.329C786.083 146.66 757.357 175.408 722.054 175.408C686.752 175.408 658.026 146.66 658.026 111.329C658.026 75.998 686.752 47.2495 722.054 47.2495ZM722.054 41.4922C683.511 41.4922 652.273 72.7547 652.273 111.329C652.273 149.903 683.511 181.166 722.054 181.166C760.598 181.166 791.835 149.903 791.835 111.329C791.835 72.7547 760.598 41.4922 722.054 41.4922Z" fill="white"/>
<path style="mix-blend-mode:multiply" d="M812.477 470.658C824.268 420.658 793.327 370.559 743.367 358.758C693.407 346.957 643.348 377.923 631.557 427.922C619.765 477.922 650.706 528.021 700.666 539.822C750.626 551.623 800.685 520.657 812.477 470.658Z" fill="url(#paint3_radial_1_4699)"/>
<path d="M769.364 485.626C795.492 459.477 795.492 417.082 769.364 390.933C743.236 364.784 700.874 364.784 674.746 390.933C648.618 417.082 648.618 459.477 674.746 485.626C700.874 511.775 743.236 511.775 769.364 485.626Z" fill="#4D9F98"/>
<path d="M722.055 374.191C757.358 374.191 786.084 402.939 786.084 438.27C786.084 473.601 757.358 502.35 722.055 502.35C686.753 502.35 658.027 473.601 658.027 438.27C658.027 402.939 686.753 374.191 722.055 374.191ZM722.055 368.433C683.512 368.433 652.274 399.696 652.274 438.27C652.274 476.845 683.512 508.107 722.055 508.107C760.599 508.107 791.836 476.845 791.836 438.27C791.836 399.696 760.599 368.433 722.055 368.433Z" fill="white"/>
<path style="mix-blend-mode:multiply" d="M157.52 535.252C204.945 515.592 227.466 461.178 207.822 413.715C188.178 366.253 133.808 343.714 86.3831 363.373C38.9582 383.033 16.4373 437.447 36.0814 484.91C55.7254 532.372 110.096 554.911 157.52 535.252Z" fill="url(#paint4_radial_1_4699)"/>
<path d="M169.256 485.643C195.384 459.495 195.384 417.099 169.256 390.95C143.128 364.802 100.767 364.802 74.6388 390.95C48.5109 417.099 48.5109 459.495 74.6388 485.643C100.767 511.792 143.128 511.792 169.256 485.643Z" fill="#4D9F98"/>
<path d="M121.946 374.191C157.249 374.191 185.974 402.939 185.974 438.27C185.974 473.601 157.249 502.35 121.946 502.35C86.6433 502.35 57.9178 473.601 57.9178 438.27C57.9178 402.939 86.6433 374.191 121.946 374.191ZM121.946 368.433C83.4025 368.433 52.165 399.696 52.165 438.27C52.165 476.845 83.4025 508.107 121.946 508.107C160.49 508.107 191.727 476.845 191.727 438.27C191.727 399.696 160.49 368.433 121.946 368.433Z" fill="white"/>
<defs>
<radialGradient id="paint0_radial_1_4699" cx="0" cy="0" r="1" gradientUnits="userSpaceOnUse" gradientTransform="translate(424.963 294.106) scale(146.964 147.081)">
<stop offset="0.36" stop-color="#ACC2D4"/>
<stop offset="0.44" stop-color="#BACCDB"/>
<stop offset="0.68" stop-color="#DFE7EE"/>
<stop offset="0.88" stop-color="#F6F8FA"/>
<stop offset="1" stop-color="white"/>
</radialGradient>
<radialGradient id="paint1_radial_1_4699" cx="0" cy="0" r="1" gradientUnits="userSpaceOnUse" gradientTransform="translate(121.946 122.364) scale(92.9455 93.0198)">
<stop offset="0.36" stop-color="#ACC2D4"/>
<stop offset="0.44" stop-color="#BACCDB"/>
<stop offset="0.68" stop-color="#DFE7EE"/>
<stop offset="0.88" stop-color="#F6F8FA"/>
<stop offset="1" stop-color="white"/>
</radialGradient>
<radialGradient id="paint2_radial_1_4699" cx="0" cy="0" r="1" gradientUnits="userSpaceOnUse" gradientTransform="translate(722.02 122.369) scale(92.9455 93.0198)">
<stop offset="0.36" stop-color="#ACC2D4"/>
<stop offset="0.44" stop-color="#BACCDB"/>
<stop offset="0.68" stop-color="#DFE7EE"/>
<stop offset="0.88" stop-color="#F6F8FA"/>
<stop offset="1" stop-color="white"/>
</radialGradient>
<radialGradient id="paint3_radial_1_4699" cx="0" cy="0" r="1" gradientUnits="userSpaceOnUse" gradientTransform="translate(722.014 449.322) scale(92.9455 93.0198)">
<stop offset="0.36" stop-color="#ACC2D4"/>
<stop offset="0.44" stop-color="#BACCDB"/>
<stop offset="0.68" stop-color="#DFE7EE"/>
<stop offset="0.88" stop-color="#F6F8FA"/>
<stop offset="1" stop-color="white"/>
</radialGradient>
<radialGradient id="paint4_radial_1_4699" cx="0" cy="0" r="1" gradientUnits="userSpaceOnUse" gradientTransform="translate(121.949 449.316) scale(92.9455 93.0197)">
<stop offset="0.36" stop-color="#ACC2D4"/>
<stop offset="0.44" stop-color="#BACCDB"/>
<stop offset="0.68" stop-color="#DFE7EE"/>
<stop offset="0.88" stop-color="#F6F8FA"/>
<stop offset="1" stop-color="white"/>
</radialGradient>
</defs>
</svg>
