<svg width="36" height="36" viewBox="0 0 36 36" fill="none" xmlns="http://www.w3.org/2000/svg">
<path d="M23.8107 10.8756C24.2306 10.8756 24.6334 11.0424 24.9303 11.3394C25.2272 11.6363 25.394 12.039 25.394 12.4589V23.5423C25.394 23.9622 25.2272 24.3649 24.9303 24.6619C24.6334 24.9588 24.2306 25.1256 23.8107 25.1256H12.7274C12.3075 25.1256 11.9047 24.9588 11.6078 24.6619C11.3109 24.3649 11.144 23.9622 11.144 23.5423V12.4589C11.144 12.039 11.3109 11.6363 11.6078 11.3394C11.9047 11.0424 12.3075 10.8756 12.7274 10.8756H23.8107ZM23.4149 23.1464V18.9506C23.4149 18.2661 23.143 17.6097 22.659 17.1257C22.175 16.6417 21.5185 16.3698 20.834 16.3698C20.1611 16.3698 19.3774 16.7814 18.9974 17.3989V16.5202H16.7886V23.1464H18.9974V19.2435C18.9974 18.6339 19.4882 18.1352 20.0978 18.1352C20.3917 18.1352 20.6737 18.252 20.8815 18.4598C21.0894 18.6677 21.2061 18.9496 21.2061 19.2435V23.1464H23.4149ZM14.2157 15.2773C14.5684 15.2773 14.9067 15.1372 15.1562 14.8877C15.4056 14.6383 15.5457 14.3 15.5457 13.9473C15.5457 13.211 14.952 12.6094 14.2157 12.6094C13.8609 12.6094 13.5206 12.7503 13.2697 13.0012C13.0188 13.2521 12.8778 13.5924 12.8778 13.9473C12.8778 14.6835 13.4795 15.2773 14.2157 15.2773ZM15.3161 23.1464V16.5202H13.1232V23.1464H15.3161Z" fill="#D2D2D2"/>
<rect x="1.28973" y="1.02069" width="33.9586" height="33.9586" rx="16.9793" stroke="#D2D2D2" stroke-width="1.04138"/>
</svg>
