<svg width="74" height="75" viewBox="0 0 74 75" fill="none" xmlns="http://www.w3.org/2000/svg">
<path d="M72.1366 39.207C73.1655 39.207 74 38.3718 74 37.3435C74 36.3146 73.1648 35.48 72.1366 35.48H63.3003V31.1004H72.1366C73.1655 31.1004 74 30.2652 74 29.2369C74 28.208 73.1648 27.3734 72.1366 27.3734H63.3003V22.2267C63.3003 16.0608 58.2843 11.0449 52.1188 11.0449H46.9698V2.20759C46.9698 1.17864 46.1346 0.344086 45.1063 0.344086C44.0774 0.344086 43.2429 1.17932 43.2429 2.20759V11.0449H38.8628V2.20759C38.8628 1.17864 38.0275 0.344086 36.9993 0.344086C35.9704 0.344086 35.1359 1.17932 35.1359 2.20759V11.0449H30.7578V2.20759C30.7578 1.17864 29.9225 0.344086 28.8943 0.344086C27.8654 0.344086 27.0309 1.17932 27.0309 2.20759V11.0449H21.8818C15.7161 11.0449 10.7004 16.0609 10.7004 22.2267V27.3734H1.86409C0.835178 27.3734 0.000649973 28.2086 0.000649973 29.2369C0.000649973 30.2658 0.83586 31.1004 1.86409 31.1004H10.7004L10.6997 35.48H1.86344C0.834528 35.48 0 36.3153 0 37.3435C0 38.3731 0.83521 39.207 1.86344 39.207H10.6997V43.5853H1.86344C0.834528 43.5853 0 44.4205 0 45.4488C0 46.4777 0.83521 47.3123 1.86344 47.3123H10.6997V52.4608C10.6997 58.6267 15.7157 63.6427 21.8812 63.6427H27.0302V72.4799C27.0302 73.5089 27.8654 74.3434 28.8937 74.3434C29.9226 74.3434 30.7571 73.5082 30.7571 72.4799V63.6427L35.1359 63.6433V72.4806C35.1359 73.5095 35.9711 74.3441 36.9993 74.3441C38.0282 74.3441 38.8628 73.5088 38.8628 72.4806V63.6433H43.2409V72.4806C43.2409 73.5095 44.0761 74.3441 45.1043 74.3441C46.1333 74.3441 46.9678 73.5088 46.9678 72.4806V63.6433H52.1168C58.2825 63.6433 63.2983 58.6272 63.2983 52.4615V47.3129H72.1346C73.1635 47.3129 73.998 46.4777 73.998 45.4494C73.998 44.4205 73.1628 43.5859 72.1346 43.5859H63.2983L63.2989 39.207L72.1366 39.207ZM59.5725 52.4623C59.5725 56.5729 56.2284 59.9172 52.118 59.9172H21.8793C17.7689 59.9172 14.4248 56.5729 14.4248 52.4623L14.4254 22.226C14.4254 18.1155 17.7696 14.7712 21.88 14.7712H52.1186C56.229 14.7712 59.5732 18.1155 59.5732 22.226L59.5725 52.4623Z" fill="#F6F7F8"/>
</svg>
