<svg width="64" height="65" viewBox="0 0 64 65" fill="none" xmlns="http://www.w3.org/2000/svg">
<path d="M62.6665 29.6778C63.4035 29.6778 63.9999 29.081 63.9999 28.3444V23.0112C63.9999 23.0078 63.998 23.0049 63.998 23.0015C63.9965 22.8395 63.9612 22.6828 63.9037 22.5329C63.8853 22.4855 63.8577 22.4458 63.834 22.4009C63.7842 22.3056 63.7276 22.2171 63.6551 22.1354C63.6154 22.0909 63.5743 22.0527 63.5289 22.0135C63.4931 21.9825 63.4674 21.9434 63.4283 21.9163L32.7617 0.583502C32.3032 0.264321 31.6967 0.264321 31.2382 0.583502L0.571649 21.9163C0.532474 21.9439 0.506358 21.9825 0.471053 22.0135C0.425591 22.0531 0.384482 22.0914 0.344828 22.1358C0.272767 22.2176 0.215211 22.3061 0.165885 22.4018C0.142671 22.4463 0.11462 22.486 0.0967258 22.5334C0.0386898 22.6828 0.00338435 22.84 0.00193454 23.002C0.00193454 23.0049 0 23.0078 0 23.0112V28.3444C0 29.081 0.596319 29.6778 1.33344 29.6778H8.00037V56.3441H1.33344C0.596381 56.3441 0 56.9404 0 57.6775V63.0107C0 63.7478 0.596319 64.3441 1.33344 64.3441H62.6666C63.4036 64.3441 64 63.7478 64 63.0107V57.6775C64 56.9405 63.4037 56.3441 62.6666 56.3441H55.9996L56.0001 29.6778H62.6665ZM31.9999 3.30247L58.4161 21.6776H5.58499L31.9999 3.30247ZM2.66678 27.0111V24.3444H61.3343V27.0111H2.66678ZM26.6662 56.3441H18.6659L18.6664 29.6778H26.6667L26.6662 56.3441ZM29.3329 29.6778H34.6664V56.3441H29.3329V29.6778ZM37.3332 29.6778H45.3334V56.3441H37.3332V29.6778ZM10.6657 29.6778H15.9992V56.3441H10.6657V29.6778ZM61.3325 59.0109V61.6775H2.66629V59.0109H61.3325ZM53.3328 56.3447H47.9993V29.6784H53.3328V56.3447Z" fill="#F6F7F8"/>
</svg>
