<svg width="24" height="25" viewBox="0 0 24 25" fill="none" xmlns="http://www.w3.org/2000/svg">
<path d="M18.4695 0.344116H5.53112C2.48079 0.344116 0 2.82462 0 5.87497V18.8133C0 21.8634 2.48062 24.3441 5.53112 24.3441H18.4689C21.5192 24.3441 24 21.8636 24 18.8133L23.9994 5.87497C24.0006 2.82479 21.5187 0.344116 18.4696 0.344116H18.4695ZM20.313 18.8138C20.313 19.8303 19.4861 20.6571 18.4695 20.6571H5.53112C4.51454 20.6571 3.68768 19.8303 3.68768 18.8138V5.87546C3.68768 4.85893 4.51457 4.03212 5.53112 4.03212H18.4689C19.4855 4.03212 20.3123 4.85897 20.3123 5.87546V18.8138H20.313Z" fill="#F6F7F8"/>
</svg>
