<svg width="36" height="36" viewBox="0 0 36 36" fill="none" xmlns="http://www.w3.org/2000/svg">
<g clip-path="url(#clip0_509_14882)">
<path d="M18.2695 10C13.8515 10 10.2695 13.582 10.2695 18C10.2695 22.0107 13.2242 25.3227 17.0735 25.9013V20.12H15.0942V18.0173H17.0735V16.618C17.0735 14.3013 18.2022 13.2847 20.1275 13.2847C21.0495 13.2847 21.5375 13.3533 21.7682 13.384V15.2193H20.4549C19.6375 15.2193 19.3522 15.9947 19.3522 16.868V18.0173H21.7475L21.4229 20.12H19.3522V25.918C23.2569 25.3887 26.2695 22.05 26.2695 18C26.2695 13.582 22.6875 10 18.2695 10Z" fill="#D2D2D2"/>
</g>
<rect x="1.29022" y="1.02069" width="33.9586" height="33.9586" rx="16.9793" stroke="#D2D2D2" stroke-width="1.04138"/>
<defs>
<clipPath id="clip0_509_14882">
<rect width="16" height="16" fill="white" transform="translate(10.2695 10)"/>
</clipPath>
</defs>
</svg>
