<svg width="36" height="36" viewBox="0 0 36 36" fill="none" xmlns="http://www.w3.org/2000/svg">
<path d="M26.529 12.8776C25.921 13.1476 25.268 13.3293 24.5825 13.4112C25.2826 12.9919 25.8194 12.3281 26.0722 11.5366C25.4179 11.9247 24.6924 12.2068 23.92 12.3592C23.3019 11.7005 22.4214 11.2888 21.4469 11.2888C19.5755 11.2888 18.0585 12.8064 18.0585 14.6773C18.0585 14.9428 18.089 15.202 18.1461 15.4491C15.3301 15.3081 12.8335 13.9588 11.1615 11.9082C10.8706 12.4088 10.7035 12.9907 10.7035 13.6126C10.7035 14.7878 11.3013 15.8252 12.2103 16.4325C11.6551 16.4147 11.1323 16.2622 10.6756 16.0088C10.6756 16.0234 10.6756 16.0367 10.6756 16.0513C10.6756 17.6934 11.8432 19.0631 13.3938 19.3737C13.1099 19.4512 12.81 19.4925 12.5006 19.4925C12.2828 19.4925 12.0699 19.4709 11.8635 19.4321C12.2948 20.7782 13.5463 21.7584 15.029 21.7858C13.8696 22.6948 12.4085 23.2367 10.8204 23.2367C10.5472 23.2367 10.2773 23.2208 10.0117 23.189C11.5116 24.1502 13.2922 24.7111 15.2062 24.7111C21.4393 24.7111 24.8468 19.5478 24.8468 15.0699C24.8468 14.9231 24.8436 14.777 24.8373 14.6315C25.4998 14.1532 26.0748 13.5567 26.529 12.8776Z" fill="#D2D2D2"/>
<rect x="1.29022" y="1.02069" width="33.9586" height="33.9586" rx="16.9793" stroke="#D2D2D2" stroke-width="1.04138"/>
</svg>
