<svg width="36" height="36" viewBox="0 0 36 36" fill="none" xmlns="http://www.w3.org/2000/svg">
<path d="M26.9256 13.836C26.7119 13.0945 26.0858 12.5099 25.2917 12.3102C23.8411 11.9395 18.0385 11.9395 18.0385 11.9395C18.0385 11.9395 12.2358 11.9395 10.7852 12.296C10.0064 12.4956 9.36506 13.0945 9.15128 13.836C8.76953 15.1907 8.76953 17.9999 8.76953 17.9999C8.76953 17.9999 8.76953 20.8234 9.15128 22.1638C9.36506 22.9054 9.99114 23.49 10.7852 23.6897C12.2511 24.0604 18.0385 24.0604 18.0385 24.0604C18.0385 24.0604 23.8411 24.0604 25.2917 23.7039C26.0858 23.5043 26.7119 22.9196 26.9256 22.1781C27.3074 20.8234 27.3074 18.0142 27.3074 18.0142C27.3074 18.0142 27.3227 15.1907 26.9256 13.836Z" fill="#D2D2D2"/>
<path d="M21.0167 18.0008L16.1914 15.4055V20.5961L21.0167 18.0008Z" fill="#2C3E47"/>
<rect x="1.29022" y="1.02069" width="33.4966" height="33.9586" rx="16.7483" stroke="#D2D2D2" stroke-width="1.04138"/>
</svg>
