<svg width="35" height="35" viewBox="0 0 35 35" fill="none" xmlns="http://www.w3.org/2000/svg">
<path d="M14.1616 9.49316C11.5867 9.49316 9.49219 11.5896 9.49219 14.1652V20.8376C9.49219 23.4125 11.5886 25.507 14.1642 25.507H20.8366C23.4115 25.507 25.506 23.4105 25.506 20.835V14.1626C25.506 11.5877 23.4095 9.49316 20.834 9.49316H14.1616ZM22.1698 12.1621C22.5381 12.1621 22.837 12.4611 22.837 12.8294C22.837 13.1977 22.5381 13.4966 22.1698 13.4966C21.8015 13.4966 21.5025 13.1977 21.5025 12.8294C21.5025 12.4611 21.8015 12.1621 22.1698 12.1621ZM17.4991 13.4966C19.707 13.4966 21.5025 15.2922 21.5025 17.5001C21.5025 19.708 19.707 21.5035 17.4991 21.5035C15.2912 21.5035 13.4956 19.708 13.4956 17.5001C13.4956 15.2922 15.2912 13.4966 17.4991 13.4966ZM17.4991 14.8311C16.7912 14.8311 16.1124 15.1123 15.6118 15.6128C15.1113 16.1133 14.8301 16.7922 14.8301 17.5001C14.8301 18.2079 15.1113 18.8868 15.6118 19.3873C16.1124 19.8878 16.7912 20.169 17.4991 20.169C18.2069 20.169 18.8858 19.8878 19.3863 19.3873C19.8869 18.8868 20.168 18.2079 20.168 17.5001C20.168 16.7922 19.8869 16.1133 19.3863 15.6128C18.8858 15.1123 18.2069 14.8311 17.4991 14.8311Z" fill="#D2D2D2"/>
<rect x="0.52069" y="0.52069" width="33.9586" height="33.9586" rx="16.9793" stroke="#D2D2D2" stroke-width="1.04138"/>
</svg>
