<svg width="36" height="36" viewBox="0 0 36 36" fill="none" xmlns="http://www.w3.org/2000/svg">
<path d="M23.8112 10.8757C24.2311 10.8757 24.6339 11.0425 24.9308 11.3395C25.2277 11.6364 25.3945 12.0391 25.3945 12.4591V23.5424C25.3945 23.9623 25.2277 24.3651 24.9308 24.662C24.6339 24.9589 24.2311 25.1257 23.8112 25.1257H12.7279C12.3079 25.1257 11.9052 24.9589 11.6083 24.662C11.3113 24.3651 11.1445 23.9623 11.1445 23.5424V12.4591C11.1445 12.0391 11.3113 11.6364 11.6083 11.3395C11.9052 11.0425 12.3079 10.8757 12.7279 10.8757H23.8112ZM23.4154 23.1466V18.9507C23.4154 18.2663 23.1435 17.6098 22.6595 17.1258C22.1755 16.6418 21.519 16.3699 20.8345 16.3699C20.1616 16.3699 19.3779 16.7816 18.9979 17.3991V16.5203H16.7891V23.1466H18.9979V19.2436C18.9979 18.6341 19.4887 18.1353 20.0983 18.1353C20.3922 18.1353 20.6741 18.2521 20.882 18.4599C21.0898 18.6678 21.2066 18.9497 21.2066 19.2436V23.1466H23.4154ZM14.2162 15.2774C14.5689 15.2774 14.9072 15.1373 15.1567 14.8879C15.4061 14.6384 15.5462 14.3001 15.5462 13.9474C15.5462 13.2111 14.9524 12.6095 14.2162 12.6095C13.8614 12.6095 13.5211 12.7504 13.2701 13.0013C13.0192 13.2523 12.8783 13.5926 12.8783 13.9474C12.8783 14.6836 13.4799 15.2774 14.2162 15.2774ZM15.3166 23.1466V16.5203H13.1237V23.1466H15.3166Z" fill="#D2D2D2"/>
<rect x="1.29022" y="1.02069" width="33.9586" height="33.9586" rx="16.9793" stroke="#D2D2D2" stroke-width="1.04138"/>
</svg>
