<svg width="35" height="35" viewBox="0 0 35 35" fill="none" xmlns="http://www.w3.org/2000/svg">
<path d="M25.7586 12.3778C25.1507 12.6478 24.4977 12.8295 23.8122 12.9114C24.5123 12.4922 25.0491 11.8283 25.3019 11.0368C24.6476 11.425 23.9221 11.707 23.1496 11.8595C22.5315 11.2007 21.6511 10.7891 20.6766 10.7891C18.8051 10.7891 17.2882 12.3067 17.2882 14.1775C17.2882 14.443 17.3187 14.7022 17.3758 14.9493C14.5597 14.8083 12.0632 13.459 10.3912 11.4084C10.1003 11.909 9.93319 12.4909 9.93319 13.1128C9.93319 14.288 10.531 15.3254 11.44 15.9327C10.8848 15.9149 10.362 15.7625 9.90523 15.509C9.90523 15.5236 9.90523 15.537 9.90523 15.5516C9.90523 17.1937 11.0728 18.5633 12.6235 18.8739C12.3395 18.9514 12.0397 18.9927 11.7303 18.9927C11.5124 18.9927 11.2996 18.9711 11.0932 18.9324C11.5245 20.2785 12.7759 21.2587 14.2586 21.286C13.0993 22.195 11.6382 22.7369 10.0501 22.7369C9.77691 22.7369 9.50693 22.721 9.24139 22.6893C10.7412 23.6504 12.5218 24.2113 14.4359 24.2113C20.669 24.2113 24.0765 19.048 24.0765 14.5701C24.0765 14.4234 24.0733 14.2772 24.067 14.1318C24.7295 13.6534 25.3044 13.0569 25.7586 12.3778Z" fill="#D2D2D2"/>
<rect x="0.52069" y="0.52069" width="33.9586" height="33.9586" rx="16.9793" stroke="#D2D2D2" stroke-width="1.04138"/>
</svg>
