<svg width="35" height="35" viewBox="0 0 35 35" fill="none" xmlns="http://www.w3.org/2000/svg">
<path d="M23.0416 10.376C23.4615 10.376 23.8643 10.5428 24.1612 10.8397C24.4581 11.1367 24.6249 11.5394 24.6249 11.9593V23.0426C24.6249 23.4626 24.4581 23.8653 24.1612 24.1622C23.8643 24.4592 23.4615 24.626 23.0416 24.626H11.9583C11.5383 24.626 11.1356 24.4592 10.8387 24.1622C10.5418 23.8653 10.3749 23.4626 10.3749 23.0426V11.9593C10.3749 11.5394 10.5418 11.1367 10.8387 10.8397C11.1356 10.5428 11.5383 10.376 11.9583 10.376H23.0416ZM22.6458 22.6468V18.451C22.6458 17.7665 22.3739 17.1101 21.8899 16.6261C21.4059 16.1421 20.7494 15.8701 20.0649 15.8701C19.392 15.8701 18.6083 16.2818 18.2283 16.8993V16.0206H16.0195V22.6468H18.2283V18.7439C18.2283 18.1343 18.7191 17.6356 19.3287 17.6356C19.6226 17.6356 19.9045 17.7523 20.1124 17.9602C20.3203 18.168 20.437 18.4499 20.437 18.7439V22.6468H22.6458ZM13.4466 14.7776C13.7993 14.7776 14.1376 14.6375 14.3871 14.3881C14.6365 14.1387 14.7766 13.8004 14.7766 13.4476C14.7766 12.7114 14.1829 12.1097 13.4466 12.1097C13.0918 12.1097 12.7515 12.2507 12.5006 12.5016C12.2496 12.7525 12.1087 13.0928 12.1087 13.4476C12.1087 14.1839 12.7104 14.7776 13.4466 14.7776ZM14.547 22.6468V16.0206H12.3541V22.6468H14.547Z" fill="#D2D2D2"/>
<rect x="0.52069" y="0.52069" width="33.9586" height="33.9586" rx="16.9793" stroke="#D2D2D2" stroke-width="1.04138"/>
</svg>
