<svg width="36" height="36" viewBox="0 0 36 36" fill="none" xmlns="http://www.w3.org/2000/svg">
<path d="M23.8105 10.8757C24.2305 10.8757 24.6332 11.0425 24.9301 11.3395C25.227 11.6364 25.3939 12.0391 25.3939 12.4591V23.5424C25.3939 23.9623 25.227 24.3651 24.9301 24.662C24.6332 24.9589 24.2305 25.1257 23.8105 25.1257H12.7272C12.3073 25.1257 11.9045 24.9589 11.6076 24.662C11.3107 24.3651 11.1439 23.9623 11.1439 23.5424V12.4591C11.1439 12.0391 11.3107 11.6364 11.6076 11.3395C11.9045 11.0425 12.3073 10.8757 12.7272 10.8757H23.8105ZM23.4147 23.1466V18.9507C23.4147 18.2663 23.1428 17.6098 22.6588 17.1258C22.1748 16.6418 21.5183 16.3699 20.8339 16.3699C20.1609 16.3699 19.3772 16.7816 18.9972 17.3991V16.5203H16.7884V23.1466H18.9972V19.2436C18.9972 18.6341 19.488 18.1353 20.0976 18.1353C20.3916 18.1353 20.6735 18.2521 20.8813 18.4599C21.0892 18.6678 21.2059 18.9497 21.2059 19.2436V23.1466H23.4147ZM14.2155 15.2774C14.5683 15.2774 14.9066 15.1373 15.156 14.8879C15.4054 14.6384 15.5455 14.3001 15.5455 13.9474C15.5455 13.2111 14.9518 12.6095 14.2155 12.6095C13.8607 12.6095 13.5204 12.7504 13.2695 13.0013C13.0186 13.2523 12.8776 13.5926 12.8776 13.9474C12.8776 14.6836 13.4793 15.2774 14.2155 15.2774ZM15.3159 23.1466V16.5203H13.123V23.1466H15.3159Z" fill="#D2D2D2"/>
<rect x="1.28961" y="1.02069" width="33.9586" height="33.9586" rx="16.9793" stroke="#D2D2D2" stroke-width="1.04138"/>
</svg>
