<svg width="36" height="36" viewBox="0 0 36 36" fill="none" xmlns="http://www.w3.org/2000/svg">
<path d="M26.527 12.8778C25.9191 13.1478 25.266 13.3295 24.5806 13.4114C25.2806 12.9922 25.8174 12.3283 26.0703 11.5368C25.4159 11.925 24.6905 12.207 23.918 12.3595C23.2999 11.7007 22.4195 11.2891 21.445 11.2891C19.5735 11.2891 18.0565 12.8067 18.0565 14.6775C18.0565 14.943 18.087 15.2022 18.1442 15.4493C15.3281 15.3083 12.8316 13.959 11.1596 11.9084C10.8686 12.409 10.7016 12.9909 10.7016 13.6128C10.7016 14.788 11.2993 15.8254 12.2084 16.4327C11.6532 16.4149 11.1304 16.2625 10.6736 16.009C10.6736 16.0236 10.6736 16.037 10.6736 16.0516C10.6736 17.6937 11.8412 19.0633 13.3919 19.3739C13.1079 19.4514 12.8081 19.4927 12.4987 19.4927C12.2808 19.4927 12.068 19.4711 11.8615 19.4324C12.2929 20.7785 13.5443 21.7587 15.027 21.786C13.8677 22.695 12.4066 23.2369 10.8184 23.2369C10.5453 23.2369 10.2753 23.221 10.0098 23.1893C11.5096 24.1504 13.2902 24.7113 15.2042 24.7113C21.4374 24.7113 24.8449 19.548 24.8449 15.0701C24.8449 14.9234 24.8417 14.7772 24.8353 14.6318C25.4979 14.1534 26.0728 13.5569 26.527 12.8778Z" fill="#D2D2D2"/>
<rect x="1.28924" y="1.02069" width="33.9586" height="33.9586" rx="16.9793" stroke="#D2D2D2" stroke-width="1.04138"/>
</svg>
