<svg width="36" height="36" viewBox="0 0 36 36" fill="none" xmlns="http://www.w3.org/2000/svg">
<path d="M23.8102 10.876C24.2301 10.876 24.6329 11.0428 24.9298 11.3397C25.2267 11.6367 25.3936 12.0394 25.3936 12.4593V23.5426C25.3936 23.9626 25.2267 24.3653 24.9298 24.6622C24.6329 24.9592 24.2301 25.126 23.8102 25.126H12.7269C12.307 25.126 11.9042 24.9592 11.6073 24.6622C11.3104 24.3653 11.1436 23.9626 11.1436 23.5426V12.4593C11.1436 12.0394 11.3104 11.6367 11.6073 11.3397C11.9042 11.0428 12.307 10.876 12.7269 10.876H23.8102ZM23.4144 23.1468V18.951C23.4144 18.2665 23.1425 17.6101 22.6585 17.1261C22.1745 16.6421 21.518 16.3701 20.8336 16.3701C20.1606 16.3701 19.3769 16.7818 18.9969 17.3993V16.5206H16.7881V23.1468H18.9969V19.2439C18.9969 18.6343 19.4877 18.1356 20.0973 18.1356C20.3913 18.1356 20.6732 18.2523 20.881 18.4602C21.0889 18.668 21.2056 18.9499 21.2056 19.2439V23.1468H23.4144ZM14.2152 15.2776C14.568 15.2776 14.9063 15.1375 15.1557 14.8881C15.4051 14.6387 15.5452 14.3004 15.5452 13.9476C15.5452 13.2114 14.9515 12.6097 14.2152 12.6097C13.8604 12.6097 13.5201 12.7507 13.2692 13.0016C13.0183 13.2525 12.8773 13.5928 12.8773 13.9476C12.8773 14.6839 13.479 15.2776 14.2152 15.2776ZM15.3156 23.1468V16.5206H13.1227V23.1468H15.3156Z" fill="#D2D2D2"/>
<rect x="1.28924" y="1.02069" width="33.9586" height="33.9586" rx="16.9793" stroke="#D2D2D2" stroke-width="1.04138"/>
</svg>
