<svg width="58" height="58" viewBox="0 0 58 58" fill="none" xmlns="http://www.w3.org/2000/svg">
<g clip-path="url(#clip0_185_1372)">
<path d="M34.3683 19.8307L33.9767 23.3101C33.9538 23.5234 34.029 23.7355 34.1812 23.8868C34.3321 24.0446 34.5495 24.1207 34.766 24.0912L38.2526 23.6945C38.3221 23.6863 38.3825 23.6536 38.4489 23.6393L34.4214 19.6118C34.3994 19.6837 34.3817 19.7567 34.3683 19.8307Z" fill="white"/>
<path d="M35.6565 17.9649L46.7959 6.82542L51.2684 11.2978L40.1289 22.4373L35.6565 17.9649Z" fill="white"/>
<path d="M48.2362 5.3667L49.7513 3.85159L54.2215 8.32182L52.7064 9.83693L48.2362 5.3667Z" fill="white"/>
<path d="M57.1722 5.37424C57.3762 5.17738 57.4917 4.90623 57.4922 4.62277C57.4926 4.3349 57.3773 4.05896 57.1722 3.85693L54.2203 0.904032C54.0191 0.698813 53.7439 0.583196 53.4565 0.583008C53.175 0.584041 52.9056 0.69825 52.7091 0.899994L51.2041 2.40199L55.6742 6.8721L57.1722 5.37424Z" fill="white"/>
<path d="M6.37004 43.5259H8.4149C8.97956 43.5259 9.43734 43.0681 9.43734 42.5035V1.60544C9.43743 1.04078 8.97965 0.583008 8.4149 0.583008H6.37004C2.98331 0.586389 0.238733 3.33097 0.235352 6.71769V46.3008C1.78581 44.5364 4.02115 43.5253 6.37004 43.5259Z" fill="white"/>
<path d="M6.66655 57.8404H56.4701C57.0348 57.8404 57.4926 57.3826 57.4926 56.8179V15.9199C57.4926 15.3552 57.0348 14.8975 56.4701 14.8975H50.5399L40.8327 24.6107C40.1956 25.2356 39.3678 25.6296 38.4811 25.7303C35.0304 26.1178 34.9987 26.1444 34.7001 26.1444H19.6619V37.3913H44.2008V32.2791C44.2008 31.7144 44.6586 31.2567 45.2232 31.2567C45.7879 31.2567 46.2456 31.7144 46.2456 32.2791V47.6159C46.2456 48.7453 45.3301 49.6607 44.2008 49.6607H23.7517C23.187 49.6607 22.7292 49.2029 22.7292 48.6383C22.7292 48.0736 23.187 47.6159 23.7517 47.6159H30.9088V39.4362H19.6619V53.7505C19.6619 54.3152 19.2042 54.773 18.6395 54.773C18.0748 54.773 17.6171 54.3152 17.6171 53.7505V26.1444H14.5497C13.985 26.1444 13.5273 25.6866 13.5273 25.122C13.5273 24.5573 13.985 24.0995 14.5497 24.0995H32.0428C31.9481 23.7717 31.9158 23.429 31.9478 23.0893L32.3353 19.6058C32.435 18.7004 32.8446 17.8574 33.4947 17.2195L35.8168 14.8975H11.4823V42.5036C11.4823 44.1977 10.109 45.571 8.4149 45.571H6.37004C2.98331 45.5744 0.238733 48.319 0.235352 51.7057V51.9306C0.463581 55.2987 3.29119 57.8971 6.66655 57.8404Z" fill="white"/>
<path d="M32.9541 39.4363H44.201V47.6159H32.9541V39.4363Z" fill="white"/>
</g>
<defs>
<clipPath id="clip0_185_1372">
<rect width="57.2582" height="57.2582" fill="white" transform="translate(0.234375 0.583008)"/>
</clipPath>
</defs>
</svg>
