<svg width="42" height="43" viewBox="0 0 42 43" fill="none" xmlns="http://www.w3.org/2000/svg">
<g clip-path="url(#clip0_244_6015)">
<path d="M25.1923 14.6832L24.9089 17.2008C24.8924 17.3552 24.9468 17.5087 25.0569 17.6181C25.1661 17.7323 25.3234 17.7874 25.4801 17.766L28.0028 17.479C28.0531 17.4731 28.0968 17.4494 28.1448 17.439L25.2307 14.5249C25.2148 14.5769 25.202 14.6298 25.1923 14.6832Z" fill="white"/>
<path d="M26.1243 13.3335L34.1844 5.27341L37.4204 8.50948L29.3603 16.5696L26.1243 13.3335Z" fill="white"/>
<path d="M35.2264 4.21777L36.3227 3.1215L39.5572 6.35599L38.4609 7.45226L35.2264 4.21777Z" fill="white"/>
<path d="M41.692 4.2231C41.8397 4.08066 41.9232 3.88447 41.9236 3.67937C41.9239 3.47108 41.8405 3.27141 41.692 3.12524L39.5562 0.988629C39.4106 0.84014 39.2115 0.756484 39.0036 0.756348C38.7998 0.757095 38.6049 0.839732 38.4627 0.985707L37.3738 2.0725L40.6082 5.3069L41.692 4.2231Z" fill="white"/>
<path d="M4.9337 31.8282H6.41329C6.82185 31.8282 7.15308 31.497 7.15308 31.0884V1.49614C7.15315 1.08758 6.82192 0.756348 6.41329 0.756348H4.9337C2.4832 0.758794 0.49732 2.74467 0.494873 5.19518V33.836C1.61673 32.5594 3.23413 31.8277 4.9337 31.8282Z" fill="white"/>
<path d="M5.14825 42.1861H41.1843C41.5928 42.1861 41.9241 41.8549 41.9241 41.4463V11.8541C41.9241 11.4455 41.5928 11.1143 41.1843 11.1143H36.8934L29.8696 18.1424C29.4086 18.5946 28.8097 18.8796 28.1681 18.9525C25.6712 19.2329 25.6483 19.2521 25.4323 19.2521H14.5512V27.39H32.3066V23.691C32.3066 23.2824 32.6378 22.9512 33.0464 22.9512C33.455 22.9512 33.7862 23.2824 33.7862 23.691V34.7881C33.7862 35.6053 33.1237 36.2676 32.3066 36.2676H17.5104C17.1018 36.2676 16.7706 35.9364 16.7706 35.5279C16.7706 35.1193 17.1018 34.7881 17.5104 34.7881H22.689V28.8696H14.5512V39.2269C14.5512 39.6355 14.22 39.9667 13.8114 39.9667C13.4029 39.9667 13.0716 39.6355 13.0716 39.2269V19.2521H10.8522C10.4436 19.2521 10.1124 18.9209 10.1124 18.5123C10.1124 18.1038 10.4436 17.7725 10.8522 17.7725H23.5095C23.441 17.5354 23.4177 17.2874 23.4408 17.0416L23.7212 14.5211C23.7933 13.866 24.0897 13.256 24.5601 12.7944L26.2402 11.1143H8.63274V31.089C8.63274 32.3148 7.63905 33.3085 6.41329 33.3085H4.9337C2.4832 33.3109 0.49732 35.2968 0.494873 37.7473V37.9101C0.660012 40.3471 2.70596 42.2272 5.14825 42.1861Z" fill="white"/>
<path d="M24.1688 28.8691H32.3067V34.7876H24.1688V28.8691Z" fill="white"/>
</g>
<defs>
<clipPath id="clip0_244_6015">
<rect width="41.4299" height="41.4299" fill="white" transform="translate(0.494141 0.756348)"/>
</clipPath>
</defs>
</svg>
