<svg width="49" height="50" viewBox="0 0 49 50" fill="none" xmlns="http://www.w3.org/2000/svg">
<g clip-path="url(#clip0_244_6044)">
<path d="M38.657 23.5093C38.8525 18.4057 37.0392 13.1929 33.0303 9.1841C29.124 5.27775 24.8226 4.35069 24.5691 4.24108L24.5617 4.2425C14.5672 1.48043 7.66892 7.58922 7.5385 7.6473C-1.59883 14.8222 -2.30525 28.2968 5.80625 36.4082C6.64737 37.2494 7.54515 37.9941 8.486 38.6451V38.244C8.486 33.9238 11.0051 30.1812 14.6514 28.4069C13.0619 27.0545 12.0509 25.0418 12.0509 22.7962C12.0509 18.7337 15.3559 15.4287 19.4183 15.4287C23.4806 15.4287 26.7858 18.7337 26.7858 22.7962C26.7858 25.0417 25.7746 27.0546 24.1852 28.4069C25.3135 28.9558 26.3335 29.6937 27.2047 30.5785C29.3181 26.3923 33.6573 23.5137 38.657 23.5093Z" fill="white"/>
<path d="M26.1065 33.7141C24.6515 31.573 22.1968 30.1636 19.4187 30.1636C14.963 30.1636 11.3381 33.7884 11.3381 38.244V40.2758C16.1779 42.512 21.7251 42.6078 26.5847 40.6642C26.1001 39.3132 25.8353 37.8583 25.8353 36.3427C25.8353 35.4421 25.9291 34.5629 26.1065 33.7141Z" fill="white"/>
<path d="M19.4186 27.3118C21.9125 27.3118 23.9341 25.2901 23.9341 22.7963C23.9341 20.3024 21.9125 18.2808 19.4186 18.2808C16.9247 18.2808 14.9031 20.3024 14.9031 22.7963C14.9031 25.2901 16.9247 27.3118 19.4186 27.3118Z" fill="white"/>
<path d="M38.6683 26.3613C33.1556 26.3613 28.6866 30.8303 28.6866 36.343C28.6866 41.8557 33.1556 46.3247 38.6683 46.3247C44.181 46.3247 48.65 41.8557 48.65 36.343C48.65 30.8303 44.1811 26.3613 38.6683 26.3613ZM37.66 40.3762L33.6268 36.3429L35.6434 34.3263L37.66 36.343L41.6933 32.3097L43.7098 34.3263L37.66 40.3762Z" fill="white"/>
</g>
<defs>
<clipPath id="clip0_244_6044">
<rect width="48.4787" height="48.4787" fill="white" transform="translate(0.171875 0.686035)"/>
</clipPath>
</defs>
</svg>
