<svg width="68" height="68" viewBox="0 0 68 68" fill="none" xmlns="http://www.w3.org/2000/svg">
<g clip-path="url(#clip0_185_1402)">
<path d="M53.8314 31.6594C54.1015 24.606 51.5955 17.4017 46.055 11.8613C40.6563 6.46253 34.7115 5.18128 34.3611 5.0298L34.351 5.03177C20.5381 1.21444 11.0043 9.6571 10.824 9.73738C-1.80422 19.6535 -2.78053 38.276 8.42998 49.4863C9.59245 50.6489 10.8332 51.6782 12.1335 52.5779V52.0236C12.1335 46.0528 15.615 40.8804 20.6544 38.4282C18.4576 36.5591 17.0604 33.7774 17.0604 30.6739C17.0604 25.0594 21.628 20.4917 27.2426 20.4917C32.8568 20.4917 37.4247 25.0594 37.4247 30.6739C37.4247 33.7773 36.0272 36.5592 33.8306 38.4282C35.39 39.1868 36.7997 40.2066 38.0037 41.4294C40.9245 35.644 46.9216 31.6656 53.8314 31.6594Z" fill="white"/>
<path d="M36.486 45.7631C34.4752 42.8039 31.0826 40.8561 27.2432 40.8561C21.0852 40.8561 16.0754 45.8658 16.0754 52.0236V54.8316C22.7643 57.9222 30.4307 58.0546 37.147 55.3685C36.4772 53.5013 36.1113 51.4906 36.1113 49.3959C36.1113 48.1512 36.2409 46.9362 36.486 45.7631Z" fill="white"/>
<path d="M27.2429 36.9146C30.6895 36.9146 33.4836 34.1205 33.4836 30.6739C33.4836 27.2273 30.6895 24.4332 27.2429 24.4332C23.7962 24.4332 21.0022 27.2273 21.0022 30.6739C21.0022 34.1205 23.7962 36.9146 27.2429 36.9146Z" fill="white"/>
<path d="M53.8472 35.6008C46.2283 35.6008 40.052 41.7771 40.052 49.396C40.052 57.0148 46.2283 63.1912 53.8472 63.1912C61.466 63.1912 67.6424 57.0148 67.6424 49.396C67.6424 41.7771 61.4661 35.6008 53.8472 35.6008ZM52.4536 54.9701L46.8796 49.3959L49.6666 46.6089L52.4536 49.396L58.0278 43.8218L60.8148 46.6089L52.4536 54.9701Z" fill="white"/>
</g>
<defs>
<clipPath id="clip0_185_1402">
<rect width="67" height="67" fill="white" transform="translate(0.642822 0.116211)"/>
</clipPath>
</defs>
</svg>
