<svg width="43" height="44" viewBox="0 0 43 44" fill="none" xmlns="http://www.w3.org/2000/svg">
<g clip-path="url(#clip0_244_6057)">
<path d="M36.3408 4.63428H27.4079C26.5327 2.15822 24.1847 0.365234 21.3992 0.365234C18.6136 0.365234 16.2656 2.15822 15.3906 4.63428H6.45765C4.09905 4.63428 2.1886 6.54463 2.1886 8.90333V38.7864C2.1886 41.145 4.09895 43.0554 6.45765 43.0554H36.3408C38.6994 43.0554 40.6098 41.1451 40.6098 38.7864V8.90323C40.6097 6.54463 38.6994 4.63428 36.3408 4.63428ZM21.3992 4.63428C22.5731 4.63428 23.5336 5.58411 23.5336 6.76876C23.5336 7.95341 22.5731 8.90323 21.3992 8.90323C20.2252 8.90323 19.2647 7.95341 19.2647 6.76876C19.2647 5.58411 20.2252 4.63428 21.3992 4.63428ZM17.1302 34.5173L8.59212 25.9793L11.6125 22.959L17.1302 28.4767L31.1859 14.421L34.2063 17.4413L17.1302 34.5173Z" fill="white"/>
</g>
<defs>
<clipPath id="clip0_244_6057">
<rect width="42.6902" height="42.6902" fill="white" transform="translate(0.0539551 0.365234)"/>
</clipPath>
</defs>
</svg>
