<svg width="60" height="60" viewBox="0 0 60 60" fill="none" xmlns="http://www.w3.org/2000/svg">
<g clip-path="url(#clip0_185_1416)">
<path d="M50.776 6.48329H38.4302C37.2207 3.06125 33.9757 0.583252 30.1259 0.583252C26.2762 0.583252 23.0311 3.06125 21.8217 6.48329H9.47597C6.21627 6.48329 3.57593 9.1235 3.57593 12.3833V53.6832C3.57593 56.9429 6.21613 59.5833 9.47597 59.5833H50.776C54.0357 59.5833 56.676 56.9431 56.676 53.6832V12.3832C56.6759 9.1235 54.0357 6.48329 50.776 6.48329ZM30.1259 6.48329C31.7484 6.48329 33.0759 7.796 33.0759 9.43325C33.0759 11.0705 31.7484 12.3832 30.1259 12.3832C28.5035 12.3832 27.176 11.0705 27.176 9.43325C27.176 7.796 28.5035 6.48329 30.1259 6.48329ZM24.226 47.7832L12.4259 35.9832L16.6002 31.8089L24.226 39.4347L43.6517 20.009L47.826 24.1833L24.226 47.7832Z" fill="white"/>
</g>
<defs>
<clipPath id="clip0_185_1416">
<rect width="59" height="59" fill="white" transform="translate(0.625977 0.583252)"/>
</clipPath>
</defs>
</svg>
