<svg width="65" height="65" viewBox="0 0 65 65" fill="none" xmlns="http://www.w3.org/2000/svg">
<g clip-path="url(#clip0_185_1391)">
<path d="M17.2167 49.1162C21.3588 49.1162 24.7167 45.7583 24.7167 41.6162C24.7167 37.4741 21.3588 34.1162 17.2167 34.1162C13.0745 34.1162 9.71667 37.4741 9.71667 41.6162C9.71667 45.7583 13.0745 49.1162 17.2167 49.1162Z" fill="white"/>
<path d="M4.09167 62.2412C4.09167 63.2776 4.9303 64.1162 5.96667 64.1162H28.4667C29.503 64.1162 30.3417 63.2776 30.3417 62.2412C30.3417 55.0048 24.453 49.1162 17.2167 49.1162C9.9803 49.1162 4.09167 55.0048 4.09167 62.2412Z" fill="white"/>
<path d="M47.2167 49.1162C51.3588 49.1162 54.7167 45.7583 54.7167 41.6162C54.7167 37.4741 51.3588 34.1162 47.2167 34.1162C43.0745 34.1162 39.7167 37.4741 39.7167 41.6162C39.7167 45.7583 43.0745 49.1162 47.2167 49.1162Z" fill="white"/>
<path d="M34.0917 62.2412C34.0917 63.2776 34.9303 64.1162 35.9667 64.1162H58.4667C59.503 64.1162 60.3417 63.2776 60.3417 62.2412C60.3417 55.0048 54.453 49.1162 47.2167 49.1162C39.9803 49.1162 34.0917 55.0048 34.0917 62.2412Z" fill="white"/>
<path d="M58.5917 0.116211H5.84167C2.73992 0.116211 0.216675 2.63946 0.216675 5.74121V20.7412C0.216675 23.843 2.73992 26.3662 5.84167 26.3662H12.5653L15.7659 29.5668C16.4983 30.2992 17.6849 30.2992 18.4173 29.5668L21.618 26.3662H42.8153L46.0159 29.5668C46.7483 30.2992 47.9348 30.2993 48.6673 29.5668L51.868 26.3662H58.5917C61.6934 26.3662 64.2167 23.843 64.2167 20.7412V5.74121C64.2167 2.63946 61.6934 0.116211 58.5917 0.116211ZM24.5917 18.8662H9.59167C8.5553 18.8662 7.71667 18.0276 7.71667 16.9912C7.71667 15.9548 8.5553 15.1162 9.59167 15.1162H24.5917C25.628 15.1162 26.4667 15.9548 26.4667 16.9912C26.4667 18.0276 25.628 18.8662 24.5917 18.8662ZM24.5917 11.3662H9.59167C8.5553 11.3662 7.71667 10.5276 7.71667 9.49121C7.71667 8.45484 8.5553 7.61621 9.59167 7.61621H24.5917C25.628 7.61621 26.4667 8.45484 26.4667 9.49121C26.4667 10.5276 25.628 11.3662 24.5917 11.3662ZM54.8417 18.8662H39.8417C38.8053 18.8662 37.9667 18.0276 37.9667 16.9912C37.9667 15.9548 38.8053 15.1162 39.8417 15.1162H54.8417C55.8781 15.1162 56.7167 15.9548 56.7167 16.9912C56.7167 18.0276 55.8781 18.8662 54.8417 18.8662ZM54.8417 11.3662H39.8417C38.8053 11.3662 37.9667 10.5276 37.9667 9.49121C37.9667 8.45484 38.8053 7.61621 39.8417 7.61621H54.8417C55.8781 7.61621 56.7167 8.45484 56.7167 9.49121C56.7167 10.5276 55.8781 11.3662 54.8417 11.3662Z" fill="white"/>
</g>
<defs>
<clipPath id="clip0_185_1391">
<rect width="64" height="64" fill="white" transform="translate(0.216675 0.116211)"/>
</clipPath>
</defs>
</svg>
