<svg width="47" height="47" viewBox="0 0 47 47" fill="none" xmlns="http://www.w3.org/2000/svg">
<g clip-path="url(#clip0_244_6033)">
<path d="M12.6113 35.9784C15.6084 35.9784 18.038 33.5488 18.038 30.5517C18.038 27.5546 15.6084 25.125 12.6113 25.125C9.61419 25.125 7.18457 27.5546 7.18457 30.5517C7.18457 33.5488 9.61419 35.9784 12.6113 35.9784Z" fill="white"/>
<path d="M3.1145 45.4753C3.1145 46.2252 3.7213 46.832 4.47118 46.832H20.7513C21.5012 46.832 22.108 46.2252 22.108 45.4753C22.108 40.2393 17.8472 35.9785 12.6113 35.9785C7.37529 35.9785 3.1145 40.2393 3.1145 45.4753Z" fill="white"/>
<path d="M34.3183 35.9784C37.3154 35.9784 39.745 33.5488 39.745 30.5517C39.745 27.5546 37.3154 25.125 34.3183 25.125C31.3212 25.125 28.8916 27.5546 28.8916 30.5517C28.8916 33.5488 31.3212 35.9784 34.3183 35.9784Z" fill="white"/>
<path d="M24.8215 45.4753C24.8215 46.2252 25.4283 46.832 26.1782 46.832H42.4584C43.2083 46.832 43.815 46.2252 43.815 45.4753C43.815 40.2393 39.5543 35.9785 34.3183 35.9785C29.0823 35.9785 24.8215 40.2393 24.8215 45.4753Z" fill="white"/>
<path d="M42.5489 0.524414H4.38095C2.13664 0.524414 0.310913 2.35014 0.310913 4.59445V15.4479C0.310913 17.6922 2.13664 19.5179 4.38095 19.5179H9.24591L11.5618 21.8338C12.0917 22.3637 12.9503 22.3637 13.4802 21.8338L15.7961 19.5179H31.1337L33.4495 21.8338C33.9795 22.3637 34.838 22.3638 35.368 21.8338L37.6839 19.5179H42.5489C44.7932 19.5179 46.6189 17.6922 46.6189 15.4479V4.59445C46.6189 2.35014 44.7932 0.524414 42.5489 0.524414ZM17.9477 14.0912H7.09431C6.34443 14.0912 5.73763 13.4844 5.73763 12.7345C5.73763 11.9846 6.34443 11.3779 7.09431 11.3779H17.9477C18.6976 11.3779 19.3044 11.9846 19.3044 12.7345C19.3044 13.4844 18.6976 14.0912 17.9477 14.0912ZM17.9477 8.66449H7.09431C6.34443 8.66449 5.73763 8.05769 5.73763 7.30781C5.73763 6.55793 6.34443 5.95113 7.09431 5.95113H17.9477C18.6976 5.95113 19.3044 6.55793 19.3044 7.30781C19.3044 8.05769 18.6976 8.66449 17.9477 8.66449ZM39.8355 14.0912H28.9821C28.2322 14.0912 27.6254 13.4844 27.6254 12.7345C27.6254 11.9846 28.2322 11.3779 28.9821 11.3779H39.8355C40.5854 11.3779 41.1922 11.9846 41.1922 12.7345C41.1922 13.4844 40.5854 14.0912 39.8355 14.0912ZM39.8355 8.66449H28.9821C28.2322 8.66449 27.6254 8.05769 27.6254 7.30781C27.6254 6.55793 28.2322 5.95113 28.9821 5.95113H39.8355C40.5854 5.95113 41.1922 6.55793 41.1922 7.30781C41.1922 8.05769 40.5854 8.66449 39.8355 8.66449Z" fill="white"/>
</g>
<defs>
<clipPath id="clip0_244_6033">
<rect width="46.308" height="46.308" fill="white" transform="translate(0.310913 0.524414)"/>
</clipPath>
</defs>
</svg>
