<svg width="53" height="54" viewBox="0 0 53 54" fill="none" xmlns="http://www.w3.org/2000/svg">
<g clip-path="url(#clip0_185_1427)">
<path d="M45.254 8.04235C40.2712 3.05953 33.6461 0.31543 26.5994 0.31543C19.5526 0.31543 12.9275 3.05953 7.94469 8.04235C2.96187 13.0252 0.217773 19.6503 0.217773 26.697C0.217773 33.7438 2.96197 40.3688 7.94469 45.3517C12.9274 50.3346 19.5526 53.0786 26.5994 53.0786C33.6461 53.0786 40.2712 50.3345 45.254 45.3517C50.2369 40.3689 52.981 33.7438 52.981 26.697C52.981 19.6503 50.2368 13.0253 45.254 8.04235ZM26.5994 25.0482C30.6907 25.0482 34.0192 28.3767 34.0192 32.468C34.0192 35.8561 31.7358 38.7191 28.6277 39.6037C28.4043 39.6673 28.2482 39.8681 28.2482 40.1003V41.4901C28.2482 42.378 27.5659 43.1419 26.679 43.1837C25.7321 43.2282 24.9505 42.4737 24.9505 41.5367V40.1C24.9505 39.8684 24.7953 39.6675 24.5726 39.6041C21.4777 38.724 19.2003 35.8826 19.1796 32.5141C19.1742 31.6149 19.8811 30.8456 20.78 30.8199C21.7127 30.7931 22.4772 31.5412 22.4772 32.468C22.4772 34.8384 24.4885 36.748 26.894 36.5798C28.9246 36.4379 30.5694 34.793 30.7112 32.7624C30.8792 30.3568 28.9697 28.3459 26.5994 28.3459C22.5081 28.3459 19.1795 25.0174 19.1795 20.926C19.1795 17.538 21.4629 14.675 24.5711 13.7903C24.7944 13.7268 24.9505 13.5259 24.9505 13.2937V11.904C24.9505 11.0161 25.6328 10.2521 26.5197 10.2104C27.4667 10.1659 28.2482 10.9203 28.2482 11.8574V13.294C28.2482 13.5256 28.4034 13.7266 28.6261 13.7899C31.721 14.67 33.9985 17.5115 34.0191 20.88C34.0245 21.7791 33.3176 22.5484 32.4188 22.5742C31.486 22.601 30.7215 21.8528 30.7215 20.926C30.7215 18.5556 28.7102 16.646 26.3047 16.8142C24.2742 16.9561 22.6293 18.6011 22.4875 20.6316C22.3196 23.0372 24.229 25.0482 26.5994 25.0482Z" fill="white"/>
</g>
<defs>
<clipPath id="clip0_185_1427">
<rect width="52.7632" height="52.7632" fill="white" transform="translate(0.217773 0.31543)"/>
</clipPath>
</defs>
</svg>
