<svg width="40" height="40" viewBox="0 0 40 40" fill="none" xmlns="http://www.w3.org/2000/svg">
<g clip-path="url(#clip0_244_6067)">
<path d="M33.5157 6.48593C29.9104 2.88055 25.1167 0.89502 20.0179 0.89502C14.9191 0.89502 10.1255 2.88055 6.52011 6.48593C2.91473 10.0913 0.929199 14.885 0.929199 19.9837C0.929199 25.0825 2.9148 29.8761 6.52011 33.4816C10.1254 37.087 14.9191 39.0725 20.0179 39.0725C25.1167 39.0725 29.9104 37.0869 33.5157 33.4816C37.1211 29.8762 39.1067 25.0825 39.1067 19.9837C39.1067 14.885 37.1211 10.0914 33.5157 6.48593ZM20.0179 18.7907C22.9782 18.7907 25.3866 21.1991 25.3866 24.1594C25.3866 26.6109 23.7345 28.6825 21.4855 29.3225C21.3239 29.3685 21.211 29.5139 21.211 29.6819V30.6875C21.211 31.3299 20.7173 31.8827 20.0756 31.9129C19.3904 31.9451 18.8249 31.3992 18.8249 30.7212V29.6816C18.8249 29.5141 18.7126 29.3687 18.5515 29.3228C16.3121 28.686 14.6642 26.6301 14.6493 24.1927C14.6453 23.5422 15.1569 22.9855 15.8072 22.9669C16.4821 22.9475 17.0353 23.4888 17.0353 24.1594C17.0353 25.8746 18.4906 27.2563 20.2311 27.1346C21.7003 27.0319 22.8905 25.8417 22.9931 24.3724C23.1146 22.6319 21.733 21.1768 20.0179 21.1768C17.0576 21.1768 14.6492 18.7684 14.6492 15.8081C14.6492 13.3566 16.3014 11.285 18.5503 10.645C18.7119 10.599 18.8249 10.4536 18.8249 10.2856V9.28004C18.8249 8.63759 19.3186 8.08483 19.9603 8.05463C20.6455 8.02242 21.211 8.56832 21.211 9.24634V10.2859C21.211 10.4534 21.3233 10.5988 21.4844 10.6447C23.7237 11.2815 25.3716 13.3374 25.3866 15.7748C25.3905 16.4253 24.879 16.982 24.2286 17.0006C23.5537 17.02 23.0005 16.4787 23.0005 15.8081C23.0005 14.0929 21.5452 12.7112 19.8047 12.8329C18.3355 12.9356 17.1454 14.1258 17.0428 15.5951C16.9212 17.3356 18.3028 18.7907 20.0179 18.7907Z" fill="white"/>
</g>
<defs>
<clipPath id="clip0_244_6067">
<rect width="38.1775" height="38.1775" fill="white" transform="translate(0.929199 0.89502)"/>
</clipPath>
</defs>
</svg>
