<svg width="36" height="36" viewBox="0 0 36 36" fill="none" xmlns="http://www.w3.org/2000/svg">
<path d="M14.9316 9.99316C12.3567 9.99316 10.2622 12.0896 10.2622 14.6652V21.3376C10.2622 23.9125 12.3586 26.007 14.9342 26.007H21.6066C24.1815 26.007 26.276 23.9105 26.276 21.335V14.6626C26.276 12.0877 24.1796 9.99316 21.604 9.99316H14.9316ZM22.9398 12.6621C23.3081 12.6621 23.607 12.9611 23.607 13.3294C23.607 13.6977 23.3081 13.9966 22.9398 13.9966C22.5715 13.9966 22.2726 13.6977 22.2726 13.3294C22.2726 12.9611 22.5715 12.6621 22.9398 12.6621ZM18.2691 13.9966C20.477 13.9966 22.2726 15.7922 22.2726 18.0001C22.2726 20.208 20.477 22.0035 18.2691 22.0035C16.0612 22.0035 14.2657 20.208 14.2657 18.0001C14.2657 15.7922 16.0612 13.9966 18.2691 13.9966ZM18.2691 15.3311C17.5613 15.3311 16.8824 15.6123 16.3819 16.1128C15.8813 16.6133 15.6001 17.2922 15.6001 18.0001C15.6001 18.7079 15.8813 19.3868 16.3819 19.8873C16.8824 20.3878 17.5613 20.669 18.2691 20.669C18.977 20.669 19.6558 20.3878 20.1563 19.8873C20.6569 19.3868 20.9381 18.7079 20.9381 18.0001C20.9381 17.2922 20.6569 16.6133 20.1563 16.1128C19.6558 15.6123 18.977 15.3311 18.2691 15.3311Z" fill="#D2D2D2"/>
<rect x="1.28973" y="1.02069" width="33.9586" height="33.9586" rx="16.9793" stroke="#D2D2D2" stroke-width="1.04138"/>
</svg>
