<svg width="35" height="35" viewBox="0 0 35 35" fill="none" xmlns="http://www.w3.org/2000/svg">
<path d="M14.1626 9.49316C11.5877 9.49316 9.49316 11.5896 9.49316 14.1652V20.8376C9.49316 23.4125 11.5896 25.507 14.1652 25.507H20.8376C23.4125 25.507 25.507 23.4105 25.507 20.835V14.1626C25.507 11.5877 23.4105 9.49316 20.835 9.49316H14.1626ZM22.1708 12.1621C22.5391 12.1621 22.838 12.4611 22.838 12.8294C22.838 13.1977 22.5391 13.4966 22.1708 13.4966C21.8024 13.4966 21.5035 13.1977 21.5035 12.8294C21.5035 12.4611 21.8024 12.1621 22.1708 12.1621ZM17.5001 13.4966C19.708 13.4966 21.5035 15.2922 21.5035 17.5001C21.5035 19.708 19.708 21.5035 17.5001 21.5035C15.2922 21.5035 13.4966 19.708 13.4966 17.5001C13.4966 15.2922 15.2922 13.4966 17.5001 13.4966ZM17.5001 14.8311C16.7922 14.8311 16.1133 15.1123 15.6128 15.6128C15.1123 16.1133 14.8311 16.7922 14.8311 17.5001C14.8311 18.2079 15.1123 18.8868 15.6128 19.3873C16.1133 19.8878 16.7922 20.169 17.5001 20.169C18.2079 20.169 18.8868 19.8878 19.3873 19.3873C19.8878 18.8868 20.169 18.2079 20.169 17.5001C20.169 16.7922 19.8878 16.1133 19.3873 15.6128C18.8868 15.1123 18.2079 14.8311 17.5001 14.8311Z" fill="#D2D2D2"/>
<rect x="0.52069" y="0.52069" width="33.9586" height="33.9586" rx="16.9793" stroke="#D2D2D2" stroke-width="1.04138"/>
</svg>
