<svg width="46" height="46" viewBox="0 0 46 46" fill="none" xmlns="http://www.w3.org/2000/svg">
<g clip-path="url(#clip0_244_6005)">
<path d="M28.5692 12.5619C27.5202 12.5619 26.6689 11.7106 26.6689 10.6617V7.81127H19.0679V10.6617C19.0679 11.7106 18.2165 12.5619 17.1676 12.5619C16.1187 12.5619 15.2673 11.7106 15.2673 10.6617V7.81127C15.2673 5.71528 16.9719 4.01074 19.0679 4.01074H26.6689C28.7649 4.01074 30.4694 5.71528 30.4694 7.81127V10.6617C30.4694 11.7106 29.6181 12.5619 28.5692 12.5619Z" fill="white"/>
<path d="M24.2178 29.4365C23.8757 29.5695 23.3816 29.6645 22.8686 29.6645C22.3555 29.6645 21.8614 29.5695 21.4054 29.3985L0.0654297 22.2915V36.7905C0.0654297 39.6789 2.40275 42.0162 5.29115 42.0162H40.446C43.3344 42.0162 45.6717 39.6789 45.6717 36.7905V22.2915L24.2178 29.4365Z" fill="white"/>
<path d="M45.6717 14.9371V19.2887L23.3246 26.7378C23.1726 26.7948 23.0206 26.8138 22.8686 26.8138C22.7166 26.8138 22.5645 26.7948 22.4125 26.7378L0.0654297 19.2887V14.9371C0.0654297 12.0487 2.40275 9.71143 5.29115 9.71143H40.446C43.3344 9.71143 45.6717 12.0487 45.6717 14.9371Z" fill="white"/>
</g>
<defs>
<clipPath id="clip0_244_6005">
<rect width="45.6063" height="45.6063" fill="white" transform="translate(0.0654297 0.210449)"/>
</clipPath>
</defs>
</svg>
