<svg width="64" height="64" viewBox="0 0 64 64" fill="none" xmlns="http://www.w3.org/2000/svg">
<g clip-path="url(#clip0_185_1361)">
<path d="M40.2715 17.1498C38.8218 17.1498 37.6452 15.9733 37.6452 14.5236V10.5842H27.1402V14.5236C27.1402 15.9733 25.9636 17.1498 24.514 17.1498C23.0643 17.1498 21.8877 15.9733 21.8877 14.5236V10.5842C21.8877 7.68742 24.2434 5.33167 27.1402 5.33167H37.6452C40.542 5.33167 42.8978 7.68742 42.8978 10.5842V14.5236C42.8978 15.9733 41.7212 17.1498 40.2715 17.1498Z" fill="white"/>
<path d="M34.2577 40.471C33.785 40.6548 33.1021 40.7861 32.393 40.7861C31.6839 40.7861 31.0011 40.6548 30.3708 40.4185L0.87793 30.5963V50.6346C0.87793 54.6265 4.10823 57.8568 8.10014 57.8568H56.6859C60.6778 57.8568 63.9081 54.6265 63.9081 50.6346V30.5963L34.2577 40.471Z" fill="white"/>
<path d="M63.9081 20.4327V26.4468L33.0233 36.7417C32.8132 36.8205 32.6031 36.8468 32.393 36.8468C32.1829 36.8468 31.9728 36.8205 31.7627 36.7417L0.87793 26.4468V20.4327C0.87793 16.4407 4.10823 13.2104 8.10014 13.2104H56.6859C60.6778 13.2104 63.9081 16.4407 63.9081 20.4327Z" fill="white"/>
</g>
<defs>
<clipPath id="clip0_185_1361">
<rect width="63.0302" height="63.0302" fill="white" transform="translate(0.87793 0.0791016)"/>
</clipPath>
</defs>
</svg>
