<svg width="599" height="110" viewBox="0 0 599 110" fill="none" xmlns="http://www.w3.org/2000/svg">
<path d="M10.408 32V19.808L0.952 0.511999H5.224L9.304 9.392C9.816 10.544 10.312 11.68 10.792 12.8C11.304 13.92 11.816 15.072 12.328 16.256H12.52C13.064 15.072 13.608 13.92 14.152 12.8C14.696 11.68 15.208 10.544 15.688 9.392L19.72 0.511999H23.896L14.44 19.808V32H10.408ZM34.3874 32.576C32.4994 32.576 30.7234 32.096 29.0594 31.136C27.4274 30.176 26.0994 28.784 25.0754 26.96C24.0834 25.136 23.5874 22.944 23.5874 20.384C23.5874 17.76 24.0834 15.536 25.0754 13.712C26.0994 11.888 27.4274 10.496 29.0594 9.536C30.7234 8.576 32.4994 8.096 34.3874 8.096C36.3074 8.096 38.0834 8.576 39.7154 9.536C41.3474 10.496 42.6594 11.888 43.6514 13.712C44.6754 15.536 45.1874 17.76 45.1874 20.384C45.1874 22.944 44.6754 25.136 43.6514 26.96C42.6594 28.784 41.3474 30.176 39.7154 31.136C38.0834 32.096 36.3074 32.576 34.3874 32.576ZM34.3874 29.312C36.4034 29.312 38.0194 28.496 39.2354 26.864C40.4834 25.2 41.1074 23.04 41.1074 20.384C41.1074 17.696 40.4834 15.52 39.2354 13.856C38.0194 12.192 36.4034 11.36 34.3874 11.36C32.4034 11.36 30.7874 12.192 29.5394 13.856C28.2914 15.52 27.6674 17.696 27.6674 20.384C27.6674 23.04 28.2914 25.2 29.5394 26.864C30.7874 28.496 32.4034 29.312 34.3874 29.312ZM57.667 32.576C55.203 32.576 53.395 31.808 52.243 30.272C51.091 28.704 50.515 26.432 50.515 23.456V8.672H54.499V22.928C54.499 25.104 54.835 26.688 55.507 27.68C56.211 28.672 57.331 29.168 58.867 29.168C60.083 29.168 61.155 28.864 62.083 28.256C63.043 27.616 64.067 26.608 65.155 25.232V8.672H69.091V32H65.827L65.491 28.352H65.347C64.259 29.632 63.107 30.656 61.891 31.424C60.675 32.192 59.267 32.576 57.667 32.576ZM76.4804 32V8.672H79.7444L80.0804 12.896H80.2244C81.0244 11.424 82.0004 10.256 83.1524 9.392C84.3044 8.528 85.5364 8.096 86.8484 8.096C87.7764 8.096 88.6084 8.256 89.3444 8.576L88.5764 12.032C88.1924 11.904 87.8404 11.808 87.5204 11.744C87.2004 11.68 86.8004 11.648 86.3204 11.648C85.3284 11.648 84.2884 12.048 83.2004 12.848C82.1444 13.648 81.2164 15.04 80.4164 17.024V32H76.4804ZM102.154 32V0.511999H120.298V3.872H106.138V14.528H118.138V17.888H106.138V32H102.154ZM131.075 32.576C128.611 32.576 126.803 31.808 125.651 30.272C124.499 28.704 123.923 26.432 123.923 23.456V8.672H127.907V22.928C127.907 25.104 128.243 26.688 128.915 27.68C129.619 28.672 130.739 29.168 132.275 29.168C133.491 29.168 134.563 28.864 135.491 28.256C136.451 27.616 137.475 26.608 138.563 25.232V8.672H142.499V32H139.235L138.899 28.352H138.755C137.667 29.632 136.515 30.656 135.299 31.424C134.083 32.192 132.675 32.576 131.075 32.576ZM157.233 32.576C154.736 32.576 152.992 31.856 152 30.416C151.04 28.976 150.56 27.104 150.56 24.8V11.888H147.104V8.912L150.752 8.672L151.232 2.144H154.544V8.672H160.832V11.888H154.544V24.848C154.544 26.288 154.8 27.408 155.312 28.208C155.856 28.976 156.8 29.36 158.144 29.36C158.561 29.36 159.009 29.296 159.488 29.168C159.969 29.008 160.401 28.864 160.785 28.736L161.553 31.712C160.912 31.936 160.208 32.128 159.441 32.288C158.705 32.48 157.969 32.576 157.233 32.576ZM172.443 32.576C169.979 32.576 168.171 31.808 167.019 30.272C165.867 28.704 165.291 26.432 165.291 23.456V8.672H169.275V22.928C169.275 25.104 169.611 26.688 170.283 27.68C170.987 28.672 172.107 29.168 173.643 29.168C174.859 29.168 175.931 28.864 176.859 28.256C177.819 27.616 178.843 26.608 179.931 25.232V8.672H183.867V32H180.603L180.267 28.352H180.123C179.035 29.632 177.883 30.656 176.667 31.424C175.451 32.192 174.043 32.576 172.443 32.576ZM191.257 32V8.672H194.521L194.857 12.896H195.001C195.801 11.424 196.777 10.256 197.929 9.392C199.081 8.528 200.313 8.096 201.625 8.096C202.553 8.096 203.385 8.256 204.121 8.576L203.353 12.032C202.969 11.904 202.617 11.808 202.297 11.744C201.977 11.68 201.577 11.648 201.097 11.648C200.105 11.648 199.065 12.048 197.977 12.848C196.921 13.648 195.993 15.04 195.193 17.024V32H191.257ZM216.404 32.576C214.324 32.576 212.436 32.096 210.74 31.136C209.044 30.144 207.7 28.736 206.708 26.912C205.716 25.088 205.22 22.912 205.22 20.384C205.22 17.824 205.716 15.632 206.708 13.808C207.732 11.984 209.044 10.576 210.644 9.584C212.244 8.592 213.924 8.096 215.684 8.096C218.66 8.096 220.948 9.088 222.548 11.072C224.18 13.056 224.996 15.712 224.996 19.04C224.996 19.456 224.98 19.872 224.948 20.288C224.948 20.672 224.916 21.008 224.852 21.296H209.108C209.268 23.76 210.036 25.728 211.412 27.2C212.82 28.672 214.644 29.408 216.884 29.408C218.004 29.408 219.028 29.248 219.956 28.928C220.916 28.576 221.828 28.128 222.692 27.584L224.084 30.176C223.092 30.816 221.956 31.376 220.676 31.856C219.428 32.336 218.004 32.576 216.404 32.576ZM209.06 18.464H221.54C221.54 16.096 221.028 14.304 220.004 13.088C219.012 11.84 217.604 11.216 215.78 11.216C214.148 11.216 212.676 11.856 211.364 13.136C210.084 14.384 209.316 16.16 209.06 18.464ZM239.794 32V0.511999H248.77C251.138 0.511999 253.202 0.799999 254.962 1.376C256.722 1.952 258.098 2.928 259.09 4.304C260.082 5.648 260.578 7.472 260.578 9.776C260.578 13.072 259.506 15.52 257.362 17.12C255.218 18.72 252.418 19.52 248.962 19.52H243.778V32H239.794ZM243.778 16.256H248.482C251.234 16.256 253.266 15.744 254.578 14.72C255.922 13.664 256.594 12.016 256.594 9.776C256.594 7.504 255.89 5.936 254.482 5.072C253.106 4.176 251.042 3.728 248.29 3.728H243.778V16.256ZM269.431 32.576C267.479 32.576 265.847 32 264.535 30.848C263.255 29.664 262.615 28.032 262.615 25.952C262.615 23.392 263.751 21.44 266.023 20.096C268.327 18.72 271.959 17.76 276.919 17.216C276.919 16.224 276.775 15.28 276.487 14.384C276.231 13.488 275.751 12.768 275.047 12.224C274.375 11.648 273.399 11.36 272.119 11.36C270.775 11.36 269.511 11.616 268.327 12.128C267.143 12.64 266.087 13.216 265.159 13.856L263.623 11.12C264.711 10.416 266.039 9.744 267.607 9.104C269.207 8.432 270.935 8.096 272.791 8.096C275.639 8.096 277.703 8.976 278.983 10.736C280.263 12.464 280.903 14.784 280.903 17.696V32H277.639L277.303 29.216H277.159C276.071 30.112 274.871 30.896 273.559 31.568C272.279 32.24 270.903 32.576 269.431 32.576ZM270.583 29.408C271.703 29.408 272.759 29.136 273.751 28.592C274.743 28.048 275.799 27.28 276.919 26.288V19.808C273.047 20.288 270.327 21.008 268.759 21.968C267.223 22.928 266.455 24.16 266.455 25.664C266.455 26.976 266.855 27.936 267.655 28.544C268.455 29.12 269.431 29.408 270.583 29.408ZM287.763 32V8.672H291.027L291.363 12.896H291.507C292.307 11.424 293.283 10.256 294.435 9.392C295.587 8.528 296.819 8.096 298.131 8.096C299.059 8.096 299.891 8.256 300.627 8.576L299.859 12.032C299.475 11.904 299.123 11.808 298.803 11.744C298.483 11.68 298.083 11.648 297.603 11.648C296.611 11.648 295.571 12.048 294.483 12.848C293.427 13.648 292.499 15.04 291.699 17.024V32H287.763ZM311.267 32.576C308.771 32.576 307.027 31.856 306.035 30.416C305.075 28.976 304.595 27.104 304.595 24.8V11.888H301.139V8.912L304.787 8.672L305.267 2.144H308.579V8.672H314.867V11.888H308.579V24.848C308.579 26.288 308.835 27.408 309.347 28.208C309.891 28.976 310.835 29.36 312.179 29.36C312.595 29.36 313.043 29.296 313.523 29.168C314.003 29.008 314.435 28.864 314.819 28.736L315.587 31.712C314.947 31.936 314.243 32.128 313.475 32.288C312.739 32.48 312.003 32.576 311.267 32.576ZM319.662 32V8.672H322.926L323.262 12.032H323.406C324.526 10.912 325.71 9.984 326.958 9.248C328.206 8.48 329.63 8.096 331.23 8.096C333.694 8.096 335.486 8.88 336.606 10.448C337.758 11.984 338.334 14.24 338.334 17.216V32H334.398V17.744C334.398 15.568 334.046 13.984 333.342 12.992C332.638 12 331.518 11.504 329.982 11.504C328.798 11.504 327.726 11.808 326.766 12.416C325.838 13.024 324.782 13.92 323.598 15.104V32H319.662ZM354.888 32.576C352.808 32.576 350.92 32.096 349.224 31.136C347.528 30.144 346.184 28.736 345.192 26.912C344.2 25.088 343.704 22.912 343.704 20.384C343.704 17.824 344.2 15.632 345.192 13.808C346.216 11.984 347.528 10.576 349.128 9.584C350.728 8.592 352.408 8.096 354.168 8.096C357.144 8.096 359.432 9.088 361.032 11.072C362.664 13.056 363.48 15.712 363.48 19.04C363.48 19.456 363.464 19.872 363.432 20.288C363.432 20.672 363.4 21.008 363.336 21.296H347.592C347.752 23.76 348.52 25.728 349.896 27.2C351.304 28.672 353.128 29.408 355.368 29.408C356.488 29.408 357.512 29.248 358.44 28.928C359.4 28.576 360.312 28.128 361.176 27.584L362.568 30.176C361.576 30.816 360.44 31.376 359.16 31.856C357.912 32.336 356.488 32.576 354.888 32.576ZM347.544 18.464H360.024C360.024 16.096 359.512 14.304 358.488 13.088C357.496 11.84 356.088 11.216 354.264 11.216C352.632 11.216 351.16 11.856 349.848 13.136C348.568 14.384 347.8 16.16 347.544 18.464ZM368.765 32V8.672H372.029L372.365 12.896H372.509C373.309 11.424 374.285 10.256 375.437 9.392C376.589 8.528 377.821 8.096 379.133 8.096C380.061 8.096 380.893 8.256 381.629 8.576L380.861 12.032C380.477 11.904 380.125 11.808 379.805 11.744C379.485 11.68 379.085 11.648 378.605 11.648C377.613 11.648 376.573 12.048 375.485 12.848C374.429 13.648 373.501 15.04 372.701 17.024V32H368.765ZM5.32 99V67.512H23.464V70.872H9.304V81.528H21.304V84.888H9.304V99H5.32ZM36.5905 99.576C34.7025 99.576 32.9265 99.096 31.2625 98.136C29.6305 97.176 28.3025 95.784 27.2785 93.96C26.2865 92.136 25.7905 89.944 25.7905 87.384C25.7905 84.76 26.2865 82.536 27.2785 80.712C28.3025 78.888 29.6305 77.496 31.2625 76.536C32.9265 75.576 34.7025 75.096 36.5905 75.096C38.5105 75.096 40.2865 75.576 41.9185 76.536C43.5505 77.496 44.8625 78.888 45.8545 80.712C46.8785 82.536 47.3905 84.76 47.3905 87.384C47.3905 89.944 46.8785 92.136 45.8545 93.96C44.8625 95.784 43.5505 97.176 41.9185 98.136C40.2865 99.096 38.5105 99.576 36.5905 99.576ZM36.5905 96.312C38.6065 96.312 40.2225 95.496 41.4385 93.864C42.6865 92.2 43.3105 90.04 43.3105 87.384C43.3105 84.696 42.6865 82.52 41.4385 80.856C40.2225 79.192 38.6065 78.36 36.5905 78.36C34.6065 78.36 32.9905 79.192 31.7425 80.856C30.4945 82.52 29.8705 84.696 29.8705 87.384C29.8705 90.04 30.4945 92.2 31.7425 93.864C32.9905 95.496 34.6065 96.312 36.5905 96.312ZM53.0541 99V75.672H56.3181L56.6541 79.896H56.7981C57.5981 78.424 58.5741 77.256 59.7261 76.392C60.8781 75.528 62.1101 75.096 63.4221 75.096C64.3501 75.096 65.1821 75.256 65.9181 75.576L65.1501 79.032C64.7661 78.904 64.4141 78.808 64.0941 78.744C63.7741 78.68 63.3741 78.648 62.8941 78.648C61.9021 78.648 60.8621 79.048 59.7741 79.848C58.7181 80.648 57.7901 82.04 56.9901 84.024V99H53.0541ZM83.7201 99.576C81.7681 99.576 80.1361 99 78.8241 97.848C77.5441 96.664 76.9041 95.032 76.9041 92.952C76.9041 90.392 78.0401 88.44 80.3121 87.096C82.6161 85.72 86.2481 84.76 91.2081 84.216C91.2081 83.224 91.0641 82.28 90.7761 81.384C90.5201 80.488 90.0401 79.768 89.3361 79.224C88.6641 78.648 87.6881 78.36 86.4081 78.36C85.0641 78.36 83.8001 78.616 82.6161 79.128C81.4321 79.64 80.3761 80.216 79.4481 80.856L77.9121 78.12C79.0001 77.416 80.3281 76.744 81.8961 76.104C83.4961 75.432 85.2241 75.096 87.0801 75.096C89.9281 75.096 91.9921 75.976 93.2721 77.736C94.5521 79.464 95.1921 81.784 95.1921 84.696V99H91.9281L91.5921 96.216H91.4481C90.3601 97.112 89.1601 97.896 87.8481 98.568C86.5681 99.24 85.1921 99.576 83.7201 99.576ZM84.8721 96.408C85.9921 96.408 87.0481 96.136 88.0401 95.592C89.0321 95.048 90.0881 94.28 91.2081 93.288V86.808C87.3361 87.288 84.6161 88.008 83.0481 88.968C81.5121 89.928 80.7441 91.16 80.7441 92.664C80.7441 93.976 81.1441 94.936 81.9441 95.544C82.7441 96.12 83.7201 96.408 84.8721 96.408Z" fill="black"/>
<path d="M10.408 32V19.808L0.952 0.511999H5.224L9.304 9.392C9.816 10.544 10.312 11.68 10.792 12.8C11.304 13.92 11.816 15.072 12.328 16.256H12.52C13.064 15.072 13.608 13.92 14.152 12.8C14.696 11.68 15.208 10.544 15.688 9.392L19.72 0.511999H23.896L14.44 19.808V32H10.408ZM34.3874 32.576C32.4994 32.576 30.7234 32.096 29.0594 31.136C27.4274 30.176 26.0994 28.784 25.0754 26.96C24.0834 25.136 23.5874 22.944 23.5874 20.384C23.5874 17.76 24.0834 15.536 25.0754 13.712C26.0994 11.888 27.4274 10.496 29.0594 9.536C30.7234 8.576 32.4994 8.096 34.3874 8.096C36.3074 8.096 38.0834 8.576 39.7154 9.536C41.3474 10.496 42.6594 11.888 43.6514 13.712C44.6754 15.536 45.1874 17.76 45.1874 20.384C45.1874 22.944 44.6754 25.136 43.6514 26.96C42.6594 28.784 41.3474 30.176 39.7154 31.136C38.0834 32.096 36.3074 32.576 34.3874 32.576ZM34.3874 29.312C36.4034 29.312 38.0194 28.496 39.2354 26.864C40.4834 25.2 41.1074 23.04 41.1074 20.384C41.1074 17.696 40.4834 15.52 39.2354 13.856C38.0194 12.192 36.4034 11.36 34.3874 11.36C32.4034 11.36 30.7874 12.192 29.5394 13.856C28.2914 15.52 27.6674 17.696 27.6674 20.384C27.6674 23.04 28.2914 25.2 29.5394 26.864C30.7874 28.496 32.4034 29.312 34.3874 29.312ZM57.667 32.576C55.203 32.576 53.395 31.808 52.243 30.272C51.091 28.704 50.515 26.432 50.515 23.456V8.672H54.499V22.928C54.499 25.104 54.835 26.688 55.507 27.68C56.211 28.672 57.331 29.168 58.867 29.168C60.083 29.168 61.155 28.864 62.083 28.256C63.043 27.616 64.067 26.608 65.155 25.232V8.672H69.091V32H65.827L65.491 28.352H65.347C64.259 29.632 63.107 30.656 61.891 31.424C60.675 32.192 59.267 32.576 57.667 32.576ZM76.4804 32V8.672H79.7444L80.0804 12.896H80.2244C81.0244 11.424 82.0004 10.256 83.1524 9.392C84.3044 8.528 85.5364 8.096 86.8484 8.096C87.7764 8.096 88.6084 8.256 89.3444 8.576L88.5764 12.032C88.1924 11.904 87.8404 11.808 87.5204 11.744C87.2004 11.68 86.8004 11.648 86.3204 11.648C85.3284 11.648 84.2884 12.048 83.2004 12.848C82.1444 13.648 81.2164 15.04 80.4164 17.024V32H76.4804ZM102.154 32V0.511999H120.298V3.872H106.138V14.528H118.138V17.888H106.138V32H102.154ZM131.075 32.576C128.611 32.576 126.803 31.808 125.651 30.272C124.499 28.704 123.923 26.432 123.923 23.456V8.672H127.907V22.928C127.907 25.104 128.243 26.688 128.915 27.68C129.619 28.672 130.739 29.168 132.275 29.168C133.491 29.168 134.563 28.864 135.491 28.256C136.451 27.616 137.475 26.608 138.563 25.232V8.672H142.499V32H139.235L138.899 28.352H138.755C137.667 29.632 136.515 30.656 135.299 31.424C134.083 32.192 132.675 32.576 131.075 32.576ZM157.233 32.576C154.736 32.576 152.992 31.856 152 30.416C151.04 28.976 150.56 27.104 150.56 24.8V11.888H147.104V8.912L150.752 8.672L151.232 2.144H154.544V8.672H160.832V11.888H154.544V24.848C154.544 26.288 154.8 27.408 155.312 28.208C155.856 28.976 156.8 29.36 158.144 29.36C158.561 29.36 159.009 29.296 159.488 29.168C159.969 29.008 160.401 28.864 160.785 28.736L161.553 31.712C160.912 31.936 160.208 32.128 159.441 32.288C158.705 32.48 157.969 32.576 157.233 32.576ZM172.443 32.576C169.979 32.576 168.171 31.808 167.019 30.272C165.867 28.704 165.291 26.432 165.291 23.456V8.672H169.275V22.928C169.275 25.104 169.611 26.688 170.283 27.68C170.987 28.672 172.107 29.168 173.643 29.168C174.859 29.168 175.931 28.864 176.859 28.256C177.819 27.616 178.843 26.608 179.931 25.232V8.672H183.867V32H180.603L180.267 28.352H180.123C179.035 29.632 177.883 30.656 176.667 31.424C175.451 32.192 174.043 32.576 172.443 32.576ZM191.257 32V8.672H194.521L194.857 12.896H195.001C195.801 11.424 196.777 10.256 197.929 9.392C199.081 8.528 200.313 8.096 201.625 8.096C202.553 8.096 203.385 8.256 204.121 8.576L203.353 12.032C202.969 11.904 202.617 11.808 202.297 11.744C201.977 11.68 201.577 11.648 201.097 11.648C200.105 11.648 199.065 12.048 197.977 12.848C196.921 13.648 195.993 15.04 195.193 17.024V32H191.257ZM216.404 32.576C214.324 32.576 212.436 32.096 210.74 31.136C209.044 30.144 207.7 28.736 206.708 26.912C205.716 25.088 205.22 22.912 205.22 20.384C205.22 17.824 205.716 15.632 206.708 13.808C207.732 11.984 209.044 10.576 210.644 9.584C212.244 8.592 213.924 8.096 215.684 8.096C218.66 8.096 220.948 9.088 222.548 11.072C224.18 13.056 224.996 15.712 224.996 19.04C224.996 19.456 224.98 19.872 224.948 20.288C224.948 20.672 224.916 21.008 224.852 21.296H209.108C209.268 23.76 210.036 25.728 211.412 27.2C212.82 28.672 214.644 29.408 216.884 29.408C218.004 29.408 219.028 29.248 219.956 28.928C220.916 28.576 221.828 28.128 222.692 27.584L224.084 30.176C223.092 30.816 221.956 31.376 220.676 31.856C219.428 32.336 218.004 32.576 216.404 32.576ZM209.06 18.464H221.54C221.54 16.096 221.028 14.304 220.004 13.088C219.012 11.84 217.604 11.216 215.78 11.216C214.148 11.216 212.676 11.856 211.364 13.136C210.084 14.384 209.316 16.16 209.06 18.464ZM239.794 32V0.511999H248.77C251.138 0.511999 253.202 0.799999 254.962 1.376C256.722 1.952 258.098 2.928 259.09 4.304C260.082 5.648 260.578 7.472 260.578 9.776C260.578 13.072 259.506 15.52 257.362 17.12C255.218 18.72 252.418 19.52 248.962 19.52H243.778V32H239.794ZM243.778 16.256H248.482C251.234 16.256 253.266 15.744 254.578 14.72C255.922 13.664 256.594 12.016 256.594 9.776C256.594 7.504 255.89 5.936 254.482 5.072C253.106 4.176 251.042 3.728 248.29 3.728H243.778V16.256ZM269.431 32.576C267.479 32.576 265.847 32 264.535 30.848C263.255 29.664 262.615 28.032 262.615 25.952C262.615 23.392 263.751 21.44 266.023 20.096C268.327 18.72 271.959 17.76 276.919 17.216C276.919 16.224 276.775 15.28 276.487 14.384C276.231 13.488 275.751 12.768 275.047 12.224C274.375 11.648 273.399 11.36 272.119 11.36C270.775 11.36 269.511 11.616 268.327 12.128C267.143 12.64 266.087 13.216 265.159 13.856L263.623 11.12C264.711 10.416 266.039 9.744 267.607 9.104C269.207 8.432 270.935 8.096 272.791 8.096C275.639 8.096 277.703 8.976 278.983 10.736C280.263 12.464 280.903 14.784 280.903 17.696V32H277.639L277.303 29.216H277.159C276.071 30.112 274.871 30.896 273.559 31.568C272.279 32.24 270.903 32.576 269.431 32.576ZM270.583 29.408C271.703 29.408 272.759 29.136 273.751 28.592C274.743 28.048 275.799 27.28 276.919 26.288V19.808C273.047 20.288 270.327 21.008 268.759 21.968C267.223 22.928 266.455 24.16 266.455 25.664C266.455 26.976 266.855 27.936 267.655 28.544C268.455 29.12 269.431 29.408 270.583 29.408ZM287.763 32V8.672H291.027L291.363 12.896H291.507C292.307 11.424 293.283 10.256 294.435 9.392C295.587 8.528 296.819 8.096 298.131 8.096C299.059 8.096 299.891 8.256 300.627 8.576L299.859 12.032C299.475 11.904 299.123 11.808 298.803 11.744C298.483 11.68 298.083 11.648 297.603 11.648C296.611 11.648 295.571 12.048 294.483 12.848C293.427 13.648 292.499 15.04 291.699 17.024V32H287.763ZM311.267 32.576C308.771 32.576 307.027 31.856 306.035 30.416C305.075 28.976 304.595 27.104 304.595 24.8V11.888H301.139V8.912L304.787 8.672L305.267 2.144H308.579V8.672H314.867V11.888H308.579V24.848C308.579 26.288 308.835 27.408 309.347 28.208C309.891 28.976 310.835 29.36 312.179 29.36C312.595 29.36 313.043 29.296 313.523 29.168C314.003 29.008 314.435 28.864 314.819 28.736L315.587 31.712C314.947 31.936 314.243 32.128 313.475 32.288C312.739 32.48 312.003 32.576 311.267 32.576ZM319.662 32V8.672H322.926L323.262 12.032H323.406C324.526 10.912 325.71 9.984 326.958 9.248C328.206 8.48 329.63 8.096 331.23 8.096C333.694 8.096 335.486 8.88 336.606 10.448C337.758 11.984 338.334 14.24 338.334 17.216V32H334.398V17.744C334.398 15.568 334.046 13.984 333.342 12.992C332.638 12 331.518 11.504 329.982 11.504C328.798 11.504 327.726 11.808 326.766 12.416C325.838 13.024 324.782 13.92 323.598 15.104V32H319.662ZM354.888 32.576C352.808 32.576 350.92 32.096 349.224 31.136C347.528 30.144 346.184 28.736 345.192 26.912C344.2 25.088 343.704 22.912 343.704 20.384C343.704 17.824 344.2 15.632 345.192 13.808C346.216 11.984 347.528 10.576 349.128 9.584C350.728 8.592 352.408 8.096 354.168 8.096C357.144 8.096 359.432 9.088 361.032 11.072C362.664 13.056 363.48 15.712 363.48 19.04C363.48 19.456 363.464 19.872 363.432 20.288C363.432 20.672 363.4 21.008 363.336 21.296H347.592C347.752 23.76 348.52 25.728 349.896 27.2C351.304 28.672 353.128 29.408 355.368 29.408C356.488 29.408 357.512 29.248 358.44 28.928C359.4 28.576 360.312 28.128 361.176 27.584L362.568 30.176C361.576 30.816 360.44 31.376 359.16 31.856C357.912 32.336 356.488 32.576 354.888 32.576ZM347.544 18.464H360.024C360.024 16.096 359.512 14.304 358.488 13.088C357.496 11.84 356.088 11.216 354.264 11.216C352.632 11.216 351.16 11.856 349.848 13.136C348.568 14.384 347.8 16.16 347.544 18.464ZM368.765 32V8.672H372.029L372.365 12.896H372.509C373.309 11.424 374.285 10.256 375.437 9.392C376.589 8.528 377.821 8.096 379.133 8.096C380.061 8.096 380.893 8.256 381.629 8.576L380.861 12.032C380.477 11.904 380.125 11.808 379.805 11.744C379.485 11.68 379.085 11.648 378.605 11.648C377.613 11.648 376.573 12.048 375.485 12.848C374.429 13.648 373.501 15.04 372.701 17.024V32H368.765ZM5.32 99V67.512H23.464V70.872H9.304V81.528H21.304V84.888H9.304V99H5.32ZM36.5905 99.576C34.7025 99.576 32.9265 99.096 31.2625 98.136C29.6305 97.176 28.3025 95.784 27.2785 93.96C26.2865 92.136 25.7905 89.944 25.7905 87.384C25.7905 84.76 26.2865 82.536 27.2785 80.712C28.3025 78.888 29.6305 77.496 31.2625 76.536C32.9265 75.576 34.7025 75.096 36.5905 75.096C38.5105 75.096 40.2865 75.576 41.9185 76.536C43.5505 77.496 44.8625 78.888 45.8545 80.712C46.8785 82.536 47.3905 84.76 47.3905 87.384C47.3905 89.944 46.8785 92.136 45.8545 93.96C44.8625 95.784 43.5505 97.176 41.9185 98.136C40.2865 99.096 38.5105 99.576 36.5905 99.576ZM36.5905 96.312C38.6065 96.312 40.2225 95.496 41.4385 93.864C42.6865 92.2 43.3105 90.04 43.3105 87.384C43.3105 84.696 42.6865 82.52 41.4385 80.856C40.2225 79.192 38.6065 78.36 36.5905 78.36C34.6065 78.36 32.9905 79.192 31.7425 80.856C30.4945 82.52 29.8705 84.696 29.8705 87.384C29.8705 90.04 30.4945 92.2 31.7425 93.864C32.9905 95.496 34.6065 96.312 36.5905 96.312ZM53.0541 99V75.672H56.3181L56.6541 79.896H56.7981C57.5981 78.424 58.5741 77.256 59.7261 76.392C60.8781 75.528 62.1101 75.096 63.4221 75.096C64.3501 75.096 65.1821 75.256 65.9181 75.576L65.1501 79.032C64.7661 78.904 64.4141 78.808 64.0941 78.744C63.7741 78.68 63.3741 78.648 62.8941 78.648C61.9021 78.648 60.8621 79.048 59.7741 79.848C58.7181 80.648 57.7901 82.04 56.9901 84.024V99H53.0541ZM83.7201 99.576C81.7681 99.576 80.1361 99 78.8241 97.848C77.5441 96.664 76.9041 95.032 76.9041 92.952C76.9041 90.392 78.0401 88.44 80.3121 87.096C82.6161 85.72 86.2481 84.76 91.2081 84.216C91.2081 83.224 91.0641 82.28 90.7761 81.384C90.5201 80.488 90.0401 79.768 89.3361 79.224C88.6641 78.648 87.6881 78.36 86.4081 78.36C85.0641 78.36 83.8001 78.616 82.6161 79.128C81.4321 79.64 80.3761 80.216 79.4481 80.856L77.9121 78.12C79.0001 77.416 80.3281 76.744 81.8961 76.104C83.4961 75.432 85.2241 75.096 87.0801 75.096C89.9281 75.096 91.9921 75.976 93.2721 77.736C94.5521 79.464 95.1921 81.784 95.1921 84.696V99H91.9281L91.5921 96.216H91.4481C90.3601 97.112 89.1601 97.896 87.8481 98.568C86.5681 99.24 85.1921 99.576 83.7201 99.576ZM84.8721 96.408C85.9921 96.408 87.0481 96.136 88.0401 95.592C89.0321 95.048 90.0881 94.28 91.2081 93.288V86.808C87.3361 87.288 84.6161 88.008 83.0481 88.968C81.5121 89.928 80.7441 91.16 80.7441 92.664C80.7441 93.976 81.1441 94.936 81.9441 95.544C82.7441 96.12 83.7201 96.408 84.8721 96.408Z" fill="#172C36"/>
<path d="M110.941 99V67.704H119.773C122.973 67.704 125.741 68.248 128.077 69.336C130.413 70.424 132.221 72.12 133.501 74.424C134.813 76.696 135.469 79.624 135.469 83.208C135.469 86.792 134.829 89.752 133.549 92.088C132.269 94.424 130.477 96.168 128.173 97.32C125.901 98.44 123.229 99 120.157 99H110.941ZM117.997 93.288H119.341C121.133 93.288 122.685 92.968 123.997 92.328C125.341 91.688 126.381 90.632 127.117 89.16C127.853 87.688 128.221 85.704 128.221 83.208C128.221 80.712 127.853 78.76 127.117 77.352C126.381 75.912 125.341 74.904 123.997 74.328C122.685 73.72 121.133 73.416 119.341 73.416H117.997V93.288ZM140.354 99V75.192H147.41V99H140.354ZM143.858 71.688C142.674 71.688 141.714 71.352 140.978 70.68C140.242 70.008 139.874 69.112 139.874 67.992C139.874 66.872 140.242 65.976 140.978 65.304C141.714 64.632 142.674 64.296 143.858 64.296C145.042 64.296 146.002 64.632 146.738 65.304C147.474 65.976 147.842 66.872 147.842 67.992C147.842 69.112 147.474 70.008 146.738 70.68C146.002 71.352 145.042 71.688 143.858 71.688ZM161.635 109.128C159.779 109.128 158.099 108.92 156.595 108.504C155.091 108.088 153.891 107.432 152.995 106.536C152.099 105.64 151.651 104.488 151.651 103.08C151.651 101.16 152.787 99.56 155.059 98.28V98.088C154.451 97.672 153.923 97.144 153.475 96.504C153.059 95.864 152.851 95.048 152.851 94.056C152.851 93.192 153.107 92.36 153.619 91.56C154.131 90.76 154.771 90.104 155.539 89.592V89.4C154.707 88.824 153.955 87.992 153.283 86.904C152.643 85.816 152.323 84.584 152.323 83.208C152.323 81.288 152.787 79.704 153.715 78.456C154.643 77.176 155.859 76.216 157.363 75.576C158.867 74.936 160.467 74.616 162.163 74.616C163.571 74.616 164.803 74.808 165.859 75.192H174.547V80.328H170.755C170.979 80.68 171.155 81.128 171.283 81.672C171.443 82.216 171.523 82.808 171.523 83.448C171.523 85.272 171.107 86.776 170.275 87.96C169.443 89.144 168.323 90.024 166.915 90.6C165.507 91.176 163.923 91.464 162.163 91.464C161.235 91.464 160.275 91.304 159.283 90.984C158.707 91.464 158.419 92.056 158.419 92.76C158.419 93.368 158.691 93.816 159.235 94.104C159.779 94.392 160.707 94.536 162.019 94.536H165.859C168.803 94.536 171.043 95.016 172.579 95.976C174.147 96.904 174.931 98.44 174.931 100.584C174.931 102.216 174.387 103.672 173.299 104.952C172.211 106.264 170.675 107.288 168.691 108.024C166.707 108.76 164.355 109.128 161.635 109.128ZM162.163 87.192C163.091 87.192 163.859 86.856 164.467 86.184C165.107 85.512 165.427 84.52 165.427 83.208C165.427 81.96 165.107 81.016 164.467 80.376C163.859 79.704 163.091 79.368 162.163 79.368C161.235 79.368 160.451 79.688 159.811 80.328C159.203 80.968 158.899 81.928 158.899 83.208C158.899 84.52 159.203 85.512 159.811 86.184C160.451 86.856 161.235 87.192 162.163 87.192ZM162.739 104.712C164.339 104.712 165.651 104.424 166.675 103.848C167.699 103.272 168.211 102.584 168.211 101.784C168.211 101.048 167.891 100.552 167.251 100.296C166.643 100.04 165.747 99.912 164.563 99.912H162.115C161.315 99.912 160.643 99.88 160.099 99.816C159.587 99.784 159.139 99.72 158.755 99.624C157.891 100.392 157.459 101.176 157.459 101.976C157.459 102.872 157.939 103.544 158.899 103.992C159.891 104.472 161.171 104.712 162.739 104.712ZM178.3 99V75.192H185.356V99H178.3ZM181.804 71.688C180.62 71.688 179.66 71.352 178.924 70.68C178.188 70.008 177.82 69.112 177.82 67.992C177.82 66.872 178.188 65.976 178.924 65.304C179.66 64.632 180.62 64.296 181.804 64.296C182.988 64.296 183.948 64.632 184.684 65.304C185.42 65.976 185.788 66.872 185.788 67.992C185.788 69.112 185.42 70.008 184.684 70.68C183.948 71.352 182.988 71.688 181.804 71.688ZM200.254 99.576C197.31 99.576 195.198 98.728 193.918 97.032C192.67 95.336 192.046 93.112 192.046 90.36V80.712H188.782V75.48L192.43 75.192L193.246 68.856H199.102V75.192H204.814V80.712H199.102V90.264C199.102 91.608 199.374 92.584 199.918 93.192C200.494 93.768 201.246 94.056 202.174 94.056C202.558 94.056 202.942 94.008 203.326 93.912C203.742 93.816 204.11 93.704 204.43 93.576L205.534 98.712C204.926 98.904 204.174 99.096 203.278 99.288C202.414 99.48 201.406 99.576 200.254 99.576ZM214.043 99.576C211.867 99.576 210.139 98.888 208.859 97.512C207.579 96.104 206.939 94.392 206.939 92.376C206.939 89.88 207.995 87.928 210.107 86.52C212.219 85.112 215.627 84.168 220.331 83.688C220.267 82.632 219.947 81.8 219.371 81.192C218.827 80.552 217.899 80.232 216.587 80.232C215.595 80.232 214.587 80.424 213.563 80.808C212.539 81.192 211.451 81.72 210.299 82.392L207.755 77.736C209.259 76.808 210.859 76.056 212.555 75.48C214.283 74.904 216.075 74.616 217.931 74.616C220.971 74.616 223.307 75.496 224.939 77.256C226.571 79.016 227.387 81.72 227.387 85.368V99H221.627L221.147 96.552H220.955C219.963 97.448 218.891 98.184 217.739 98.76C216.619 99.304 215.387 99.576 214.043 99.576ZM216.443 94.104C217.243 94.104 217.931 93.928 218.507 93.576C219.115 93.192 219.723 92.696 220.331 92.088V87.912C217.835 88.232 216.107 88.744 215.147 89.448C214.187 90.12 213.707 90.92 213.707 91.848C213.707 92.616 213.947 93.192 214.427 93.576C214.939 93.928 215.611 94.104 216.443 94.104ZM239.356 99.576C236.924 99.576 235.228 98.856 234.268 97.416C233.34 95.944 232.876 94.008 232.876 91.608V65.352H239.932V91.896C239.932 92.632 240.06 93.144 240.316 93.432C240.604 93.72 240.892 93.864 241.18 93.864C241.34 93.864 241.468 93.864 241.564 93.864C241.692 93.832 241.852 93.8 242.044 93.768L242.908 99C242.524 99.16 242.028 99.288 241.42 99.384C240.844 99.512 240.156 99.576 239.356 99.576ZM252.61 99.576C250.178 99.576 248.482 98.856 247.522 97.416C246.594 95.944 246.13 94.008 246.13 91.608V65.352H253.186V91.896C253.186 92.632 253.314 93.144 253.57 93.432C253.858 93.72 254.146 93.864 254.434 93.864C254.594 93.864 254.722 93.864 254.818 93.864C254.946 93.832 255.106 93.8 255.298 93.768L256.162 99C255.778 99.16 255.282 99.288 254.674 99.384C254.098 99.512 253.41 99.576 252.61 99.576ZM262.024 108.312C261.32 108.312 260.696 108.264 260.152 108.168C259.64 108.072 259.144 107.96 258.664 107.832L259.912 102.456C260.136 102.488 260.392 102.536 260.68 102.6C260.968 102.696 261.24 102.744 261.496 102.744C262.68 102.744 263.592 102.456 264.232 101.88C264.872 101.304 265.352 100.552 265.672 99.624L266.008 98.376L256.84 75.192H263.944L267.352 85.416C267.704 86.504 268.024 87.608 268.312 88.728C268.6 89.848 268.904 91 269.224 92.184H269.416C269.672 91.064 269.928 89.944 270.184 88.824C270.472 87.672 270.76 86.536 271.048 85.416L273.928 75.192H280.696L272.44 99.24C271.704 101.224 270.888 102.888 269.992 104.232C269.096 105.608 268.008 106.632 266.728 107.304C265.48 107.976 263.912 108.312 262.024 108.312ZM293.641 99V67.704H313.225V73.656H300.697V79.944H311.353V85.848H300.697V93.048H313.705V99H293.641ZM323.885 99L315.869 75.192H322.973L326.045 86.424C326.365 87.608 326.669 88.824 326.957 90.072C327.277 91.288 327.597 92.52 327.917 93.768H328.109C328.397 92.52 328.685 91.288 328.973 90.072C329.293 88.824 329.613 87.608 329.933 86.424L333.053 75.192H339.821L332.045 99H323.885ZM352.907 99.576C350.891 99.576 348.987 99.096 347.195 98.136C345.435 97.144 344.011 95.72 342.923 93.864C341.835 91.976 341.291 89.72 341.291 87.096C341.291 84.44 341.835 82.184 342.923 80.328C344.011 78.472 345.435 77.064 347.195 76.104C348.987 75.112 350.891 74.616 352.907 74.616C354.923 74.616 356.811 75.112 358.571 76.104C360.331 77.064 361.755 78.472 362.843 80.328C363.931 82.184 364.475 84.44 364.475 87.096C364.475 89.72 363.931 91.976 362.843 93.864C361.755 95.72 360.331 97.144 358.571 98.136C356.811 99.096 354.923 99.576 352.907 99.576ZM352.907 93.864C354.347 93.864 355.435 93.256 356.171 92.04C356.907 90.792 357.275 89.144 357.275 87.096C357.275 85.016 356.907 83.368 356.171 82.152C355.435 80.936 354.347 80.328 352.907 80.328C351.435 80.328 350.331 80.936 349.595 82.152C348.891 83.368 348.539 85.016 348.539 87.096C348.539 89.144 348.891 90.792 349.595 92.04C350.331 93.256 351.435 93.864 352.907 93.864ZM375.308 99.576C372.876 99.576 371.18 98.856 370.22 97.416C369.292 95.944 368.828 94.008 368.828 91.608V65.352H375.884V91.896C375.884 92.632 376.012 93.144 376.268 93.432C376.556 93.72 376.844 93.864 377.132 93.864C377.292 93.864 377.42 93.864 377.516 93.864C377.644 93.832 377.804 93.8 377.996 93.768L378.86 99C378.476 99.16 377.98 99.288 377.372 99.384C376.796 99.512 376.108 99.576 375.308 99.576ZM387.554 99L379.538 75.192H386.642L389.714 86.424C390.034 87.608 390.338 88.824 390.626 90.072C390.946 91.288 391.266 92.52 391.586 93.768H391.778C392.066 92.52 392.354 91.288 392.642 90.072C392.962 88.824 393.282 87.608 393.602 86.424L396.722 75.192H403.49L395.714 99H387.554ZM406.728 99V75.192H413.784V99H406.728ZM410.232 71.688C409.048 71.688 408.088 71.352 407.352 70.68C406.616 70.008 406.248 69.112 406.248 67.992C406.248 66.872 406.616 65.976 407.352 65.304C408.088 64.632 409.048 64.296 410.232 64.296C411.416 64.296 412.376 64.632 413.112 65.304C413.848 65.976 414.216 66.872 414.216 67.992C414.216 69.112 413.848 70.008 413.112 70.68C412.376 71.352 411.416 71.688 410.232 71.688ZM419.513 99V75.192H425.273L425.753 78.216H425.945C426.969 77.256 428.089 76.424 429.305 75.72C430.553 74.984 431.977 74.616 433.577 74.616C436.169 74.616 438.041 75.48 439.193 77.208C440.377 78.904 440.969 81.24 440.969 84.216V99H433.913V85.128C433.913 83.4 433.673 82.216 433.193 81.576C432.745 80.936 432.009 80.616 430.985 80.616C430.089 80.616 429.321 80.824 428.681 81.24C428.041 81.624 427.337 82.184 426.569 82.92V99H419.513ZM454.998 109.128C453.142 109.128 451.462 108.92 449.958 108.504C448.454 108.088 447.254 107.432 446.358 106.536C445.462 105.64 445.014 104.488 445.014 103.08C445.014 101.16 446.15 99.56 448.422 98.28V98.088C447.814 97.672 447.286 97.144 446.838 96.504C446.422 95.864 446.214 95.048 446.214 94.056C446.214 93.192 446.47 92.36 446.982 91.56C447.494 90.76 448.134 90.104 448.902 89.592V89.4C448.07 88.824 447.318 87.992 446.646 86.904C446.006 85.816 445.686 84.584 445.686 83.208C445.686 81.288 446.15 79.704 447.078 78.456C448.006 77.176 449.222 76.216 450.726 75.576C452.23 74.936 453.83 74.616 455.526 74.616C456.934 74.616 458.166 74.808 459.222 75.192H467.91V80.328H464.118C464.342 80.68 464.518 81.128 464.646 81.672C464.806 82.216 464.886 82.808 464.886 83.448C464.886 85.272 464.47 86.776 463.638 87.96C462.806 89.144 461.686 90.024 460.278 90.6C458.87 91.176 457.286 91.464 455.526 91.464C454.598 91.464 453.638 91.304 452.646 90.984C452.07 91.464 451.782 92.056 451.782 92.76C451.782 93.368 452.054 93.816 452.598 94.104C453.142 94.392 454.07 94.536 455.382 94.536H459.222C462.166 94.536 464.406 95.016 465.942 95.976C467.51 96.904 468.294 98.44 468.294 100.584C468.294 102.216 467.75 103.672 466.662 104.952C465.574 106.264 464.038 107.288 462.054 108.024C460.07 108.76 457.718 109.128 454.998 109.128ZM455.526 87.192C456.454 87.192 457.222 86.856 457.83 86.184C458.47 85.512 458.79 84.52 458.79 83.208C458.79 81.96 458.47 81.016 457.83 80.376C457.222 79.704 456.454 79.368 455.526 79.368C454.598 79.368 453.814 79.688 453.174 80.328C452.566 80.968 452.262 81.928 452.262 83.208C452.262 84.52 452.566 85.512 453.174 86.184C453.814 86.856 454.598 87.192 455.526 87.192ZM456.102 104.712C457.702 104.712 459.014 104.424 460.038 103.848C461.062 103.272 461.574 102.584 461.574 101.784C461.574 101.048 461.254 100.552 460.614 100.296C460.006 100.04 459.11 99.912 457.926 99.912H455.478C454.678 99.912 454.006 99.88 453.462 99.816C452.95 99.784 452.502 99.72 452.118 99.624C451.254 100.392 450.822 101.176 450.822 101.976C450.822 102.872 451.302 103.544 452.262 103.992C453.254 104.472 454.534 104.712 456.102 104.712ZM484.152 99L478.344 67.704H485.592L487.752 82.344C487.944 83.976 488.152 85.624 488.376 87.288C488.6 88.92 488.808 90.568 489 92.232H489.192C489.512 90.568 489.816 88.92 490.104 87.288C490.424 85.624 490.744 83.976 491.064 82.344L494.424 67.704H500.424L503.784 82.344C504.104 83.912 504.408 85.528 504.696 87.192C505.016 88.856 505.336 90.536 505.656 92.232H505.848C506.072 90.536 506.28 88.872 506.472 87.24C506.696 85.576 506.92 83.944 507.144 82.344L509.304 67.704H516.072L510.504 99H501.624L498.552 84.792C498.296 83.576 498.056 82.36 497.832 81.144C497.64 79.896 497.464 78.696 497.304 77.544H497.112C496.92 78.696 496.712 79.896 496.488 81.144C496.296 82.36 496.072 83.576 495.816 84.792L492.888 99H484.152ZM529.583 99.576C527.567 99.576 525.663 99.096 523.871 98.136C522.111 97.144 520.687 95.72 519.599 93.864C518.511 91.976 517.967 89.72 517.967 87.096C517.967 84.44 518.511 82.184 519.599 80.328C520.687 78.472 522.111 77.064 523.871 76.104C525.663 75.112 527.567 74.616 529.583 74.616C531.599 74.616 533.487 75.112 535.247 76.104C537.007 77.064 538.431 78.472 539.519 80.328C540.607 82.184 541.151 84.44 541.151 87.096C541.151 89.72 540.607 91.976 539.519 93.864C538.431 95.72 537.007 97.144 535.247 98.136C533.487 99.096 531.599 99.576 529.583 99.576ZM529.583 93.864C531.023 93.864 532.111 93.256 532.847 92.04C533.583 90.792 533.951 89.144 533.951 87.096C533.951 85.016 533.583 83.368 532.847 82.152C532.111 80.936 531.023 80.328 529.583 80.328C528.111 80.328 527.007 80.936 526.271 82.152C525.567 83.368 525.215 85.016 525.215 87.096C525.215 89.144 525.567 90.792 526.271 92.04C527.007 93.256 528.111 93.864 529.583 93.864ZM545.504 99V75.192H551.264L551.744 79.368H551.936C552.8 77.768 553.84 76.584 555.056 75.816C556.272 75.016 557.488 74.616 558.704 74.616C559.376 74.616 559.936 74.664 560.384 74.76C560.832 74.824 561.216 74.936 561.536 75.096L560.384 81.192C559.968 81.064 559.552 80.968 559.136 80.904C558.752 80.84 558.304 80.808 557.792 80.808C556.896 80.808 555.952 81.144 554.96 81.816C554 82.456 553.2 83.576 552.56 85.176V99H545.504ZM570.629 99.576C568.197 99.576 566.501 98.856 565.541 97.416C564.613 95.944 564.149 94.008 564.149 91.608V65.352H571.205V91.896C571.205 92.632 571.333 93.144 571.589 93.432C571.877 93.72 572.165 93.864 572.453 93.864C572.613 93.864 572.741 93.864 572.837 93.864C572.965 93.832 573.125 93.8 573.317 93.768L574.181 99C573.797 99.16 573.301 99.288 572.693 99.384C572.117 99.512 571.429 99.576 570.629 99.576ZM585.899 99.576C582.955 99.576 580.587 98.472 578.795 96.264C577.035 94.024 576.155 90.968 576.155 87.096C576.155 84.504 576.619 82.28 577.547 80.424C578.507 78.536 579.739 77.096 581.243 76.104C582.779 75.112 584.379 74.616 586.043 74.616C587.355 74.616 588.459 74.84 589.355 75.288C590.251 75.736 591.099 76.344 591.899 77.112L591.611 73.464V65.352H598.667V99H592.907L592.427 96.648H592.235C591.403 97.48 590.427 98.184 589.307 98.76C588.187 99.304 587.051 99.576 585.899 99.576ZM587.723 93.816C588.491 93.816 589.179 93.656 589.787 93.336C590.427 93.016 591.035 92.456 591.611 91.656V81.912C591.003 81.336 590.347 80.936 589.643 80.712C588.971 80.488 588.315 80.376 587.675 80.376C586.555 80.376 585.563 80.92 584.699 82.008C583.835 83.064 583.403 84.728 583.403 87C583.403 89.336 583.771 91.064 584.507 92.184C585.275 93.272 586.347 93.816 587.723 93.816Z" fill="black"/>
<path d="M110.941 99V67.704H119.773C122.973 67.704 125.741 68.248 128.077 69.336C130.413 70.424 132.221 72.12 133.501 74.424C134.813 76.696 135.469 79.624 135.469 83.208C135.469 86.792 134.829 89.752 133.549 92.088C132.269 94.424 130.477 96.168 128.173 97.32C125.901 98.44 123.229 99 120.157 99H110.941ZM117.997 93.288H119.341C121.133 93.288 122.685 92.968 123.997 92.328C125.341 91.688 126.381 90.632 127.117 89.16C127.853 87.688 128.221 85.704 128.221 83.208C128.221 80.712 127.853 78.76 127.117 77.352C126.381 75.912 125.341 74.904 123.997 74.328C122.685 73.72 121.133 73.416 119.341 73.416H117.997V93.288ZM140.354 99V75.192H147.41V99H140.354ZM143.858 71.688C142.674 71.688 141.714 71.352 140.978 70.68C140.242 70.008 139.874 69.112 139.874 67.992C139.874 66.872 140.242 65.976 140.978 65.304C141.714 64.632 142.674 64.296 143.858 64.296C145.042 64.296 146.002 64.632 146.738 65.304C147.474 65.976 147.842 66.872 147.842 67.992C147.842 69.112 147.474 70.008 146.738 70.68C146.002 71.352 145.042 71.688 143.858 71.688ZM161.635 109.128C159.779 109.128 158.099 108.92 156.595 108.504C155.091 108.088 153.891 107.432 152.995 106.536C152.099 105.64 151.651 104.488 151.651 103.08C151.651 101.16 152.787 99.56 155.059 98.28V98.088C154.451 97.672 153.923 97.144 153.475 96.504C153.059 95.864 152.851 95.048 152.851 94.056C152.851 93.192 153.107 92.36 153.619 91.56C154.131 90.76 154.771 90.104 155.539 89.592V89.4C154.707 88.824 153.955 87.992 153.283 86.904C152.643 85.816 152.323 84.584 152.323 83.208C152.323 81.288 152.787 79.704 153.715 78.456C154.643 77.176 155.859 76.216 157.363 75.576C158.867 74.936 160.467 74.616 162.163 74.616C163.571 74.616 164.803 74.808 165.859 75.192H174.547V80.328H170.755C170.979 80.68 171.155 81.128 171.283 81.672C171.443 82.216 171.523 82.808 171.523 83.448C171.523 85.272 171.107 86.776 170.275 87.96C169.443 89.144 168.323 90.024 166.915 90.6C165.507 91.176 163.923 91.464 162.163 91.464C161.235 91.464 160.275 91.304 159.283 90.984C158.707 91.464 158.419 92.056 158.419 92.76C158.419 93.368 158.691 93.816 159.235 94.104C159.779 94.392 160.707 94.536 162.019 94.536H165.859C168.803 94.536 171.043 95.016 172.579 95.976C174.147 96.904 174.931 98.44 174.931 100.584C174.931 102.216 174.387 103.672 173.299 104.952C172.211 106.264 170.675 107.288 168.691 108.024C166.707 108.76 164.355 109.128 161.635 109.128ZM162.163 87.192C163.091 87.192 163.859 86.856 164.467 86.184C165.107 85.512 165.427 84.52 165.427 83.208C165.427 81.96 165.107 81.016 164.467 80.376C163.859 79.704 163.091 79.368 162.163 79.368C161.235 79.368 160.451 79.688 159.811 80.328C159.203 80.968 158.899 81.928 158.899 83.208C158.899 84.52 159.203 85.512 159.811 86.184C160.451 86.856 161.235 87.192 162.163 87.192ZM162.739 104.712C164.339 104.712 165.651 104.424 166.675 103.848C167.699 103.272 168.211 102.584 168.211 101.784C168.211 101.048 167.891 100.552 167.251 100.296C166.643 100.04 165.747 99.912 164.563 99.912H162.115C161.315 99.912 160.643 99.88 160.099 99.816C159.587 99.784 159.139 99.72 158.755 99.624C157.891 100.392 157.459 101.176 157.459 101.976C157.459 102.872 157.939 103.544 158.899 103.992C159.891 104.472 161.171 104.712 162.739 104.712ZM178.3 99V75.192H185.356V99H178.3ZM181.804 71.688C180.62 71.688 179.66 71.352 178.924 70.68C178.188 70.008 177.82 69.112 177.82 67.992C177.82 66.872 178.188 65.976 178.924 65.304C179.66 64.632 180.62 64.296 181.804 64.296C182.988 64.296 183.948 64.632 184.684 65.304C185.42 65.976 185.788 66.872 185.788 67.992C185.788 69.112 185.42 70.008 184.684 70.68C183.948 71.352 182.988 71.688 181.804 71.688ZM200.254 99.576C197.31 99.576 195.198 98.728 193.918 97.032C192.67 95.336 192.046 93.112 192.046 90.36V80.712H188.782V75.48L192.43 75.192L193.246 68.856H199.102V75.192H204.814V80.712H199.102V90.264C199.102 91.608 199.374 92.584 199.918 93.192C200.494 93.768 201.246 94.056 202.174 94.056C202.558 94.056 202.942 94.008 203.326 93.912C203.742 93.816 204.11 93.704 204.43 93.576L205.534 98.712C204.926 98.904 204.174 99.096 203.278 99.288C202.414 99.48 201.406 99.576 200.254 99.576ZM214.043 99.576C211.867 99.576 210.139 98.888 208.859 97.512C207.579 96.104 206.939 94.392 206.939 92.376C206.939 89.88 207.995 87.928 210.107 86.52C212.219 85.112 215.627 84.168 220.331 83.688C220.267 82.632 219.947 81.8 219.371 81.192C218.827 80.552 217.899 80.232 216.587 80.232C215.595 80.232 214.587 80.424 213.563 80.808C212.539 81.192 211.451 81.72 210.299 82.392L207.755 77.736C209.259 76.808 210.859 76.056 212.555 75.48C214.283 74.904 216.075 74.616 217.931 74.616C220.971 74.616 223.307 75.496 224.939 77.256C226.571 79.016 227.387 81.72 227.387 85.368V99H221.627L221.147 96.552H220.955C219.963 97.448 218.891 98.184 217.739 98.76C216.619 99.304 215.387 99.576 214.043 99.576ZM216.443 94.104C217.243 94.104 217.931 93.928 218.507 93.576C219.115 93.192 219.723 92.696 220.331 92.088V87.912C217.835 88.232 216.107 88.744 215.147 89.448C214.187 90.12 213.707 90.92 213.707 91.848C213.707 92.616 213.947 93.192 214.427 93.576C214.939 93.928 215.611 94.104 216.443 94.104ZM239.356 99.576C236.924 99.576 235.228 98.856 234.268 97.416C233.34 95.944 232.876 94.008 232.876 91.608V65.352H239.932V91.896C239.932 92.632 240.06 93.144 240.316 93.432C240.604 93.72 240.892 93.864 241.18 93.864C241.34 93.864 241.468 93.864 241.564 93.864C241.692 93.832 241.852 93.8 242.044 93.768L242.908 99C242.524 99.16 242.028 99.288 241.42 99.384C240.844 99.512 240.156 99.576 239.356 99.576ZM252.61 99.576C250.178 99.576 248.482 98.856 247.522 97.416C246.594 95.944 246.13 94.008 246.13 91.608V65.352H253.186V91.896C253.186 92.632 253.314 93.144 253.57 93.432C253.858 93.72 254.146 93.864 254.434 93.864C254.594 93.864 254.722 93.864 254.818 93.864C254.946 93.832 255.106 93.8 255.298 93.768L256.162 99C255.778 99.16 255.282 99.288 254.674 99.384C254.098 99.512 253.41 99.576 252.61 99.576ZM262.024 108.312C261.32 108.312 260.696 108.264 260.152 108.168C259.64 108.072 259.144 107.96 258.664 107.832L259.912 102.456C260.136 102.488 260.392 102.536 260.68 102.6C260.968 102.696 261.24 102.744 261.496 102.744C262.68 102.744 263.592 102.456 264.232 101.88C264.872 101.304 265.352 100.552 265.672 99.624L266.008 98.376L256.84 75.192H263.944L267.352 85.416C267.704 86.504 268.024 87.608 268.312 88.728C268.6 89.848 268.904 91 269.224 92.184H269.416C269.672 91.064 269.928 89.944 270.184 88.824C270.472 87.672 270.76 86.536 271.048 85.416L273.928 75.192H280.696L272.44 99.24C271.704 101.224 270.888 102.888 269.992 104.232C269.096 105.608 268.008 106.632 266.728 107.304C265.48 107.976 263.912 108.312 262.024 108.312ZM293.641 99V67.704H313.225V73.656H300.697V79.944H311.353V85.848H300.697V93.048H313.705V99H293.641ZM323.885 99L315.869 75.192H322.973L326.045 86.424C326.365 87.608 326.669 88.824 326.957 90.072C327.277 91.288 327.597 92.52 327.917 93.768H328.109C328.397 92.52 328.685 91.288 328.973 90.072C329.293 88.824 329.613 87.608 329.933 86.424L333.053 75.192H339.821L332.045 99H323.885ZM352.907 99.576C350.891 99.576 348.987 99.096 347.195 98.136C345.435 97.144 344.011 95.72 342.923 93.864C341.835 91.976 341.291 89.72 341.291 87.096C341.291 84.44 341.835 82.184 342.923 80.328C344.011 78.472 345.435 77.064 347.195 76.104C348.987 75.112 350.891 74.616 352.907 74.616C354.923 74.616 356.811 75.112 358.571 76.104C360.331 77.064 361.755 78.472 362.843 80.328C363.931 82.184 364.475 84.44 364.475 87.096C364.475 89.72 363.931 91.976 362.843 93.864C361.755 95.72 360.331 97.144 358.571 98.136C356.811 99.096 354.923 99.576 352.907 99.576ZM352.907 93.864C354.347 93.864 355.435 93.256 356.171 92.04C356.907 90.792 357.275 89.144 357.275 87.096C357.275 85.016 356.907 83.368 356.171 82.152C355.435 80.936 354.347 80.328 352.907 80.328C351.435 80.328 350.331 80.936 349.595 82.152C348.891 83.368 348.539 85.016 348.539 87.096C348.539 89.144 348.891 90.792 349.595 92.04C350.331 93.256 351.435 93.864 352.907 93.864ZM375.308 99.576C372.876 99.576 371.18 98.856 370.22 97.416C369.292 95.944 368.828 94.008 368.828 91.608V65.352H375.884V91.896C375.884 92.632 376.012 93.144 376.268 93.432C376.556 93.72 376.844 93.864 377.132 93.864C377.292 93.864 377.42 93.864 377.516 93.864C377.644 93.832 377.804 93.8 377.996 93.768L378.86 99C378.476 99.16 377.98 99.288 377.372 99.384C376.796 99.512 376.108 99.576 375.308 99.576ZM387.554 99L379.538 75.192H386.642L389.714 86.424C390.034 87.608 390.338 88.824 390.626 90.072C390.946 91.288 391.266 92.52 391.586 93.768H391.778C392.066 92.52 392.354 91.288 392.642 90.072C392.962 88.824 393.282 87.608 393.602 86.424L396.722 75.192H403.49L395.714 99H387.554ZM406.728 99V75.192H413.784V99H406.728ZM410.232 71.688C409.048 71.688 408.088 71.352 407.352 70.68C406.616 70.008 406.248 69.112 406.248 67.992C406.248 66.872 406.616 65.976 407.352 65.304C408.088 64.632 409.048 64.296 410.232 64.296C411.416 64.296 412.376 64.632 413.112 65.304C413.848 65.976 414.216 66.872 414.216 67.992C414.216 69.112 413.848 70.008 413.112 70.68C412.376 71.352 411.416 71.688 410.232 71.688ZM419.513 99V75.192H425.273L425.753 78.216H425.945C426.969 77.256 428.089 76.424 429.305 75.72C430.553 74.984 431.977 74.616 433.577 74.616C436.169 74.616 438.041 75.48 439.193 77.208C440.377 78.904 440.969 81.24 440.969 84.216V99H433.913V85.128C433.913 83.4 433.673 82.216 433.193 81.576C432.745 80.936 432.009 80.616 430.985 80.616C430.089 80.616 429.321 80.824 428.681 81.24C428.041 81.624 427.337 82.184 426.569 82.92V99H419.513ZM454.998 109.128C453.142 109.128 451.462 108.92 449.958 108.504C448.454 108.088 447.254 107.432 446.358 106.536C445.462 105.64 445.014 104.488 445.014 103.08C445.014 101.16 446.15 99.56 448.422 98.28V98.088C447.814 97.672 447.286 97.144 446.838 96.504C446.422 95.864 446.214 95.048 446.214 94.056C446.214 93.192 446.47 92.36 446.982 91.56C447.494 90.76 448.134 90.104 448.902 89.592V89.4C448.07 88.824 447.318 87.992 446.646 86.904C446.006 85.816 445.686 84.584 445.686 83.208C445.686 81.288 446.15 79.704 447.078 78.456C448.006 77.176 449.222 76.216 450.726 75.576C452.23 74.936 453.83 74.616 455.526 74.616C456.934 74.616 458.166 74.808 459.222 75.192H467.91V80.328H464.118C464.342 80.68 464.518 81.128 464.646 81.672C464.806 82.216 464.886 82.808 464.886 83.448C464.886 85.272 464.47 86.776 463.638 87.96C462.806 89.144 461.686 90.024 460.278 90.6C458.87 91.176 457.286 91.464 455.526 91.464C454.598 91.464 453.638 91.304 452.646 90.984C452.07 91.464 451.782 92.056 451.782 92.76C451.782 93.368 452.054 93.816 452.598 94.104C453.142 94.392 454.07 94.536 455.382 94.536H459.222C462.166 94.536 464.406 95.016 465.942 95.976C467.51 96.904 468.294 98.44 468.294 100.584C468.294 102.216 467.75 103.672 466.662 104.952C465.574 106.264 464.038 107.288 462.054 108.024C460.07 108.76 457.718 109.128 454.998 109.128ZM455.526 87.192C456.454 87.192 457.222 86.856 457.83 86.184C458.47 85.512 458.79 84.52 458.79 83.208C458.79 81.96 458.47 81.016 457.83 80.376C457.222 79.704 456.454 79.368 455.526 79.368C454.598 79.368 453.814 79.688 453.174 80.328C452.566 80.968 452.262 81.928 452.262 83.208C452.262 84.52 452.566 85.512 453.174 86.184C453.814 86.856 454.598 87.192 455.526 87.192ZM456.102 104.712C457.702 104.712 459.014 104.424 460.038 103.848C461.062 103.272 461.574 102.584 461.574 101.784C461.574 101.048 461.254 100.552 460.614 100.296C460.006 100.04 459.11 99.912 457.926 99.912H455.478C454.678 99.912 454.006 99.88 453.462 99.816C452.95 99.784 452.502 99.72 452.118 99.624C451.254 100.392 450.822 101.176 450.822 101.976C450.822 102.872 451.302 103.544 452.262 103.992C453.254 104.472 454.534 104.712 456.102 104.712ZM484.152 99L478.344 67.704H485.592L487.752 82.344C487.944 83.976 488.152 85.624 488.376 87.288C488.6 88.92 488.808 90.568 489 92.232H489.192C489.512 90.568 489.816 88.92 490.104 87.288C490.424 85.624 490.744 83.976 491.064 82.344L494.424 67.704H500.424L503.784 82.344C504.104 83.912 504.408 85.528 504.696 87.192C505.016 88.856 505.336 90.536 505.656 92.232H505.848C506.072 90.536 506.28 88.872 506.472 87.24C506.696 85.576 506.92 83.944 507.144 82.344L509.304 67.704H516.072L510.504 99H501.624L498.552 84.792C498.296 83.576 498.056 82.36 497.832 81.144C497.64 79.896 497.464 78.696 497.304 77.544H497.112C496.92 78.696 496.712 79.896 496.488 81.144C496.296 82.36 496.072 83.576 495.816 84.792L492.888 99H484.152ZM529.583 99.576C527.567 99.576 525.663 99.096 523.871 98.136C522.111 97.144 520.687 95.72 519.599 93.864C518.511 91.976 517.967 89.72 517.967 87.096C517.967 84.44 518.511 82.184 519.599 80.328C520.687 78.472 522.111 77.064 523.871 76.104C525.663 75.112 527.567 74.616 529.583 74.616C531.599 74.616 533.487 75.112 535.247 76.104C537.007 77.064 538.431 78.472 539.519 80.328C540.607 82.184 541.151 84.44 541.151 87.096C541.151 89.72 540.607 91.976 539.519 93.864C538.431 95.72 537.007 97.144 535.247 98.136C533.487 99.096 531.599 99.576 529.583 99.576ZM529.583 93.864C531.023 93.864 532.111 93.256 532.847 92.04C533.583 90.792 533.951 89.144 533.951 87.096C533.951 85.016 533.583 83.368 532.847 82.152C532.111 80.936 531.023 80.328 529.583 80.328C528.111 80.328 527.007 80.936 526.271 82.152C525.567 83.368 525.215 85.016 525.215 87.096C525.215 89.144 525.567 90.792 526.271 92.04C527.007 93.256 528.111 93.864 529.583 93.864ZM545.504 99V75.192H551.264L551.744 79.368H551.936C552.8 77.768 553.84 76.584 555.056 75.816C556.272 75.016 557.488 74.616 558.704 74.616C559.376 74.616 559.936 74.664 560.384 74.76C560.832 74.824 561.216 74.936 561.536 75.096L560.384 81.192C559.968 81.064 559.552 80.968 559.136 80.904C558.752 80.84 558.304 80.808 557.792 80.808C556.896 80.808 555.952 81.144 554.96 81.816C554 82.456 553.2 83.576 552.56 85.176V99H545.504ZM570.629 99.576C568.197 99.576 566.501 98.856 565.541 97.416C564.613 95.944 564.149 94.008 564.149 91.608V65.352H571.205V91.896C571.205 92.632 571.333 93.144 571.589 93.432C571.877 93.72 572.165 93.864 572.453 93.864C572.613 93.864 572.741 93.864 572.837 93.864C572.965 93.832 573.125 93.8 573.317 93.768L574.181 99C573.797 99.16 573.301 99.288 572.693 99.384C572.117 99.512 571.429 99.576 570.629 99.576ZM585.899 99.576C582.955 99.576 580.587 98.472 578.795 96.264C577.035 94.024 576.155 90.968 576.155 87.096C576.155 84.504 576.619 82.28 577.547 80.424C578.507 78.536 579.739 77.096 581.243 76.104C582.779 75.112 584.379 74.616 586.043 74.616C587.355 74.616 588.459 74.84 589.355 75.288C590.251 75.736 591.099 76.344 591.899 77.112L591.611 73.464V65.352H598.667V99H592.907L592.427 96.648H592.235C591.403 97.48 590.427 98.184 589.307 98.76C588.187 99.304 587.051 99.576 585.899 99.576ZM587.723 93.816C588.491 93.816 589.179 93.656 589.787 93.336C590.427 93.016 591.035 92.456 591.611 91.656V81.912C591.003 81.336 590.347 80.936 589.643 80.712C588.971 80.488 588.315 80.376 587.675 80.376C586.555 80.376 585.563 80.92 584.699 82.008C583.835 83.064 583.403 84.728 583.403 87C583.403 89.336 583.771 91.064 584.507 92.184C585.275 93.272 586.347 93.816 587.723 93.816Z" fill="url(#paint0_linear_509_15077)"/>
<defs>
<linearGradient id="paint0_linear_509_15077" x1="1" y1="-19" x2="255.499" y2="210.022" gradientUnits="userSpaceOnUse">
<stop offset="0.173456" stop-color="#EA4D5A"/>
<stop offset="1" stop-color="#4D9F98"/>
</linearGradient>
</defs>
</svg>
