<svg width="300" height="56" viewBox="0 0 300 56" fill="none" xmlns="http://www.w3.org/2000/svg">
<path d="M5.704 16V9.904L0.976 0.256H3.112L5.152 4.696C5.408 5.272 5.656 5.84 5.896 6.4C6.152 6.96 6.408 7.536 6.664 8.128H6.76C7.032 7.536 7.304 6.96 7.576 6.4C7.848 5.84 8.104 5.272 8.344 4.696L10.36 0.256H12.448L7.72 9.904V16H5.704ZM17.6937 16.288C16.7497 16.288 15.8617 16.048 15.0297 15.568C14.2137 15.088 13.5497 14.392 13.0377 13.48C12.5417 12.568 12.2937 11.472 12.2937 10.192C12.2937 8.88 12.5417 7.768 13.0377 6.856C13.5497 5.944 14.2137 5.248 15.0297 4.768C15.8617 4.288 16.7497 4.048 17.6937 4.048C18.6537 4.048 19.5417 4.288 20.3577 4.768C21.1737 5.248 21.8297 5.944 22.3257 6.856C22.8377 7.768 23.0937 8.88 23.0937 10.192C23.0937 11.472 22.8377 12.568 22.3257 13.48C21.8297 14.392 21.1737 15.088 20.3577 15.568C19.5417 16.048 18.6537 16.288 17.6937 16.288ZM17.6937 14.656C18.7017 14.656 19.5097 14.248 20.1177 13.432C20.7417 12.6 21.0537 11.52 21.0537 10.192C21.0537 8.848 20.7417 7.76 20.1177 6.928C19.5097 6.096 18.7017 5.68 17.6937 5.68C16.7017 5.68 15.8937 6.096 15.2697 6.928C14.6457 7.76 14.3337 8.848 14.3337 10.192C14.3337 11.52 14.6457 12.6 15.2697 13.432C15.8937 14.248 16.7017 14.656 17.6937 14.656ZM29.3335 16.288C28.1015 16.288 27.1975 15.904 26.6215 15.136C26.0455 14.352 25.7575 13.216 25.7575 11.728V4.336H27.7495V11.464C27.7495 12.552 27.9175 13.344 28.2535 13.84C28.6055 14.336 29.1655 14.584 29.9335 14.584C30.5415 14.584 31.0775 14.432 31.5415 14.128C32.0215 13.808 32.5335 13.304 33.0775 12.616V4.336H35.0455V16H33.4135L33.2455 14.176H33.1735C32.6295 14.816 32.0535 15.328 31.4455 15.712C30.8375 16.096 30.1335 16.288 29.3335 16.288ZM38.7402 16V4.336H40.3722L40.5402 6.448H40.6122C41.0122 5.712 41.5002 5.128 42.0762 4.696C42.6522 4.264 43.2682 4.048 43.9242 4.048C44.3882 4.048 44.8042 4.128 45.1722 4.288L44.7882 6.016C44.5962 5.952 44.4202 5.904 44.2602 5.872C44.1002 5.84 43.9002 5.824 43.6602 5.824C43.1642 5.824 42.6442 6.024 42.1002 6.424C41.5722 6.824 41.1082 7.52 40.7082 8.512V16H38.7402ZM51.5772 16V0.256H60.6492V1.936H53.5692V7.264H59.5692V8.944H53.5692V16H51.5772ZM66.0376 16.288C64.8056 16.288 63.9016 15.904 63.3256 15.136C62.7496 14.352 62.4616 13.216 62.4616 11.728V4.336H64.4536V11.464C64.4536 12.552 64.6216 13.344 64.9576 13.84C65.3096 14.336 65.8696 14.584 66.6376 14.584C67.2456 14.584 67.7816 14.432 68.2456 14.128C68.7256 13.808 69.2376 13.304 69.7816 12.616V4.336H71.7496V16H70.1176L69.9496 14.176H69.8776C69.3336 14.816 68.7576 15.328 68.1496 15.712C67.5416 16.096 66.8376 16.288 66.0376 16.288ZM79.1163 16.288C77.8682 16.288 76.9962 15.928 76.5002 15.208C76.0202 14.488 75.7802 13.552 75.7802 12.4V5.944H74.0522V4.456L75.8762 4.336L76.1162 1.072H77.7722V4.336H80.9162V5.944H77.7722V12.424C77.7722 13.144 77.9002 13.704 78.1562 14.104C78.4282 14.488 78.9002 14.68 79.5722 14.68C79.7803 14.68 80.0043 14.648 80.2442 14.584C80.4843 14.504 80.7003 14.432 80.8923 14.368L81.2763 15.856C80.9562 15.968 80.6042 16.064 80.2203 16.144C79.8523 16.24 79.4843 16.288 79.1163 16.288ZM86.7216 16.288C85.4896 16.288 84.5856 15.904 84.0096 15.136C83.4336 14.352 83.1456 13.216 83.1456 11.728V4.336H85.1376V11.464C85.1376 12.552 85.3056 13.344 85.6416 13.84C85.9936 14.336 86.5536 14.584 87.3216 14.584C87.9296 14.584 88.4656 14.432 88.9296 14.128C89.4096 13.808 89.9216 13.304 90.4656 12.616V4.336H92.4336V16H90.8016L90.6336 14.176H90.5616C90.0176 14.816 89.4416 15.328 88.8336 15.712C88.2256 16.096 87.5216 16.288 86.7216 16.288ZM96.1283 16V4.336H97.7603L97.9283 6.448H98.0003C98.4003 5.712 98.8883 5.128 99.4643 4.696C100.04 4.264 100.656 4.048 101.312 4.048C101.776 4.048 102.192 4.128 102.56 4.288L102.176 6.016C101.984 5.952 101.808 5.904 101.648 5.872C101.488 5.84 101.288 5.824 101.048 5.824C100.552 5.824 100.032 6.024 99.4883 6.424C98.9603 6.824 98.4963 7.52 98.0963 8.512V16H96.1283ZM108.702 16.288C107.662 16.288 106.718 16.048 105.87 15.568C105.022 15.072 104.35 14.368 103.854 13.456C103.358 12.544 103.11 11.456 103.11 10.192C103.11 8.912 103.358 7.816 103.854 6.904C104.366 5.992 105.022 5.288 105.822 4.792C106.622 4.296 107.462 4.048 108.342 4.048C109.83 4.048 110.974 4.544 111.774 5.536C112.59 6.528 112.998 7.856 112.998 9.52C112.998 9.728 112.99 9.936 112.974 10.144C112.974 10.336 112.958 10.504 112.926 10.648H105.054C105.134 11.88 105.518 12.864 106.206 13.6C106.91 14.336 107.822 14.704 108.942 14.704C109.502 14.704 110.014 14.624 110.478 14.464C110.958 14.288 111.414 14.064 111.846 13.792L112.542 15.088C112.046 15.408 111.478 15.688 110.838 15.928C110.214 16.168 109.502 16.288 108.702 16.288ZM105.03 9.232H111.27C111.27 8.048 111.014 7.152 110.502 6.544C110.006 5.92 109.302 5.608 108.39 5.608C107.574 5.608 106.838 5.928 106.182 6.568C105.542 7.192 105.158 8.08 105.03 9.232ZM120.397 16V0.256H124.885C126.069 0.256 127.101 0.4 127.981 0.688C128.861 0.976 129.549 1.464 130.045 2.152C130.541 2.824 130.789 3.736 130.789 4.888C130.789 6.536 130.253 7.76 129.181 8.56C128.109 9.36 126.709 9.76 124.981 9.76H122.389V16H120.397ZM122.389 8.128H124.741C126.117 8.128 127.133 7.872 127.789 7.36C128.461 6.832 128.797 6.008 128.797 4.888C128.797 3.752 128.445 2.968 127.741 2.536C127.053 2.088 126.021 1.864 124.645 1.864H122.389V8.128ZM135.216 16.288C134.24 16.288 133.424 16 132.768 15.424C132.128 14.832 131.808 14.016 131.808 12.976C131.808 11.696 132.376 10.72 133.512 10.048C134.664 9.36 136.48 8.88 138.96 8.608C138.96 8.112 138.888 7.64 138.744 7.192C138.616 6.744 138.376 6.384 138.024 6.112C137.688 5.824 137.2 5.68 136.56 5.68C135.888 5.68 135.256 5.808 134.664 6.064C134.072 6.32 133.544 6.608 133.08 6.928L132.312 5.56C132.856 5.208 133.52 4.872 134.304 4.552C135.104 4.216 135.968 4.048 136.896 4.048C138.32 4.048 139.352 4.488 139.992 5.368C140.632 6.232 140.952 7.392 140.952 8.848V16H139.32L139.152 14.608H139.08C138.536 15.056 137.936 15.448 137.28 15.784C136.64 16.12 135.952 16.288 135.216 16.288ZM135.792 14.704C136.352 14.704 136.88 14.568 137.376 14.296C137.872 14.024 138.4 13.64 138.96 13.144V9.904C137.024 10.144 135.664 10.504 134.88 10.984C134.112 11.464 133.728 12.08 133.728 12.832C133.728 13.488 133.928 13.968 134.328 14.272C134.728 14.56 135.216 14.704 135.792 14.704ZM144.381 16V4.336H146.013L146.181 6.448H146.253C146.653 5.712 147.141 5.128 147.717 4.696C148.293 4.264 148.909 4.048 149.565 4.048C150.029 4.048 150.445 4.128 150.813 4.288L150.429 6.016C150.237 5.952 150.061 5.904 149.901 5.872C149.741 5.84 149.541 5.824 149.301 5.824C148.805 5.824 148.285 6.024 147.741 6.424C147.213 6.824 146.749 7.52 146.349 8.512V16H144.381ZM156.134 16.288C154.886 16.288 154.014 15.928 153.518 15.208C153.038 14.488 152.798 13.552 152.798 12.4V5.944H151.07V4.456L152.894 4.336L153.134 1.072H154.79V4.336H157.934V5.944H154.79V12.424C154.79 13.144 154.918 13.704 155.174 14.104C155.446 14.488 155.918 14.68 156.59 14.68C156.798 14.68 157.022 14.648 157.262 14.584C157.502 14.504 157.718 14.432 157.91 14.368L158.294 15.856C157.974 15.968 157.622 16.064 157.238 16.144C156.87 16.24 156.502 16.288 156.134 16.288ZM160.331 16V4.336H161.963L162.131 6.016H162.203C162.763 5.456 163.355 4.992 163.979 4.624C164.603 4.24 165.315 4.048 166.115 4.048C167.347 4.048 168.243 4.44 168.803 5.224C169.379 5.992 169.667 7.12 169.667 8.608V16H167.699V8.872C167.699 7.784 167.523 6.992 167.171 6.496C166.819 6 166.259 5.752 165.491 5.752C164.899 5.752 164.363 5.904 163.883 6.208C163.419 6.512 162.891 6.96 162.299 7.552V16H160.331ZM177.944 16.288C176.904 16.288 175.96 16.048 175.112 15.568C174.264 15.072 173.592 14.368 173.096 13.456C172.6 12.544 172.352 11.456 172.352 10.192C172.352 8.912 172.6 7.816 173.096 6.904C173.608 5.992 174.264 5.288 175.064 4.792C175.864 4.296 176.704 4.048 177.584 4.048C179.072 4.048 180.216 4.544 181.016 5.536C181.832 6.528 182.24 7.856 182.24 9.52C182.24 9.728 182.232 9.936 182.216 10.144C182.216 10.336 182.2 10.504 182.168 10.648H174.296C174.376 11.88 174.76 12.864 175.448 13.6C176.152 14.336 177.064 14.704 178.184 14.704C178.744 14.704 179.256 14.624 179.72 14.464C180.2 14.288 180.656 14.064 181.088 13.792L181.784 15.088C181.288 15.408 180.72 15.688 180.08 15.928C179.456 16.168 178.744 16.288 177.944 16.288ZM174.272 9.232H180.512C180.512 8.048 180.256 7.152 179.744 6.544C179.248 5.92 178.544 5.608 177.632 5.608C176.816 5.608 176.08 5.928 175.424 6.568C174.784 7.192 174.4 8.08 174.272 9.232ZM184.882 16V4.336H186.514L186.682 6.448H186.754C187.154 5.712 187.642 5.128 188.218 4.696C188.794 4.264 189.41 4.048 190.066 4.048C190.53 4.048 190.946 4.128 191.314 4.288L190.93 6.016C190.738 5.952 190.562 5.904 190.402 5.872C190.242 5.84 190.042 5.824 189.802 5.824C189.306 5.824 188.786 6.024 188.242 6.424C187.714 6.824 187.25 7.52 186.85 8.512V16H184.882ZM3.16 50V34.256H12.232V35.936H5.152V41.264H11.152V42.944H5.152V50H3.16ZM18.7953 50.288C17.8513 50.288 16.9633 50.048 16.1313 49.568C15.3153 49.088 14.6513 48.392 14.1393 47.48C13.6433 46.568 13.3953 45.472 13.3953 44.192C13.3953 42.88 13.6433 41.768 14.1393 40.856C14.6513 39.944 15.3153 39.248 16.1313 38.768C16.9633 38.288 17.8513 38.048 18.7953 38.048C19.7553 38.048 20.6433 38.288 21.4593 38.768C22.2753 39.248 22.9313 39.944 23.4273 40.856C23.9393 41.768 24.1953 42.88 24.1953 44.192C24.1953 45.472 23.9393 46.568 23.4273 47.48C22.9313 48.392 22.2753 49.088 21.4593 49.568C20.6433 50.048 19.7553 50.288 18.7953 50.288ZM18.7953 48.656C19.8033 48.656 20.6113 48.248 21.2193 47.432C21.8433 46.6 22.1553 45.52 22.1553 44.192C22.1553 42.848 21.8433 41.76 21.2193 40.928C20.6113 40.096 19.8033 39.68 18.7953 39.68C17.8033 39.68 16.9953 40.096 16.3713 40.928C15.7473 41.76 15.4353 42.848 15.4353 44.192C15.4353 45.52 15.7473 46.6 16.3713 47.432C16.9953 48.248 17.8033 48.656 18.7953 48.656ZM27.0271 50V38.336H28.6591L28.8271 40.448H28.8991C29.2991 39.712 29.7871 39.128 30.3631 38.696C30.9391 38.264 31.5551 38.048 32.2111 38.048C32.6751 38.048 33.0911 38.128 33.4591 38.288L33.0751 40.016C32.8831 39.952 32.7071 39.904 32.5471 39.872C32.3871 39.84 32.1871 39.824 31.9471 39.824C31.4511 39.824 30.9311 40.024 30.3871 40.424C29.8591 40.824 29.3951 41.52 28.9951 42.512V50H27.0271ZM42.3601 50.288C41.3841 50.288 40.5681 50 39.9121 49.424C39.2721 48.832 38.9521 48.016 38.9521 46.976C38.9521 45.696 39.5201 44.72 40.6561 44.048C41.8081 43.36 43.6241 42.88 46.1041 42.608C46.1041 42.112 46.0321 41.64 45.8881 41.192C45.7601 40.744 45.5201 40.384 45.1681 40.112C44.8321 39.824 44.3441 39.68 43.7041 39.68C43.0321 39.68 42.4001 39.808 41.8081 40.064C41.2161 40.32 40.6881 40.608 40.2241 40.928L39.4561 39.56C40.0001 39.208 40.6641 38.872 41.4481 38.552C42.2481 38.216 43.1121 38.048 44.0401 38.048C45.4641 38.048 46.4961 38.488 47.1361 39.368C47.7761 40.232 48.0961 41.392 48.0961 42.848V50H46.4641L46.2961 48.608H46.2241C45.6801 49.056 45.0801 49.448 44.4241 49.784C43.7841 50.12 43.0961 50.288 42.3601 50.288ZM42.9361 48.704C43.4961 48.704 44.0241 48.568 44.5201 48.296C45.0161 48.024 45.5441 47.64 46.1041 47.144V43.904C44.1681 44.144 42.8081 44.504 42.0241 44.984C41.2561 45.464 40.8721 46.08 40.8721 46.832C40.8721 47.488 41.0721 47.968 41.4721 48.272C41.8721 48.56 42.3601 48.704 42.9361 48.704Z" fill="black"/>
<path d="M5.704 16V9.904L0.976 0.256H3.112L5.152 4.696C5.408 5.272 5.656 5.84 5.896 6.4C6.152 6.96 6.408 7.536 6.664 8.128H6.76C7.032 7.536 7.304 6.96 7.576 6.4C7.848 5.84 8.104 5.272 8.344 4.696L10.36 0.256H12.448L7.72 9.904V16H5.704ZM17.6937 16.288C16.7497 16.288 15.8617 16.048 15.0297 15.568C14.2137 15.088 13.5497 14.392 13.0377 13.48C12.5417 12.568 12.2937 11.472 12.2937 10.192C12.2937 8.88 12.5417 7.768 13.0377 6.856C13.5497 5.944 14.2137 5.248 15.0297 4.768C15.8617 4.288 16.7497 4.048 17.6937 4.048C18.6537 4.048 19.5417 4.288 20.3577 4.768C21.1737 5.248 21.8297 5.944 22.3257 6.856C22.8377 7.768 23.0937 8.88 23.0937 10.192C23.0937 11.472 22.8377 12.568 22.3257 13.48C21.8297 14.392 21.1737 15.088 20.3577 15.568C19.5417 16.048 18.6537 16.288 17.6937 16.288ZM17.6937 14.656C18.7017 14.656 19.5097 14.248 20.1177 13.432C20.7417 12.6 21.0537 11.52 21.0537 10.192C21.0537 8.848 20.7417 7.76 20.1177 6.928C19.5097 6.096 18.7017 5.68 17.6937 5.68C16.7017 5.68 15.8937 6.096 15.2697 6.928C14.6457 7.76 14.3337 8.848 14.3337 10.192C14.3337 11.52 14.6457 12.6 15.2697 13.432C15.8937 14.248 16.7017 14.656 17.6937 14.656ZM29.3335 16.288C28.1015 16.288 27.1975 15.904 26.6215 15.136C26.0455 14.352 25.7575 13.216 25.7575 11.728V4.336H27.7495V11.464C27.7495 12.552 27.9175 13.344 28.2535 13.84C28.6055 14.336 29.1655 14.584 29.9335 14.584C30.5415 14.584 31.0775 14.432 31.5415 14.128C32.0215 13.808 32.5335 13.304 33.0775 12.616V4.336H35.0455V16H33.4135L33.2455 14.176H33.1735C32.6295 14.816 32.0535 15.328 31.4455 15.712C30.8375 16.096 30.1335 16.288 29.3335 16.288ZM38.7402 16V4.336H40.3722L40.5402 6.448H40.6122C41.0122 5.712 41.5002 5.128 42.0762 4.696C42.6522 4.264 43.2682 4.048 43.9242 4.048C44.3882 4.048 44.8042 4.128 45.1722 4.288L44.7882 6.016C44.5962 5.952 44.4202 5.904 44.2602 5.872C44.1002 5.84 43.9002 5.824 43.6602 5.824C43.1642 5.824 42.6442 6.024 42.1002 6.424C41.5722 6.824 41.1082 7.52 40.7082 8.512V16H38.7402ZM51.5772 16V0.256H60.6492V1.936H53.5692V7.264H59.5692V8.944H53.5692V16H51.5772ZM66.0376 16.288C64.8056 16.288 63.9016 15.904 63.3256 15.136C62.7496 14.352 62.4616 13.216 62.4616 11.728V4.336H64.4536V11.464C64.4536 12.552 64.6216 13.344 64.9576 13.84C65.3096 14.336 65.8696 14.584 66.6376 14.584C67.2456 14.584 67.7816 14.432 68.2456 14.128C68.7256 13.808 69.2376 13.304 69.7816 12.616V4.336H71.7496V16H70.1176L69.9496 14.176H69.8776C69.3336 14.816 68.7576 15.328 68.1496 15.712C67.5416 16.096 66.8376 16.288 66.0376 16.288ZM79.1163 16.288C77.8682 16.288 76.9962 15.928 76.5002 15.208C76.0202 14.488 75.7802 13.552 75.7802 12.4V5.944H74.0522V4.456L75.8762 4.336L76.1162 1.072H77.7722V4.336H80.9162V5.944H77.7722V12.424C77.7722 13.144 77.9002 13.704 78.1562 14.104C78.4282 14.488 78.9002 14.68 79.5722 14.68C79.7803 14.68 80.0043 14.648 80.2442 14.584C80.4843 14.504 80.7003 14.432 80.8923 14.368L81.2763 15.856C80.9562 15.968 80.6042 16.064 80.2203 16.144C79.8523 16.24 79.4843 16.288 79.1163 16.288ZM86.7216 16.288C85.4896 16.288 84.5856 15.904 84.0096 15.136C83.4336 14.352 83.1456 13.216 83.1456 11.728V4.336H85.1376V11.464C85.1376 12.552 85.3056 13.344 85.6416 13.84C85.9936 14.336 86.5536 14.584 87.3216 14.584C87.9296 14.584 88.4656 14.432 88.9296 14.128C89.4096 13.808 89.9216 13.304 90.4656 12.616V4.336H92.4336V16H90.8016L90.6336 14.176H90.5616C90.0176 14.816 89.4416 15.328 88.8336 15.712C88.2256 16.096 87.5216 16.288 86.7216 16.288ZM96.1283 16V4.336H97.7603L97.9283 6.448H98.0003C98.4003 5.712 98.8883 5.128 99.4643 4.696C100.04 4.264 100.656 4.048 101.312 4.048C101.776 4.048 102.192 4.128 102.56 4.288L102.176 6.016C101.984 5.952 101.808 5.904 101.648 5.872C101.488 5.84 101.288 5.824 101.048 5.824C100.552 5.824 100.032 6.024 99.4883 6.424C98.9603 6.824 98.4963 7.52 98.0963 8.512V16H96.1283ZM108.702 16.288C107.662 16.288 106.718 16.048 105.87 15.568C105.022 15.072 104.35 14.368 103.854 13.456C103.358 12.544 103.11 11.456 103.11 10.192C103.11 8.912 103.358 7.816 103.854 6.904C104.366 5.992 105.022 5.288 105.822 4.792C106.622 4.296 107.462 4.048 108.342 4.048C109.83 4.048 110.974 4.544 111.774 5.536C112.59 6.528 112.998 7.856 112.998 9.52C112.998 9.728 112.99 9.936 112.974 10.144C112.974 10.336 112.958 10.504 112.926 10.648H105.054C105.134 11.88 105.518 12.864 106.206 13.6C106.91 14.336 107.822 14.704 108.942 14.704C109.502 14.704 110.014 14.624 110.478 14.464C110.958 14.288 111.414 14.064 111.846 13.792L112.542 15.088C112.046 15.408 111.478 15.688 110.838 15.928C110.214 16.168 109.502 16.288 108.702 16.288ZM105.03 9.232H111.27C111.27 8.048 111.014 7.152 110.502 6.544C110.006 5.92 109.302 5.608 108.39 5.608C107.574 5.608 106.838 5.928 106.182 6.568C105.542 7.192 105.158 8.08 105.03 9.232ZM120.397 16V0.256H124.885C126.069 0.256 127.101 0.4 127.981 0.688C128.861 0.976 129.549 1.464 130.045 2.152C130.541 2.824 130.789 3.736 130.789 4.888C130.789 6.536 130.253 7.76 129.181 8.56C128.109 9.36 126.709 9.76 124.981 9.76H122.389V16H120.397ZM122.389 8.128H124.741C126.117 8.128 127.133 7.872 127.789 7.36C128.461 6.832 128.797 6.008 128.797 4.888C128.797 3.752 128.445 2.968 127.741 2.536C127.053 2.088 126.021 1.864 124.645 1.864H122.389V8.128ZM135.216 16.288C134.24 16.288 133.424 16 132.768 15.424C132.128 14.832 131.808 14.016 131.808 12.976C131.808 11.696 132.376 10.72 133.512 10.048C134.664 9.36 136.48 8.88 138.96 8.608C138.96 8.112 138.888 7.64 138.744 7.192C138.616 6.744 138.376 6.384 138.024 6.112C137.688 5.824 137.2 5.68 136.56 5.68C135.888 5.68 135.256 5.808 134.664 6.064C134.072 6.32 133.544 6.608 133.08 6.928L132.312 5.56C132.856 5.208 133.52 4.872 134.304 4.552C135.104 4.216 135.968 4.048 136.896 4.048C138.32 4.048 139.352 4.488 139.992 5.368C140.632 6.232 140.952 7.392 140.952 8.848V16H139.32L139.152 14.608H139.08C138.536 15.056 137.936 15.448 137.28 15.784C136.64 16.12 135.952 16.288 135.216 16.288ZM135.792 14.704C136.352 14.704 136.88 14.568 137.376 14.296C137.872 14.024 138.4 13.64 138.96 13.144V9.904C137.024 10.144 135.664 10.504 134.88 10.984C134.112 11.464 133.728 12.08 133.728 12.832C133.728 13.488 133.928 13.968 134.328 14.272C134.728 14.56 135.216 14.704 135.792 14.704ZM144.381 16V4.336H146.013L146.181 6.448H146.253C146.653 5.712 147.141 5.128 147.717 4.696C148.293 4.264 148.909 4.048 149.565 4.048C150.029 4.048 150.445 4.128 150.813 4.288L150.429 6.016C150.237 5.952 150.061 5.904 149.901 5.872C149.741 5.84 149.541 5.824 149.301 5.824C148.805 5.824 148.285 6.024 147.741 6.424C147.213 6.824 146.749 7.52 146.349 8.512V16H144.381ZM156.134 16.288C154.886 16.288 154.014 15.928 153.518 15.208C153.038 14.488 152.798 13.552 152.798 12.4V5.944H151.07V4.456L152.894 4.336L153.134 1.072H154.79V4.336H157.934V5.944H154.79V12.424C154.79 13.144 154.918 13.704 155.174 14.104C155.446 14.488 155.918 14.68 156.59 14.68C156.798 14.68 157.022 14.648 157.262 14.584C157.502 14.504 157.718 14.432 157.91 14.368L158.294 15.856C157.974 15.968 157.622 16.064 157.238 16.144C156.87 16.24 156.502 16.288 156.134 16.288ZM160.331 16V4.336H161.963L162.131 6.016H162.203C162.763 5.456 163.355 4.992 163.979 4.624C164.603 4.24 165.315 4.048 166.115 4.048C167.347 4.048 168.243 4.44 168.803 5.224C169.379 5.992 169.667 7.12 169.667 8.608V16H167.699V8.872C167.699 7.784 167.523 6.992 167.171 6.496C166.819 6 166.259 5.752 165.491 5.752C164.899 5.752 164.363 5.904 163.883 6.208C163.419 6.512 162.891 6.96 162.299 7.552V16H160.331ZM177.944 16.288C176.904 16.288 175.96 16.048 175.112 15.568C174.264 15.072 173.592 14.368 173.096 13.456C172.6 12.544 172.352 11.456 172.352 10.192C172.352 8.912 172.6 7.816 173.096 6.904C173.608 5.992 174.264 5.288 175.064 4.792C175.864 4.296 176.704 4.048 177.584 4.048C179.072 4.048 180.216 4.544 181.016 5.536C181.832 6.528 182.24 7.856 182.24 9.52C182.24 9.728 182.232 9.936 182.216 10.144C182.216 10.336 182.2 10.504 182.168 10.648H174.296C174.376 11.88 174.76 12.864 175.448 13.6C176.152 14.336 177.064 14.704 178.184 14.704C178.744 14.704 179.256 14.624 179.72 14.464C180.2 14.288 180.656 14.064 181.088 13.792L181.784 15.088C181.288 15.408 180.72 15.688 180.08 15.928C179.456 16.168 178.744 16.288 177.944 16.288ZM174.272 9.232H180.512C180.512 8.048 180.256 7.152 179.744 6.544C179.248 5.92 178.544 5.608 177.632 5.608C176.816 5.608 176.08 5.928 175.424 6.568C174.784 7.192 174.4 8.08 174.272 9.232ZM184.882 16V4.336H186.514L186.682 6.448H186.754C187.154 5.712 187.642 5.128 188.218 4.696C188.794 4.264 189.41 4.048 190.066 4.048C190.53 4.048 190.946 4.128 191.314 4.288L190.93 6.016C190.738 5.952 190.562 5.904 190.402 5.872C190.242 5.84 190.042 5.824 189.802 5.824C189.306 5.824 188.786 6.024 188.242 6.424C187.714 6.824 187.25 7.52 186.85 8.512V16H184.882ZM3.16 50V34.256H12.232V35.936H5.152V41.264H11.152V42.944H5.152V50H3.16ZM18.7953 50.288C17.8513 50.288 16.9633 50.048 16.1313 49.568C15.3153 49.088 14.6513 48.392 14.1393 47.48C13.6433 46.568 13.3953 45.472 13.3953 44.192C13.3953 42.88 13.6433 41.768 14.1393 40.856C14.6513 39.944 15.3153 39.248 16.1313 38.768C16.9633 38.288 17.8513 38.048 18.7953 38.048C19.7553 38.048 20.6433 38.288 21.4593 38.768C22.2753 39.248 22.9313 39.944 23.4273 40.856C23.9393 41.768 24.1953 42.88 24.1953 44.192C24.1953 45.472 23.9393 46.568 23.4273 47.48C22.9313 48.392 22.2753 49.088 21.4593 49.568C20.6433 50.048 19.7553 50.288 18.7953 50.288ZM18.7953 48.656C19.8033 48.656 20.6113 48.248 21.2193 47.432C21.8433 46.6 22.1553 45.52 22.1553 44.192C22.1553 42.848 21.8433 41.76 21.2193 40.928C20.6113 40.096 19.8033 39.68 18.7953 39.68C17.8033 39.68 16.9953 40.096 16.3713 40.928C15.7473 41.76 15.4353 42.848 15.4353 44.192C15.4353 45.52 15.7473 46.6 16.3713 47.432C16.9953 48.248 17.8033 48.656 18.7953 48.656ZM27.0271 50V38.336H28.6591L28.8271 40.448H28.8991C29.2991 39.712 29.7871 39.128 30.3631 38.696C30.9391 38.264 31.5551 38.048 32.2111 38.048C32.6751 38.048 33.0911 38.128 33.4591 38.288L33.0751 40.016C32.8831 39.952 32.7071 39.904 32.5471 39.872C32.3871 39.84 32.1871 39.824 31.9471 39.824C31.4511 39.824 30.9311 40.024 30.3871 40.424C29.8591 40.824 29.3951 41.52 28.9951 42.512V50H27.0271ZM42.3601 50.288C41.3841 50.288 40.5681 50 39.9121 49.424C39.2721 48.832 38.9521 48.016 38.9521 46.976C38.9521 45.696 39.5201 44.72 40.6561 44.048C41.8081 43.36 43.6241 42.88 46.1041 42.608C46.1041 42.112 46.0321 41.64 45.8881 41.192C45.7601 40.744 45.5201 40.384 45.1681 40.112C44.8321 39.824 44.3441 39.68 43.7041 39.68C43.0321 39.68 42.4001 39.808 41.8081 40.064C41.2161 40.32 40.6881 40.608 40.2241 40.928L39.4561 39.56C40.0001 39.208 40.6641 38.872 41.4481 38.552C42.2481 38.216 43.1121 38.048 44.0401 38.048C45.4641 38.048 46.4961 38.488 47.1361 39.368C47.7761 40.232 48.0961 41.392 48.0961 42.848V50H46.4641L46.2961 48.608H46.2241C45.6801 49.056 45.0801 49.448 44.4241 49.784C43.7841 50.12 43.0961 50.288 42.3601 50.288ZM42.9361 48.704C43.4961 48.704 44.0241 48.568 44.5201 48.296C45.0161 48.024 45.5441 47.64 46.1041 47.144V43.904C44.1681 44.144 42.8081 44.504 42.0241 44.984C41.2561 45.464 40.8721 46.08 40.8721 46.832C40.8721 47.488 41.0721 47.968 41.4721 48.272C41.8721 48.56 42.3601 48.704 42.9361 48.704Z" fill="#172C36"/>
<path d="M55.9705 50V34.352H60.3865C61.9865 34.352 63.3705 34.624 64.5385 35.168C65.7065 35.712 66.6105 36.56 67.2505 37.712C67.9065 38.848 68.2345 40.312 68.2345 42.104C68.2345 43.896 67.9145 45.376 67.2745 46.544C66.6345 47.712 65.7385 48.584 64.5865 49.16C63.4505 49.72 62.1145 50 60.5785 50H55.9705ZM59.4985 47.144H60.1705C61.0665 47.144 61.8425 46.984 62.4985 46.664C63.1705 46.344 63.6905 45.816 64.0585 45.08C64.4265 44.344 64.6105 43.352 64.6105 42.104C64.6105 40.856 64.4265 39.88 64.0585 39.176C63.6905 38.456 63.1705 37.952 62.4985 37.664C61.8425 37.36 61.0665 37.208 60.1705 37.208H59.4985V47.144ZM70.6769 50V38.096H74.2049V50H70.6769ZM72.4289 36.344C71.8369 36.344 71.3569 36.176 70.9889 35.84C70.6209 35.504 70.4369 35.056 70.4369 34.496C70.4369 33.936 70.6209 33.488 70.9889 33.152C71.3569 32.816 71.8369 32.648 72.4289 32.648C73.0209 32.648 73.5009 32.816 73.8689 33.152C74.2369 33.488 74.4209 33.936 74.4209 34.496C74.4209 35.056 74.2369 35.504 73.8689 35.84C73.5009 36.176 73.0209 36.344 72.4289 36.344ZM81.3177 55.064C80.3897 55.064 79.5497 54.96 78.7977 54.752C78.0457 54.544 77.4457 54.216 76.9977 53.768C76.5497 53.32 76.3257 52.744 76.3257 52.04C76.3257 51.08 76.8937 50.28 78.0297 49.64V49.544C77.7257 49.336 77.4617 49.072 77.2377 48.752C77.0297 48.432 76.9257 48.024 76.9257 47.528C76.9257 47.096 77.0537 46.68 77.3097 46.28C77.5657 45.88 77.8857 45.552 78.2697 45.296V45.2C77.8537 44.912 77.4777 44.496 77.1417 43.952C76.8217 43.408 76.6617 42.792 76.6617 42.104C76.6617 41.144 76.8937 40.352 77.3577 39.728C77.8217 39.088 78.4297 38.608 79.1817 38.288C79.9337 37.968 80.7337 37.808 81.5817 37.808C82.2857 37.808 82.9017 37.904 83.4297 38.096H87.7737V40.664H85.8777C85.9897 40.84 86.0777 41.064 86.1417 41.336C86.2217 41.608 86.2617 41.904 86.2617 42.224C86.2617 43.136 86.0537 43.888 85.6377 44.48C85.2217 45.072 84.6617 45.512 83.9577 45.8C83.2537 46.088 82.4617 46.232 81.5817 46.232C81.1177 46.232 80.6377 46.152 80.1417 45.992C79.8537 46.232 79.7097 46.528 79.7097 46.88C79.7097 47.184 79.8457 47.408 80.1177 47.552C80.3897 47.696 80.8537 47.768 81.5097 47.768H83.4297C84.9017 47.768 86.0217 48.008 86.7897 48.488C87.5737 48.952 87.9657 49.72 87.9657 50.792C87.9657 51.608 87.6937 52.336 87.1497 52.976C86.6057 53.632 85.8377 54.144 84.8457 54.512C83.8537 54.88 82.6777 55.064 81.3177 55.064ZM81.5817 44.096C82.0457 44.096 82.4297 43.928 82.7337 43.592C83.0537 43.256 83.2137 42.76 83.2137 42.104C83.2137 41.48 83.0537 41.008 82.7337 40.688C82.4297 40.352 82.0457 40.184 81.5817 40.184C81.1177 40.184 80.7257 40.344 80.4057 40.664C80.1017 40.984 79.9497 41.464 79.9497 42.104C79.9497 42.76 80.1017 43.256 80.4057 43.592C80.7257 43.928 81.1177 44.096 81.5817 44.096ZM81.8697 52.856C82.6697 52.856 83.3257 52.712 83.8377 52.424C84.3497 52.136 84.6057 51.792 84.6057 51.392C84.6057 51.024 84.4457 50.776 84.1257 50.648C83.8217 50.52 83.3737 50.456 82.7817 50.456H81.5577C81.1577 50.456 80.8217 50.44 80.5497 50.408C80.2937 50.392 80.0697 50.36 79.8777 50.312C79.4457 50.696 79.2297 51.088 79.2297 51.488C79.2297 51.936 79.4697 52.272 79.9497 52.496C80.4457 52.736 81.0857 52.856 81.8697 52.856ZM89.65 50V38.096H93.178V50H89.65ZM91.402 36.344C90.81 36.344 90.33 36.176 89.962 35.84C89.594 35.504 89.41 35.056 89.41 34.496C89.41 33.936 89.594 33.488 89.962 33.152C90.33 32.816 90.81 32.648 91.402 32.648C91.994 32.648 92.474 32.816 92.842 33.152C93.21 33.488 93.394 33.936 93.394 34.496C93.394 35.056 93.21 35.504 92.842 35.84C92.474 36.176 91.994 36.344 91.402 36.344ZM100.627 50.288C99.1548 50.288 98.0988 49.864 97.4588 49.016C96.8348 48.168 96.5228 47.056 96.5228 45.68V40.856H94.8908V38.24L96.7148 38.096L97.1228 34.928H100.051V38.096H102.907V40.856H100.051V45.632C100.051 46.304 100.187 46.792 100.459 47.096C100.747 47.384 101.123 47.528 101.587 47.528C101.779 47.528 101.971 47.504 102.163 47.456C102.371 47.408 102.555 47.352 102.715 47.288L103.267 49.856C102.963 49.952 102.587 50.048 102.139 50.144C101.707 50.24 101.203 50.288 100.627 50.288ZM107.522 50.288C106.434 50.288 105.57 49.944 104.93 49.256C104.29 48.552 103.97 47.696 103.97 46.688C103.97 45.44 104.498 44.464 105.554 43.76C106.61 43.056 108.314 42.584 110.666 42.344C110.634 41.816 110.474 41.4 110.186 41.096C109.914 40.776 109.45 40.616 108.794 40.616C108.298 40.616 107.794 40.712 107.282 40.904C106.77 41.096 106.226 41.36 105.65 41.696L104.378 39.368C105.13 38.904 105.93 38.528 106.778 38.24C107.642 37.952 108.538 37.808 109.466 37.808C110.986 37.808 112.154 38.248 112.97 39.128C113.786 40.008 114.194 41.36 114.194 43.184V50H111.314L111.074 48.776H110.978C110.482 49.224 109.946 49.592 109.37 49.88C108.81 50.152 108.194 50.288 107.522 50.288ZM108.722 47.552C109.122 47.552 109.466 47.464 109.754 47.288C110.058 47.096 110.362 46.848 110.666 46.544V44.456C109.418 44.616 108.554 44.872 108.074 45.224C107.594 45.56 107.354 45.96 107.354 46.424C107.354 46.808 107.474 47.096 107.714 47.288C107.97 47.464 108.306 47.552 108.722 47.552ZM120.178 50.288C118.962 50.288 118.114 49.928 117.634 49.208C117.17 48.472 116.938 47.504 116.938 46.304V33.176H120.466V46.448C120.466 46.816 120.53 47.072 120.658 47.216C120.802 47.36 120.946 47.432 121.09 47.432C121.17 47.432 121.234 47.432 121.282 47.432C121.346 47.416 121.426 47.4 121.522 47.384L121.954 50C121.762 50.08 121.514 50.144 121.21 50.192C120.922 50.256 120.578 50.288 120.178 50.288ZM126.805 50.288C125.589 50.288 124.741 49.928 124.261 49.208C123.797 48.472 123.565 47.504 123.565 46.304V33.176H127.093V46.448C127.093 46.816 127.157 47.072 127.285 47.216C127.429 47.36 127.573 47.432 127.717 47.432C127.797 47.432 127.861 47.432 127.909 47.432C127.973 47.416 128.053 47.4 128.149 47.384L128.581 50C128.389 50.08 128.141 50.144 127.837 50.192C127.549 50.256 127.205 50.288 126.805 50.288ZM131.512 54.656C131.16 54.656 130.848 54.632 130.576 54.584C130.32 54.536 130.072 54.48 129.832 54.416L130.456 51.728C130.568 51.744 130.696 51.768 130.84 51.8C130.984 51.848 131.12 51.872 131.248 51.872C131.84 51.872 132.296 51.728 132.616 51.44C132.936 51.152 133.176 50.776 133.336 50.312L133.504 49.688L128.92 38.096H132.472L134.176 43.208C134.352 43.752 134.512 44.304 134.656 44.864C134.8 45.424 134.952 46 135.112 46.592H135.208C135.336 46.032 135.464 45.472 135.592 44.912C135.736 44.336 135.88 43.768 136.024 43.208L137.464 38.096H140.848L136.72 50.12C136.352 51.112 135.944 51.944 135.496 52.616C135.048 53.304 134.504 53.816 133.864 54.152C133.24 54.488 132.456 54.656 131.512 54.656ZM147.321 50V34.352H157.113V37.328H150.849V40.472H156.177V43.424H150.849V47.024H157.353V50H147.321ZM162.443 50L158.435 38.096H161.987L163.523 43.712C163.683 44.304 163.835 44.912 163.979 45.536C164.139 46.144 164.299 46.76 164.459 47.384H164.555C164.699 46.76 164.843 46.144 164.987 45.536C165.147 44.912 165.307 44.304 165.467 43.712L167.027 38.096H170.411L166.523 50H162.443ZM176.954 50.288C175.946 50.288 174.994 50.048 174.098 49.568C173.218 49.072 172.506 48.36 171.962 47.432C171.418 46.488 171.146 45.36 171.146 44.048C171.146 42.72 171.418 41.592 171.962 40.664C172.506 39.736 173.218 39.032 174.098 38.552C174.994 38.056 175.946 37.808 176.954 37.808C177.962 37.808 178.906 38.056 179.786 38.552C180.666 39.032 181.378 39.736 181.922 40.664C182.466 41.592 182.738 42.72 182.738 44.048C182.738 45.36 182.466 46.488 181.922 47.432C181.378 48.36 180.666 49.072 179.786 49.568C178.906 50.048 177.962 50.288 176.954 50.288ZM176.954 47.432C177.674 47.432 178.218 47.128 178.586 46.52C178.954 45.896 179.138 45.072 179.138 44.048C179.138 43.008 178.954 42.184 178.586 41.576C178.218 40.968 177.674 40.664 176.954 40.664C176.218 40.664 175.666 40.968 175.298 41.576C174.946 42.184 174.77 43.008 174.77 44.048C174.77 45.072 174.946 45.896 175.298 46.52C175.666 47.128 176.218 47.432 176.954 47.432ZM188.154 50.288C186.938 50.288 186.09 49.928 185.61 49.208C185.146 48.472 184.914 47.504 184.914 46.304V33.176H188.442V46.448C188.442 46.816 188.506 47.072 188.634 47.216C188.778 47.36 188.922 47.432 189.066 47.432C189.146 47.432 189.21 47.432 189.258 47.432C189.322 47.416 189.402 47.4 189.498 47.384L189.93 50C189.738 50.08 189.49 50.144 189.186 50.192C188.898 50.256 188.554 50.288 188.154 50.288ZM194.277 50L190.269 38.096H193.821L195.357 43.712C195.517 44.304 195.669 44.912 195.813 45.536C195.973 46.144 196.133 46.76 196.293 47.384H196.389C196.533 46.76 196.677 46.144 196.821 45.536C196.981 44.912 197.141 44.304 197.301 43.712L198.861 38.096H202.245L198.357 50H194.277ZM203.864 50V38.096H207.392V50H203.864ZM205.616 36.344C205.024 36.344 204.544 36.176 204.176 35.84C203.808 35.504 203.624 35.056 203.624 34.496C203.624 33.936 203.808 33.488 204.176 33.152C204.544 32.816 205.024 32.648 205.616 32.648C206.208 32.648 206.688 32.816 207.056 33.152C207.424 33.488 207.608 33.936 207.608 34.496C207.608 35.056 207.424 35.504 207.056 35.84C206.688 36.176 206.208 36.344 205.616 36.344ZM210.257 50V38.096H213.137L213.377 39.608H213.473C213.985 39.128 214.545 38.712 215.153 38.36C215.777 37.992 216.489 37.808 217.289 37.808C218.585 37.808 219.521 38.24 220.097 39.104C220.689 39.952 220.985 41.12 220.985 42.608V50H217.457V43.064C217.457 42.2 217.337 41.608 217.097 41.288C216.873 40.968 216.505 40.808 215.993 40.808C215.545 40.808 215.161 40.912 214.841 41.12C214.521 41.312 214.169 41.592 213.785 41.96V50H210.257ZM227.999 55.064C227.071 55.064 226.231 54.96 225.479 54.752C224.727 54.544 224.127 54.216 223.679 53.768C223.231 53.32 223.007 52.744 223.007 52.04C223.007 51.08 223.575 50.28 224.711 49.64V49.544C224.407 49.336 224.143 49.072 223.919 48.752C223.711 48.432 223.607 48.024 223.607 47.528C223.607 47.096 223.735 46.68 223.991 46.28C224.247 45.88 224.567 45.552 224.951 45.296V45.2C224.535 44.912 224.159 44.496 223.823 43.952C223.503 43.408 223.343 42.792 223.343 42.104C223.343 41.144 223.575 40.352 224.039 39.728C224.503 39.088 225.111 38.608 225.863 38.288C226.615 37.968 227.415 37.808 228.263 37.808C228.967 37.808 229.583 37.904 230.111 38.096H234.455V40.664H232.559C232.671 40.84 232.759 41.064 232.823 41.336C232.903 41.608 232.943 41.904 232.943 42.224C232.943 43.136 232.735 43.888 232.319 44.48C231.903 45.072 231.343 45.512 230.639 45.8C229.935 46.088 229.143 46.232 228.263 46.232C227.799 46.232 227.319 46.152 226.823 45.992C226.535 46.232 226.391 46.528 226.391 46.88C226.391 47.184 226.527 47.408 226.799 47.552C227.071 47.696 227.535 47.768 228.191 47.768H230.111C231.583 47.768 232.703 48.008 233.471 48.488C234.255 48.952 234.647 49.72 234.647 50.792C234.647 51.608 234.375 52.336 233.831 52.976C233.287 53.632 232.519 54.144 231.527 54.512C230.535 54.88 229.359 55.064 227.999 55.064ZM228.263 44.096C228.727 44.096 229.111 43.928 229.415 43.592C229.735 43.256 229.895 42.76 229.895 42.104C229.895 41.48 229.735 41.008 229.415 40.688C229.111 40.352 228.727 40.184 228.263 40.184C227.799 40.184 227.407 40.344 227.087 40.664C226.783 40.984 226.631 41.464 226.631 42.104C226.631 42.76 226.783 43.256 227.087 43.592C227.407 43.928 227.799 44.096 228.263 44.096ZM228.551 52.856C229.351 52.856 230.007 52.712 230.519 52.424C231.031 52.136 231.287 51.792 231.287 51.392C231.287 51.024 231.127 50.776 230.807 50.648C230.503 50.52 230.055 50.456 229.463 50.456H228.239C227.839 50.456 227.503 50.44 227.231 50.408C226.975 50.392 226.751 50.36 226.559 50.312C226.127 50.696 225.911 51.088 225.911 51.488C225.911 51.936 226.151 52.272 226.631 52.496C227.127 52.736 227.767 52.856 228.551 52.856ZM242.576 50L239.672 34.352H243.296L244.376 41.672C244.472 42.488 244.576 43.312 244.688 44.144C244.8 44.96 244.904 45.784 245 46.616H245.096C245.256 45.784 245.408 44.96 245.552 44.144C245.712 43.312 245.872 42.488 246.032 41.672L247.712 34.352H250.712L252.392 41.672C252.552 42.456 252.704 43.264 252.848 44.096C253.008 44.928 253.168 45.768 253.328 46.616H253.424C253.536 45.768 253.64 44.936 253.736 44.12C253.848 43.288 253.96 42.472 254.072 41.672L255.152 34.352H258.536L255.752 50H251.312L249.776 42.896C249.648 42.288 249.528 41.68 249.416 41.072C249.32 40.448 249.232 39.848 249.152 39.272H249.056C248.96 39.848 248.856 40.448 248.744 41.072C248.648 41.68 248.536 42.288 248.408 42.896L246.944 50H242.576ZM265.291 50.288C264.283 50.288 263.331 50.048 262.435 49.568C261.555 49.072 260.843 48.36 260.299 47.432C259.755 46.488 259.483 45.36 259.483 44.048C259.483 42.72 259.755 41.592 260.299 40.664C260.843 39.736 261.555 39.032 262.435 38.552C263.331 38.056 264.283 37.808 265.291 37.808C266.299 37.808 267.243 38.056 268.123 38.552C269.003 39.032 269.715 39.736 270.259 40.664C270.803 41.592 271.075 42.72 271.075 44.048C271.075 45.36 270.803 46.488 270.259 47.432C269.715 48.36 269.003 49.072 268.123 49.568C267.243 50.048 266.299 50.288 265.291 50.288ZM265.291 47.432C266.011 47.432 266.555 47.128 266.923 46.52C267.291 45.896 267.475 45.072 267.475 44.048C267.475 43.008 267.291 42.184 266.923 41.576C266.555 40.968 266.011 40.664 265.291 40.664C264.555 40.664 264.003 40.968 263.635 41.576C263.283 42.184 263.107 43.008 263.107 44.048C263.107 45.072 263.283 45.896 263.635 46.52C264.003 47.128 264.555 47.432 265.291 47.432ZM273.252 50V38.096H276.132L276.372 40.184H276.468C276.9 39.384 277.42 38.792 278.028 38.408C278.636 38.008 279.244 37.808 279.852 37.808C280.188 37.808 280.468 37.832 280.692 37.88C280.916 37.912 281.108 37.968 281.268 38.048L280.692 41.096C280.484 41.032 280.276 40.984 280.068 40.952C279.876 40.92 279.652 40.904 279.396 40.904C278.948 40.904 278.476 41.072 277.98 41.408C277.5 41.728 277.1 42.288 276.78 43.088V50H273.252ZM285.814 50.288C284.598 50.288 283.75 49.928 283.27 49.208C282.806 48.472 282.574 47.504 282.574 46.304V33.176H286.102V46.448C286.102 46.816 286.166 47.072 286.294 47.216C286.438 47.36 286.582 47.432 286.726 47.432C286.806 47.432 286.87 47.432 286.918 47.432C286.982 47.416 287.062 47.4 287.158 47.384L287.59 50C287.398 50.08 287.15 50.144 286.846 50.192C286.558 50.256 286.214 50.288 285.814 50.288ZM293.45 50.288C291.978 50.288 290.794 49.736 289.898 48.632C289.018 47.512 288.578 45.984 288.578 44.048C288.578 42.752 288.81 41.64 289.274 40.712C289.754 39.768 290.37 39.048 291.122 38.552C291.89 38.056 292.69 37.808 293.522 37.808C294.178 37.808 294.73 37.92 295.178 38.144C295.626 38.368 296.05 38.672 296.45 39.056L296.306 37.232V33.176H299.834V50H296.954L296.714 48.824H296.618C296.202 49.24 295.714 49.592 295.154 49.88C294.594 50.152 294.026 50.288 293.45 50.288ZM294.362 47.408C294.746 47.408 295.09 47.328 295.394 47.168C295.714 47.008 296.018 46.728 296.306 46.328V41.456C296.002 41.168 295.674 40.968 295.322 40.856C294.986 40.744 294.658 40.688 294.338 40.688C293.778 40.688 293.282 40.96 292.85 41.504C292.418 42.032 292.202 42.864 292.202 44C292.202 45.168 292.386 46.032 292.754 46.592C293.138 47.136 293.674 47.408 294.362 47.408Z" fill="black"/>
<path d="M55.9705 50V34.352H60.3865C61.9865 34.352 63.3705 34.624 64.5385 35.168C65.7065 35.712 66.6105 36.56 67.2505 37.712C67.9065 38.848 68.2345 40.312 68.2345 42.104C68.2345 43.896 67.9145 45.376 67.2745 46.544C66.6345 47.712 65.7385 48.584 64.5865 49.16C63.4505 49.72 62.1145 50 60.5785 50H55.9705ZM59.4985 47.144H60.1705C61.0665 47.144 61.8425 46.984 62.4985 46.664C63.1705 46.344 63.6905 45.816 64.0585 45.08C64.4265 44.344 64.6105 43.352 64.6105 42.104C64.6105 40.856 64.4265 39.88 64.0585 39.176C63.6905 38.456 63.1705 37.952 62.4985 37.664C61.8425 37.36 61.0665 37.208 60.1705 37.208H59.4985V47.144ZM70.6769 50V38.096H74.2049V50H70.6769ZM72.4289 36.344C71.8369 36.344 71.3569 36.176 70.9889 35.84C70.6209 35.504 70.4369 35.056 70.4369 34.496C70.4369 33.936 70.6209 33.488 70.9889 33.152C71.3569 32.816 71.8369 32.648 72.4289 32.648C73.0209 32.648 73.5009 32.816 73.8689 33.152C74.2369 33.488 74.4209 33.936 74.4209 34.496C74.4209 35.056 74.2369 35.504 73.8689 35.84C73.5009 36.176 73.0209 36.344 72.4289 36.344ZM81.3177 55.064C80.3897 55.064 79.5497 54.96 78.7977 54.752C78.0457 54.544 77.4457 54.216 76.9977 53.768C76.5497 53.32 76.3257 52.744 76.3257 52.04C76.3257 51.08 76.8937 50.28 78.0297 49.64V49.544C77.7257 49.336 77.4617 49.072 77.2377 48.752C77.0297 48.432 76.9257 48.024 76.9257 47.528C76.9257 47.096 77.0537 46.68 77.3097 46.28C77.5657 45.88 77.8857 45.552 78.2697 45.296V45.2C77.8537 44.912 77.4777 44.496 77.1417 43.952C76.8217 43.408 76.6617 42.792 76.6617 42.104C76.6617 41.144 76.8937 40.352 77.3577 39.728C77.8217 39.088 78.4297 38.608 79.1817 38.288C79.9337 37.968 80.7337 37.808 81.5817 37.808C82.2857 37.808 82.9017 37.904 83.4297 38.096H87.7737V40.664H85.8777C85.9897 40.84 86.0777 41.064 86.1417 41.336C86.2217 41.608 86.2617 41.904 86.2617 42.224C86.2617 43.136 86.0537 43.888 85.6377 44.48C85.2217 45.072 84.6617 45.512 83.9577 45.8C83.2537 46.088 82.4617 46.232 81.5817 46.232C81.1177 46.232 80.6377 46.152 80.1417 45.992C79.8537 46.232 79.7097 46.528 79.7097 46.88C79.7097 47.184 79.8457 47.408 80.1177 47.552C80.3897 47.696 80.8537 47.768 81.5097 47.768H83.4297C84.9017 47.768 86.0217 48.008 86.7897 48.488C87.5737 48.952 87.9657 49.72 87.9657 50.792C87.9657 51.608 87.6937 52.336 87.1497 52.976C86.6057 53.632 85.8377 54.144 84.8457 54.512C83.8537 54.88 82.6777 55.064 81.3177 55.064ZM81.5817 44.096C82.0457 44.096 82.4297 43.928 82.7337 43.592C83.0537 43.256 83.2137 42.76 83.2137 42.104C83.2137 41.48 83.0537 41.008 82.7337 40.688C82.4297 40.352 82.0457 40.184 81.5817 40.184C81.1177 40.184 80.7257 40.344 80.4057 40.664C80.1017 40.984 79.9497 41.464 79.9497 42.104C79.9497 42.76 80.1017 43.256 80.4057 43.592C80.7257 43.928 81.1177 44.096 81.5817 44.096ZM81.8697 52.856C82.6697 52.856 83.3257 52.712 83.8377 52.424C84.3497 52.136 84.6057 51.792 84.6057 51.392C84.6057 51.024 84.4457 50.776 84.1257 50.648C83.8217 50.52 83.3737 50.456 82.7817 50.456H81.5577C81.1577 50.456 80.8217 50.44 80.5497 50.408C80.2937 50.392 80.0697 50.36 79.8777 50.312C79.4457 50.696 79.2297 51.088 79.2297 51.488C79.2297 51.936 79.4697 52.272 79.9497 52.496C80.4457 52.736 81.0857 52.856 81.8697 52.856ZM89.65 50V38.096H93.178V50H89.65ZM91.402 36.344C90.81 36.344 90.33 36.176 89.962 35.84C89.594 35.504 89.41 35.056 89.41 34.496C89.41 33.936 89.594 33.488 89.962 33.152C90.33 32.816 90.81 32.648 91.402 32.648C91.994 32.648 92.474 32.816 92.842 33.152C93.21 33.488 93.394 33.936 93.394 34.496C93.394 35.056 93.21 35.504 92.842 35.84C92.474 36.176 91.994 36.344 91.402 36.344ZM100.627 50.288C99.1548 50.288 98.0988 49.864 97.4588 49.016C96.8348 48.168 96.5228 47.056 96.5228 45.68V40.856H94.8908V38.24L96.7148 38.096L97.1228 34.928H100.051V38.096H102.907V40.856H100.051V45.632C100.051 46.304 100.187 46.792 100.459 47.096C100.747 47.384 101.123 47.528 101.587 47.528C101.779 47.528 101.971 47.504 102.163 47.456C102.371 47.408 102.555 47.352 102.715 47.288L103.267 49.856C102.963 49.952 102.587 50.048 102.139 50.144C101.707 50.24 101.203 50.288 100.627 50.288ZM107.522 50.288C106.434 50.288 105.57 49.944 104.93 49.256C104.29 48.552 103.97 47.696 103.97 46.688C103.97 45.44 104.498 44.464 105.554 43.76C106.61 43.056 108.314 42.584 110.666 42.344C110.634 41.816 110.474 41.4 110.186 41.096C109.914 40.776 109.45 40.616 108.794 40.616C108.298 40.616 107.794 40.712 107.282 40.904C106.77 41.096 106.226 41.36 105.65 41.696L104.378 39.368C105.13 38.904 105.93 38.528 106.778 38.24C107.642 37.952 108.538 37.808 109.466 37.808C110.986 37.808 112.154 38.248 112.97 39.128C113.786 40.008 114.194 41.36 114.194 43.184V50H111.314L111.074 48.776H110.978C110.482 49.224 109.946 49.592 109.37 49.88C108.81 50.152 108.194 50.288 107.522 50.288ZM108.722 47.552C109.122 47.552 109.466 47.464 109.754 47.288C110.058 47.096 110.362 46.848 110.666 46.544V44.456C109.418 44.616 108.554 44.872 108.074 45.224C107.594 45.56 107.354 45.96 107.354 46.424C107.354 46.808 107.474 47.096 107.714 47.288C107.97 47.464 108.306 47.552 108.722 47.552ZM120.178 50.288C118.962 50.288 118.114 49.928 117.634 49.208C117.17 48.472 116.938 47.504 116.938 46.304V33.176H120.466V46.448C120.466 46.816 120.53 47.072 120.658 47.216C120.802 47.36 120.946 47.432 121.09 47.432C121.17 47.432 121.234 47.432 121.282 47.432C121.346 47.416 121.426 47.4 121.522 47.384L121.954 50C121.762 50.08 121.514 50.144 121.21 50.192C120.922 50.256 120.578 50.288 120.178 50.288ZM126.805 50.288C125.589 50.288 124.741 49.928 124.261 49.208C123.797 48.472 123.565 47.504 123.565 46.304V33.176H127.093V46.448C127.093 46.816 127.157 47.072 127.285 47.216C127.429 47.36 127.573 47.432 127.717 47.432C127.797 47.432 127.861 47.432 127.909 47.432C127.973 47.416 128.053 47.4 128.149 47.384L128.581 50C128.389 50.08 128.141 50.144 127.837 50.192C127.549 50.256 127.205 50.288 126.805 50.288ZM131.512 54.656C131.16 54.656 130.848 54.632 130.576 54.584C130.32 54.536 130.072 54.48 129.832 54.416L130.456 51.728C130.568 51.744 130.696 51.768 130.84 51.8C130.984 51.848 131.12 51.872 131.248 51.872C131.84 51.872 132.296 51.728 132.616 51.44C132.936 51.152 133.176 50.776 133.336 50.312L133.504 49.688L128.92 38.096H132.472L134.176 43.208C134.352 43.752 134.512 44.304 134.656 44.864C134.8 45.424 134.952 46 135.112 46.592H135.208C135.336 46.032 135.464 45.472 135.592 44.912C135.736 44.336 135.88 43.768 136.024 43.208L137.464 38.096H140.848L136.72 50.12C136.352 51.112 135.944 51.944 135.496 52.616C135.048 53.304 134.504 53.816 133.864 54.152C133.24 54.488 132.456 54.656 131.512 54.656ZM147.321 50V34.352H157.113V37.328H150.849V40.472H156.177V43.424H150.849V47.024H157.353V50H147.321ZM162.443 50L158.435 38.096H161.987L163.523 43.712C163.683 44.304 163.835 44.912 163.979 45.536C164.139 46.144 164.299 46.76 164.459 47.384H164.555C164.699 46.76 164.843 46.144 164.987 45.536C165.147 44.912 165.307 44.304 165.467 43.712L167.027 38.096H170.411L166.523 50H162.443ZM176.954 50.288C175.946 50.288 174.994 50.048 174.098 49.568C173.218 49.072 172.506 48.36 171.962 47.432C171.418 46.488 171.146 45.36 171.146 44.048C171.146 42.72 171.418 41.592 171.962 40.664C172.506 39.736 173.218 39.032 174.098 38.552C174.994 38.056 175.946 37.808 176.954 37.808C177.962 37.808 178.906 38.056 179.786 38.552C180.666 39.032 181.378 39.736 181.922 40.664C182.466 41.592 182.738 42.72 182.738 44.048C182.738 45.36 182.466 46.488 181.922 47.432C181.378 48.36 180.666 49.072 179.786 49.568C178.906 50.048 177.962 50.288 176.954 50.288ZM176.954 47.432C177.674 47.432 178.218 47.128 178.586 46.52C178.954 45.896 179.138 45.072 179.138 44.048C179.138 43.008 178.954 42.184 178.586 41.576C178.218 40.968 177.674 40.664 176.954 40.664C176.218 40.664 175.666 40.968 175.298 41.576C174.946 42.184 174.77 43.008 174.77 44.048C174.77 45.072 174.946 45.896 175.298 46.52C175.666 47.128 176.218 47.432 176.954 47.432ZM188.154 50.288C186.938 50.288 186.09 49.928 185.61 49.208C185.146 48.472 184.914 47.504 184.914 46.304V33.176H188.442V46.448C188.442 46.816 188.506 47.072 188.634 47.216C188.778 47.36 188.922 47.432 189.066 47.432C189.146 47.432 189.21 47.432 189.258 47.432C189.322 47.416 189.402 47.4 189.498 47.384L189.93 50C189.738 50.08 189.49 50.144 189.186 50.192C188.898 50.256 188.554 50.288 188.154 50.288ZM194.277 50L190.269 38.096H193.821L195.357 43.712C195.517 44.304 195.669 44.912 195.813 45.536C195.973 46.144 196.133 46.76 196.293 47.384H196.389C196.533 46.76 196.677 46.144 196.821 45.536C196.981 44.912 197.141 44.304 197.301 43.712L198.861 38.096H202.245L198.357 50H194.277ZM203.864 50V38.096H207.392V50H203.864ZM205.616 36.344C205.024 36.344 204.544 36.176 204.176 35.84C203.808 35.504 203.624 35.056 203.624 34.496C203.624 33.936 203.808 33.488 204.176 33.152C204.544 32.816 205.024 32.648 205.616 32.648C206.208 32.648 206.688 32.816 207.056 33.152C207.424 33.488 207.608 33.936 207.608 34.496C207.608 35.056 207.424 35.504 207.056 35.84C206.688 36.176 206.208 36.344 205.616 36.344ZM210.257 50V38.096H213.137L213.377 39.608H213.473C213.985 39.128 214.545 38.712 215.153 38.36C215.777 37.992 216.489 37.808 217.289 37.808C218.585 37.808 219.521 38.24 220.097 39.104C220.689 39.952 220.985 41.12 220.985 42.608V50H217.457V43.064C217.457 42.2 217.337 41.608 217.097 41.288C216.873 40.968 216.505 40.808 215.993 40.808C215.545 40.808 215.161 40.912 214.841 41.12C214.521 41.312 214.169 41.592 213.785 41.96V50H210.257ZM227.999 55.064C227.071 55.064 226.231 54.96 225.479 54.752C224.727 54.544 224.127 54.216 223.679 53.768C223.231 53.32 223.007 52.744 223.007 52.04C223.007 51.08 223.575 50.28 224.711 49.64V49.544C224.407 49.336 224.143 49.072 223.919 48.752C223.711 48.432 223.607 48.024 223.607 47.528C223.607 47.096 223.735 46.68 223.991 46.28C224.247 45.88 224.567 45.552 224.951 45.296V45.2C224.535 44.912 224.159 44.496 223.823 43.952C223.503 43.408 223.343 42.792 223.343 42.104C223.343 41.144 223.575 40.352 224.039 39.728C224.503 39.088 225.111 38.608 225.863 38.288C226.615 37.968 227.415 37.808 228.263 37.808C228.967 37.808 229.583 37.904 230.111 38.096H234.455V40.664H232.559C232.671 40.84 232.759 41.064 232.823 41.336C232.903 41.608 232.943 41.904 232.943 42.224C232.943 43.136 232.735 43.888 232.319 44.48C231.903 45.072 231.343 45.512 230.639 45.8C229.935 46.088 229.143 46.232 228.263 46.232C227.799 46.232 227.319 46.152 226.823 45.992C226.535 46.232 226.391 46.528 226.391 46.88C226.391 47.184 226.527 47.408 226.799 47.552C227.071 47.696 227.535 47.768 228.191 47.768H230.111C231.583 47.768 232.703 48.008 233.471 48.488C234.255 48.952 234.647 49.72 234.647 50.792C234.647 51.608 234.375 52.336 233.831 52.976C233.287 53.632 232.519 54.144 231.527 54.512C230.535 54.88 229.359 55.064 227.999 55.064ZM228.263 44.096C228.727 44.096 229.111 43.928 229.415 43.592C229.735 43.256 229.895 42.76 229.895 42.104C229.895 41.48 229.735 41.008 229.415 40.688C229.111 40.352 228.727 40.184 228.263 40.184C227.799 40.184 227.407 40.344 227.087 40.664C226.783 40.984 226.631 41.464 226.631 42.104C226.631 42.76 226.783 43.256 227.087 43.592C227.407 43.928 227.799 44.096 228.263 44.096ZM228.551 52.856C229.351 52.856 230.007 52.712 230.519 52.424C231.031 52.136 231.287 51.792 231.287 51.392C231.287 51.024 231.127 50.776 230.807 50.648C230.503 50.52 230.055 50.456 229.463 50.456H228.239C227.839 50.456 227.503 50.44 227.231 50.408C226.975 50.392 226.751 50.36 226.559 50.312C226.127 50.696 225.911 51.088 225.911 51.488C225.911 51.936 226.151 52.272 226.631 52.496C227.127 52.736 227.767 52.856 228.551 52.856ZM242.576 50L239.672 34.352H243.296L244.376 41.672C244.472 42.488 244.576 43.312 244.688 44.144C244.8 44.96 244.904 45.784 245 46.616H245.096C245.256 45.784 245.408 44.96 245.552 44.144C245.712 43.312 245.872 42.488 246.032 41.672L247.712 34.352H250.712L252.392 41.672C252.552 42.456 252.704 43.264 252.848 44.096C253.008 44.928 253.168 45.768 253.328 46.616H253.424C253.536 45.768 253.64 44.936 253.736 44.12C253.848 43.288 253.96 42.472 254.072 41.672L255.152 34.352H258.536L255.752 50H251.312L249.776 42.896C249.648 42.288 249.528 41.68 249.416 41.072C249.32 40.448 249.232 39.848 249.152 39.272H249.056C248.96 39.848 248.856 40.448 248.744 41.072C248.648 41.68 248.536 42.288 248.408 42.896L246.944 50H242.576ZM265.291 50.288C264.283 50.288 263.331 50.048 262.435 49.568C261.555 49.072 260.843 48.36 260.299 47.432C259.755 46.488 259.483 45.36 259.483 44.048C259.483 42.72 259.755 41.592 260.299 40.664C260.843 39.736 261.555 39.032 262.435 38.552C263.331 38.056 264.283 37.808 265.291 37.808C266.299 37.808 267.243 38.056 268.123 38.552C269.003 39.032 269.715 39.736 270.259 40.664C270.803 41.592 271.075 42.72 271.075 44.048C271.075 45.36 270.803 46.488 270.259 47.432C269.715 48.36 269.003 49.072 268.123 49.568C267.243 50.048 266.299 50.288 265.291 50.288ZM265.291 47.432C266.011 47.432 266.555 47.128 266.923 46.52C267.291 45.896 267.475 45.072 267.475 44.048C267.475 43.008 267.291 42.184 266.923 41.576C266.555 40.968 266.011 40.664 265.291 40.664C264.555 40.664 264.003 40.968 263.635 41.576C263.283 42.184 263.107 43.008 263.107 44.048C263.107 45.072 263.283 45.896 263.635 46.52C264.003 47.128 264.555 47.432 265.291 47.432ZM273.252 50V38.096H276.132L276.372 40.184H276.468C276.9 39.384 277.42 38.792 278.028 38.408C278.636 38.008 279.244 37.808 279.852 37.808C280.188 37.808 280.468 37.832 280.692 37.88C280.916 37.912 281.108 37.968 281.268 38.048L280.692 41.096C280.484 41.032 280.276 40.984 280.068 40.952C279.876 40.92 279.652 40.904 279.396 40.904C278.948 40.904 278.476 41.072 277.98 41.408C277.5 41.728 277.1 42.288 276.78 43.088V50H273.252ZM285.814 50.288C284.598 50.288 283.75 49.928 283.27 49.208C282.806 48.472 282.574 47.504 282.574 46.304V33.176H286.102V46.448C286.102 46.816 286.166 47.072 286.294 47.216C286.438 47.36 286.582 47.432 286.726 47.432C286.806 47.432 286.87 47.432 286.918 47.432C286.982 47.416 287.062 47.4 287.158 47.384L287.59 50C287.398 50.08 287.15 50.144 286.846 50.192C286.558 50.256 286.214 50.288 285.814 50.288ZM293.45 50.288C291.978 50.288 290.794 49.736 289.898 48.632C289.018 47.512 288.578 45.984 288.578 44.048C288.578 42.752 288.81 41.64 289.274 40.712C289.754 39.768 290.37 39.048 291.122 38.552C291.89 38.056 292.69 37.808 293.522 37.808C294.178 37.808 294.73 37.92 295.178 38.144C295.626 38.368 296.05 38.672 296.45 39.056L296.306 37.232V33.176H299.834V50H296.954L296.714 48.824H296.618C296.202 49.24 295.714 49.592 295.154 49.88C294.594 50.152 294.026 50.288 293.45 50.288ZM294.362 47.408C294.746 47.408 295.09 47.328 295.394 47.168C295.714 47.008 296.018 46.728 296.306 46.328V41.456C296.002 41.168 295.674 40.968 295.322 40.856C294.986 40.744 294.658 40.688 294.338 40.688C293.778 40.688 293.282 40.96 292.85 41.504C292.418 42.032 292.202 42.864 292.202 44C292.202 45.168 292.386 46.032 292.754 46.592C293.138 47.136 293.674 47.408 294.362 47.408Z" fill="url(#paint0_linear_509_23311)"/>
<defs>
<linearGradient id="paint0_linear_509_23311" x1="1" y1="-10" x2="127.413" y2="90.1118" gradientUnits="userSpaceOnUse">
<stop offset="0.173456" stop-color="#EA4D5A"/>
<stop offset="1" stop-color="#4D9F98"/>
</linearGradient>
</defs>
</svg>
