<svg width="35" height="35" viewBox="0 0 35 35" fill="none" xmlns="http://www.w3.org/2000/svg">
<path d="M25.7586 12.3778C25.1506 12.6478 24.4976 12.8295 23.8122 12.9114C24.5122 12.4922 25.049 11.8283 25.3018 11.0368C24.6475 11.425 23.9221 11.707 23.1496 11.8595C22.5315 11.2007 21.651 10.7891 20.6765 10.7891C18.8051 10.7891 17.2881 12.3067 17.2881 14.1775C17.2881 14.443 17.3186 14.7022 17.3758 14.9493C14.5597 14.8083 12.0631 13.459 10.3911 11.4084C10.1002 11.909 9.93312 12.4909 9.93312 13.1128C9.93312 14.288 10.5309 15.3254 11.4399 15.9327C10.8847 15.9149 10.3619 15.7625 9.90517 15.509C9.90517 15.5236 9.90517 15.537 9.90517 15.5516C9.90517 17.1937 11.0728 18.5633 12.6234 18.8739C12.3395 18.9514 12.0396 18.9927 11.7303 18.9927C11.5124 18.9927 11.2996 18.9711 11.0931 18.9324C11.5244 20.2785 12.7759 21.2587 14.2586 21.286C13.0992 22.195 11.6381 22.7369 10.05 22.7369C9.77685 22.7369 9.50687 22.721 9.24133 22.6893C10.7412 23.6504 12.5218 24.2113 14.4358 24.2113C20.6689 24.2113 24.0764 19.048 24.0764 14.5701C24.0764 14.4234 24.0732 14.2772 24.0669 14.1318C24.7295 13.6534 25.3044 13.0569 25.7586 12.3778Z" fill="#D2D2D2"/>
<rect x="0.52069" y="0.52069" width="33.9586" height="33.9586" rx="16.9793" stroke="#D2D2D2" stroke-width="1.04138"/>
</svg>
