<svg width="36" height="36" viewBox="0 0 36 36" fill="none" xmlns="http://www.w3.org/2000/svg">
<path d="M26.925 13.8361C26.7112 13.0946 26.0852 12.51 25.2911 12.3103C23.8405 11.9396 18.0378 11.9396 18.0378 11.9396C18.0378 11.9396 12.2352 11.9396 10.7846 12.2961C10.0058 12.4957 9.36445 13.0946 9.15067 13.8361C8.76892 15.1908 8.76892 18.0001 8.76892 18.0001C8.76892 18.0001 8.76892 20.8235 9.15067 22.164C9.36445 22.9055 9.99053 23.4901 10.7846 23.6898C12.2505 24.0605 18.0378 24.0605 18.0378 24.0605C18.0378 24.0605 23.8405 24.0605 25.2911 23.704C26.0852 23.5044 26.7112 22.9197 26.925 22.1782C27.3068 20.8235 27.3068 18.0143 27.3068 18.0143C27.3068 18.0143 27.322 15.1908 26.925 13.8361Z" fill="#D2D2D2"/>
<path d="M21.0153 18.001L16.1899 15.4056V20.5963L21.0153 18.001Z" fill="#2C3E47"/>
<rect x="1.28961" y="1.02069" width="33.4966" height="33.9586" rx="16.7483" stroke="#D2D2D2" stroke-width="1.04138"/>
</svg>
