<svg width="36" height="36" viewBox="0 0 36 36" fill="none" xmlns="http://www.w3.org/2000/svg">
<path d="M26.5276 12.8776C25.9196 13.1476 25.2666 13.3293 24.5811 13.4112C25.2812 12.9919 25.818 12.3281 26.0708 11.5366C25.4165 11.9247 24.691 12.2068 23.9186 12.3592C23.3005 11.7005 22.42 11.2888 21.4455 11.2888C19.5741 11.2888 18.0571 12.8064 18.0571 14.6773C18.0571 14.9428 18.0876 15.202 18.1447 15.4491C15.3287 15.3081 12.8321 13.9588 11.1601 11.9082C10.8692 12.4088 10.7021 12.9907 10.7021 13.6126C10.7021 14.7878 11.2999 15.8252 12.2089 16.4325C11.6537 16.4147 11.1309 16.2622 10.6742 16.0088C10.6742 16.0234 10.6742 16.0367 10.6742 16.0513C10.6742 17.6934 11.8418 19.0631 13.3924 19.3737C13.1084 19.4512 12.8086 19.4925 12.4992 19.4925C12.2813 19.4925 12.0685 19.4709 11.8621 19.4321C12.2934 20.7782 13.5449 21.7584 15.0276 21.7858C13.8682 22.6948 12.4071 23.2367 10.819 23.2367C10.5458 23.2367 10.2759 23.2208 10.0103 23.189C11.5102 24.1502 13.2908 24.7111 15.2048 24.7111C21.4379 24.7111 24.8454 19.5478 24.8454 15.0699C24.8454 14.9231 24.8422 14.777 24.8359 14.6315C25.4984 14.1532 26.0734 13.5567 26.5276 12.8776Z" fill="#D2D2D2"/>
<rect x="1.28961" y="1.02069" width="33.9586" height="33.9586" rx="16.9793" stroke="#D2D2D2" stroke-width="1.04138"/>
</svg>
