<svg width="36" height="36" viewBox="0 0 36 36" fill="none" xmlns="http://www.w3.org/2000/svg">
<path d="M23.8105 10.8756C24.2305 10.8756 24.6332 11.0424 24.9301 11.3394C25.227 11.6363 25.3939 12.039 25.3939 12.4589V23.5423C25.3939 23.9622 25.227 24.3649 24.9301 24.6619C24.6332 24.9588 24.2305 25.1256 23.8105 25.1256H12.7272C12.3073 25.1256 11.9045 24.9588 11.6076 24.6619C11.3107 24.3649 11.1439 23.9622 11.1439 23.5423V12.4589C11.1439 12.039 11.3107 11.6363 11.6076 11.3394C11.9045 11.0424 12.3073 10.8756 12.7272 10.8756H23.8105ZM23.4147 23.1464V18.9506C23.4147 18.2661 23.1428 17.6097 22.6588 17.1257C22.1748 16.6417 21.5183 16.3698 20.8339 16.3698C20.1609 16.3698 19.3772 16.7814 18.9972 17.3989V16.5202H16.7884V23.1464H18.9972V19.2435C18.9972 18.6339 19.488 18.1352 20.0976 18.1352C20.3916 18.1352 20.6735 18.252 20.8813 18.4598C21.0892 18.6677 21.2059 18.9496 21.2059 19.2435V23.1464H23.4147ZM14.2155 15.2773C14.5683 15.2773 14.9066 15.1372 15.156 14.8877C15.4054 14.6383 15.5455 14.3 15.5455 13.9473C15.5455 13.211 14.9518 12.6094 14.2155 12.6094C13.8607 12.6094 13.5204 12.7503 13.2695 13.0012C13.0186 13.2521 12.8776 13.5924 12.8776 13.9473C12.8776 14.6835 13.4793 15.2773 14.2155 15.2773ZM15.3159 23.1464V16.5202H13.123V23.1464H15.3159Z" fill="#D2D2D2"/>
<rect x="1.28961" y="1.02069" width="33.9586" height="33.9586" rx="16.9793" stroke="#D2D2D2" stroke-width="1.04138"/>
</svg>
