<svg width="49" height="57" viewBox="0 0 49 57" fill="none" xmlns="http://www.w3.org/2000/svg">
<path d="M13.3957 15.878H8.33442C7.85847 15.878 7.47267 16.2628 7.47267 16.7376V21.7866C7.47267 22.2614 7.85846 22.6462 8.33442 22.6462H13.3957C13.8717 22.6462 14.2575 22.2614 14.2575 21.7866V16.7376C14.2567 16.2628 13.8708 15.878 13.3957 15.878ZM12.534 20.9273H9.19543V17.5969H12.534V20.9273ZM18.1328 16.738C18.1328 16.2632 18.5186 15.8784 18.9946 15.8784H31.863C32.339 15.8784 32.7248 16.2632 32.7248 16.738C32.7248 17.2128 32.339 17.5977 31.863 17.5977H18.9956C18.5193 17.5969 18.1335 17.212 18.1335 16.738H18.1328ZM18.1328 21.7862C18.1328 21.3114 18.5186 20.9265 18.9946 20.9265H31.863C32.339 20.9265 32.7248 21.3114 32.7248 21.7862C32.7248 22.261 32.339 22.6458 31.863 22.6458H18.9956C18.5193 22.6454 18.1335 22.2606 18.1335 21.7862H18.1328ZM13.3957 27.3718H8.33441C7.85846 27.3718 7.47266 27.7567 7.47266 28.2315V33.2804C7.47266 33.7548 7.85845 34.1401 8.33441 34.1401H13.3957C13.8716 34.1401 14.2575 33.7552 14.2575 33.2804V28.2315C14.2566 27.7567 13.8708 27.3718 13.3957 27.3718ZM12.5339 32.4212H9.19542V29.0908H12.5339V32.4212ZM18.1328 28.2316C18.1328 27.7568 18.5186 27.3719 18.9946 27.3719H31.863C32.3389 27.3719 32.7248 27.7568 32.7248 28.2316C32.7248 28.7064 32.339 29.0908 31.863 29.0908H18.9956C18.5193 29.0908 18.1335 28.7068 18.1335 28.2316H18.1328ZM18.1328 33.2801C18.1328 32.8057 18.5186 32.4204 18.9946 32.4204H31.863C32.3389 32.4204 32.7248 32.8053 32.7248 33.2801C32.7248 33.7549 32.339 34.1398 31.863 34.1398H18.9956C18.5193 34.1398 18.1335 33.7549 18.1335 33.2801H18.1328ZM13.3957 38.8666H8.3344C7.85845 38.8666 7.47265 39.2514 7.47265 39.7262V44.7752C7.47265 45.2496 7.85844 45.6348 8.3344 45.6348H13.3957C13.8716 45.6348 14.2574 45.25 14.2574 44.7752V39.7255C14.2566 39.2511 13.8708 38.8667 13.3957 38.8667V38.8666ZM12.5339 43.9151H9.19541V40.5847H12.5339V43.9151ZM27.3454 39.7255C27.3454 40.1999 26.9596 40.5851 26.4837 40.5851H18.9948C18.5188 40.5851 18.133 40.2003 18.133 39.7255C18.133 39.2507 18.5188 38.8658 18.9948 38.8658H26.4837C26.9596 38.8667 27.3454 39.2511 27.3454 39.7255ZM27.3454 44.7749C27.3454 45.2493 26.9596 45.6345 26.4837 45.6345H18.9948C18.5188 45.6345 18.133 45.2497 18.133 44.7749C18.133 44.3005 18.5188 43.9152 18.9948 43.9152H26.4837C26.9596 43.9152 27.3454 44.2997 27.3454 44.7749ZM44.0074 42.7927C44.3453 43.1265 44.3481 43.6706 44.0135 44.008L38.1454 49.9199C37.9841 50.0827 37.7644 50.1739 37.5354 50.1747H37.533C37.3043 50.1747 37.0854 50.0839 36.9242 49.9231L33.6607 46.6676C33.3241 46.3317 33.3241 45.7881 33.6607 45.4522C33.9974 45.1164 34.5424 45.1172 34.8791 45.4522L37.5297 48.0964L42.7883 42.7979C43.1237 42.4612 43.6687 42.4584 44.0075 42.7926L44.0074 42.7927ZM39.697 36.7569V9.59457C39.697 7.93647 38.3447 6.5866 36.6817 6.5866H29.2517V4.65295C29.2517 4.17816 28.8659 3.79329 28.3899 3.79329H24.2817C23.5954 2.11933 21.9609 1 20.0977 1C18.2345 1 16.6003 2.11933 15.9136 3.79329H11.8055C11.3295 3.79329 10.9437 4.17815 10.9437 4.65295V6.5866H3.51532C1.85234 6.5866 0.5 7.93564 0.5 9.59457V49.1252C0.5 50.7842 1.85234 52.1332 3.51532 52.1332H31.1006C32.8656 54.4792 35.6758 56 38.8356 56C44.1645 56 48.5 51.675 48.5 46.3591C48.5004 41.3325 44.6238 37.1934 39.6969 36.7571L39.697 36.7569ZM12.669 5.51259H16.5399C16.9379 5.51259 17.2839 5.24035 17.3773 4.85427C17.6811 3.59722 18.8006 2.71933 20.099 2.71933C21.3973 2.71933 22.517 3.5972 22.8207 4.85427C22.9141 5.24035 23.2606 5.51259 23.6581 5.51259H27.529V9.37937L12.6687 9.37978L12.669 5.51259ZM3.51585 50.4143C2.80314 50.4143 2.22361 49.8358 2.22361 49.1252V9.59457C2.22361 8.88359 2.80352 8.30547 3.51585 8.30547H10.9459V10.2391C10.9459 10.7139 11.3317 11.0988 11.8077 11.0988H28.3907C28.8666 11.0988 29.2524 10.7139 29.2524 10.2391V8.30547H36.6825C37.3952 8.30547 37.9747 8.88396 37.9747 9.59457V36.7569C33.0479 37.1932 29.1716 41.3331 29.1716 46.3589C29.1716 47.8068 29.4937 49.1805 30.0691 50.4141H3.51617L3.51585 50.4143ZM38.8359 54.2815C34.4569 54.2815 30.8937 50.7274 30.8937 46.3595C30.8937 41.9912 34.4565 38.4375 38.8359 38.4375C43.2149 38.4375 46.7773 41.9916 46.7773 46.3595C46.7781 50.7279 43.2153 54.2815 38.8359 54.2815Z" fill="#2E5053" stroke="#2E5053"/>
</svg>
