<svg width="45" height="53" viewBox="0 0 45 53" fill="none" xmlns="http://www.w3.org/2000/svg">
<path d="M0.957692 35.9778L0.957973 35.9784C3.42545 40.7299 8.64836 44.7597 13.2236 47.594C17.8083 50.4342 21.7877 52.1009 21.817 52.113L21.9126 51.882L21.816 52.1126C22.2382 52.2894 22.7281 52.3032 23.1841 52.1119L23.1844 52.1118L23.1846 52.1117L23.1853 52.1113L23.188 52.1102L23.1972 52.1063L23.2315 52.0918C23.2611 52.0792 23.3044 52.0607 23.3605 52.0364C23.4727 51.9877 23.6363 51.916 23.8454 51.822C24.2636 51.6339 24.8642 51.3567 25.6003 50.997C27.0723 50.2777 29.0876 49.2281 31.2724 47.9018C35.6332 45.2545 40.7034 41.4846 43.451 37.0162L43.451 37.0162C43.4818 36.9661 43.5151 36.9129 43.5499 36.8573C43.6792 36.6506 43.83 36.4099 43.9551 36.1639C44.1132 35.8531 44.25 35.4986 44.25 35.1478L44.25 6.75752L44.25 6.7561C44.2435 5.62002 43.2078 4.74844 42.0813 4.99864L42.0798 4.99897L42.0797 4.99901C42.0301 5.01041 32.2933 7.25092 23.5354 1.08496C22.9395 0.654467 22.115 0.626196 21.4803 1.0743C13.0233 7.0387 3.64857 5.15672 2.96041 5.00809C1.84206 4.72969 0.75 5.58776 0.75 6.75785V6.7579L0.755983 35.1481C0.755983 35.1481 0.755983 35.1481 0.755983 35.1481C0.755991 35.4284 0.820978 35.713 0.957692 35.9778ZM19.8929 32.2205L12.3238 24.6628L12.3234 24.6625C11.9158 24.2571 11.4425 24.0985 10.9862 24.1326C10.5366 24.1663 10.1237 24.3851 9.81894 24.6983C9.51414 25.0116 9.30546 25.4315 9.27975 25.8842C9.2537 26.343 9.41707 26.8172 9.82449 27.2224C9.8246 27.2225 9.82471 27.2226 9.82481 27.2227L18.8198 36.2042L18.8202 36.2046C19.5211 36.9014 20.6505 36.8918 21.3397 36.1835L21.3498 36.1732L21.3585 36.1618L35.7405 17.5109L35.7407 17.5107C36.0918 17.054 36.1915 16.5614 36.1051 16.1094C36.0198 15.6634 35.757 15.2744 35.4129 15.0042C35.0689 14.734 34.6299 14.5721 34.1791 14.5988C33.7217 14.626 33.2729 14.8466 32.9219 15.3033L19.8929 32.2205ZM22.5 48.4908C21.0613 47.8429 17.5526 46.1775 13.8953 43.8023C10.1609 41.3769 6.30533 38.2329 4.3192 34.7008V8.84242C7.89651 9.20629 15.3774 9.24331 22.5 4.69977C29.6231 9.24328 37.1038 9.20593 40.6808 8.8424V34.7009C38.695 38.233 34.8394 41.3772 31.1049 43.8026C27.4476 46.1778 23.9387 47.8432 22.5 48.4908Z" fill="#284E53" stroke="#284E53" stroke-width="0.5"/>
</svg>
